<svg id="ab-1-m" xmlns="http://www.w3.org/2000/svg" width="91.134" height="111.801" viewBox="0 0 91.134 111.801">
  <path id="Path_613" data-name="Path 613" d="M108.756,62.45S86.089,71.679,83.444,91.226s-11.734,22.75-11.734,22.75,27.56,6.555,41.338-3.479,28.176-3.075,31.912-15.708,4.991-19.8-5.334-24.129S108.756,62.45,108.756,62.45Z" transform="translate(-71.684 -33.203)" fill="#ffd200"/>
  <path id="Path_614" data-name="Path 614" d="M99.9,87.287a18.941,18.941,0,0,0-8.617,14.277c-.771,9.773-3.374,23.159-19.645,23.476,0,0,24.031,5.81,38.293-1.628s33.057-9.373,34.141-16.317-1.466-23.23-1.466-23.23L132.6,80.986l-17.076-.756Z" transform="translate(-71.64 -44.266)" opacity="0.04"/>
  <path id="Path_615" data-name="Path 615" d="M233.671,62.45s14.477,7.155,17.677,19.3-16.056,21.205-16.056,21.205l-2.6-3.427s17.416-16.9.982-22.883C219.874,71.619,233.671,62.45,233.671,62.45Z" transform="translate(-168.642 -33.203)" fill="#f4a28c"/>
  <path id="Path_616" data-name="Path 616" d="M237.912,63.84s9.823,4.42,14.228,13.223l-9.362,6.422s-.756-3.049-5.633-4.56-4.533-3.287-4.533-3.287Z" transform="translate(-171.795 -34.068)" fill="#eb2424"/>
  <path id="Path_617" data-name="Path 617" d="M237.912,63.84s9.823,4.42,14.228,13.223l-9.362,6.422s-.756-3.049-5.633-4.56-4.533-3.287-4.533-3.287Z" transform="translate(-171.795 -34.068)" fill="#fff" opacity="0.34"/>
  <ellipse id="Ellipse_94" data-name="Ellipse 94" cx="39.222" cy="4.182" rx="39.222" ry="4.182" transform="translate(12.69 103.437)" fill="#e6e6e6" opacity="0.45"/>
  <path id="Path_618" data-name="Path 618" d="M214.576,29.367s.936,6.6,0,11.1a3.358,3.358,0,0,1-1.564,2.123,3.85,3.85,0,0,1-2.725.471c-2.406-.495-5.519-1.817-6.531-5.3l-2.417-5.723a5.761,5.761,0,0,1,2.536-6.5C207.783,22.634,214.228,25.319,214.576,29.367Z" transform="translate(-153.092 -19.957)" fill="#f4a28c"/>
  <path id="Path_619" data-name="Path 619" d="M201.733,32.95,199.26,54.632l12.052.5-3.038-15.979Z" transform="translate(-153.109 -20.385)" fill="#f4a28c"/>
  <path id="Path_620" data-name="Path 620" d="M213.821,33.47l1.968,2.473a1.07,1.07,0,0,1-.6,1.706l-2.524.585Z" transform="translate(-151.973 -20.098)" fill="#f4a28c"/>
  <path id="Path_621" data-name="Path 621" d="M173.04,158.41l25.739.824-.918,4.549H174.037Z" transform="translate(-134.732 -92.911)" fill="#ffd200"/>
  <path id="Path_622" data-name="Path 622" d="M209.038,42.56A7.9,7.9,0,0,1,205,40.41s.353,3.977,4.906,7.722Z" transform="translate(-152.534 -20.186)" fill="#ce8172" opacity="0.31"/>
  <path id="Path_623" data-name="Path 623" d="M213.155,29.68a12.9,12.9,0,0,1-1.592.394,11.325,11.325,0,0,0-2.223.707l-.577.232a2.134,2.134,0,0,0-1.347,2.019c0,2.12-.705,6.057-6.145,6.46,0,0-5.536-7.823-1.069-13.839A14.927,14.927,0,0,1,211.317,20C217.206,19.859,218.788,27.934,213.155,29.68Z" transform="translate(-153.117 -19.998)" fill="#24285b"/>
  <path id="Path_624" data-name="Path 624" d="M206.759,36.563a1.645,1.645,0,0,0,.273-1.645c-.373-.9-1.1-2.079-2.312-1.908s-1.484,2.17-.626,3.483a1.676,1.676,0,0,0,2.705.071Z" transform="translate(-152.699 -20.091)" fill="#f4a28c"/>
  <path id="Path_625" data-name="Path 625" d="M173.875,54.4l4.511.189s22.01-.892,17.159,17.035-5.837,22.883-5.837,22.883l-25.754-.824S146.478,53.407,173.875,54.4Z" transform="translate(-125.662 -28.183)" fill="#eb2424"/>
  <ellipse id="Ellipse_95" data-name="Ellipse 95" cx="5.98" cy="5.98" rx="5.98" ry="5.98" transform="translate(45.58 37.46)" fill="#fff" opacity="0.34"/>
  <path id="Path_626" data-name="Path 626" d="M140.081,62.45s-14.477,7.155-17.669,19.3,16.056,21.205,16.056,21.205l2.6-3.427s-17.416-16.9-.982-22.883C153.878,71.619,140.081,62.45,140.081,62.45Z" transform="translate(-103.008 -33.203)" fill="#f4a28c"/>
  <path id="Path_627" data-name="Path 627" d="M168.795,94.206a43.327,43.327,0,0,0,5.6,29.577h-8.927l-1.012-5.368s-4.783-12.135-5.18-18.742S168.795,94.206,168.795,94.206Z" transform="translate(-126.158 -52.916)" opacity="0.08"/>
  <path id="Path_628" data-name="Path 628" d="M150.482,62.45s-7.556,3.778-11.711,8.209l6.993,9.3s11.912-2.539,11.5-9.3A9.051,9.051,0,0,0,150.482,62.45Z" transform="translate(-113.409 -33.203)" fill="#eb2424"/>
  <path id="Path_629" data-name="Path 629" d="M150.482,62.45s-7.556,3.778-11.711,8.209l6.993,9.3s11.912-2.539,11.5-9.3A9.051,9.051,0,0,0,150.482,62.45Z" transform="translate(-113.409 -33.203)" fill="#fff" opacity="0.34"/>
  <path id="Path_630" data-name="Path 630" d="M169.458,172.62l-3.778,35.134h2.765s6.422-27.613,12.784-29.154S193.5,207.754,193.5,207.754h3.275l-3.51-35.134Z" transform="translate(-130.153 -101.752)" fill="#24285b"/>
  <path id="Path_631" data-name="Path 631" d="M169.77,55.825s12.754-9.392,29.044.525C198.814,56.35,178.312,67.343,169.77,55.825Z" transform="translate(-132.697 -26.578)" fill="#ffd200"/>
  <path id="Path_632" data-name="Path 632" d="M150.34,152.848l4.318-4.8,6.075,6.324a4.258,4.258,0,0,1,1.171,3.347c-.155,1.59-.684,3.521-2.346,3.589-2.845.121-1.889-3.555-1.889-3.555Z" transform="translate(-120.608 -86.464)" fill="#eb2424"/>
  <path id="Path_633" data-name="Path 633" d="M244.507,152.848l-4.311-4.8-5.565,5.8a5.6,5.6,0,0,0-1.383,5.47c.325,1.062.929,1.949,2.048,1.995,2.845.121,1.889-3.555,1.889-3.555Z" transform="translate(-172.059 -86.464)" fill="#eb2424"/>
  <path id="Path_634" data-name="Path 634" d="M158.836,244.55l5.195.744-3.143,8.232-7.4,1.674,4.254-3.472Z" transform="translate(-122.568 -146.508)" fill="#eb2424"/>
  <path id="Path_635" data-name="Path 635" d="M237.278,244.28l-5.928.846,3.139,8.232,7.4,1.674-4.254-3.472Z" transform="translate(-171.013 -146.34)" fill="#eb2424"/>
</svg>
