<svg id="ab-2-m" xmlns="http://www.w3.org/2000/svg" width="109.12" height="120" viewBox="0 0 109.12 120">
  <path id="Path_636" data-name="Path 636" d="M268.854,147.244l-3.772-.764s-.856,2.468,2.959,3.277Z" transform="translate(-243.826 -89.355)" fill="#24285b"/>
  <path id="Path_637" data-name="Path 637" d="M205.573,117.889c1.453-3.734.088-8.143-3.07-9.92a6.179,6.179,0,0,0-4.486-.953c-2.613.706-7.544,10.3-10.549,16.63-1.556,3.284-4.744,5.017-7.89,4.288l-11.06-2.571-1.151,3.542,18.163,7.146a5.968,5.968,0,0,0,5.23-.413A34.989,34.989,0,0,0,205.573,117.889Z" transform="translate(-143.659 -67.555)" fill="#eb2424"/>
  <path id="Path_638" data-name="Path 638" d="M205.573,117.889c1.453-3.734.088-8.143-3.07-9.92a6.179,6.179,0,0,0-4.486-.953c-2.613.706-7.544,10.3-10.549,16.63-1.556,3.284-4.744,5.017-7.89,4.288l-11.06-2.571-1.151,3.542,18.163,7.146a5.968,5.968,0,0,0,5.23-.413A34.989,34.989,0,0,0,205.573,117.889Z" transform="translate(-143.659 -67.555)" opacity="0.08"/>
  <path id="Path_2017" data-name="Path 2017" d="M1.253,30.147,29.726,31.5,28.474,1.348,0,0Z" transform="matrix(-0.956, -0.294, 0.294, -0.956, 37.936, 61.34)" fill="#ffd200"/>
  <path id="Path_2018" data-name="Path 2018" d="M1.253,30.147,29.726,31.5,28.474,1.348,0,0Z" transform="matrix(-0.956, -0.294, 0.294, -0.956, 37.936, 61.34)" opacity="0.08"/>
  <path id="Path_2019" data-name="Path 2019" d="M1.253,30.147,29.726,31.5,28.474,1.348,0,0Z" transform="matrix(-0.956, -0.294, 0.294, -0.956, 49.525, 65.505)" fill="#ffd200"/>
  <ellipse id="Ellipse_96" data-name="Ellipse 96" cx="47.243" cy="8.607" rx="47.243" ry="8.607" transform="translate(0 102.786)" fill="#e6e6e6" opacity="0.45"/>
  <path id="Path_639" data-name="Path 639" d="M260.178,220.27s-.484,1.524-1.669,1.627-1.5,1.452-.445,1.82,3.818-1.2,3.818-1.2l-.061-2Z" transform="translate(-233.945 -129.979)" fill="#eb2424"/>
  <path id="Path_640" data-name="Path 640" d="M183.149,259.866a2.869,2.869,0,0,1-.53,2.467c-.913.9-.484,2.216.556,1.775s2.479-3.6,2.479-3.6L184.6,258.94Z" transform="translate(-128.822 -151.269)" fill="#eb2424"/>
  <g id="Group_80" data-name="Group 80" transform="translate(60.979 16.533)">
    <path id="Path_641" data-name="Path 641" d="M146.083,104.97l-5.113,7.953,4.847,6.8,6.586-14.63Z" transform="translate(-140.97 -84.69)" fill="#f4a28c"/>
    <path id="Path_642" data-name="Path 642" d="M148.495,94.97a5.93,5.93,0,0,0-2.688-4.629,4.472,4.472,0,0,0-4.826.078c-3.514,2.22-8.1,6.141-5.341,10.258,4.229,6.311,11.47.255,11.47.255A11.919,11.919,0,0,0,148.495,94.97Z" transform="translate(-132.516 -82.404)" fill="#f4a28c"/>
    <path id="Path_643" data-name="Path 643" d="M141.078,100.541s1.775-.851,1.864,1.327a1.65,1.65,0,0,1-3.094.9C139.384,101.528,141.078,100.541,141.078,100.541Z" transform="translate(-130.624 -84.004)" fill="#f4a28c"/>
    <path id="Path_644" data-name="Path 644" d="M138.343,88.779c2.483,5.35,5.157,6.439,1.473,9.739s-2.107,8.455-7.315,7.145c-3.241-.851-1.827-4.865-.295-7.808a6.885,6.885,0,0,0,.1-6.056c-.7-1.455-1.171-3.13-.442-4.253S137.179,86.3,138.343,88.779Z" transform="translate(-122.512 -81.972)" fill="#24285b"/>
    <path id="Path_647" data-name="Path 647" d="M141.064,97.674l-13.415-15.8a.5.5,0,0,1-.026-.564.352.352,0,0,1,.475-.134l3.971,2.4a4.5,4.5,0,0,0,4.42.272,4.463,4.463,0,0,1,3.683-.451C142.537,84.481,149.492,91.03,141.064,97.674Z" transform="translate(-123.796 -81.127)" fill="#ffd200"/>
    <path id="Path_648" data-name="Path 648" d="M140.649,97.947s2.674-2.764,3.514.051-2.814,4.415-4.486,2.918S140.649,97.947,140.649,97.947Z" transform="translate(-131.492 -83.459)" fill="#f4a28c"/>
  </g>
  <path id="Path_645" data-name="Path 645" d="M167.759,116.379a11.756,11.756,0,0,0-4.11-8.09c-4.394-3.6-12.664-10.742-16.885-6.45-5.791,5.874-8.059,36.8-8.059,36.8l15.972,7.78S169.021,130.842,167.759,116.379Z" transform="translate(-94.344 -64.045)" fill="#eb2424"/>
  <path id="Path_646" data-name="Path 646" d="M162.3,115.49s-.422,31.853-23.094,25.282l-.568,6.113,15.964,7.78s8.749-8.382,12.664-23.412c0,0,1.919-7.43-1.6-12.387A11.123,11.123,0,0,0,162.3,115.49Z" transform="translate(-94.27 -72.293)" opacity="0.08"/>
  <path id="Path_649" data-name="Path 649" d="M207.964,191.025s-4.144,5.092-9.126,3.119-19.134-12.4-22.994,5.758L173,199.327s-.142-11.686,5.633-15.875S192,183.245,192,183.245Z" transform="translate(-147.631 -108.654)" fill="#24285b"/>
  <path id="Path_650" data-name="Path 650" d="M188.308,199.514s-11.578,8.751-2.341,24.3l-2.537,1.218s-11.666-10.414-4.505-29.754Z" transform="translate(-129.356 -116.221)" fill="#24285b"/>
  <path id="Path_651" data-name="Path 651" d="M207.594,112.4c1.455-3.734.09-8.145-3.07-9.92a6.211,6.211,0,0,0-4.49-.957c-2.609.71-7.541,10.3-10.545,16.63-1.557,3.286-4.746,5.02-7.894,4.292l-11.06-2.562-1.151,3.542,18.163,7.146a5.993,5.993,0,0,0,5.23-.409A35.031,35.031,0,0,0,207.594,112.4Z" transform="translate(-146.455 -64.53)" fill="#eb2424"/>
  <path id="Path_652" data-name="Path 652" d="M207.594,112.4c1.455-3.734.09-8.145-3.07-9.92a6.211,6.211,0,0,0-4.49-.957c-2.609.71-7.541,10.3-10.545,16.63-1.557,3.286-4.746,5.02-7.894,4.292l-11.06-2.562-1.151,3.542,18.163,7.146a5.993,5.993,0,0,0,5.23-.409A35.031,35.031,0,0,0,207.594,112.4Z" transform="translate(-146.455 -64.53)" fill="#fff" opacity="0.46"/>
  <path id="Path_653" data-name="Path 653" d="M271.734,142.719l-3.772-.769s-.856,2.468,2.959,3.277Z" transform="translate(-247.811 -86.861)" fill="#24285b"/>
  <path id="Path_2020" data-name="Path 2020" d="M.323,7.771l3.867.183L3.867.183,0,0Z" transform="matrix(-0.956, -0.294, 0.294, -0.956, 23.991, 32.889)" fill="#fff" opacity="0.22"/>
  <path id="Path_2021" data-name="Path 2021" d="M1.066,25.669l24.245,1.148L24.245,1.148,0,0Z" transform="matrix(-0.956, -0.294, 0.294, -0.956, 47.282, 33.066)" fill="#ffd200"/>
  <path id="Path_2022" data-name="Path 2022" d="M1.066,25.669l24.245,1.148L24.245,1.148,0,0Z" transform="matrix(-0.956, -0.294, 0.294, -0.956, 47.282, 33.066)" opacity="0.08"/>
  <path id="Path_2023" data-name="Path 2023" d="M1.066,25.669l24.245,1.148L24.245,1.148,0,0Z" transform="matrix(-0.956, -0.294, 0.294, -0.956, 57.153, 36.617)" fill="#ffd200"/>
  <path id="Path_2024" data-name="Path 2024" d="M.275,6.617l3.291.156L3.291.156,0,0Z" transform="matrix(-0.956, -0.294, 0.294, -0.956, 35.782, 8.747)" fill="#fff" opacity="0.22"/>
  <path id="Path_2025" data-name="Path 2025" d="M.269,6.475l6.211.294L6.211.294,0,0Z" transform="matrix(-0.956, -0.294, 0.294, -0.956, 37.281, 41.378)" fill="#fff" opacity="0.46"/>
  <path id="Path_2026" data-name="Path 2026" d="M.269,6.475l6.211.294L6.211.294,0,0Z" transform="matrix(-0.956, -0.294, 0.294, -0.956, 47.959, 17.046)" fill="#fff" opacity="0.46"/>
  <path id="Path_654" data-name="Path 654" d="M213.3,79.78,181.32,65.24l-1.04,3.973,9.793,3.829,22.868,7.91Z" transform="translate(-155.762 -44.629)" opacity="0.05"/>
  <path id="Path_2027" data-name="Path 2027" d="M0,14.372l18.911-.924L19.489,0,.578.924Z" transform="translate(109.12 23.97) rotate(162.28)" fill="#e6e6e6"/>
  <path id="Path_655" data-name="Path 655" d="M75,42.26,68.364,53.748,57.27,48.894Z" transform="translate(29.745 -31.977)" fill="#c9c9c9"/>
  <g id="Group_77" data-name="Group 77" transform="translate(73.722 31.596)" opacity="0.73">
    <path id="Path_656" data-name="Path 656" d="M67.98,89.68s.05.229.134.656" transform="translate(-41.202 -89.68)" fill="none" stroke="#c9c9c9" stroke-linecap="round" stroke-linejoin="round" stroke-width="2"/>
    <path id="Path_657" data-name="Path 657" d="M88.9,103.22c1.627,13.12,2.349,42.7-24.848,39.862" transform="translate(-61.136 -97.134)" fill="none" stroke="#c9c9c9" stroke-linecap="round" stroke-linejoin="round" stroke-width="2" stroke-dasharray="3.07 12.29"/>
    <path id="Path_658" data-name="Path 658" d="M137.192,191.094,136.62,191" transform="translate(-136.62 -145.461)" fill="none" stroke="#c9c9c9" stroke-linecap="round" stroke-linejoin="round" stroke-width="2"/>
  </g>
</svg>
