<svg xmlns="http://www.w3.org/2000/svg" width="104.557" height="101.868" viewBox="0 0 104.557 101.868">
  <g id="ab-3-m" transform="translate(0.259)">
    <rect id="Rectangle_93" data-name="Rectangle 93" width="79.291" height="63.506" transform="translate(25.007 5.514)" fill="#e6e6e6"/>
    <path id="Path_659" data-name="Path 659" d="M122.934,54.9s3.143,1.469,0,6.378,0,13.154,0,13.154S140.76,70.947,140.4,88.773l6.993-1.325,5.669-6.074,5.76-9.547,1.7.935-9.448,20.288-2.713-1.591s-2.757,13.128-8.624,18.9H122.572l-3.922-19.58-3.31-22.138,3.252-9.178Z" transform="translate(-90.333 -41.339)" opacity="0.1"/>
    <path id="Path_660" data-name="Path 660" d="M130.2,97.45s9.8,2.387,13.382,21.227l12.26-9.15,2.5,2.96-14.281,14.942a3.708,3.708,0,0,1-5.235.127l-8.541-8.107Z" transform="translate(-99.282 -66.962)" fill="#eb2424"/>
    <path id="Path_661" data-name="Path 661" d="M130.2,97.45s9.8,2.387,13.382,21.227l12.26-9.15,2.5,2.96-14.281,14.942a3.708,3.708,0,0,1-5.235.127l-8.541-8.107Z" transform="translate(-99.282 -66.962)" fill="#fff" opacity="0.2"/>
    <ellipse id="Ellipse_97" data-name="Ellipse 97" cx="52.245" cy="5.409" rx="52.245" ry="5.409" transform="translate(-0.259 91.051)" fill="#e6e6e6" opacity="0.45"/>
    <g id="Group_81" data-name="Group 81" transform="translate(19.863 9.271)">
      <path id="Path_662" data-name="Path 662" d="M123.33,65.319a24.3,24.3,0,0,1-.434,7.568,2.358,2.358,0,0,1-1.228,1.407,3.047,3.047,0,0,1-2.027.243c-1.762-.408-4.012-1.4-4.6-3.808l-1.583-3.985a3.858,3.858,0,0,1,2.065-4.375C118.546,60.524,123.213,62.54,123.33,65.319Z" transform="translate(-108.188 -59.335)" fill="#f4a28c"/>
      <path id="Path_663" data-name="Path 663" d="M111.917,72.04,105.86,83.5l7.88,5.02L115.31,77.74Z" transform="translate(-105.86 -63.579)" fill="#f4a28c"/>
      <path id="Path_665" data-name="Path 665" d="M127.495,72.71l1.48,1.774a.643.643,0,0,1,.1.7.828.828,0,0,1-.63.445l-2.065.331Z" transform="translate(-112.257 -63.853)" fill="#f4a28c"/>
      <path id="Path_689" data-name="Path 689" d="M112.707,68.621s1.769,4.346,4.322,4.937,6.194.875,5.816-2.88c-.255-2.336-3.352-1.49-6.965-.857,0,0-1.707-2.915-1.377-4.76,0,0,2.306-.373,2.065-2.146,0,0,5.238,2.5,6.346,0s.888-3.914-1.576-4.8-9.346-.3-11.067,2.365S112.707,68.621,112.707,68.621Z" transform="translate(-107.105 -57.73)" fill="#24285b"/>
      <path id="Path_690" data-name="Path 690" d="M113.256,73.442a1.8,1.8,0,0,0-.688-2.016,1.713,1.713,0,0,0-1.7-.177c-1.769.7-.5,3.719,2.065,3.264Z" transform="translate(-107.165 -63.195)" fill="#f4a28c"/>
    </g>
    <path id="Path_664" data-name="Path 664" d="M84.208,87.964c-.768-.187-1.536-.4-2.291-.64-3.377-1.07-13.84-3.735-16.823,3.572-3.58,8.752,7.16,35.4,7.16,35.4l18.3-1.591,4.376-23.073S98.7,91.453,84.208,87.964Z" transform="translate(-59.635 -60.042)" fill="#eb2424"/>
    <path id="Path_672" data-name="Path 672" d="M146.205,255.14a2.579,2.579,0,0,0,2.212,1.337c1.416-.111,1.989,1.193.8,1.746s-4.674-.517-4.674-.517l-.239-2.021Z" transform="translate(-107.773 -161.922)" fill="#eb2424"/>
    <path id="Path_673" data-name="Path 673" d="M101.6,249.464a2.593,2.593,0,0,0,.879,2.431c1.166.8.8,2.18-.473,1.866S98.7,250.4,98.7,250.4l1.086-1.719Z" transform="translate(-80.313 -158.032)" fill="#eb2424"/>
    <path id="Path_674" data-name="Path 674" d="M75.89,99.8s3.536,4.909,2.212,15.65,16.179,6.234,16.179,6.234l-2.049,11.361-18.3,1.591-2.24-6.039L67.15,112.84Z" transform="translate(-61.313 -68.377)" opacity="0.08"/>
    <path id="Path_675" data-name="Path 675" d="M119.53,121.048l2.2-12.658,7.089,4.479,7.8-2.574-2.16,13.569-7.912,2.542Z" transform="translate(-92.856 -73.55)" fill="#ffd200"/>
    <path id="Path_676" data-name="Path 676" d="M59.134,90.919c-4.141,4.463-9.118,13.971-5.279,30.138a3.556,3.556,0,0,0,4.4,2.594l24.791-6.89-.923-3.715-19.357,2.387s5.366-11.139,4.284-21.851a4.595,4.595,0,0,0-7.916-2.661Z" transform="translate(-52.478 -62.157)" fill="#eb2424"/>
    <path id="Path_677" data-name="Path 677" d="M120.163,131s2.948,4.527,6.194,4.774,7.634-1.193,8.107,1.687L126.551,140l-7.021-5.358Z" transform="translate(-92.856 -87.166)" opacity="0.08"/>
    <path id="Path_678" data-name="Path 678" d="M59.134,90.919c-4.141,4.463-9.118,13.971-5.279,30.138a3.556,3.556,0,0,0,4.4,2.594l24.791-6.89-.923-3.715-19.357,2.387s5.366-11.139,4.284-21.851a4.595,4.595,0,0,0-7.916-2.661Z" transform="translate(-52.478 -62.157)" fill="#fff" opacity="0.2"/>
    <path id="Path_679" data-name="Path 679" d="M88.55,148v6.341l16.23-4.511s5.036-.5,6.1-2.888-3.712-3.9-7.033-.827Z" transform="translate(-74.2 -95.232)" fill="#f4a28c"/>
    <path id="Path_680" data-name="Path 680" d="M88.56,152.85v6.341l3.346-.983V152.44Z" transform="translate(-74.206 -100.077)" fill="#fff"/>
    <path id="Path_681" data-name="Path 681" d="M134.375,110.936l-5.1-5.756-.521,2.2Z" transform="translate(-98.409 -71.617)" fill="#ffd200"/>
    <path id="Path_682" data-name="Path 682" d="M84.2,184.949l6.993,8.282a10.224,10.224,0,0,1,1.329,11.182l-2.232,4.443,3.421,1.75,3.139-5.02a18.036,18.036,0,0,0,2.1-14.265h0a5.191,5.191,0,0,1,.9-4.531l2.649-3.441Z" transform="translate(-71.581 -118.691)" fill="#24285b"/>
    <path id="Path_683" data-name="Path 683" d="M142.89,112.869l6.417-4.479v2.363Z" transform="translate(-106.924 -73.55)" fill="#ffd200"/>
    <path id="Path_684" data-name="Path 684" d="M198.34,110.88l10.446-18.55.788.473-9.392,19.055Z" transform="translate(-140.315 -63.879)" fill="#24285b"/>
    <path id="Path_685" data-name="Path 685" d="M119.674,183.37l8.672,28.55-3.859.8s-5.915-17.106-11.767-25.332Z" transform="translate(-88.755 -118.703)" fill="#24285b"/>
    <path id="Path_686" data-name="Path 686" d="M170.59,131.656l3.552,4.734,8.545-8.919s3.533-.243,4.4-2.164-1.858-5.171-6.9-.8Z" transform="translate(-123.604 -81.946)" fill="#f4a28c"/>
    <path id="Path_687" data-name="Path 687" d="M167.01,145.519l3.453,5.263,2.335-2.439L169.6,143.59Z" transform="translate(-121.449 -94.748)" fill="#fff"/>
    <ellipse id="Ellipse_98" data-name="Ellipse 98" cx="2.355" cy="2.355" rx="2.355" ry="2.355" transform="translate(57.543 77.174)" fill="none" stroke="#a5a5a5" stroke-miterlimit="10" stroke-width="3"/>
    <rect id="Rectangle_94" data-name="Rectangle 94" width="79.291" height="5.514" transform="translate(25.007 0)" fill="#c9c9c9"/>
    <rect id="Rectangle_95" data-name="Rectangle 95" width="44.423" height="3.389" transform="translate(50.263 14.492)" fill="#c9c9c9"/>
    <rect id="Rectangle_96" data-name="Rectangle 96" width="44.423" height="3.389" transform="translate(50.263 21.354)" fill="#c9c9c9" opacity="0.55"/>
    <rect id="Rectangle_97" data-name="Rectangle 97" width="21.044" height="26.601" transform="translate(72.807 28.22)" fill="#c9c9c9"/>
    <path id="Path_688" data-name="Path 688" d="M240.16,129.224,246,115.75l4.507,10.422,2.785-6,3.716,9.05Z" transform="translate(-165.499 -77.982)" fill="#fff"/>
    <ellipse id="Ellipse_99" data-name="Ellipse 99" cx="2.355" cy="2.355" rx="2.355" ry="2.355" transform="translate(82.486 32.147)" fill="#fff"/>
    <line id="Line_1" data-name="Line 1" y1="8.155" transform="translate(59.898 69.019)" fill="none" stroke="#a5a5a5" stroke-miterlimit="10" stroke-width="3"/>
    <rect id="Rectangle_98" data-name="Rectangle 98" width="21.044" height="3.855" transform="translate(72.807 57.757)" fill="#fff" opacity="0.57"/>
  </g>
</svg>
