<svg id="ab-4-m" xmlns="http://www.w3.org/2000/svg" width="111.173" height="131.456" viewBox="0 0 111.173 131.456">
  <path id="Path_691" data-name="Path 691" d="M77.672,48.275C70.022,57.877,65.5,75.5,66.206,93.9c.368,9.407,2.041,18.541,6.552,23.442,12.084,13.132,64.751,13.035,71.93-9.915,7.394-23.637,4.854-56.547-11.96-70.4C118.158,25.059,97.436,23.479,77.672,48.275Z" transform="translate(-55.059 -18.855)" fill="#e6e6e6" opacity="0.3"/>
  <path id="Path_692" data-name="Path 692" d="M248.908,138.566l10.329-.652S260.931,136,262.364,136s1.958,4.218-2.086,4.865a16.668,16.668,0,0,1-15.287,3.9C235.711,142.5,237.537,136.313,248.908,138.566Z" transform="translate(-174.345 -77.033)" fill="#f4a28c"/>
  <ellipse id="Ellipse_100" data-name="Ellipse 100" cx="38.895" cy="8.811" rx="38.895" ry="8.811" transform="translate(18.047 113.834)" fill="#e6e6e6" opacity="0.45"/>
  <path id="Path_693" data-name="Path 693" d="M161.29,182.34l6.491,44.5,2.442.262.607-43.728Z" transform="translate(-120.491 -105.922)" fill="#f4a28c"/>
  <path id="Path_694" data-name="Path 694" d="M188.07,182.926l28.971,27.388,1.946-1.853L195.668,175.69Z" transform="translate(-140.713 -100.012)" fill="#f4a28c"/>
  <path id="Path_695" data-name="Path 695" d="M121.749,51.554l-4.268-9.094-2.231,1.652,4.83,14.3,3.743-2.822Z" transform="translate(-89.807 -25.592)" fill="#f4a28c"/>
  <path id="Path_696" data-name="Path 696" d="M173.856,122.1a6.187,6.187,0,0,1-.215-6.6h0l2.111-3.454c7.1,14.605,23.653,11.931,23.653,11.931l1.14-13.645c-5.784,1.837-16.625-4.619-18.005-12.316s-11.42-9.9-11.42-9.9l-3.384-2.432c-7.4-3-11.027,1.755-12.771,8.139h0s-4.788,15.108-3.917,23,2.243,47.346,2.243,47.346l38.841-16.673Z" transform="translate(-117.719 -53.528)" fill="#24285b"/>
  <path id="Path_697" data-name="Path 697" d="M171.258,267.317s-1.07,2.4-2.814,2.643-1.595,3.331,1.14,2.453a13.728,13.728,0,0,0,2.479-1.062,3.759,3.759,0,0,1,2.355-.369.759.759,0,0,0,.74-.554c.64-1.309-1.653-3.567-1.653-3.567Z" transform="translate(-124.366 -147.068)" fill="#eb2424"/>
  <path id="Path_698" data-name="Path 698" d="M257.91,239.117a6.171,6.171,0,0,1,1.157,4.136c-.351,2.13,2.066,2.915,2.231-.585a23.882,23.882,0,0,0-.045-3.269,6.958,6.958,0,0,1,.442-2.9,1.108,1.108,0,0,0-.194-1.026c-.826-1.16-2.822.051-2.822.051Z" transform="translate(-184.041 -131.544)" fill="#eb2424"/>
  <path id="Path_699" data-name="Path 699" d="M141.761,72.188s-17.109-2.5-21.368-15.3L110.15,67.323s13.081,18.018,26.343,15.842Z" transform="translate(-87.647 -35.15)" fill="#24285b"/>
  <path id="Path_700" data-name="Path 700" d="M197.488,71.191a18.268,18.268,0,0,0-2.138,3.891,1.567,1.567,0,0,0,.618,1.847,2.156,2.156,0,0,0,2.734-.407l1.744-1.46a2.972,2.972,0,0,0,.6-2.852C200.588,70.349,198.369,69.846,197.488,71.191Z" transform="translate(-142.37 -43.851)" fill="#f4a28c"/>
  <path id="Path_701" data-name="Path 701" d="M198.167,77.66l-2.072,9.283-4.385-2.825,3.483-5.419Z" transform="translate(-140.447 -46.665)" fill="#f4a28c"/>
  <path id="Path_702" data-name="Path 702" d="M175.726,84.84s-4.384-.934-6.813-.472-9.858,7.5-1.727,14.754,17.08,7.467,22.691-1.345a10.377,10.377,0,0,0-4.545-7.246C181.2,87.9,175.726,84.84,175.726,84.84Z" transform="translate(-123.462 -49.728)" fill="#eb2424"/>
  <path id="Path_703" data-name="Path 703" d="M196.133,87.46a4.6,4.6,0,0,0,.26,6.061c2.781,2.982,4.132-.277,4.958,4.054s6.276-1.026,6.276-1.026a11.22,11.22,0,0,0-2.855-3.823Z" transform="translate(-143.281 -51.206)" opacity="0.08"/>
  <path id="Path_704" data-name="Path 704" d="M200.666,76.848s.547-.862,1.028-.3-.3,1.806-1.093,1.256Z" transform="translate(-144.889 -46.003)" fill="#f4a28c"/>
  <path id="Path_705" data-name="Path 705" d="M198.837,71.55a5.79,5.79,0,0,1,1.175,3.341c.038,2.037-3.335,8.828-.864,10.485s4.27-.312,5.937,3.4,5.626.387,6.178-2.839-.372-5.378-3.581-6.526-2.537-6.791-2.537-6.791Z" transform="translate(-144.753 -44.536)" fill="#ffd200"/>
  <path id="Path_706" data-name="Path 706" d="M196.15,74.35l-1.039.394a.418.418,0,0,0-.248.3.543.543,0,0,0,.068.424l.6.815Z" transform="translate(-141.725 -45.248)" fill="#f4a28c"/>
  <path id="Path_707" data-name="Path 707" d="M196.393,80.27a2.834,2.834,0,0,0,1.744.109,2.87,2.87,0,0,1-2.777,1.474Z" transform="translate(-142.137 -47.487)" fill="#ce8172" opacity="0.31"/>
  <path id="Path_708" data-name="Path 708" d="M192.59,62.323l9.726-1.433,6.539,9.188-8.9,2.9-3.679-4.849Z" transform="translate(-141.908 -40.291)" fill="#24285b"/>
  <path id="Path_709" data-name="Path 709" d="M219.568,74.35s-.634,5.718,4.253,5.609a7.017,7.017,0,0,1,6.561,4.394" transform="translate(-156.401 -45.414)" fill="none" stroke="#24285b" stroke-miterlimit="10" stroke-width="1"/>
  <ellipse id="Ellipse_101" data-name="Ellipse 101" cx="1.427" cy="1.772" rx="1.427" ry="1.772" transform="translate(71.654 36.018)" fill="#eb2424"/>
  <path id="Path_2028" data-name="Path 2028" d="M.023.236l16.1-1.7L15.788,1.9-.307,3.6Z" transform="translate(18.383 16.856) rotate(-35.17)" fill="#ffd200"/>
  <path id="Path_710" data-name="Path 710" d="M106.661,30.89l3.863,3.146-2.02,1.776L104.88,32.45Z" transform="translate(-82.796 -19.959)" fill="#24285b"/>
  <path id="Path_711" data-name="Path 711" d="M155.97,210.6l34.441-16.278,4.673,6.487-38.862,16.7Z" transform="translate(-119.777 -109.145)" fill="#eb2424"/>
  <path id="Path_712" data-name="Path 712" d="M208.736,171.482s-17.382-20.743-16.225-31.766,6.482-14.272,9.565-11.6,4.334,11.1,22.067,11.988l-.376,4.552s-16.3,2.643-23.653-11.931L198,136.175a6.28,6.28,0,0,0,.215,6.6L216.5,168.167Z" transform="translate(-143.81 -74.287)" opacity="0.08"/>
  <path id="Path_713" data-name="Path 713" d="M114.5,37.785s-.483-3.592-2.231-4.721-3.685,2.566,0,6.374Z" transform="translate(-86.25 -20.917)" fill="#f4a28c"/>
  <ellipse id="Ellipse_102" data-name="Ellipse 102" cx="1.632" cy="2.027" rx="1.632" ry="2.027" transform="translate(101.361 11.151)" fill="#c9c9c9"/>
  <ellipse id="Ellipse_103" data-name="Ellipse 103" cx="1.632" cy="2.027" rx="1.632" ry="2.027" transform="translate(79.312 34.611)" fill="#c9c9c9"/>
  <ellipse id="Ellipse_104" data-name="Ellipse 104" cx="1.632" cy="2.027" rx="1.632" ry="2.027" transform="translate(26.172 79.077)" fill="#c9c9c9"/>
  <ellipse id="Ellipse_105" data-name="Ellipse 105" cx="1.632" cy="2.027" rx="1.632" ry="2.027" transform="translate(0 65.522)" fill="#c9c9c9"/>
  <ellipse id="Ellipse_106" data-name="Ellipse 106" cx="1.632" cy="2.027" rx="1.632" ry="2.027" transform="translate(91.924 104.675)" fill="#c9c9c9"/>
  <ellipse id="Ellipse_107" data-name="Ellipse 107" cx="1.632" cy="2.027" rx="1.632" ry="2.027" transform="translate(4.123 8.627)" fill="#c9c9c9" opacity="0.36"/>
  <ellipse id="Ellipse_108" data-name="Ellipse 108" cx="1.632" cy="2.027" rx="1.632" ry="2.027" transform="translate(54.205 0)" fill="#c9c9c9" opacity="0.36"/>
  <ellipse id="Ellipse_109" data-name="Ellipse 109" cx="1.632" cy="2.027" rx="1.632" ry="2.027" transform="translate(22.62 44.738)" fill="#c9c9c9" opacity="0.36"/>
  <ellipse id="Ellipse_110" data-name="Ellipse 110" cx="1.632" cy="2.027" rx="1.632" ry="2.027" transform="translate(13.523 105.474)" fill="#c9c9c9" opacity="0.36"/>
  <ellipse id="Ellipse_111" data-name="Ellipse 111" cx="1.632" cy="2.027" rx="1.632" ry="2.027" transform="translate(107.909 57.329)" fill="#c9c9c9" opacity="0.36"/>
</svg>
