<svg xmlns="http://www.w3.org/2000/svg" width="104.257" height="101.772" viewBox="0 0 104.257 101.772">
  <g id="ab-5-m" transform="translate(0 1)">
    <path id="Path_714" data-name="Path 714" d="M67.952,131.19s-3.5,3.962-2.023,11.149c1.022,4.917,4.142,17.812-7.1,17.466l.286,3.179s11.264,1.831,13.056-10.075C74.216,139.451,67.952,131.19,67.952,131.19Z" transform="translate(-52.463 -85.774)" fill="#eb2424"/>
    <path id="Path_715" data-name="Path 715" d="M67.952,131.19s-3.5,3.962-2.023,11.149c1.022,4.917,4.142,17.812-7.1,17.466l.286,3.179s11.264,1.831,13.056-10.075C74.216,139.451,67.952,131.19,67.952,131.19Z" transform="translate(-52.463 -85.774)" fill="#fff" opacity="0.2"/>
    <rect id="Rectangle_100" data-name="Rectangle 100" width="72.575" height="58.532" transform="translate(20.864 19.364)" fill="#c9c9c9" opacity="0.27"/>
    <path id="Path_716" data-name="Path 716" d="M186.489,192.2l-2.759,21.736h18.386L197.889,192.2Z" transform="translate(-134.82 -120.989)" fill="#c9c9c9"/>
    <ellipse id="Ellipse_112" data-name="Ellipse 112" cx="46.613" cy="3.399" rx="46.613" ry="3.399" transform="translate(11.03 93.974)" fill="#e6e6e6" opacity="0.45"/>
    <rect id="Rectangle_101" data-name="Rectangle 101" width="72.575" height="13.369" transform="translate(20.864 64.526)" fill="#e6e6e6"/>
    <ellipse id="Ellipse_113" data-name="Ellipse 113" cx="2.916" cy="3.619" rx="2.916" ry="3.619" transform="translate(54.642 66.797)" fill="#a5a5a5"/>
    <rect id="Rectangle_102" data-name="Rectangle 102" width="25.856" height="6.985" transform="translate(44.717 89.137)" fill="#e6e6e6"/>
    <path id="Path_717" data-name="Path 717" d="M101.43,101.186s2.912-2.16,3.709,1.746,1.4,8.236,4.166,9.255-6.945-3.234-6.945-3.234Z" transform="translate(-80.553 -68.112)" fill="#a5a5a5" opacity="0.4"/>
    <ellipse id="Ellipse_114" data-name="Ellipse 114" cx="1.271" cy="1.577" rx="1.271" ry="1.577" transform="translate(25.496 23.625)" fill="#24285b"/>
    <ellipse id="Ellipse_115" data-name="Ellipse 115" cx="1.271" cy="1.577" rx="1.271" ry="1.577" transform="translate(29.273 23.625)" fill="#eb2424"/>
    <ellipse id="Ellipse_116" data-name="Ellipse 116" cx="1.271" cy="1.577" rx="1.271" ry="1.577" transform="translate(32.833 23.625)" fill="#ffd200"/>
    <path id="Path_718" data-name="Path 718" d="M85.566,247.68s-.644,1.133-1.58.917a.771.771,0,0,0-.661,1.387c.76.571,3.171-.025,3.171-.025l.3-1.662Z" transform="translate(-68.367 -153.012)" fill="#eb2424"/>
    <path id="Path_719" data-name="Path 719" d="M129.513,131.19s3.427.021,4.5,8.786,2.357,23.317-9.462,23.469h0V153.032Z" transform="translate(-95.798 -85.774)" fill="#a5a5a5" opacity="0.4"/>
    <path id="Path_722" data-name="Path 722" d="M90.144,101.585a24.146,24.146,0,0,0,2.014,5.158,1.371,1.371,0,0,0,.927.669,1.206,1.206,0,0,0,1.036-.345,4.26,4.26,0,0,0,1.309-3.823l-.183-3.176a2.843,2.843,0,0,0-2.055-2.511C91.306,97.029,89.558,99.619,90.144,101.585Z" transform="translate(-74.778 -68.128)" fill="#f4a28c"/>
    <path id="Path_723" data-name="Path 723" d="M100.53,105.14l3.167,8.669-4.124,3.8-.824-8.158Z" transform="translate(-79.508 -71.433)" fill="#f4a28c"/>
    <path id="Path_724" data-name="Path 724" d="M87.529,100.44a10.7,10.7,0,0,0,2.288-1.471,3.2,3.2,0,0,0,1,2.9,1.62,1.62,0,0,0,2.394-.244l-1.455-4.056a3.006,3.006,0,0,0-2.288-2.187,7.885,7.885,0,0,0-1.327-.085c-1.108,0-2.224,1.54-3.346,1.2a.584.584,0,0,0-.647.214.972.972,0,0,0-.173.8c.279,1.318,1.126,3.176,2.709,3.142a2.242,2.242,0,0,0,.847-.216Z" transform="translate(-71.481 -67.182)" fill="#24285b"/>
    <path id="Path_725" data-name="Path 725" d="M98.138,105.813s-.4-1.233.371-1.528,1.373,1.483.412,2.176Z" transform="translate(-79.12 -71.05)" fill="#f4a28c"/>
    <path id="Path_726" data-name="Path 726" d="M91.294,108.28l-.3,1.6a.66.66,0,0,0,.126.5.406.406,0,0,0,.4.16l1.057-.284Z" transform="translate(-75.296 -72.79)" fill="#f4a28c"/>
    <path id="Path_727" data-name="Path 727" d="M99,112.337a7.17,7.17,0,0,0,.947-2.647,6.053,6.053,0,0,1-.654,5.619Z" transform="translate(-79.643 -73.399)" fill="#ce8172" opacity="0.31"/>
    <path id="Path_720" data-name="Path 720" d="M92.027,120.4s9.667,0,10.8,6.659S97.8,153.632,97.8,153.632l-10.9-.583a48.315,48.315,0,0,0-1.189-13.4C84.07,133.659,77.935,122.894,92.027,120.4Z" transform="translate(-68.38 -79.546)" fill="#eb2424"/>
    <path id="Path_721" data-name="Path 721" d="M103.984,138.05a11.791,11.791,0,0,0-1.519,9.91c1.546,6.076-9.1,5.919-9.1,5.919q.248,1.906.341,3.835a14.858,14.858,0,0,0,11.8,3.222l.429-1.522,1.836-5.6Z" transform="translate(-75.232 -89.733)" opacity="0.08"/>
    <path id="Path_728" data-name="Path 728" d="M104.464,131.606a2.483,2.483,0,0,1,2.514-1.115,2.95,2.95,0,0,1,2.1,2.05,29.466,29.466,0,0,1,.565,17.918c-3.406,11.234-16.9-1.167-16.9-1.167l2.044-2.748s7.1,4.165,9.915,2C107.036,146.747,100.959,136.659,104.464,131.606Z" transform="translate(-74.823 -85.345)" fill="#eb2424"/>
    <path id="Path_729" data-name="Path 729" d="M104.464,131.606a2.483,2.483,0,0,1,2.514-1.115,2.95,2.95,0,0,1,2.1,2.05,29.466,29.466,0,0,1,.565,17.918c-3.406,11.234-16.9-1.167-16.9-1.167l2.044-2.748s7.1,4.165,9.915,2C107.036,146.747,100.959,136.659,104.464,131.606Z" transform="translate(-74.823 -85.345)" fill="#fff" opacity="0.2"/>
    <path id="Path_730" data-name="Path 730" d="M88.625,169.033a3.412,3.412,0,0,1-2.541-2.9c-.177-2.33,2.592,1.108,3.083,0s1.424-1.15,1.206.533Z" transform="translate(-70.429 -105.462)" fill="#f4a28c"/>
    <path id="Path_731" data-name="Path 731" d="M118.78,234.306a2.454,2.454,0,0,1,.545,2.055c-.286,1.129.48,1.852,1.022.985s.368-3.911.368-3.911l-1.291-.575Z" transform="translate(-91.993 -144.458)" fill="#eb2424"/>
    <path id="Path_732" data-name="Path 732" d="M90.676,219.466l-1.846-.617,5.222-18.129-2.1-2.989,9.714.537a8.465,8.465,0,0,1-2.34,5.627,16.331,16.331,0,0,0-2.429,2.981A74.829,74.829,0,0,0,90.676,219.466Z" transform="translate(-72.245 -124.181)" fill="#24285b"/>
    <path id="Path_733" data-name="Path 733" d="M93.914,197.57l-.29,8.836a4.389,4.389,0,0,0,1.914,3.949l6.812,4.046.681-2.042-3.958-3.568A4.226,4.226,0,0,1,98,204.635l1.809-6.765Z" transform="translate(-75.404 -124.089)" fill="#24285b"/>
    <path id="Path_734" data-name="Path 734" d="M202.505,99.709h-1.771V94.564a3.427,3.427,0,0,0-1.238-2.886,2.14,2.14,0,0,0-2.634,0,3.427,3.427,0,0,0-1.238,2.886v5.145H193.85V94.564c.066-2.91,1.985-5.227,4.331-5.227s4.265,2.317,4.331,5.227Z" transform="translate(-141.493 -61.616)" fill="#eb2424"/>
    <path id="Path_735" data-name="Path 735" d="M202.505,99.709h-1.771V94.564a3.427,3.427,0,0,0-1.238-2.886,2.14,2.14,0,0,0-2.634,0,3.427,3.427,0,0,0-1.238,2.886v5.145H193.85V94.564c.066-2.91,1.985-5.227,4.331-5.227s4.265,2.317,4.331,5.227Z" transform="translate(-141.493 -61.616)" fill="#fff" opacity="0.46"/>
    <rect id="Rectangle_103" data-name="Rectangle 103" width="13.25" height="13.111" transform="translate(50.058 34.161)" fill="#eb2424"/>
    <path id="Path_736" data-name="Path 736" d="M204.663,113.351a1.875,1.875,0,0,0-.678-1.576,1.171,1.171,0,0,0-1.44,0,1.875,1.875,0,0,0-.678,1.576,1.9,1.9,0,0,0,.453,1.268v3.687h1.921v-3.712A1.975,1.975,0,0,0,204.663,113.351Z" transform="translate(-146.778 -74.425)" fill="#24285b"/>
    <rect id="Rectangle_104" data-name="Rectangle 104" width="25.093" height="6.613" transform="translate(44.134 52.291)" fill="#fff"/>
    <rect id="Rectangle_105" data-name="Rectangle 105" width="7.746" height="6.613" transform="translate(61.482 52.291)" fill="#ffd200"/>
    <ellipse id="Ellipse_117" data-name="Ellipse 117" cx="0.732" cy="0.909" rx="0.732" ry="0.909" transform="translate(46.618 54.743)" fill="#24285b"/>
    <ellipse id="Ellipse_118" data-name="Ellipse 118" cx="0.732" cy="0.909" rx="0.732" ry="0.909" transform="translate(49.339 54.743)" fill="#24285b"/>
    <ellipse id="Ellipse_119" data-name="Ellipse 119" cx="0.732" cy="0.909" rx="0.732" ry="0.909" transform="translate(51.996 54.743)" fill="#24285b"/>
    <ellipse id="Ellipse_120" data-name="Ellipse 120" cx="0.732" cy="0.909" rx="0.732" ry="0.909" transform="translate(54.717 54.743)" fill="#24285b"/>
    <ellipse id="Ellipse_121" data-name="Ellipse 121" cx="0.732" cy="0.909" rx="0.732" ry="0.909" transform="translate(57.5 54.743)" fill="#24285b"/>
    <path id="Path_737" data-name="Path 737" d="M53.22,199.84s-3.406.118-3.232-2.478S53,197.329,53,197.329Z" transform="translate(-46.628 -123.298)" fill="#f4a28c"/>
    <path id="Path_744" data-name="Path 744" d="M.711.412,5.129,0,4.418,6.962,0,7.374Z" transform="matrix(0.537, -0.844, 0.844, 0.537, 0, 72.095)" fill="#ffd200"/>
    <rect id="Rectangle_107" data-name="Rectangle 107" width="10.811" height="7.255" transform="translate(82.631 35.607)" fill="#a5a5a5" opacity="0.4"/>
    <path id="Path_738" data-name="Path 738" d="M45.757,86.725S36.1,40.983,57.338,27.884c4.8-2.96,35.148-10.57,63.825,7.682" transform="translate(-42.398 -23.771)" fill="none" stroke="#000" stroke-linecap="round" stroke-linejoin="round" stroke-width="2" stroke-dasharray="2 10" opacity="0.12"/>
    <path id="Path_739" data-name="Path 739" d="M315.5,235.467a5.786,5.786,0,0,1-3.529-4.338s4.493-1.125,4.619,4.651Z" transform="translate(-219.379 -143.408)" fill="#eb2424" opacity="0.58"/>
    <path id="Path_740" data-name="Path 740" d="M321.487,230.155s-2.027-3.974-.245-7.695a7.156,7.156,0,0,1,1.9,7.7Z" transform="translate(-225.01 -138.455)" fill="#eb2424" opacity="0.73"/>
    <path id="Path_741" data-name="Path 741" d="M324.91,233.847s1.07-4.2,4.305-5a5.362,5.362,0,0,1-2.095,5.006Z" transform="translate(-227.912 -142.144)" fill="#eb2424"/>
    <path id="Path_742" data-name="Path 742" d="M318.73,240.44l.589,4.993,3.7.021.545-4.989Z" transform="translate(-223.837 -148.833)" fill="#24285b"/>
    <rect id="Rectangle_108" data-name="Rectangle 108" width="18.111" height="22.48" transform="translate(79.998 13.804)" fill="#24285b"/>
    <path id="Path_743" data-name="Path 743" d="M291.17,77.144l2.105,4.346,5.048-8.27" transform="translate(-205.664 -52.313)" fill="none" stroke="#fff" stroke-linecap="round" stroke-linejoin="round" stroke-width="5"/>
  </g>
</svg>
