<svg id="ab-6-m" xmlns="http://www.w3.org/2000/svg" width="99.772" height="94.498" viewBox="0 0 99.772 94.498">
  <ellipse id="Ellipse_122" data-name="Ellipse 122" cx="27.418" cy="3.352" rx="27.418" ry="3.352" transform="translate(44.936 87.794)" fill="#e6e6e6" opacity="0.45"/>
  <rect id="Rectangle_109" data-name="Rectangle 109" width="72.032" height="64.676" transform="translate(8.286 0)" fill="#e6e6e6"/>
  <path id="Path_745" data-name="Path 745" d="M228.142,64.9s-2.5.548-1.477,4.258,1.958,8.779-.633,10.188-11.544-1.614-15.007,14.129l-6.357-14.59s-2.021,3.187,0,10.138c1.85,6.37,3.4,23.241,9.2,25a2.952,2.952,0,0,1,1.9,2.718l.193,2.5,5.162-.152,8.337-40.677,2.11-8.384Z" transform="translate(-154.697 -54.556)" opacity="0.08"/>
  <path id="Path_746" data-name="Path 746" d="M223.482,101.25s-5.12,9.269-6.164,17.093l-6.224-15.179L208.88,105s5.535,23.785,10.216,24.658,8.483-16.039,8.483-16.039Z" transform="translate(-158.191 -75.937)" fill="#eb2424"/>
  <path id="Path_747" data-name="Path 747" d="M223.482,101.25s-5.12,9.269-6.164,17.093l-6.224-15.179L208.88,105s5.535,23.785,10.216,24.658,8.483-16.039,8.483-16.039Z" transform="translate(-158.191 -75.937)" fill="#fff" opacity="0.46"/>
  <ellipse id="Ellipse_123" data-name="Ellipse 123" cx="1.385" cy="1.804" rx="1.385" ry="1.804" transform="translate(12.711 4.13)" fill="#24285b"/>
  <ellipse id="Ellipse_124" data-name="Ellipse 124" cx="1.385" cy="1.804" rx="1.385" ry="1.804" transform="translate(16.832 4.13)" fill="#eb2424"/>
  <ellipse id="Ellipse_125" data-name="Ellipse 125" cx="1.385" cy="1.804" rx="1.385" ry="1.804" transform="translate(20.716 4.13)" fill="#ffd200"/>
  <g id="Group_82" data-name="Group 82" transform="translate(68.793 3.028) rotate(-3)">
    <path id="Path_748" data-name="Path 748" d="M0,2.712A18.171,18.171,0,0,0,.558,7.766a1.5,1.5,0,0,0,.792.884,1.644,1.644,0,0,0,1.225.062A3.6,3.6,0,0,0,5.188,5.942L5.97,3.189A2.645,2.645,0,0,0,4.532.359C2.672-.75-.038.842,0,2.712Z" transform="translate(1.803 4.054)" fill="#f4a28c"/>
    <path id="Path_749" data-name="Path 749" d="M4.593-.01,5.746,9.955l-5.768.377,1.475-7.4Z" transform="translate(3.266 8.813)" fill="#f4a28c"/>
    <path id="Path_750" data-name="Path 750" d="M8.344,9.564h0a.29.29,0,0,1-.214.3A2.113,2.113,0,0,1,5.7,9.165a2.478,2.478,0,0,1-.17-2.8A13.2,13.2,0,0,1,2.6,6.825a2.983,2.983,0,0,1-.976-.1L.663,4.5S-.789,2.309.586,1.692s2.135.866,3.2-.348S5.081-.309,6.306.19,6.25,1.7,8.182,1.524s2.022.564,2.1,1.42a1.521,1.521,0,0,1-.313.809,9.321,9.321,0,0,0-1.623,5.81Z" transform="translate(0 0)" fill="#24285b"/>
    <path id="Path_751" data-name="Path 751" d="M0,1.162S-.049-.029.878,0,1.884,1.716.644,1.98Z" transform="translate(5.352 7.936)" fill="#f4a28c"/>
    <path id="Path_752" data-name="Path 752" d="M.878,0,.066,1.25a.479.479,0,0,0-.016.465.5.5,0,0,0,.391.262l1.235.118Z" transform="translate(0.976 8.703)" fill="#f4a28c"/>
    <path id="Path_753" data-name="Path 753" d="M.446,1.036A4.713,4.713,0,0,0,2.654-.006,4.155,4.155,0,0,1-.007,3.211Z" transform="translate(4.1 11.692)" fill="#ce8172" opacity="0.31"/>
  </g>
  <path id="Path_754" data-name="Path 754" d="M275.952,101.174c.579-5.967.683-8.792-7.319-12.074-3.811-1.565-9.207-.412-14.175,2.52-9.858,5.835,1.749,20.865.718,31.094l12.7,2.364S274.693,114.178,275.952,101.174Z" transform="translate(-186.62 -68.379)" fill="#eb2424"/>
  <path id="Path_755" data-name="Path 755" d="M285.164,86.454s-.152-2.343-3.707-1.9-5.3.111-5.3,2.784C276.16,87.335,278.257,90.625,285.164,86.454Z" transform="translate(-204.192 -66.082)" fill="#eb2424"/>
  <path id="Path_756" data-name="Path 756" d="M285.164,86.454s-.152-2.343-3.707-1.9-5.3.111-5.3,2.784C276.16,87.335,278.257,90.625,285.164,86.454Z" transform="translate(-204.192 -66.082)" fill="#fff" opacity="0.46"/>
  <path id="Path_757" data-name="Path 757" d="M295.8,104.47s-3.451,2.438-3.286,9.883-1.629,9.883-4.988,10.254,8.274-1.128,8.274-1.128l2.805-8.907Z" transform="translate(-211.545 -77.831)" opacity="0.08"/>
  <path id="Path_758" data-name="Path 758" d="M314.53,102.369c0-3.356,3.321-4.806,4.82-2.059a23.16,23.16,0,0,1,2.53,10.34c.506,12.531-.436,17.415-4.257,17.415C314.941,128.049,314.536,111.96,314.53,102.369Z" transform="translate(-230.426 -74.536)" fill="#eb2424"/>
  <path id="Path_759" data-name="Path 759" d="M314.53,102.369c0-3.356,3.321-4.806,4.82-2.059a23.16,23.16,0,0,1,2.53,10.34c.506,12.531-.436,17.415-4.257,17.415C314.941,128.049,314.536,111.96,314.53,102.369Z" transform="translate(-230.426 -74.536)" fill="#eb2424"/>
  <path id="Path_760" data-name="Path 760" d="M314.53,102.369c0-3.356,3.321-4.806,4.82-2.059a23.16,23.16,0,0,1,2.53,10.34c.506,12.531-.436,17.415-4.257,17.415C314.941,128.049,314.536,111.96,314.53,102.369Z" transform="translate(-230.426 -74.536)" fill="#fff" opacity="0.46"/>
  <path id="Path_761" data-name="Path 761" d="M208.37,242.426a5.538,5.538,0,0,1-3.28-4.221s4.172-1.1,4.292,4.509Z" transform="translate(-155.599 -156.444)" fill="#eb2424" opacity="0.58"/>
  <path id="Path_762" data-name="Path 762" d="M214.539,237.025s-1.882-3.871-.225-7.495a7.166,7.166,0,0,1,1.762,7.5Z" transform="translate(-161.44 -151.393)" fill="#eb2424" opacity="0.73"/>
  <path id="Path_763" data-name="Path 763" d="M218,240.793s.993-4.089,4-4.863a5.382,5.382,0,0,1-1.945,4.876Z" transform="translate(-164.426 -155.157)" fill="#eb2424"/>
  <path id="Path_764" data-name="Path 764" d="M211.86,247.52l.547,4.863,3.438.016.506-4.855Z" transform="translate(-160.228 -161.975)" fill="#24285b"/>
  <rect id="Rectangle_110" data-name="Rectangle 110" width="24.214" height="49.127" transform="translate(64.428 38.918)" fill="#24285b"/>
  <rect id="Rectangle_111" data-name="Rectangle 111" width="29.344" height="5.263" transform="translate(61.971 85.167)" fill="#24285b"/>
  <rect id="Rectangle_112" data-name="Rectangle 112" width="29.344" height="5.263" transform="translate(61.971 85.167)" fill="#fff" opacity="0.08"/>
  <path id="Path_765" data-name="Path 765" d="M277.572,124.031s-1.072-8.392,1.771-11.271" transform="translate(-205.021 -82.708)" fill="none" stroke="#24285b" stroke-miterlimit="10" stroke-width="2"/>
  <ellipse id="Ellipse_126" data-name="Ellipse 126" cx="1.085" cy="1.412" rx="1.085" ry="1.412" transform="translate(73.354 28.549)" fill="#24285b"/>
  <path id="Path_766" data-name="Path 766" d="M268,130.857s3.22-5.407,7.1,0Z" transform="translate(-198.612 -91.939)" fill="#24285b"/>
  <ellipse id="Ellipse_127" data-name="Ellipse 127" cx="6.493" cy="11.275" rx="6.493" ry="11.275" transform="translate(70.21 50.218)" fill="#fff" opacity="0.08"/>
  <path id="Path_767" data-name="Path 767" d="M208.073,100.63s-1.464-4.18-2.619-4.3.844,5.765.844,5.765Z" transform="translate(-155.603 -73.041)" fill="#f4a28c"/>
  <ellipse id="Ellipse_128" data-name="Ellipse 128" cx="11.104" cy="14.458" rx="11.104" ry="14.458" transform="translate(18.455 14.598)" fill="#fff"/>
  <path id="Path_768" data-name="Path 768" d="M142.07,75.239V89.693l10.874-2.944S151.425,75.14,142.07,75.239Z" transform="translate(-112.511 -60.637)" fill="#ffd200"/>
  <path id="Path_769" data-name="Path 769" d="M128.724,106.134l-6.174,12.02s6.224,6.177,13.432-1.083c0,0,4.934-4.653,3.615-13.881Z" transform="translate(-99.165 -77.078)" fill="#24285b"/>
  <rect id="Rectangle_113" data-name="Rectangle 113" width="13.66" height="5.905" transform="translate(22.728 51.951)" fill="#a5a5a5" opacity="0.39"/>
  <rect id="Rectangle_114" data-name="Rectangle 114" width="18.217" height="20.371" transform="translate(0 51.305)" fill="#ffd200"/>
  <path id="Path_770" data-name="Path 770" d="M72.007,174.78c.231,0,.316.107.316.412v.638a2.432,2.432,0,0,1,1.85,1.82c.12.313.07.486-.2.642l-.493.288c-.231.14-.342.078-.471-.239a1.265,1.265,0,0,0-1.3-1c-.854,0-1.246.325-1.246,1.071a.894.894,0,0,0,.7.877,4.49,4.49,0,0,0,.721.144,3.8,3.8,0,0,1,1.338.342,1.712,1.712,0,0,1,.591.412,3,3,0,0,1,.535,1.832,2.45,2.45,0,0,1-2.03,2.644v.679c0,.3-.07.412-.316.412h-.538c-.231,0-.316-.1-.316-.412v-.671a2.481,2.481,0,0,1-2.012-2.014.524.524,0,0,1-.006-.381.336.336,0,0,1,.237-.224l.493-.235c.25-.115.361-.037.471.288a1.334,1.334,0,0,0,1.357,1.1c.924,0,1.385-.379,1.385-1.153a.816.816,0,0,0-.43-.824,2.757,2.757,0,0,0-1-.251,3.616,3.616,0,0,1-1.344-.379,1.79,1.79,0,0,1-.585-.412,2.811,2.811,0,0,1-.541-1.779,2.336,2.336,0,0,1,1.97-2.578v-.638c0-.3.079-.412.316-.412Z" transform="translate(-62.611 -119.188)" fill="#fff"/>
  <rect id="Rectangle_115" data-name="Rectangle 115" width="16.108" height="3.986" transform="translate(47.732 14.602)" fill="#a5a5a5" opacity="0.39"/>
</svg>
