<svg width="823" height="189" viewBox="0 0 823 189" fill="none" xmlns="http://www.w3.org/2000/svg">
<path d="M101.63 52.3001L21.5098 187.79L224.47 188.11L109.81 44.0601L101.63 52.3001Z" fill="#414142"/>
<path d="M146.098 9.03835L133.567 0.103516L11.9341 170.69L24.4649 179.625L146.098 9.03835Z" fill="#414142"/>
<path d="M199.467 179.604L211.998 170.669L98.4287 11.3923L85.8979 20.3272L199.467 179.604Z" fill="#EE4823"/>
<path d="M111.21 54.8699C111.21 54.8699 113.32 90.4599 97.93 139.87C91.42 159.69 83.58 175.82 71 188.1C39.93 188.1 0 187.51 0 187.51L102.5 43.6499L111.21 54.8699Z" fill="#F2AB1D"/>
<path d="M112 46.54C112 46.54 100 78.7101 133.37 136.54C167.21 185.46 224.52 188.12 224.52 188.12L127.2 51.79L112 46.54Z" fill="#EE4823"/>
<path d="M295.49 145C290.157 147.827 283.49 149.24 275.49 149.24C265.19 149.24 256.943 145.923 250.75 139.29C244.557 132.657 241.46 123.957 241.46 113.19C241.46 101.61 244.943 92.2535 251.91 85.1201C258.877 77.9868 267.713 74.4168 278.42 74.4102C285.28 74.4102 290.967 75.4102 295.48 77.4102V86.4102C290.234 83.4967 284.32 82.0008 278.32 82.0702C270 82.0702 263.257 84.8468 258.09 90.4001C252.923 95.9535 250.34 103.373 250.34 112.66C250.34 121.48 252.757 128.51 257.59 133.75C262.423 138.99 268.757 141.607 276.59 141.6C283.212 141.768 289.749 140.088 295.47 136.75L295.49 145Z" fill="#383838"/>
<path d="M346.14 148.07H337.86V140H337.65C334.05 146.187 328.75 149.283 321.75 149.29C316.603 149.29 312.573 147.927 309.66 145.2C308.199 143.808 307.054 142.12 306.3 140.248C305.546 138.377 305.202 136.366 305.29 134.35C305.29 124.683 310.976 119.06 322.35 117.48L337.86 115.31C337.86 106.517 334.306 102.123 327.2 102.13C320.992 102.121 314.995 104.383 310.34 108.49V100C315.602 96.7144 321.707 95.0294 327.91 95.1501C340.056 95.1501 346.133 101.58 346.14 114.44V148.07ZM337.86 121.91L325.38 123.63C321.55 124.17 318.65 125.12 316.7 126.48C314.75 127.84 313.77 130.26 313.77 133.73C313.735 134.897 313.959 136.058 314.426 137.128C314.893 138.198 315.591 139.152 316.47 139.92C318.487 141.588 321.056 142.441 323.67 142.31C325.575 142.362 327.469 142.004 329.223 141.261C330.978 140.517 332.552 139.405 333.84 138C336.552 135.017 337.988 131.089 337.84 127.06L337.86 121.91Z" fill="#383838"/>
<path d="M388.7 104.75C386.852 103.523 384.653 102.936 382.44 103.08C378.913 103.08 375.96 104.747 373.58 108.08C371.2 111.413 370.006 115.957 370 121.71V148.07H361.72V96.3699H370V107H370.2C371.157 103.709 373.03 100.758 375.6 98.4899C377.859 96.5423 380.747 95.4769 383.73 95.4899C385.409 95.414 387.087 95.6513 388.68 96.1899L388.7 104.75Z" fill="#383838"/>
<path d="M437.88 124.29H401.37C401.51 130.043 403.06 134.487 406.02 137.62C408.98 140.753 413.053 142.317 418.24 142.31C424.075 142.286 429.724 140.256 434.24 136.56V144.33C429.7 147.63 423.7 149.28 416.24 149.28C408.906 149.28 403.166 146.947 399.02 142.28C394.873 137.613 392.786 131.007 392.76 122.46C392.76 114.407 395.04 107.85 399.6 102.79C401.705 100.357 404.319 98.4158 407.256 97.1027C410.193 95.7896 413.383 95.1367 416.6 95.19C423.366 95.19 428.6 97.38 432.3 101.76C436 106.14 437.853 112.213 437.86 119.98L437.88 124.29ZM429.4 117.29C429.36 112.51 428.206 108.79 425.94 106.13C423.673 103.47 420.516 102.137 416.47 102.13C414.603 102.094 412.749 102.448 411.027 103.169C409.305 103.891 407.753 104.964 406.47 106.32C403.656 109.349 401.901 113.209 401.47 117.32L429.4 117.29Z" fill="#383838"/>
<path d="M492 124.29H455.45C455.577 130.043 457.124 134.487 460.09 137.62C463.057 140.753 467.13 142.317 472.31 142.31C478.166 142.3 483.839 140.269 488.37 136.56V144.33C483.83 147.63 477.83 149.28 470.37 149.28C463.037 149.28 457.3 146.947 453.16 142.28C449.02 137.613 446.934 131.007 446.9 122.46C446.9 114.407 449.18 107.85 453.74 102.79C455.846 100.357 458.459 98.4158 461.397 97.1027C464.334 95.7896 467.523 95.1367 470.74 95.19C477.5 95.19 482.734 97.38 486.44 101.76C490.147 106.14 492 112.2 492 119.94V124.29ZM483.51 117.29C483.51 112.51 482.357 108.79 480.05 106.13C477.744 103.47 474.59 102.137 470.59 102.13C468.732 102.1 466.887 102.456 465.174 103.178C463.461 103.899 461.917 104.969 460.64 106.32C457.803 109.338 456.03 113.201 455.59 117.32L483.51 117.29Z" fill="#383838"/>
<path d="M531.44 104.75C529.593 103.523 527.394 102.937 525.18 103.08C521.64 103.08 518.687 104.747 516.32 108.08C513.954 111.414 512.767 115.957 512.76 121.71V148.07H504.48V96.3702H512.76V107H512.961C513.918 103.709 515.791 100.758 518.36 98.4902C520.62 96.5426 523.507 95.4772 526.49 95.4902C528.186 95.4089 529.882 95.6463 531.49 96.1902L531.44 104.75Z" fill="#383838"/>
<path d="M619.14 145C613.807 147.827 607.14 149.24 599.14 149.24C588.84 149.24 580.594 145.923 574.4 139.29C568.207 132.657 565.11 123.957 565.11 113.19C565.11 101.61 568.594 92.2535 575.56 85.1201C582.527 77.9868 591.364 74.4168 602.07 74.4102C608.937 74.4102 614.624 75.4102 619.13 77.4102V86.4102C613.888 83.5226 607.985 82.0477 602 82.1302C593.68 82.1302 586.94 84.9068 581.78 90.4602C576.62 96.0135 574.027 103.433 574 112.72C574 121.54 576.414 128.57 581.24 133.81C586.067 139.05 592.4 141.667 600.24 141.66C606.862 141.829 613.4 140.15 619.12 136.81L619.14 145Z" fill="#383838"/>
<path d="M669.79 148.07H661.51V140H661.31C657.703 146.187 652.4 149.283 645.4 149.29C640.246 149.29 636.216 147.927 633.31 145.2C631.851 143.807 630.706 142.118 629.953 140.247C629.199 138.376 628.854 136.365 628.94 134.35C628.94 124.683 634.63 119.06 646.01 117.48L661.51 115.31C661.51 106.517 657.956 102.123 650.85 102.13C644.647 102.123 638.655 104.381 634 108.48V100C639.262 96.7144 645.367 95.0294 651.57 95.1501C663.723 95.1501 669.8 101.58 669.8 114.44L669.79 148.07ZM661.51 121.91L649 123.63C645.16 124.17 642.263 125.12 640.31 126.48C638.31 127.85 637.38 130.26 637.38 133.73C637.345 134.897 637.569 136.058 638.036 137.128C638.503 138.198 639.201 139.152 640.08 139.92C642.097 141.588 644.665 142.441 647.28 142.31C649.191 142.368 651.093 142.013 652.855 141.269C654.617 140.525 656.198 139.41 657.49 138C660.202 135.017 661.638 131.089 661.49 127.06L661.51 121.91Z" fill="#383838"/>
<path d="M758.8 148.07H750.52V118.38C750.52 112.66 749.637 108.52 747.87 105.96C746.11 103.4 743.13 102.12 738.96 102.12C735.427 102.12 732.427 103.737 729.96 106.97C727.447 110.31 726.14 114.402 726.25 118.58V148.07H718V117.37C718 107.197 714.077 102.114 706.23 102.12C704.473 102.102 702.737 102.509 701.171 103.304C699.604 104.1 698.252 105.261 697.23 106.69C694.877 109.744 693.7 113.707 693.7 118.58V148.07H685.42V96.3702H693.7V104.54H693.9C697.567 98.2802 702.92 95.1502 709.96 95.1502C713.237 95.0821 716.446 96.0937 719.091 98.0291C721.737 99.9645 723.673 102.716 724.6 105.86C728.44 98.7202 734.163 95.1502 741.77 95.1502C753.15 95.1502 758.837 102.17 758.83 116.21L758.8 148.07Z" fill="#383838"/>
<path d="M782.94 140.6H782.74V171.85H774.46V96.3699H782.74V105.45H782.94C787.007 98.5899 792.963 95.1566 800.81 95.1499C807.477 95.1499 812.68 97.4666 816.42 102.1C820.16 106.733 822.027 112.933 822.02 120.7C822.02 129.367 819.917 136.293 815.71 141.48C811.503 146.667 805.747 149.267 798.44 149.28C791.74 149.28 786.573 146.387 782.94 140.6ZM782.74 119.74V127C782.645 131.032 784.14 134.94 786.9 137.88C788.385 139.397 790.177 140.578 792.157 141.345C794.136 142.111 796.257 142.445 798.376 142.324C800.495 142.203 802.564 141.629 804.443 140.642C806.322 139.654 807.968 138.276 809.27 136.6C812.11 132.76 813.533 127.427 813.54 120.6C813.54 114.84 812.207 110.33 809.54 107.07C808.245 105.467 806.593 104.189 804.716 103.339C802.839 102.488 800.789 102.088 798.73 102.17C796.544 102.085 794.368 102.49 792.359 103.355C790.35 104.22 788.56 105.524 787.12 107.17C784.144 110.667 782.582 115.15 782.74 119.74V119.74Z" fill="#383838"/>
</svg>
