<svg xmlns="http://www.w3.org/2000/svg" width="12.312" height="12.471" viewBox="0 0 12.312 12.471">
  <g id="close-menu" transform="translate(0 0)">
    <path id="Path_2119" data-name="Path 2119" d="M9.227.538A1.793,1.793,0,0,1,11.78.531a1.836,1.836,0,0,1,.007,2.578L8.7,6.237,11.79,9.369a1.821,1.821,0,0,1-.021,2.562,1.791,1.791,0,0,1-2.545,0L6.158,8.818,3.085,11.934a1.793,1.793,0,0,1-2.553.007A1.836,1.836,0,0,1,.525,9.363L3.61,6.234.522,3.1A1.821,1.821,0,0,1,.543.54a1.791,1.791,0,0,1,2.545,0l3.067,3.11L9.227.538Z" transform="translate(0)" fill="#353263" fill-rule="evenodd"/>
  </g>
</svg>
