<svg xmlns="http://www.w3.org/2000/svg" width="210.115" height="158.247" viewBox="0 0 210.115 158.247">
  <g id="cta1-small" transform="translate(0)">
    <path id="Path_826" data-name="Path 826" d="M125.735,95.264c-.625-8.4-9.78-13.345-17.335-9.618C100.2,89.7,90.134,99,88.052,120.327c-3.639,37.2,48.883,35.938,48.883,35.938l2.057-6.554s-34.356-7.335-33.725-22.512C105.974,110.228,126.723,108.952,125.735,95.264Z" transform="translate(-57.96 -40.868)" fill="#eb2424"/>
    <path id="Path_827" data-name="Path 827" d="M125.735,95.264c-.625-8.4-9.78-13.345-17.335-9.618C100.2,89.7,90.134,99,88.052,120.327c-3.639,37.2,48.883,35.938,48.883,35.938l2.057-6.554s-34.356-7.335-33.725-22.512C105.974,110.228,126.723,108.952,125.735,95.264Z" transform="translate(-57.96 -40.868)" fill="#fff" opacity="0.46"/>
    <ellipse id="Ellipse_133" data-name="Ellipse 133" cx="105.058" cy="11.45" rx="105.058" ry="11.45" transform="translate(0 135.347)" fill="#e6e6e6" opacity="0.45"/>
    <path id="Path_828" data-name="Path 828" d="M76.436,239.82s1.082,2.945,3.752,3.127,3.377,2.808.988,3.5-8.586-2.333-8.586-2.333l.144-3.846Z" transform="translate(-52.235 -99.101)" fill="#eb2424"/>
    <path id="Path_829" data-name="Path 829" d="M117.636,239.82s1.082,2.945,3.752,3.127,3.383,2.808.994,3.5-8.592-2.333-8.592-2.333l.144-3.846Z" transform="translate(-67.671 -99.101)" fill="#eb2424"/>
    <g id="Group_83" data-name="Group 83" transform="translate(51.291 0)">
      <path id="Path_830" data-name="Path 830" d="M21.575,14.678s-5.19,9.373-10.62,14.238a5.264,5.264,0,0,1-7.521-.5C1.068,25.6-1.326,21.119.861,15.733L3.467,6.172A9.535,9.535,0,0,1,12.659.005C20.009-.133,25.039,9.115,21.575,14.678Z" transform="translate(24.349 5.208) rotate(-3)" fill="#f4a28c"/>
      <path id="Path_831" data-name="Path 831" d="M26.059,0,0,23.3,13.625,36.961,26.778,15.089Z" transform="translate(0 15.925) rotate(-3)" fill="#f4a28c"/>
      <path id="Path_832" data-name="Path 832" d="M21.875,16.952a42.82,42.82,0,0,1-7.617-6.239,8.993,8.993,0,0,1-5.476,8.133A7.1,7.1,0,0,1,0,16.27L7.833,4.954A10.769,10.769,0,0,1,17.813.042a35.578,35.578,0,0,1,4.995.74c4.119.916,7.373,6.4,11.751,6.192a2.539,2.539,0,0,1,2.2,1.19,2.634,2.634,0,0,1,.152,2.529C35.083,14.518,30.8,19.556,24.9,18.248a9.757,9.757,0,0,1-3.028-1.3Z" transform="translate(21.464 1.945) rotate(-3)" fill="#24285b"/>
      <path id="Path_833" data-name="Path 833" d="M4.6,5.236S6.824,1.775,4.127.275-1.834,3.782,1.25,6.625Z" transform="translate(27.495 15.651) rotate(-3)" fill="#f4a28c"/>
      <path id="Path_834" data-name="Path 834" d="M6.019,0l.125,5.122A1.734,1.734,0,0,1,5.391,6.6a1.671,1.671,0,0,1-1.631.143L0,5.069Z" transform="translate(37.336 24.987) rotate(-3)" fill="#f4a28c"/>
      <path id="Path_835" data-name="Path 835" d="M5.551,6.623A13.252,13.252,0,0,1,3.217,0S-2.93,4.544,1.771,12.887Z" transform="translate(21.3 23.915) rotate(-3)" fill="#ce8172" opacity="0.31"/>
    </g>
    <path id="Path_836" data-name="Path 836" d="M312.363,218.319a4.073,4.073,0,0,1,5.941,0c3.127,2.97.782,5.628.782,5.628s3.908-2.314,5.315.625a3.972,3.972,0,0,1,.381,2.126,2.533,2.533,0,0,0,2.739,2.7c3.127-.181,6.879.488,7.5,4.546l-13.132-.782L311.3,225.467Z" transform="translate(-141.669 -90.551)" fill="#e6e6e6"/>
    <path id="Path_837" data-name="Path 837" d="M301.24,201.205s10.131-26.477,4.921-66.705c0,0,12.669,37.408-.15,68.162Z" transform="translate(-137.9 -59.643)" fill="#a5a5a5"/>
    <path id="Path_838" data-name="Path 838" d="M98.967,55.5s22.356,3.045,38.609,20.511S97.7,129.326,97.7,129.326L68.307,119.239S66.356,47.95,98.967,55.5Z" transform="translate(-50.622 -29.836)" fill="#eb2424"/>
    <path id="Path_839" data-name="Path 839" d="M167.038,175l-.144-.063-3.589-1.876a10.668,10.668,0,0,1,9.893-18.9l3.589,1.876a1.015,1.015,0,0,1-.938,1.8l-3.589-1.876a8.639,8.639,0,0,0-8.011,15.308l3.589,1.876a1.02,1.02,0,1,1-.8,1.876Z" transform="translate(-84.162 -66.598)" fill="#ffd200"/>
    <path id="Path_840" data-name="Path 840" d="M102.889,71.94s7.7,15.634-5.1,29.591,11.131,26.3,11.131,26.3l-11.212,7.861L68.32,125.607s.425-13.607.869-20.149S102.889,71.94,102.889,71.94Z" transform="translate(-50.635 -36.204)" opacity="0.08"/>
    <path id="Path_841" data-name="Path 841" d="M167.038,175l-.144-.063-3.589-1.876a10.668,10.668,0,0,1,9.893-18.9l3.589,1.876a1.015,1.015,0,0,1-.938,1.8l-3.589-1.876a8.639,8.639,0,0,0-8.011,15.308l3.589,1.876a1.02,1.02,0,1,1-.8,1.876Z" transform="translate(-84.162 -66.598)" fill="#fff" opacity="0.6"/>
    <path id="Path_842" data-name="Path 842" d="M103.195,66.373c-1.72-8.242-11.475-11.925-18.466-7.216-7.592,5.109-16.3,15.671-15.546,37.077,1.357,37.352,53.242,29.11,53.242,29.11l1.163-6.772s-35.019-2.7-36.42-17.81C85.6,83.839,106,79.805,103.195,66.373Z" transform="translate(-50.941 -30.637)" fill="#eb2424"/>
    <path id="Path_843" data-name="Path 843" d="M103.195,66.373c-1.72-8.242-11.475-11.925-18.466-7.216-7.592,5.109-16.3,15.671-15.546,37.077,1.357,37.352,53.242,29.11,53.242,29.11l1.163-6.772s-35.019-2.7-36.42-17.81C85.6,83.839,106,79.805,103.195,66.373Z" transform="translate(-50.941 -30.637)" fill="#fff" opacity="0.46"/>
    <path id="Path_844" data-name="Path 844" d="M177.483,147.51,159.83,173.055l24.664,12.913,8.892-30.135Z" transform="translate(-84.92 -64.517)" fill="#ffd200"/>
    <path id="Path_845" data-name="Path 845" d="M192,185.6,217.97,171.29l6.353,3.327a1,1,0,0,1-.481,1.876l-2.889-.056a4.208,4.208,0,0,0-2.239.625L194.107,191.82Z" transform="translate(-96.973 -73.426)" fill="#ffd200"/>
    <path id="Path_846" data-name="Path 846" d="M155.173,158.213s6.2-2.195,8.129,1.4-2.42,4.94-8.942,3.371Z" transform="translate(-82.871 -68.278)" fill="#f4a28c"/>
    <path id="Path_847" data-name="Path 847" d="M188.06,147.51l10.556.35,5.347,7.973Z" transform="translate(-95.497 -64.517)" fill="#ffd200"/>
    <path id="Path_848" data-name="Path 848" d="M188.06,147.51l10.556.35,5.347,7.973Z" transform="translate(-95.497 -64.517)" opacity="0.17"/>
    <path id="Path_849" data-name="Path 849" d="M166.83,195.918s5.722,2.827,7.936-.688l-6.979-2.37Z" transform="translate(-87.543 -81.508)" fill="#f4a28c"/>
    <g id="Group_78" data-name="Group 78" transform="translate(127.858 98.228)" opacity="0.48">
      <path id="Path_850" data-name="Path 850" d="M244.5,173.416s.319-.106.9-.256" transform="translate(-244.5 -172.355)" fill="none" stroke="#c9c9c9" stroke-linecap="round" stroke-linejoin="round" stroke-width="2"/>
      <path id="Path_851" data-name="Path 851" d="M250.55,172.127c6.791-.913,20.924-.325,27.515,18.335" transform="translate(-246.767 -171.872)" fill="none" stroke="#c9c9c9" stroke-linecap="round" stroke-linejoin="round" stroke-width="2" stroke-dasharray="2.82 4.7"/>
      <path id="Path_852" data-name="Path 852" d="M295.3,203.83c.094.294.188.588.275.894" transform="translate(-263.533 -183.845)" fill="none" stroke="#c9c9c9" stroke-linecap="round" stroke-linejoin="round" stroke-width="2"/>
    </g>
    <path id="Path_853" data-name="Path 853" d="M68.27,157.76,69.7,209.707h6.091l3.7-28.766a12.419,12.419,0,0,1,8.817-10.324l9.38-2.764Z" transform="translate(-50.617 -68.357)" fill="#24285b"/>
    <path id="Path_854" data-name="Path 854" d="M106.508,173.89l4.058,41.86h-5.884L91.8,176.623Z" transform="translate(-59.432 -74.4)" fill="#24285b"/>
    <path id="Path_855" data-name="Path 855" d="M316.92,199.844s1.876-10.005,16.665-9.286C333.585,190.558,330.484,205.679,316.92,199.844Z" transform="translate(-143.775 -80.631)" fill="#c9c9c9"/>
    <path id="Path_856" data-name="Path 856" d="M302.552,120.347s-7.323-10.005-2.364-16.259,23.957-.406,10.3,16.653Z" transform="translate(-136.861 -47.335)" fill="#e6e6e6"/>
    <path id="Path_857" data-name="Path 857" d="M314.7,124.47s6.766-10.362,14.383-7.923,8.792,22.287-11.975,15.5Z" transform="translate(-142.943 -52.777)" fill="#e6e6e6"/>
    <path id="Path_858" data-name="Path 858" d="M318.311,139.312s12.244-1.807,15.471,5.509-10.843,21.368-19.542,1.319Z" transform="translate(-142.771 -61.371)" fill="#e6e6e6"/>
    <path id="Path_859" data-name="Path 859" d="M310.4,149.29s8.054,9.38,3.583,16.028-23.857,2.2-11.531-15.834Z" transform="translate(-136.84 -65.184)" fill="#e6e6e6"/>
    <path id="Path_860" data-name="Path 860" d="M295.722,124.216s-4.859-11.381-12.788-10.3-12.538,20.411,9.1,17.341Z" transform="translate(-128.568 -51.904)" fill="#e6e6e6"/>
    <path id="Path_861" data-name="Path 861" d="M290.572,139.215s-11.969-1.313-14.683,5.991,11.731,20.561,19.023.557Z" transform="translate(-128.277 -61.375)" fill="#e6e6e6"/>
    <ellipse id="Ellipse_134" data-name="Ellipse 134" cx="8.799" cy="8.799" rx="8.799" ry="8.799" transform="translate(160.869 69.848)" fill="#c9c9c9"/>
    <circle id="Ellipse_135" data-name="Ellipse 135" cx="4.384" cy="4.384" r="4.384" transform="translate(162.77 72.037)" fill="#a5a5a5" opacity="0.43"/>
    <ellipse id="Ellipse_136" data-name="Ellipse 136" cx="1.826" cy="1.826" rx="1.826" ry="1.826" transform="translate(163.765 73.419)" fill="#a5a5a5" opacity="0.43"/>
    <path id="Path_862" data-name="Path 862" d="M267.254,232.331s-2.5-3.483,1.563-6.566,6.4,3.752,10.005-.863c2.189-2.814-.55-3.6,2.5-8.517,1.407-2.27,5.159-4.377,8.755-.625a10.087,10.087,0,0,1,2.42,3.921,1.426,1.426,0,0,0,2.139.757c.957-.625,2.3-.832,4.1.244a4.277,4.277,0,0,1,2.339,3.5,3.177,3.177,0,0,0,3.089,3.083c3.221,0,7.179.894,7.179,5.065Z" transform="translate(-124.882 -89.317)" fill="#c9c9c9"/>
  </g>
</svg>
