<svg xmlns="http://www.w3.org/2000/svg" xmlns:xlink="http://www.w3.org/1999/xlink" width="248.184" height="144.113" viewBox="0 0 248.184 144.113">
  <defs>
    <linearGradient id="linear-gradient" x1="0.5" y1="1" x2="0.5" y2="-0.001" gradientUnits="objectBoundingBox">
      <stop offset="0" stop-color="gray" stop-opacity="0.251"/>
      <stop offset="0.54" stop-color="gray" stop-opacity="0.122"/>
      <stop offset="1" stop-color="gray" stop-opacity="0.102"/>
    </linearGradient>
  </defs>
  <g id="h2gd-1-small" transform="translate(0)">
    <g id="Group_74" data-name="Group 74" transform="translate(159.389 0)" opacity="0.1">
      <ellipse id="Ellipse_49" data-name="Ellipse 49" cx="4.796" cy="6.277" rx="4.796" ry="6.277" transform="translate(18.287 129.428)" fill="#3f3d56"/>
      <path id="Path_432" data-name="Path 432" d="M855.41,583.024a7.563,7.563,0,0,0,1.01-3.837c0-3.474-2.148-6.277-4.8-6.277s-4.794,2.81-4.794,6.277a7.562,7.562,0,0,0,1,3.837,7.849,7.849,0,0,0,0,7.671,7.854,7.854,0,0,0,0,7.674,7.563,7.563,0,0,0-1,3.837c0,3.474,2.147,6.277,4.794,6.277s4.8-2.81,4.8-6.277a7.563,7.563,0,0,0-1-3.837,7.854,7.854,0,0,0,0-7.674,7.85,7.85,0,0,0,0-7.671Z" transform="translate(-828.53 -474.174)" fill="#3f3d56"/>
      <ellipse id="Ellipse_50" data-name="Ellipse 50" cx="4.796" cy="6.277" rx="4.796" ry="6.277" transform="translate(18.287 91.065)" fill="#3f3d56"/>
      <ellipse id="Ellipse_51" data-name="Ellipse 51" cx="4.796" cy="6.277" rx="4.796" ry="6.277" transform="translate(18.287 83.392)" fill="#3f3d56"/>
      <path id="Path_433" data-name="Path 433" d="M803.595,155.345a23.137,23.137,0,0,0,1.785-2.629l-12.594-2.069,13.63.1a23.016,23.016,0,0,0,.434-18.2l-18.287,9.48,16.867-12.39a22.973,22.973,0,1,0-37.944,25.706,23.021,23.021,0,0,0-2.619,4.189l16.357,8.5-17.44-5.863a22.973,22.973,0,0,0,3.691,21.57,22.971,22.971,0,1,0,36.11,0,22.971,22.971,0,0,0,0-28.4Z" transform="translate(-762.558 -118.183)" fill="#eb2424"/>
      <path id="Path_434" data-name="Path 434" d="M762.609,353.518a22.867,22.867,0,0,0,4.916,14.2,22.971,22.971,0,1,0,36.109,0C806.713,363.811,762.609,350.939,762.609,353.518Z" transform="translate(-762.597 -302.154)" opacity="0.1"/>
    </g>
    <g id="Group_75" data-name="Group 75" transform="translate(34.025 48.84)" opacity="0.1">
      <ellipse id="Ellipse_52" data-name="Ellipse 52" cx="2.918" cy="3.822" rx="2.918" ry="3.822" transform="translate(11.002 78.786)" fill="#3f3d56"/>
      <path id="Path_435" data-name="Path 435" d="M241.148,626.068a4.61,4.61,0,0,0,.61-2.336c0-2.111-1.3-3.822-2.92-3.822s-2.918,1.711-2.918,3.822a4.609,4.609,0,0,0,.608,2.336,4.79,4.79,0,0,0,0,4.67,4.79,4.79,0,0,0,0,4.671,4.6,4.6,0,0,0-.608,2.334c0,2.113,1.3,3.824,2.918,3.824s2.92-1.711,2.92-3.824a4.6,4.6,0,0,0-.61-2.334,714806.268,714806.268,0,0,1,0-9.341Z" transform="translate(-224.906 -559.808)" fill="#3f3d56"/>
      <ellipse id="Ellipse_53" data-name="Ellipse 53" cx="2.918" cy="3.822" rx="2.918" ry="3.822" transform="translate(11.002 55.431)" fill="#3f3d56"/>
      <ellipse id="Ellipse_54" data-name="Ellipse 54" cx="2.918" cy="3.822" rx="2.918" ry="3.822" transform="translate(11.002 50.761)" fill="#3f3d56"/>
      <path id="Path_436" data-name="Path 436" d="M188.2,365.73a13.914,13.914,0,0,1-1.086-1.6l7.671-1.259-8.3.063a14.021,14.021,0,0,1-.267-11.074l11.124,5.778-10.264-7.556a13.983,13.983,0,1,1,23.1,15.649,13.97,13.97,0,0,1,1.594,2.547l-9.958,5.176,10.618-3.563a13.992,13.992,0,0,1-2.254,13.132,13.983,13.983,0,1,1-21.983,0,13.988,13.988,0,0,1,0-17.293Z" transform="translate(-185.199 -343.114)" fill="#eb2424"/>
      <path id="Path_437" data-name="Path 437" d="M213.166,486.348a13.929,13.929,0,0,1-2.992,8.646,13.983,13.983,0,1,1-21.983,0C186.317,492.625,213.166,484.778,213.166,486.348Z" transform="translate(-185.199 -455.086)" opacity="0.1"/>
    </g>
    <g id="Group_76" data-name="Group 76" transform="translate(95.109 22.878)" opacity="0.1">
      <ellipse id="Ellipse_55" data-name="Ellipse 55" cx="3.906" cy="5.113" rx="3.906" ry="5.113" transform="translate(14.722 105.491)" fill="#3f3d56"/>
      <path id="Path_438" data-name="Path 438" d="M541.3,602.46a6.166,6.166,0,0,0,.814-3.127c0-2.823-1.737-5.114-3.908-5.114s-3.908,2.291-3.908,5.114a6.148,6.148,0,0,0,.816,3.127,6.393,6.393,0,0,0,0,6.251,6.388,6.388,0,0,0,0,6.249,6.149,6.149,0,0,0-.816,3.127c0,2.823,1.75,5.113,3.908,5.113s3.908-2.291,3.908-5.113a6.167,6.167,0,0,0-.814-3.127,6.4,6.4,0,0,0,0-6.249A6.405,6.405,0,0,0,541.3,602.46Z" transform="translate(-519.581 -513.734)" fill="#3f3d56"/>
      <ellipse id="Ellipse_56" data-name="Ellipse 56" cx="3.906" cy="5.113" rx="3.906" ry="5.113" transform="translate(14.722 74.236)" fill="#3f3d56"/>
      <ellipse id="Ellipse_57" data-name="Ellipse 57" cx="3.906" cy="5.113" rx="3.906" ry="5.113" transform="translate(14.722 67.985)" fill="#3f3d56"/>
      <path id="Path_439" data-name="Path 439" d="M470.532,253.87a18.662,18.662,0,0,1-1.455-2.141l10.264-1.685-11.1.083a18.749,18.749,0,0,1-.358-14.828l14.9,7.726-13.738-10.1a18.715,18.715,0,1,1,30.9,20.943,18.744,18.744,0,0,1,2.132,3.413l-13.323,6.922,14.207-4.777A18.721,18.721,0,0,1,499.94,277a18.713,18.713,0,1,1-29.417,0,18.719,18.719,0,0,1,0-23.14Z" transform="translate(-466.519 -223.547)" fill="#eb2424"/>
      <path id="Path_440" data-name="Path 440" d="M503.944,415.495a18.632,18.632,0,0,1-4,11.569,18.713,18.713,0,1,1-29.417,0C468.015,423.88,503.944,413.393,503.944,415.495Z" transform="translate(-466.519 -373.6)" opacity="0.1"/>
    </g>
    <path id="Path_441" data-name="Path 441" d="M312.109,732.855c0,1.492-10.9,2.855-28.933,3.908-3.279.189-6.792.369-10.518.539q-4.829.217-10.123.411-5.129.182-10.65.339c-11.625.332-24.477.571-38.131.69q-4.97.046-10.073.069-5.315.024-10.752.022c-65.822,0-119.178-2.673-119.178-5.971s53.356-5.971,119.178-5.971c28.338,0,54.362.5,74.816,1.322l2.237.091h.013C295.759,729.4,312.109,731.04,312.109,732.855Z" transform="translate(-63.925 -594.719)" fill="#3f3d56"/>
    <path id="Path_442" data-name="Path 442" d="M312.109,732.855c0,1.492-10.9,2.855-28.933,3.908-3.279.189-6.792.369-10.518.539q-4.829.217-10.123.411-5.129.182-10.65.339c-11.625.332-24.477.571-38.131.69q-4.97.046-10.073.069-5.315.024-10.752.022c-65.822,0-119.178-2.673-119.178-5.971s53.356-5.971,119.178-5.971c28.338,0,54.362.5,74.816,1.322l2.237.091h.013C295.759,729.4,312.109,731.04,312.109,732.855Z" transform="translate(-63.925 -594.719)" opacity="0.15"/>
    <path id="Path_443" data-name="Path 443" d="M266.859,731.491c0,1.246-10.9,2.389-28.933,3.257-3.277.158-6.792.308-10.516.449q-4.831.183-10.123.343-5.129.152-10.65.284c-11.628.278-24.48.478-38.133.578q-4.966.037-10.073.057-5.315.019-10.75.019c-65.822,0-119.18-2.234-119.18-4.994s53.358-4.994,119.18-4.994c28.336,0,54.359.415,74.814,1.105l2.236.076h.015C250.519,728.6,266.859,729.964,266.859,731.491Z" transform="translate(-28.5 -594.406)" fill="#3f3d56"/>
    <path id="Path_447" data-name="Path 447" d="M625.369,258.663a20.486,20.486,0,0,1-17.516-8.822q-6.4-8.822-6.4-21.375,0-12.637,6.193-21.331t17.471-8.685q11.96,0,18.022,9.161a37.549,37.549,0,0,1,6.065,21.205,35.486,35.486,0,0,1-6.275,20.906Q636.65,258.67,625.369,258.663Zm.217-6.616a11.785,11.785,0,0,0,10.928-6.373q3.618-6.373,3.617-16.068,0-10.792-3.7-17.673a12.108,12.108,0,0,0-11.356-6.883q-14.548,0-14.548,23.112,0,23.887,15.056,23.885Zm2.441,63.357H617.312l70.152-115.776h10.514Zm62.061,1.188q-11.28,0-17.588-8.9t-6.334-21.377q0-12.553,6.149-21.247t17.514-8.685q11.875,0,17.9,9.161a37.734,37.734,0,0,1,6.023,21.2,35.7,35.7,0,0,1-6.234,20.867q-6.234,8.987-17.431,8.981Zm.126-6.785a11.738,11.738,0,0,0,10.87-6.264q3.594-6.264,3.594-16,0-10.423-3.637-17.482t-11.332-7.07q-14.633,0-14.633,23.112,0,23.709,15.134,23.707Z" transform="translate(-477.043 -181.021)" fill="#3f3d56"/>
    <path id="Path_448" data-name="Path 448" d="M625.369,258.663a20.486,20.486,0,0,1-17.516-8.822q-6.4-8.822-6.4-21.375,0-12.637,6.193-21.331t17.471-8.685q11.96,0,18.022,9.161a37.549,37.549,0,0,1,6.065,21.205,35.486,35.486,0,0,1-6.275,20.906Q636.65,258.67,625.369,258.663Zm.217-6.616a11.785,11.785,0,0,0,10.928-6.373q3.618-6.373,3.617-16.068,0-10.792-3.7-17.673a12.108,12.108,0,0,0-11.356-6.883q-14.548,0-14.548,23.112,0,23.887,15.056,23.885Zm2.441,63.357H617.312l70.152-115.776h10.514Zm62.061,1.188q-11.28,0-17.588-8.9t-6.334-21.377q0-12.553,6.149-21.247t17.514-8.685q11.875,0,17.9,9.161a37.734,37.734,0,0,1,6.023,21.2,35.7,35.7,0,0,1-6.234,20.867q-6.234,8.987-17.431,8.981Zm.126-6.785a11.738,11.738,0,0,0,10.87-6.264q3.594-6.264,3.594-16,0-10.423-3.637-17.482t-11.332-7.07q-14.633,0-14.633,23.112,0,23.709,15.134,23.707Z" transform="translate(-477.043 -181.021)" fill="#3f3d56"/>
    <path id="Path_450" data-name="Path 450" d="M594.37,258.663a20.486,20.486,0,0,1-17.516-8.822q-6.4-8.822-6.4-21.375,0-12.637,6.193-21.331t17.471-8.685q11.96,0,18.022,9.161a37.55,37.55,0,0,1,6.065,21.205,35.485,35.485,0,0,1-6.275,20.906Q605.65,258.67,594.37,258.663Zm.217-6.616a11.784,11.784,0,0,0,10.928-6.373q3.618-6.373,3.617-16.068,0-10.792-3.7-17.673a12.108,12.108,0,0,0-11.356-6.883q-14.548,0-14.548,23.112,0,23.887,15.056,23.885Zm2.441,63.357H586.312l70.152-115.776h10.514Zm62.061,1.188q-11.28,0-17.588-8.9t-6.334-21.377q0-12.553,6.149-21.247t17.514-8.685q11.875,0,17.9,9.161a37.733,37.733,0,0,1,6.023,21.2,35.7,35.7,0,0,1-6.234,20.867q-6.234,8.987-17.432,8.981Zm.126-6.785a11.738,11.738,0,0,0,10.87-6.264q3.594-6.264,3.594-16,0-10.423-3.637-17.482t-11.337-7.07q-14.633,0-14.633,23.112,0,23.709,15.138,23.707Z" transform="translate(-452.774 -181.021)" fill="#3f3d56"/>
    <path id="Path_451" data-name="Path 451" d="M774.68,618.766c.895-1.659-.122-3.691-1.29-5.172s-2.593-3.018-2.562-4.905c.043-2.708,2.918-4.308,5.211-5.745a25.421,25.421,0,0,0,4.686-3.765,6.882,6.882,0,0,0,1.44-1.928,7.879,7.879,0,0,0,.434-3.424q-.15-5.8-.573-11.586" transform="translate(-609.643 -481.478)" fill="none" stroke="#3f3d56" stroke-miterlimit="10" stroke-width="4"/>
    <path id="Path_452" data-name="Path 452" d="M812.067,566.738a4.219,4.219,0,0,0-2.108-3.461l-.947,1.872.028-2.267a4.281,4.281,0,0,0-1.392-.167,4.225,4.225,0,1,0,4.419,4.023Z" transform="translate(-635.316 -466.188)" fill="#eb2424"/>
    <path id="Path_453" data-name="Path 453" d="M779.054,690.8a4.223,4.223,0,1,1,.2-3.4l-2.64,2.147,2.909-.678a4.211,4.211,0,0,1-.473,1.933Z" transform="translate(-609.838 -561.65)" fill="#eb2424"/>
    <path id="Path_454" data-name="Path 454" d="M782.26,644.712a4.225,4.225,0,0,1-4.419-4.024,4.177,4.177,0,0,1,.365-1.926,4.232,4.232,0,0,1,2.706-2.343l-.024,1.737.957-1.893h0a4.226,4.226,0,0,1,.4,8.442Z" transform="translate(-615.13 -523.767)" fill="#eb2424"/>
    <path id="Path_455" data-name="Path 455" d="M829.495,613.294a4.227,4.227,0,1,1,1.867-7.908l-.747,2.045,1.537-1.474a4.212,4.212,0,0,1,1.37,2.916,4.126,4.126,0,0,1-.109,1.164,4.228,4.228,0,0,1-3.919,3.257Z" transform="translate(-652.108 -499.173)" fill="#eb2424"/>
    <path id="Path_456" data-name="Path 456" d="M811.506,576.21c-.975.106-1.922.41-2.9.471a3.151,3.151,0,0,1-2.673-.936,12.873,12.873,0,0,1-.782-1.374,2.994,2.994,0,0,0-1.064-1,4.225,4.225,0,1,0,7.9,2.8C811.825,576.182,811.667,576.193,811.506,576.21Z" transform="translate(-635.324 -474.534)" opacity="0.1"/>
    <path id="Path_457" data-name="Path 457" d="M829.506,622.028A4.23,4.23,0,0,1,825.487,616a3.165,3.165,0,0,1,.849.851,13.89,13.89,0,0,0,.838,1.4,3.445,3.445,0,0,0,2.8.981c1.018-.046,2-.337,3.02-.434.141-.013.284-.022.434-.026A4.227,4.227,0,0,1,829.506,622.028Z" transform="translate(-652.118 -507.907)" opacity="0.1"/>
    <path id="Path_458" data-name="Path 458" d="M782.26,653.74a4.225,4.225,0,0,1-4.419-4.023,4.178,4.178,0,0,1,.365-1.926,3.4,3.4,0,0,1,.892.869,14.456,14.456,0,0,0,.918,1.424,3.909,3.909,0,0,0,2.99,1.047c1.079-.026,2.054-.278,3.094-.358a4.228,4.228,0,0,1-3.841,2.968Z" transform="translate(-615.13 -532.795)" opacity="0.1"/>
    <path id="Path_459" data-name="Path 459" d="M779,700.568a11.993,11.993,0,1,0-6.777-2.621,16.627,16.627,0,0,0,1.131,1.5,5.309,5.309,0,0,0,3.5,1.229,18,18,0,0,0,2.145-.111Z" transform="translate(-609.788 -571.413)" opacity="0.1"/>
    <path id="Path_460" data-name="Path 460" d="M1075.68,617.766c.895-1.659-.122-3.691-1.29-5.172s-2.593-3.018-2.562-4.905c.043-2.708,2.918-4.308,5.211-5.745a25.417,25.417,0,0,0,4.686-3.765,6.881,6.881,0,0,0,1.44-1.928,7.881,7.881,0,0,0,.434-3.424q-.15-5.8-.573-11.586" transform="translate(-845.286 -480.695)" fill="none" stroke="#3f3d56" stroke-miterlimit="10" stroke-width="4"/>
    <path id="Path_461" data-name="Path 461" d="M1113.067,565.738a4.218,4.218,0,0,0-2.108-3.461l-.947,1.872.028-2.267a4.279,4.279,0,0,0-1.392-.167,4.225,4.225,0,1,0,4.418,4.024Z" transform="translate(-870.958 -465.405)" fill="#eb2424"/>
    <path id="Path_462" data-name="Path 462" d="M1080.054,689.8a4.223,4.223,0,1,1,.2-3.4l-2.64,2.147,2.91-.678A4.211,4.211,0,0,1,1080.054,689.8Z" transform="translate(-845.48 -560.867)" fill="#eb2424"/>
    <path id="Path_463" data-name="Path 463" d="M1083.26,643.712a4.226,4.226,0,0,1-4.419-4.024,4.178,4.178,0,0,1,.365-1.926,4.231,4.231,0,0,1,2.706-2.343l-.024,1.737.958-1.893h.011a4.226,4.226,0,0,1,.4,8.442Z" transform="translate(-850.773 -522.984)" fill="#eb2424"/>
    <path id="Path_464" data-name="Path 464" d="M1130.495,612.294a4.227,4.227,0,1,1,1.867-7.908l-.747,2.045,1.537-1.474a4.213,4.213,0,0,1,1.37,2.916,4.13,4.13,0,0,1-.108,1.164A4.228,4.228,0,0,1,1130.495,612.294Z" transform="translate(-887.75 -498.391)" fill="#eb2424"/>
    <path id="Path_465" data-name="Path 465" d="M1112.506,575.21c-.975.106-1.922.41-2.9.471a3.151,3.151,0,0,1-2.673-.936,12.878,12.878,0,0,1-.782-1.375,3,3,0,0,0-1.064-1,4.225,4.225,0,1,0,7.9,2.8C1112.825,575.182,1112.667,575.193,1112.506,575.21Z" transform="translate(-870.966 -473.751)" opacity="0.1"/>
    <path id="Path_466" data-name="Path 466" d="M1130.505,621.028a4.23,4.23,0,0,1-4.019-6.028,3.166,3.166,0,0,1,.849.851,13.953,13.953,0,0,0,.838,1.4,3.444,3.444,0,0,0,2.8.981c1.018-.046,2-.336,3.02-.434.141-.013.285-.022.434-.026A4.228,4.228,0,0,1,1130.505,621.028Z" transform="translate(-887.761 -507.124)" opacity="0.1"/>
    <path id="Path_467" data-name="Path 467" d="M1083.26,652.74a4.226,4.226,0,0,1-4.419-4.024,4.179,4.179,0,0,1,.365-1.926,3.4,3.4,0,0,1,.893.869,14.426,14.426,0,0,0,.918,1.424,3.909,3.909,0,0,0,2.99,1.047c1.047-.022,2.054-.278,3.094-.358A4.228,4.228,0,0,1,1083.26,652.74Z" transform="translate(-850.773 -532.012)" opacity="0.1"/>
    <path id="Path_468" data-name="Path 468" d="M1080,699.568a11.991,11.991,0,1,0-6.777-2.621,16.662,16.662,0,0,0,1.131,1.5,5.31,5.31,0,0,0,3.5,1.229A17.963,17.963,0,0,0,1080,699.568Z" transform="translate(-845.43 -570.631)" opacity="0.1"/>
    <path id="Path_469" data-name="Path 469" d="M109.841,604.766c-.895-1.659.122-3.691,1.29-5.172s2.593-3.018,2.562-4.905c-.043-2.708-2.918-4.308-5.211-5.745a25.428,25.428,0,0,1-4.686-3.765,6.88,6.88,0,0,1-1.44-1.928,7.88,7.88,0,0,1-.434-3.424q.15-5.8.573-11.586" transform="translate(-85.971 -470.518)" fill="none" stroke="#3f3d56" stroke-miterlimit="10" stroke-width="4"/>
    <path id="Path_470" data-name="Path 470" d="M84.463,552.738a4.219,4.219,0,0,1,2.108-3.461l.947,1.872-.028-2.267a4.279,4.279,0,0,1,1.392-.167,4.225,4.225,0,1,1-4.419,4.024Z" transform="translate(-72.308 -455.228)" fill="#eb2424"/>
    <path id="Path_471" data-name="Path 471" d="M117.473,676.8a4.223,4.223,0,1,0-.2-3.4l2.64,2.147-2.91-.677A4.213,4.213,0,0,0,117.473,676.8Z" transform="translate(-97.784 -550.69)" fill="#eb2424"/>
    <path id="Path_472" data-name="Path 472" d="M114.337,630.712a4.226,4.226,0,0,0,4.419-4.024,4.177,4.177,0,0,0-.365-1.926,4.232,4.232,0,0,0-2.705-2.343l.024,1.737-.958-1.893h0a4.226,4.226,0,0,0-.4,8.442Z" transform="translate(-92.561 -512.807)" fill="#eb2424"/>
    <path id="Path_473" data-name="Path 473" d="M67.01,599.3a4.227,4.227,0,1,0-1.857-7.908l.747,2.045-1.548-1.468a4.212,4.212,0,0,0-1.37,2.91,4.125,4.125,0,0,0,.109,1.164A4.228,4.228,0,0,0,67.01,599.3Z" transform="translate(-55.491 -488.215)" fill="#eb2424"/>
    <path id="Path_474" data-name="Path 474" d="M85.37,562.21c.975.106,1.922.41,2.9.471a3.151,3.151,0,0,0,2.673-.936,12.907,12.907,0,0,0,.782-1.375,3,3,0,0,1,1.064-1,4.225,4.225,0,1,1-7.9,2.8C85.051,562.182,85.209,562.193,85.37,562.21Z" transform="translate(-72.646 -463.573)" opacity="0.1"/>
    <path id="Path_475" data-name="Path 475" d="M67.4,608.028A4.23,4.23,0,0,0,71.423,602a3.166,3.166,0,0,0-.849.851,13.9,13.9,0,0,1-.838,1.4,3.444,3.444,0,0,1-2.8.981c-1.018-.046-2-.336-3.02-.434-.141-.013-.284-.022-.434-.026A4.228,4.228,0,0,0,67.4,608.028Z" transform="translate(-55.885 -496.947)" opacity="0.1"/>
    <path id="Path_476" data-name="Path 476" d="M114.941,639.74a4.225,4.225,0,0,0,4.419-4.024,4.178,4.178,0,0,0-.365-1.926,3.4,3.4,0,0,0-.892.869,14.46,14.46,0,0,1-.918,1.424,3.909,3.909,0,0,1-2.99,1.047c-1.047-.022-2.054-.278-3.094-.358A4.228,4.228,0,0,0,114.941,639.74Z" transform="translate(-93.165 -521.834)" opacity="0.1"/>
    <path id="Path_477" data-name="Path 477" d="M119.18,686.568a4.225,4.225,0,0,0,7.7-3.448,4.254,4.254,0,0,0-.927.827,16.567,16.567,0,0,1-1.131,1.5,5.309,5.309,0,0,1-3.5,1.229A18.018,18.018,0,0,1,119.18,686.568Z" transform="translate(-99.49 -560.453)" opacity="0.1"/>
    <path id="Path_478" data-name="Path 478" d="M74.033,15.517a5.422,5.422,0,0,0-2.158-4.371,6.335,6.335,0,0,0-5.3-6.222A6.33,6.33,0,0,0,62.353.2h0a5.382,5.382,0,0,0-.786-.185h-.077L61.355,0h-.719a6.212,6.212,0,0,0-6,5.311c-1.938-.447-3.715.133-4.033,1.358a1.658,1.658,0,0,0,.052.981A4.248,4.248,0,0,0,53.5,9.958l.189.056c.094.028.189.049.283.07h.063a4.888,4.888,0,0,0,2.133,6.393,1.124,1.124,0,0,0-.126.08,1.748,1.748,0,0,0-.419.587,8.505,8.505,0,0,0-.81,1.952c-.14.583-.164,1.194-.349,1.77-.318,1.047-1.135,1.966-1.229,3.079-.042.5.038,1.079-.314,1.418a2.3,2.3,0,0,1-.279.206,2.156,2.156,0,0,0-.614.642,2.057,2.057,0,0,1-.409.566c-.318.241-.841.216-1,.587s.248.807.154,1.212c-.077.328-.436.478-.7.7A2.475,2.475,0,0,0,49.48,30.4a3.61,3.61,0,0,1-2.978-.758,5.574,5.574,0,0,1,.307,1.114,4.7,4.7,0,0,0-1.606-.8,5.131,5.131,0,0,1-1.711-1.271l.915-.126-4.05-6.145-1.194-.244,1.072,2.056a.642.642,0,0,0-.349.44,1.87,1.87,0,0,0-.042.7A12.924,12.924,0,0,0,40.119,27l.311,1.446a3.756,3.756,0,0,0,.1.4,4.075,4.075,0,0,0-1.2.136,10.547,10.547,0,0,0-2.489-.59,1.269,1.269,0,0,0-.562.028,1.361,1.361,0,0,0-.524.426,16.757,16.757,0,0,0-1.851,2.6c-2.175,3.785-5.08,7.088-7.8,10.51-1.879.765-3.771,1.491-5.667,2.21l-4.075,1.554a6.12,6.12,0,0,1-2.524.573c-.391-.024-.866-.084-1.086.248a2.091,2.091,0,0,0-.248.531c-.143,0-.286.035-.419.042h-.024a4.839,4.839,0,0,0-.978-1.8.608.608,0,0,0-.461.349c-.1.182-.157.381-.269.548-.22.321-.6.478-.873.751s-.443.7-.737.964a2.926,2.926,0,0,1-1.4.541,8.819,8.819,0,0,0-2.168.824,3.7,3.7,0,0,1-.8.37,3.021,3.021,0,0,1-.939.031l-2.158-.157a1.677,1.677,0,0,0-.576.025A1.072,1.072,0,0,0,0,50.673,1.72,1.72,0,0,0,.686,51.86a4.536,4.536,0,0,0,1.229.639,35.7,35.7,0,0,0,5.778,1.693v.436a9.8,9.8,0,0,0,4.4,1.048.656.656,0,0,0,.328-.06.73.73,0,0,0,.276-.433,17.808,17.808,0,0,0,.862-4.228h0a2.179,2.179,0,0,0,.779-.2c.744-.2,1.48.307,2.245.391a6.152,6.152,0,0,0,2.71-.786c.129-.049.258-.091.388-.133a4.337,4.337,0,0,1-.89.862c-.37.265-.786.461-1.149.737a7.633,7.633,0,0,1-.967.751,5.791,5.791,0,0,1-.744.286,5.052,5.052,0,0,0-1.047.527,2.182,2.182,0,0,0-.726.7.953.953,0,0,0,.649,1.487,3,3,0,0,0,.883.025c1.166-.087,2.329-.2,3.492-.3a9.783,9.783,0,0,0,1.463-.209c.255-.063.506-.147.761-.213a6.159,6.159,0,0,1,1.33-.2,1.105,1.105,0,0,1,.388.038c.272.087.464.349.74.419a1.139,1.139,0,0,0,.527-.073,12.111,12.111,0,0,1,2.591-.276c.381-.021.827-.094,1.006-.447.216-.436-.147-.925-.29-1.4a4.2,4.2,0,0,1-.119-.915,5.706,5.706,0,0,0-.642-2.175,5.894,5.894,0,0,1-.478-.992,25.237,25.237,0,0,0,4.762-2.416,8.628,8.628,0,0,1,2.716-1.306,7.294,7.294,0,0,1,3.411.395,76.712,76.712,0,0,1,7.818,2.727,38.853,38.853,0,0,0,3.694,1.4,5.755,5.755,0,0,0,1.309,1.278,6.051,6.051,0,0,0,2.846.775,37.388,37.388,0,0,0,4,.15A6.763,6.763,0,0,0,60,51.312a3.461,3.461,0,0,0,.625-.412,2.474,2.474,0,0,0,1.962-.726,4.747,4.747,0,0,0,1.5-2.357c.321-1.26.073-2.73.848-3.76.206-.276.475-.5.677-.778a2.1,2.1,0,0,0,.349-1.267L66,41.958a4.706,4.706,0,0,0,.349-1.271,7.29,7.29,0,0,1,.349-1,30.251,30.251,0,0,0,1.026-2.978,16.358,16.358,0,0,0,.475-2.042c.084-.552.133-1.107.178-1.662a10.028,10.028,0,0,1,.5-2.552,20.852,20.852,0,0,0,1.156-6.117V24.21a4.1,4.1,0,0,0,3.649-4.134,4.379,4.379,0,0,0-.377-1.784,5.539,5.539,0,0,0,.726-2.776ZM54.288,39.507c.059.213.129.426.2.639-.321-.318-.639-.646-.964-.96.129.038.258.08.384.126a2.31,2.31,0,0,1,.384.2Zm-1.564-1.048c-1.906-1.655-4.113-2.94-6.065-4.539,1.048.527,2.095,1.138,3.142,1.725q1.83,1.047,3.7,2a3.007,3.007,0,0,1-.768.8Zm.814-4.169.091-.094v.653c-.171-.056-.349-.112-.513-.175a4.288,4.288,0,0,0,.426-.4ZM36.753,38.774a15.827,15.827,0,0,0,2.036-2.9,19.014,19.014,0,0,0,3.031,3.383c-1.683-.237-3.369-.422-5.063-.5Z" transform="matrix(0.998, 0.07, -0.07, 0.998, 77.566, 79.774)" fill="url(#linear-gradient)"/>
    <path id="Path_479" data-name="Path 479" d="M0,0,1.2.245l4.1,6.061L3.5,6.55Z" transform="matrix(0.998, 0.07, -0.07, 0.998, 115.364, 105.15)" fill="#2f2e41"/>
    <path id="Path_480" data-name="Path 480" d="M0,.09A23.851,23.851,0,0,0,1.2,3.232a29.051,29.051,0,0,0,4-1.142A10.878,10.878,0,0,0,4.368.962,3.92,3.92,0,0,0,3.237.093,3.077,3.077,0,0,0,1.865.072Q.932.107,0,.09Z" transform="matrix(0.998, 0.07, -0.07, 0.998, 84.554, 127.567)" fill="#fbbebe"/>
    <path id="Path_481" data-name="Path 481" d="M13.545,3.422a2.512,2.512,0,0,1-1.369-1.557A5.059,5.059,0,0,0,11.153,0a.611.611,0,0,0-.461.349c-.1.174-.161.374-.276.541-.216.314-.6.468-.876.737s-.447.677-.744.946a2.956,2.956,0,0,1-1.4.538,8.855,8.855,0,0,0-2.186.81,3.732,3.732,0,0,1-.81.349,3.068,3.068,0,0,1-.946.032L1.283,4.144a1.7,1.7,0,0,0-.58.028A1.047,1.047,0,0,0,0,5.262a1.69,1.69,0,0,0,.7,1.17,4.637,4.637,0,0,0,1.236.628A37.265,37.265,0,0,0,7.77,8.725v.429A10.093,10.093,0,0,0,12.208,10.2a.7.7,0,0,0,.349-.059.725.725,0,0,0,.279-.426,17.176,17.176,0,0,0,.9-4.728,3.548,3.548,0,0,0-.091-1.215c-.119-.391.286-.227-.091-.381" transform="matrix(0.998, 0.07, -0.07, 0.998, 74.397, 125.141)" fill="#2f2e41"/>
    <path id="Path_482" data-name="Path 482" d="M42.8,1.722C36.35,2.113,29.981.22,23.522.018a9.633,9.633,0,0,0-2.4.154,11.785,11.785,0,0,0-2.374.922C15.292,2.7,11.71,4.037,8.131,5.37L4.025,6.9a6.4,6.4,0,0,1-2.549.562c-.391-.025-.869-.084-1.093.244-.667.988-.349,2.444.091,3.554.143.349.384.751.768.793a2.264,2.264,0,0,0,.786-.2c.747-.2,1.494.3,2.263.384a6.31,6.31,0,0,0,2.734-.772,25.489,25.489,0,0,1,4.679-.793A20.906,20.906,0,0,0,19.035,7.63a8.6,8.6,0,0,1,2.737-1.285,7.493,7.493,0,0,1,3.439.387,79.3,79.3,0,0,1,7.88,2.685,36.316,36.316,0,0,0,4.12,1.5,14.894,14.894,0,0,0,9.232-.538c1.047-.409,2.151-1.128,2.21-2.242.035-.635-.457-1.194-.786-1.746-.213-.349-.422-.7-.653-1.03C46.1,3.743,44.757,1.6,42.8,1.722Z" transform="matrix(0.998, 0.07, -0.07, 0.998, 87.269, 119.527)" fill="#2f2e41"/>
    <path id="Path_483" data-name="Path 483" d="M42.8,1.722C36.35,2.113,29.981.22,23.522.018a9.633,9.633,0,0,0-2.4.154,11.785,11.785,0,0,0-2.374.922C15.292,2.7,11.71,4.037,8.131,5.37L4.025,6.9a6.4,6.4,0,0,1-2.549.562c-.391-.025-.869-.084-1.093.244-.667.988-.349,2.444.091,3.554.143.349.384.751.768.793a2.264,2.264,0,0,0,.786-.2c.747-.2,1.494.3,2.263.384a6.31,6.31,0,0,0,2.734-.772,25.489,25.489,0,0,1,4.679-.793A20.906,20.906,0,0,0,19.035,7.63a8.6,8.6,0,0,1,2.737-1.285,7.493,7.493,0,0,1,3.439.387,79.3,79.3,0,0,1,7.88,2.685,36.316,36.316,0,0,0,4.12,1.5,14.894,14.894,0,0,0,9.232-.538c1.047-.409,2.151-1.128,2.21-2.242.035-.635-.457-1.194-.786-1.746-.213-.349-.422-.7-.653-1.03C46.1,3.743,44.757,1.6,42.8,1.722Z" transform="matrix(0.998, 0.07, -0.07, 0.998, 87.269, 119.527)" opacity="0.1"/>
    <path id="Path_484" data-name="Path 484" d="M0,2.68q1.515.513,3.052.95c.576-.946,1.651-1.6,1.9-2.681a.251.251,0,0,0,0-.143A.259.259,0,0,0,4.832.7,5.709,5.709,0,0,0,2.441,0C1.777-.04,1.477.651,1.177,1.137,1.072,1.332.269,2.771,0,2.68Z" transform="matrix(0.998, 0.07, -0.07, 0.998, 97.06, 126.16)" fill="#fbbebe"/>
    <path id="Path_485" data-name="Path 485" d="M9.966,1.54A2.2,2.2,0,0,1,8.482.566C8.339.318,8.189-.017,7.9,0s-.384.332-.443.593a16.939,16.939,0,0,1-.835,2.867A5.373,5.373,0,0,1,4.841,5.8c-.374.258-.789.454-1.156.726a7.652,7.652,0,0,1-.978.74,5.5,5.5,0,0,1-.751.279,5.147,5.147,0,0,0-1.072.52,2.178,2.178,0,0,0-.73.7,1.047,1.047,0,0,0-.063.978,1.047,1.047,0,0,0,.7.492,3.157,3.157,0,0,0,.89.021c1.177-.087,2.35-.192,3.523-.3a10.014,10.014,0,0,0,1.477-.2c.258-.063.51-.147.765-.213a6.466,6.466,0,0,1,1.344-.2,1.136,1.136,0,0,1,.391.038c.272.087.464.349.744.412a1.152,1.152,0,0,0,.531-.07,12.575,12.575,0,0,1,2.612-.272c.384-.021.838-.094,1.012-.44.22-.429-.143-.911-.29-1.372a4.309,4.309,0,0,1-.122-.9,5.483,5.483,0,0,0-.646-2.14c-.3-.552-.7-1.159-.5-1.746a1.525,1.525,0,0,0,.2-.6C12.672,1.317,10.5,1.666,9.966,1.54Z" transform="matrix(0.998, 0.07, -0.07, 0.998, 88.504, 126.011)" fill="#2f2e41"/>
    <path id="Path_486" data-name="Path 486" d="M5.451,5.671a5.056,5.056,0,0,1-2.57-2.552c-.1-.245-.2-.5-.3-.747A5.717,5.717,0,0,0,1.048.241.736.736,0,0,0,.479,0,.607.607,0,0,0,.06.447a1.835,1.835,0,0,0-.045.7,13.164,13.164,0,0,0,.279,1.61L.608,4.18a2.8,2.8,0,0,0,.2.636,2.216,2.216,0,0,0,.524.625c.286.265.576.52.869.768a3.084,3.084,0,0,0,.527.384,3.236,3.236,0,0,0,.981.286,8.46,8.46,0,0,1,3.663,1.4s0-.953-.024-1.047a1.4,1.4,0,0,0-.272-.765A4.614,4.614,0,0,0,5.451,5.671Z" transform="matrix(0.998, 0.07, -0.07, 0.998, 115.878, 107.201)" fill="#fbbebe"/>
    <path id="Path_487" data-name="Path 487" d="M5.451,5.671a5.056,5.056,0,0,1-2.57-2.552c-.1-.245-.2-.5-.3-.747A5.717,5.717,0,0,0,1.048.241.736.736,0,0,0,.479,0,.607.607,0,0,0,.06.447a1.835,1.835,0,0,0-.045.7,13.164,13.164,0,0,0,.279,1.61L.608,4.18a2.8,2.8,0,0,0,.2.636,2.216,2.216,0,0,0,.524.625c.286.265.576.52.869.768a3.084,3.084,0,0,0,.527.384,3.236,3.236,0,0,0,.981.286,8.46,8.46,0,0,1,3.663,1.4s0-.953-.024-1.047a1.4,1.4,0,0,0-.272-.765A4.614,4.614,0,0,0,5.451,5.671Z" transform="matrix(0.998, 0.07, -0.07, 0.998, 115.878, 107.201)" opacity="0.1"/>
    <ellipse id="Ellipse_58" data-name="Ellipse 58" cx="1.568" cy="1.578" rx="1.568" ry="1.578" transform="matrix(0.998, 0.07, -0.07, 0.998, 133.433, 100.029)" fill="#2f2e41"/>
    <path id="Path_488" data-name="Path 488" d="M10.869.044A1.745,1.745,0,0,0,9.63.222,1.668,1.668,0,0,0,9.207.8a8.237,8.237,0,0,0-.817,1.92c-.14.576-.164,1.177-.349,1.746C7.72,5.515,6.9,6.405,6.8,7.5c-.042.489.038,1.065-.318,1.4a2.057,2.057,0,0,1-.283.2,2.144,2.144,0,0,0-.618.636,2.014,2.014,0,0,1-.436.6c-.321.237-.848.213-1.006.58s.248.792.154,1.191c-.077.325-.44.475-.7.7A2.418,2.418,0,0,0,3,13.916a3.7,3.7,0,0,1-3-.751A9.454,9.454,0,0,1,.465,16.6a1.418,1.418,0,0,1-.276,1.047,17.732,17.732,0,0,1,3.684.639,2.531,2.531,0,0,0,1.606,0,2.657,2.657,0,0,0,.737-.587,4.676,4.676,0,0,0,1.519-2.336,12.693,12.693,0,0,0,.028-1.589,9.106,9.106,0,0,1,.4-1.924,22.5,22.5,0,0,0,.7-3.963c.073-.827.786-1.491,1.163-2.231a11.022,11.022,0,0,0,1.487-4.41C11.561.735,11.386.11,10.869.044Z" transform="matrix(0.998, 0.07, -0.07, 0.998, 123.145, 99.893)" fill="#2f2e41"/>
    <path id="Path_489" data-name="Path 489" d="M10.869.044A1.745,1.745,0,0,0,9.63.222,1.668,1.668,0,0,0,9.207.8a8.237,8.237,0,0,0-.817,1.92c-.14.576-.164,1.177-.349,1.746C7.72,5.515,6.9,6.405,6.8,7.5c-.042.489.038,1.065-.318,1.4a2.057,2.057,0,0,1-.283.2,2.144,2.144,0,0,0-.618.636,2.014,2.014,0,0,1-.436.6c-.321.237-.848.213-1.006.58s.248.792.154,1.191c-.077.325-.44.475-.7.7A2.418,2.418,0,0,0,3,13.916a3.7,3.7,0,0,1-3-.751A9.454,9.454,0,0,1,.465,16.6a1.418,1.418,0,0,1-.276,1.047,17.732,17.732,0,0,1,3.684.639,2.531,2.531,0,0,0,1.606,0,2.657,2.657,0,0,0,.737-.587,4.676,4.676,0,0,0,1.519-2.336,12.693,12.693,0,0,0,.028-1.589,9.106,9.106,0,0,1,.4-1.924,22.5,22.5,0,0,0,.7-3.963c.073-.827.786-1.491,1.163-2.231a11.022,11.022,0,0,0,1.487-4.41C11.561.735,11.386.11,10.869.044Z" transform="matrix(0.998, 0.07, -0.07, 0.998, 123.145, 99.893)" opacity="0.1"/>
    <path id="Path_490" data-name="Path 490" d="M32.219,13.27a14.476,14.476,0,0,1-3.411-2.849C26.734,8.472,24.2,7.1,22.02,5.271A43.526,43.526,0,0,0,17.7,1.643,10.733,10.733,0,0,0,13.068.019,1.285,1.285,0,0,0,12.5.047a1.36,1.36,0,0,0-.527.419,16.458,16.458,0,0,0-1.868,2.566C7.346,7.718,3.425,11.66.174,16.021a.583.583,0,0,0-.038.789l.66,1.3c.37.723.964,1.568,1.746,1.424a1.938,1.938,0,0,0,.925-.59L6.434,16.1l3.111-2.975a24,24,0,0,0,4.867-5.754c.929,1.61,2.577,2.664,3.708,4.141.429.559.779,1.177,1.163,1.77.618.953,1.316,1.847,2.015,2.737l3.572,4.556a6.909,6.909,0,0,0,1.651,1.676,6.338,6.338,0,0,0,2.87.765,36.943,36.943,0,0,0,4.033.147,6.919,6.919,0,0,0,3-.541,2.765,2.765,0,0,0,1.631-2.42,3.6,3.6,0,0,0-.513-1.512A11.917,11.917,0,0,0,32.219,13.27Z" transform="matrix(0.998, 0.07, -0.07, 0.998, 99.554, 110.171)" fill="#2f2e41"/>
    <ellipse id="Ellipse_59" data-name="Ellipse 59" cx="1.205" cy="1.212" rx="1.205" ry="1.212" transform="matrix(0.998, 0.07, -0.07, 0.998, 134.655, 101.578)" fill="#e8e8f0"/>
    <path id="Path_491" data-name="Path 491" d="M1.651,3.785a2.3,2.3,0,0,1,.133,1.746,6.761,6.761,0,0,1-.775,1.606A8,8,0,0,1,0,8.575,10.347,10.347,0,0,0,5.307,7.049,7.617,7.617,0,0,0,8.656,4.13,1.551,1.551,0,0,1,7.423,3.9a4.616,4.616,0,0,1-.946-.88L5.544,1.976a4.185,4.185,0,0,1-.576-.758A2.1,2.1,0,0,1,4.721,0,6.989,6.989,0,0,1,3.485,1.026c-.667.436-1.4.751-2.07,1.18-.237.154-.765.4-.628.7S1.463,3.45,1.651,3.785Z" transform="matrix(0.998, 0.07, -0.07, 0.998, 134.187, 98.052)" fill="#fbbebe"/>
    <path id="Path_492" data-name="Path 492" d="M1.651,3.785a2.3,2.3,0,0,1,.133,1.746,6.761,6.761,0,0,1-.775,1.606A8,8,0,0,1,0,8.575,10.347,10.347,0,0,0,5.307,7.049,7.617,7.617,0,0,0,8.656,4.13,1.551,1.551,0,0,1,7.423,3.9a4.616,4.616,0,0,1-.946-.88L5.544,1.976a4.185,4.185,0,0,1-.576-.758A2.1,2.1,0,0,1,4.721,0,6.989,6.989,0,0,1,3.485,1.026c-.667.436-1.4.751-2.07,1.18-.237.154-.765.4-.628.7S1.463,3.45,1.651,3.785Z" transform="matrix(0.998, 0.07, -0.07, 0.998, 134.187, 98.052)" opacity="0.1"/>
    <path id="Path_493" data-name="Path 493" d="M7.367.206a1.575,1.575,0,0,0,0,1.819c.052.066.251.482.349.485A.318.318,0,0,0,7.929,2.4a14.757,14.757,0,0,0,1.18-1.4,2.6,2.6,0,0,1,1.5-.985,3.285,3.285,0,0,1,2.071.642,1.973,1.973,0,0,1,.7.58,1.9,1.9,0,0,1,.234.789,36.948,36.948,0,0,1,.21,5.014,19.286,19.286,0,0,1-.238,3.607c-.118.615-.3,1.215-.38,1.837a12.326,12.326,0,0,0-.073,1.648v2.3a5.845,5.845,0,0,0,.091,1.26,15.4,15.4,0,0,0,.506,1.463,9.655,9.655,0,0,1,.349,1.746l.314,2.385a2.914,2.914,0,0,1-.283,2.179c-.2.276-.475.492-.7.765-.785,1-.524,2.448-.873,3.687a4.668,4.668,0,0,1-1.515,2.322,2.453,2.453,0,0,1-1.994.7A2.735,2.735,0,0,1,7.214,30.8a8.323,8.323,0,0,0-.932-2.793,7.365,7.365,0,0,0-1.844-1.543A3.2,3.2,0,0,1,3,24.594c-.063-.349-.024-.7-.059-1.048A2.5,2.5,0,0,0,1.4,21.522c-.5-.192-1.11-.262-1.4-.7a3.362,3.362,0,0,0,1.453-1.952A10.015,10.015,0,0,0,1.8,16.427l.168-2.772a9.186,9.186,0,0,1,.653-3.582c.245-.5.548-.964.8-1.456A16.144,16.144,0,0,0,4.281,6.48c.395-1.135.793-2.273,1.145-3.422a6.779,6.779,0,0,1,.628-1.6C6.379.939,6.809.31,7.367.206Z" transform="matrix(0.998, 0.07, -0.07, 0.998, 128.247, 101.407)" fill="#e8e8f0"/>
    <path id="Path_494" data-name="Path 494" d="M.078,18.693l.733.024.157-1.107a2.383,2.383,0,0,1,.154-.646,4.113,4.113,0,0,1,.422-.618c.723-1.02.67-2.374.848-3.614A17.965,17.965,0,0,1,4.006,8.009L5.43,4.835a4.566,4.566,0,0,0,.3-.814,4.446,4.446,0,0,0,.087-.939c0-.489.161-2.273.171-2.765,0-.182-.4-.08-.482-.241-.178-.349-.422.6-.758.81a1.857,1.857,0,0,0-.656.96c-.307.8-.5,1.641-.782,2.444a5.024,5.024,0,0,1-1.33,2.161c-.29.258-.629.461-.9.733a4.949,4.949,0,0,0-1,3.492C.057,11.441-.086,18.693.078,18.693Z" transform="matrix(0.998, 0.07, -0.07, 0.998, 129.412, 101.012)" fill="#2f2e41"/>
    <path id="Path_495" data-name="Path 495" d="M6.692.081a2.54,2.54,0,0,0-1.3,1.795,8.778,8.778,0,0,1-.667,2.2C3.829,5.633,1.549,6.087.917,7.769A6.765,6.765,0,0,0,.663,9.515c-.112,1.2-.51,2.371-.629,3.575A15.778,15.778,0,0,0,.1,15.9l.8,9.507A12.572,12.572,0,0,1,.659,29.6a4.026,4.026,0,0,0,2.4-.395c.751-.349,1.435-.81,2.154-1.208A21.88,21.88,0,0,0,8.9,25.9a2.191,2.191,0,0,0,.5-.548A4.731,4.731,0,0,0,9.748,24.1a7.046,7.046,0,0,1,.349-.985,29.223,29.223,0,0,0,1.047-2.933,15.774,15.774,0,0,0,.478-2.015c.087-.541.133-1.089.182-1.634a9.628,9.628,0,0,1,.506-2.514A20.149,20.149,0,0,0,13.473,8a3,3,0,0,0-.059-.887A4.757,4.757,0,0,0,12.932,6.1c-.332-.625-.531-1.313-.845-1.945A9.464,9.464,0,0,0,8.826.73C8.155.287,7.418-.195,6.692.081Z" transform="matrix(0.998, 0.07, -0.07, 0.998, 133.4, 100.565)" fill="#2f2e41"/>
    <path id="Path_496" data-name="Path 496" d="M8.674,3.19A5.726,5.726,0,0,1,7.155,2.038c-.2-.234-.349-.5-.566-.726A3.733,3.733,0,0,0,4.68.222,9.216,9.216,0,0,0,2.466.009,3.93,3.93,0,0,0,1,.187,1.483,1.483,0,0,0,.018,1.235,1.723,1.723,0,0,0,.762,2.782,3.594,3.594,0,0,0,2.246,3.5a12.317,12.317,0,0,0,1.341.157c2.64.276,5,1.711,7.308,3.02Q13.943,8.4,17.109,9.9A12.442,12.442,0,0,0,17.214,8c0-.475-.035-1.2-.485-1.48a9.94,9.94,0,0,0-1.976-.6,31.347,31.347,0,0,1-3.977-1.606C10.046,3.962,9.348,3.588,8.674,3.19Z" transform="matrix(0.998, 0.07, -0.07, 0.998, 113.93, 111.638)" fill="#fbbebe"/>
    <ellipse id="Ellipse_60" data-name="Ellipse 60" cx="4.703" cy="4.731" rx="4.703" ry="4.731" transform="matrix(0.998, 0.07, -0.07, 0.998, 130.88, 91.587)" fill="#fbbebe"/>
    <path id="Path_497" data-name="Path 497" d="M11.582.6a7.648,7.648,0,0,0-.911,1.7A36.316,36.316,0,0,0,8.722,5.793c-.482,1.316-.464,2.884-1.4,3.921a1.348,1.348,0,0,0-.408.593,2.959,2.959,0,0,1-.049.429c-.133.377-.751.395-.866.779-.032.112,0,.234-.056.349-.094.248-.419.283-.639.433-.457.311-.349,1.03-.7,1.477a1.24,1.24,0,0,1-1.173.412,4.348,4.348,0,0,1-1.222-.457,1.1,1.1,0,0,0-.437-.136.891.891,0,0,0-.506.171A3.127,3.127,0,0,0,0,16.446a8.726,8.726,0,0,0,.723,3,1.258,1.258,0,0,0,.241.447,1.048,1.048,0,0,0,1.173.084,5.465,5.465,0,0,1,1.142-.51c.726-.133,1.438.37,2.175.328a3.066,3.066,0,0,0,1.47-.649,8.131,8.131,0,0,0,1.983-1.693c.321-.422.559-.9.841-1.355a15.35,15.35,0,0,1,1.187-1.585l2.713-3.321a7.135,7.135,0,0,0,.73-1.009,7.4,7.4,0,0,0,.569-1.515,11.974,11.974,0,0,0,.562-2.7,10.77,10.77,0,0,0-.2-2.266,7.877,7.877,0,0,0-.583-2.154C14.123.322,12.688-.691,11.582.6Z" transform="matrix(0.998, 0.07, -0.07, 0.998, 129.526, 105.149)" fill="#2f2e41"/>
    <path id="Path_498" data-name="Path 498" d="M23.681,15.334A5.3,5.3,0,0,0,21.5,11.029,6.285,6.285,0,0,0,16.157,4.9a6.11,6.11,0,0,0-12.036.325C2.166,4.786.378,5.359.054,6.563-.3,7.824,1.1,9.3,3.168,9.856a5.72,5.72,0,0,0,1.994.2,6.128,6.128,0,0,0,4.211,2.619,6.261,6.261,0,0,0,4.591,4.738,5.238,5.238,0,0,0,1.417,1.962c0,.147-.024.3-.024.451a3.984,3.984,0,1,0,7.961,0,4.194,4.194,0,0,0-.381-1.747A5.355,5.355,0,0,0,23.681,15.334Z" transform="matrix(0.998, 0.07, -0.07, 0.998, 128.339, 84.119)" fill="#f86d70"/>
    <path id="Path_499" data-name="Path 499" d="M1.394,6.833c.325-1.2,2.095-1.777,4.068-1.337A6.212,6.212,0,0,1,11.513.258h.405A5.933,5.933,0,0,0,10.172,0,6.212,6.212,0,0,0,4.121,5.237C2.166,4.8.378,5.37.054,6.575-.3,7.835,1.1,9.308,3.168,9.867a5.975,5.975,0,0,0,1.177.2C2.382,9.5,1.063,8.065,1.394,6.833Z" transform="matrix(0.998, 0.07, -0.07, 0.998, 128.327, 84.09)" opacity="0.1"/>
    <path id="Path_500" data-name="Path 500" d="M11.368,9.8a2.805,2.805,0,0,1,.024-.454A5.216,5.216,0,0,1,9.975,7.392,6.285,6.285,0,0,1,5.384,2.65,6.117,6.117,0,0,1,1.173.031,5.565,5.565,0,0,1,0,0,6.107,6.107,0,0,0,4.057,2.409,6.261,6.261,0,0,0,8.649,7.147a5.237,5.237,0,0,0,1.418,1.962c0,.147-.024.3-.024.45A4.054,4.054,0,0,0,14,13.68,4.113,4.113,0,0,1,11.368,9.8Z" transform="matrix(0.998, 0.07, -0.07, 0.998, 132.925, 94.73)" opacity="0.1"/>
    <ellipse id="Ellipse_61" data-name="Ellipse 61" cx="0.726" cy="0.967" rx="0.726" ry="0.967" transform="translate(135.65 97.381) rotate(-33)" fill="#fbbebe"/>
    <path id="Path_501" data-name="Path 501" d="M306.053,688.817l2.892-1.7a6.949,6.949,0,0,0-1.479-1.77l-5.454,1.7,4.273-2.512A6.948,6.948,0,0,0,296,690.626c0,3.837,3.112,3.969,6.948,3.969s6.948-.132,6.948-3.969a6.894,6.894,0,0,0-.6-2.823Z" transform="translate(-237.917 -560.889)" fill="#eb2424"/>
    <path id="Path_502" data-name="Path 502" d="M306.789,708.575a5.43,5.43,0,0,0-1.025-.805,4.729,4.729,0,0,0-1.687-.823,12.721,12.721,0,0,0-1.657-.048,3.872,3.872,0,0,1-2.538-1.164,7.786,7.786,0,0,0-1.181-1.222,2.584,2.584,0,0,0-1.767-.324,4.282,4.282,0,0,0-.523.106,6.949,6.949,0,0,0-.41,2.358c0,3.837,3.112,3.969,6.948,3.969a14.577,14.577,0,0,0,4.8-.5l-.217-.389a5.4,5.4,0,0,0-.743-1.157Z" transform="translate(-237.917 -576.917)" opacity="0.1"/>
  </g>
</svg>
