<svg id="h2gd-2-small" xmlns="http://www.w3.org/2000/svg" width="226.691" height="152.974" viewBox="0 0 226.691 152.974">
  <ellipse id="Ellipse_63" data-name="Ellipse 63" cx="30.528" cy="5.09" rx="30.528" ry="5.09" transform="translate(0 142.794)" fill="#f2f2f2"/>
  <ellipse id="Ellipse_64" data-name="Ellipse 64" cx="47.236" cy="7.876" rx="47.236" ry="7.876" transform="translate(132.219 132.048)" fill="#f2f2f2"/>
  <path id="Path_503" data-name="Path 503" d="M854.662,435.945s.4,1.4-1.877,2.654-2.949,6.007-.268,7.4,3.485,3.213,2.145,4.47-3.753,4.61-.536,5.448,3.619,2.514,2.681,3.213,2.145-1.257,2.145-1.257.536,3.353,3.351,2.514,10.724-16.763,6.7-19S854.662,435.945,854.662,435.945Z" transform="translate(-685.702 -371.722)" fill="#2f2e41"/>
  <path id="Path_504" data-name="Path 504" d="M873.11,491.367s1.39,5.071-1.043,5.434a9.3,9.3,0,0,0-4.172,1.811l4.519,6.158h8.343l5.214-5.434s-6.953-5.434-5.562-8.694S873.11,491.367,873.11,491.367Z" transform="translate(-699.291 -413.656)" fill="#ffb9b9"/>
  <path id="Path_505" data-name="Path 505" d="M873.11,491.367s1.39,5.071-1.043,5.434a9.3,9.3,0,0,0-4.172,1.811l4.519,6.158h8.343l5.214-5.434s-6.953-5.434-5.562-8.694S873.11,491.367,873.11,491.367Z" transform="translate(-699.291 -413.656)" opacity="0.1"/>
  <path id="Path_506" data-name="Path 506" d="M852.787,721.251l8,2.9,5.562.362L866,719.439,854.525,715.9Z" transform="translate(-676.883 -580.508)" fill="#ffb9b9"/>
  <path id="Path_507" data-name="Path 507" d="M953,769.307s0,5.071.7,5.071,10.081-1.087,12.862,0,6.952-2.9,4.867-5.071-5.488-5.434-7.611-4.709S953,767.134,953,767.134Z" transform="translate(-766.844 -629.651)" fill="#575a89"/>
  <path id="Path_508" data-name="Path 508" d="M820.1,764.974s-4.172,8.694-1.39,9.419a9.3,9.3,0,0,0,6.257-.725c.348-.362,5.214-1.811,5.91-1.087s.7-2.9.7-2.9Z" transform="translate(-659.496 -630.027)" fill="#575a89"/>
  <path id="Path_509" data-name="Path 509" d="M832.414,709.359s-6.6,9.419-1.738,11.954,28.158,2.536,29.9,0,2.433-10.505,0-11.23S832.414,709.359,832.414,709.359Z" transform="translate(-668.329 -586.367)" fill="#2f2e41"/>
  <path id="Path_510" data-name="Path 510" d="M832.414,709.359s-6.6,9.419-1.738,11.954,28.158,2.536,29.9,0,2.433-10.505,0-11.23S832.414,709.359,832.414,709.359Z" transform="translate(-668.329 -586.367)" opacity="0.2"/>
  <ellipse id="Ellipse_65" data-name="Ellipse 65" cx="7.995" cy="8.332" rx="7.995" ry="8.332" transform="translate(168.604 63.583)" fill="#ffb9b9"/>
  <path id="Path_511" data-name="Path 511" d="M845.987,527.111l6.953-1.449s1.738,5.8,7.3,4.709,6.953-4.709,6.953-4.709,4.172,1.811,4.519,1.811,4.867,1.811,4.867,2.9-5.214,11.954-5.214,11.954l.7,19.561-25.724-.724,1.738-19.2Z" transform="translate(-681.902 -442.155)" fill="#eb2424"/>
  <path id="Path_512" data-name="Path 512" d="M822.933,576.22s-2.086,19.2-.7,20.648,6.953,5.434,6.953,5.434v-4.347l-2.781-5.434,2.781-12.679Z" transform="translate(-662.672 -481.845)" fill="#ffb9b9"/>
  <path id="Path_513" data-name="Path 513" d="M974.458,573.692s-1.217,19.743-1.217,20.467-3.129,3.26-4.171,3.26-1.738-1.811-1.738-1.811l2.433-2.9-1.738-14.852Z" transform="translate(-778.217 -479.861)" fill="#ffb9b9"/>
  <path id="Path_514" data-name="Path 514" d="M923.667,687.917s15.643-9.056,15.991,0-8,12.679-8,12.679-21.553,6.735-22.422,4.273-2.607-6.446-1.217-6.809,3.129-1.087,3.824-.362,9.386-5.434,9.386-5.434Z" transform="translate(-730.729 -566.374)" fill="#2f2e41"/>
  <path id="Path_515" data-name="Path 515" d="M983.805,697.562a19.583,19.583,0,0,0-4.171,2.536c-1.043,1.087-5.562,2.9-5.562,2.9" transform="translate(-783.567 -577.105)" fill="none" stroke="#000" stroke-miterlimit="10" stroke-width="2" opacity="0.2"/>
  <path id="Path_516" data-name="Path 516" d="M826.168,533.127l-2.086-.725s-7.648,8.332-5.214,10.505,3.824,2.9,4.519,3.623,4.172,1.087,4.172,1.087Z" transform="translate(-659.997 -447.446)" fill="#eb2424"/>
  <path id="Path_517" data-name="Path 517" d="M960.4,544.2l3.129.724s2.433,5.434,3.129,6.158-1.043.362-2.086,1.811-2.086,3.985-4.172,3.985-4.867-3.623-4.867-3.623Z" transform="translate(-768.85 -456.708)" fill="#eb2424"/>
  <path id="Path_518" data-name="Path 518" d="M778.963,698.763s-13.21-9.781-17.729-2.536S780.7,713.253,784.177,714.7s6.6,2.9,6.6,2.9,3.129-7.969,3.129-9.418-2.433-1.449-3.129-1.449-3.824-.724-4.519-1.811S778.963,698.763,778.963,698.763Z" transform="translate(-614.183 -573.959)" fill="#2f2e41"/>
  <path id="Path_519" data-name="Path 519" d="M813.966,705.988s3.476,2.9,6.6,3.623a6.454,6.454,0,0,1,4.172,2.536" transform="translate(-656.486 -583.72)" fill="none" stroke="#000" stroke-miterlimit="10" stroke-width="2" opacity="0.2"/>
  <path id="Path_520" data-name="Path 520" d="M837.731,635.477l.278,15.338a1.88,1.88,0,0,0,1.863,1.884l27.391-.321a1.878,1.878,0,0,0,1.819-1.809l.831-15.017a1.968,1.968,0,0,0-.5-1.429,1.808,1.808,0,0,0-1.34-.6h-28.5a1.806,1.806,0,0,0-1.315.575A1.964,1.964,0,0,0,837.731,635.477Z" transform="translate(-675.349 -526.829)" fill="#575a89"/>
  <path id="Path_521" data-name="Path 521" d="M892.158,423.04s.445,1.547-2.079,2.94-3.267,6.654-.3,8.2,3.861,3.559,2.376,4.952-4.158,5.107-.594,6.035,4.009,2.786,2.97,3.559,2.376-1.393,2.376-1.393.594,3.714,3.713,2.785,6.23-17.806,2.754-22.153C900.144,423.926,892.158,423.04,892.158,423.04Z" transform="translate(-715.131 -361.591)" fill="#2f2e41"/>
  <path id="Path_522" data-name="Path 522" d="M904.13,411.769c0-2.267,6.51-.638,9.3,2.527,1.932,2.192,4.868,5.49,2.408,7.814s4.216,5.372,6.006,6.3,5.326,3.749,2.134,5.645-3.14,3.809-1.939,4.262-2.648-.674-2.648-.674.389,3.743-2.854,3.725-12.548-18.592-10.325-23.754C908.278,412.81,904.13,411.769,904.13,411.769Z" transform="translate(-728.052 -351.913)" fill="#2f2e41"/>
  <path id="Path_523" data-name="Path 523" d="M874.11,413.2c-8.7-.546-9.578,6.281-9.578,6.281.06,3.951,6.081,2.026,7.754,2.615,2.018-1.512,5.907-4.374,8.688-6.416A12.814,12.814,0,0,0,874.11,413.2Z" transform="translate(-696.622 -353.845)" fill="#2f2e41"/>
  <path id="Path_524" data-name="Path 524" d="M680.846,375.713s-7.808-38.131-56.677-65.793" transform="translate(-505.838 -272.786)" fill="none" stroke="#3f3d56" stroke-miterlimit="10" stroke-width="1"/>
  <path id="Path_525" data-name="Path 525" d="M574.167,254.891l.1.418-1.977.5.623,2.018-.393.131-.758-2.458Z" transform="translate(-453.823 -218.589)" fill="#3f3d56"/>
  <path id="Path_526" data-name="Path 526" d="M71.613,757.193c0,4.83-2.755,6.516-6.154,6.516l-.236,0c-.157,0-.313-.011-.468-.022-3.067-.226-5.45-2-5.45-6.491,0-4.648,5.7-10.514,6.128-10.948h0l.025-.025S71.613,752.363,71.613,757.193Z" transform="translate(-57.489 -615.304)" fill="#eb2424"/>
  <path id="Path_527" data-name="Path 527" d="M78.535,762.97l2.251-3.277-2.256,3.637-.006.376c-.157,0-.313-.011-.468-.022l.243-4.832,0-.037,0-.007.023-.456-2.262-3.646,2.269,3.3.005.1.183-3.651-1.937-3.768,1.96,3.127.191-7.569v0l-.032,5.968,1.928-2.366-1.936,2.88L78.643,756l1.8-3.137-1.808,3.618-.028,1.817,2.613-4.366-2.623,5Z" transform="translate(-70.789 -615.304)" fill="#3f3d56"/>
  <path id="Path_528" data-name="Path 528" d="M215.289,787.728l1.316-1.019s.871,5.072-.1,5.832-4.619,2.026-4.619,3.546-8.265,3.546-8.508,1.267a5.18,5.18,0,0,1,.729-3.546s3.889-4.053,4.375-4.813,1.7-2.28,1.7-2.28Z" transform="translate(-171.813 -647.09)" fill="#2f2e41"/>
  <path id="Path_529" data-name="Path 529" d="M167,487.837s.036.223.1.631c.058.362.139.874.236,1.5,1.021,6.492,4,25.6,3.8,26.235-.243.76-1.945,3.546,0,4.306a1.546,1.546,0,0,1,.605.687,15.06,15.06,0,0,1,1.028,2.528,114.943,114.943,0,0,1,3.116,13c.314,1.707.527,3.08.591,3.8a2.151,2.151,0,0,1,.007.5c-.243,1.013,1.459,4.56,2.188,5.573s1.945,2.027,1.7,3.04,6.077,3.8,6.806,2.027a33.364,33.364,0,0,0,.972-3.293c.243-.507.486-4.053-.729-4.56s-.486-9.372-1.7-11.146a25.014,25.014,0,0,1-1.675-4.993c-.255-.942-.513-1.945-.766-2.951-1.026-4.121-1.935-8.268-1.935-8.268l.243-29.637-13.369-1.773-.343.788-.683,1.563Z" transform="translate(-142.966 -410.273)" fill="#2f2e41"/>
  <path id="Path_530" data-name="Path 530" d="M128.43,720.989s-1.945-2.027-2.917,0-1.945,9.879-3.646,11.652-3.889,10.639-1.458,11.146,5.1-.76,5.348-2.28,5.348-9.372,5.348-10.132-3.4-3.546-3.4-3.546Z" transform="translate(-105.129 -594.789)" fill="#2f2e41"/>
  <path id="Path_531" data-name="Path 531" d="M186.558,430.657s-3.16,29.637-3.889,32.423-4.619,13.425-5.834,15.2-8.994,16.212-9.966,16.971-2.917,2.786-2.917,2.786-3.646,3.8-4.132,4.56-4.619-1.52-4.862-3.04a16.247,16.247,0,0,1,.486-5.066c.243-1.013-.486-2.533.243-3.293s4.375-4.56,4.375-6.333,6.32-12.159,8.751-14.438,1.945-6.079,1.945-6.079V448.9l-13.369-4.306s.729-12.159,2.431-12.159S183.884,428.377,186.558,430.657Z" transform="translate(-133.358 -367.025)" fill="#2f2e41"/>
  <ellipse id="Ellipse_66" data-name="Ellipse 66" cx="8.022" cy="8.359" rx="8.022" ry="8.359" transform="translate(25.488 4.612)" fill="#9f616a"/>
  <path id="Path_532" data-name="Path 532" d="M184.762,212.394s.972,3.8,2.188,4.813-3.16,5.319-3.16,5.319l-8.265.507-1.458-4.813s2.674-5.573,1.945-9.119S184.762,212.394,184.762,212.394Z" transform="translate(-148.579 -192.837)" fill="#9f616a"/>
  <path id="Path_533" data-name="Path 533" d="M182.554,248.18s-2.188.253-2.674,1.013-3.889,3.04-6.563,2.533-4.375-1.267-4.862-1.013S167,256.286,167,256.286l2.674,8.106-.486,22.291-.729,6.079S167,290.736,172.83,292s13.369-1.013,15.8-1.266,6.563-1.013,6.806-2.533-.729-7.093-.729-7.093l-3.889-16.972-2.431-9.119Z" transform="translate(-142.967 -224.317)" fill="#eb2424"/>
  <path id="Path_534" data-name="Path 534" d="M231.271,240.875s2.056-1.136,2.785-.123,9.966,2.533,9.966,3.293,1.945,21.278,1.458,23.051.972,3.8.972,3.8l1.7,7.6s4.619,14.439,2.674,14.945a12.154,12.154,0,0,1-4.375,0c-.729,0-.486-9.626-2.431-12.159s-4.619-8.866-5.1-10.132-6.563-18.745-6.32-20.771S231.271,240.875,231.271,240.875Z" transform="translate(-193.983 -218.155)" fill="#d0cde1"/>
  <path id="Path_535" data-name="Path 535" d="M143.03,248.18s-1.945,0-2.188.507a27.5,27.5,0,0,1-3.646,4.559c-.972.76-4.375,4.053-4.375,4.813s7.049,6.333,7.049,6.333,2.917,14.945,1.458,20.011-3.646,17.225-2.674,17.985,3.16,1.013,3.16,0,1.458-11.905,2.674-14.185,4.862-16.718,3.4-20.771S143.03,248.18,143.03,248.18Z" transform="translate(-115.841 -224.317)" fill="#d0cde1"/>
  <path id="Path_536" data-name="Path 536" d="M271.461,364.847s.243,7.853-2.431,11.905a48.921,48.921,0,0,0-4.375,8.612s-4.375-1.267-5.1-2.786-5.348-.253-5.348-.76,5.591-3.04,6.077-3.546,2.188-.507,3.16-1.52a6.885,6.885,0,0,0,1.215-3.293l.972-6.586Z" transform="translate(-212.185 -315.906)" fill="#9f616a"/>
  <path id="Path_537" data-name="Path 537" d="M177.81,144.978a4.469,4.469,0,0,0,1.8-.429,2.573,2.573,0,0,0,.616-3.717,4.649,4.649,0,0,0-.855-.716l-1.848-1.311a8.923,8.923,0,0,0-2.607-1.442,7.817,7.817,0,0,0-2.665-.164,17.36,17.36,0,0,0-5.1.967,8.575,8.575,0,0,0-4.136,3.154c-1.564,2.359-1.586,5.54-.724,8.263A28.338,28.338,0,0,0,166.4,157l.837-4.255a1.6,1.6,0,0,1,.473-1.019c.752-.557,1.671.587,2.594.58a1.567,1.567,0,0,0,1.315-1.085,6.418,6.418,0,0,0,.291-1.82c.11-1.3.547-3.117,1.732-3.836C174.743,144.9,176.569,145.095,177.81,144.978Z" transform="translate(-138.775 -137.16)" fill="#2f2e41"/>
  <path id="Path_538" data-name="Path 538" d="M231.7,498.681s-.821,24.746-1.307,25.506,0-25.584,0-25.584Z" transform="translate(-193.114 -420.912)" opacity="0.1"/>
  <path id="Path_539" data-name="Path 539" d="M283.664,257.607h1.945s8.265,11.652,7.292,12.412,0,2.786,0,2.786l1.945,3.8s2.431,2.28,1.7,2.786a9.283,9.283,0,0,0-1.7,2.533s-4.862-.76-6.32,2.28l-3.153-4.147Z" transform="translate(-235.569 -231.717)" fill="#d0cde1"/>
  <path id="Path_2111" data-name="Path 2111" d="M0,0,7.264-.107l-.2,13.937L-.2,13.937Z" transform="translate(42.109 32.509) rotate(-22.438)" fill="#2f2e41"/>
  <path id="Path_2112" data-name="Path 2112" d="M1.453-.021A1.366,1.366,0,0,1,2.886,1.331a1.466,1.466,0,0,1-1.472,1.4A1.366,1.366,0,0,1-.02,1.374,1.466,1.466,0,0,1,1.453-.021Z" transform="translate(45.652 35.257) rotate(-22.438)" fill="#eb2424"/>
  <path id="Path_540" data-name="Path 540" d="M178.475,312.108s-17.5,15.2-20.419,10.386,3.16-8.866,3.16-8.866a20.766,20.766,0,0,0,11.425-3.8l6.077-2.786s5.548-8.254,7.438-5.111S182.929,310.544,178.475,312.108Z" transform="translate(-135.242 -265.953)" fill="#9f616a"/>
  <path id="Path_541" data-name="Path 541" d="M131.753,289.426l-2.674,1.013v7.6l-.972,1.52s.243,3.04.972,3.8,2.188.507,1.7,2.28a9.992,9.992,0,0,0-.243,3.546s4.375,5.826,4.619,5.066,3.646-10.132,4.132-10.132-4.862-14.692-4.862-14.692Z" transform="translate(-112.099 -256.697)" fill="#d0cde1"/>
  <path id="Path_542" data-name="Path 542" d="M280.866,451.869s2.513-2.533,1.257-2.66-5.632-2.66-6.361-1.393S280.866,451.869,280.866,451.869Z" transform="translate(-229.247 -380.764)" fill="#2f2e41"/>
  <ellipse id="Ellipse_68" data-name="Ellipse 68" cx="3.839" cy="1.5" rx="3.839" ry="1.5" transform="translate(95.952 19.725)" fill="#57b894"/>
  <path id="Path_543" data-name="Path 543" d="M506.221,220.6a31.3,31.3,0,0,0-23.721,0V210.5a39.47,39.47,0,0,1,23.721,0Z" transform="translate(-393.391 -193.302)" fill="#57b894" stroke="#3f3d56" stroke-miterlimit="10" stroke-width="1"/>
  <ellipse id="Ellipse_69" data-name="Ellipse 69" cx="3.839" cy="1.5" rx="3.839" ry="1.5" transform="translate(96.911 18.725)" fill="none" stroke="#3f3d56" stroke-miterlimit="10" stroke-width="0.8"/>
  <path id="Path_2113" data-name="Path 2113" d="M3.512-.029c1.94-.016,3.506.836,3.5,1.9S5.422,3.818,3.482,3.834-.024,3-.015,1.931,1.573-.013,3.512-.029Z" transform="matrix(0.98, -0.2, 0.2, 0.98, 97.822, 31.84)" fill="#57b894"/>
  <path id="Path_545" data-name="Path 545" d="M515.991,270.292a31.456,31.456,0,0,0-23.242,4.943l-1.939-9.9a39.667,39.667,0,0,1,23.242-4.943Z" transform="translate(-399.987 -233.763)" fill="#57b894" stroke="#3f3d56" stroke-miterlimit="10" stroke-width="1"/>
  <path id="Path_2114" data-name="Path 2114" d="M3.512-.029c1.94-.016,3.506.836,3.5,1.9S5.422,3.818,3.482,3.834-.024,3-.015,1.931,1.573-.013,3.512-.029Z" transform="matrix(0.98, -0.2, 0.2, 0.98, 98.869, 30.74)" fill="none" stroke="#3f3d56" stroke-width="0.8"/>
  <path id="Path_2115" data-name="Path 2115" d="M1.934-.005C3-.008,3.864,1.559,3.858,3.5s-.876,3.51-1.944,3.513S-.016,5.444-.01,3.507.866,0,1.934-.005Z" transform="translate(97.275 46.704) rotate(-86.019)" fill="#57b894"/>
  <path id="Path_547" data-name="Path 547" d="M511.376,334.12a31.322,31.322,0,0,0-23.664-1.716l.673-10.078a39.494,39.494,0,0,1,23.664,1.716Z" transform="translate(-397.528 -281.689)" fill="#57b894" stroke="#3f3d56" stroke-miterlimit="10" stroke-width="1"/>
  <path id="Path_2116" data-name="Path 2116" d="M1.934-.005C3-.008,3.864,1.559,3.858,3.5s-.876,3.51-1.944,3.513S-.016,5.444-.01,3.507.866,0,1.934-.005Z" transform="translate(98.567 45.936) rotate(-86.019)" fill="none" stroke="#3f3d56" stroke-width="0.8"/>
  <path id="Path_549" data-name="Path 549" d="M365.426,264.017s-15.16-2.161-25.986,4.45" transform="translate(-279.84 -236.485)" fill="none" stroke="#3f3d56" stroke-miterlimit="10" stroke-width="1"/>
  <path id="Path_550" data-name="Path 550" d="M287.826,224.459l.394.13-.616,2.02,1.979.492-.1.419-2.41-.6Z" transform="translate(-227.862 -194.698)" fill="#3f3d56"/>
</svg>
