<svg id="h2gd-3-small" xmlns="http://www.w3.org/2000/svg" xmlns:xlink="http://www.w3.org/1999/xlink" width="208.013" height="179.22" viewBox="0 0 208.013 179.22">
  <defs>
    <linearGradient id="linear-gradient" x1="0.5" y1="1" x2="0.5" gradientUnits="objectBoundingBox">
      <stop offset="0" stop-color="gray" stop-opacity="0.251"/>
      <stop offset="0.54" stop-color="gray" stop-opacity="0.122"/>
      <stop offset="1" stop-color="gray" stop-opacity="0.102"/>
    </linearGradient>
    <linearGradient id="linear-gradient-2" x1="6.341" y1="1" x2="6.341" y2="0" xlink:href="#linear-gradient"/>
  </defs>
  <path id="Path_551" data-name="Path 551" d="M311.45,148.62c-7.99,13.427-6.492,31.72-2.983,46.143,1.174,4.829,2.527,9.927,1.523,15.332a23.344,23.344,0,0,1-10.234,14.77c-8.259,5.4-17.689,5.255-24.557-.4-5.93-4.881-9.836-13.394-15.891-18.013-10.124-7.732-24.027-3.046-36.1,4.18-8.537,5.1-17.933,11.59-25.823,7.915-5.551-2.58-9.013-9.86-10.628-17.782-.78-3.825-1.251-8-3.039-10.916a11.97,11.97,0,0,0-4.043-3.842c-13.84-8.67-32.565-1.421-45.912-11.239-9.015-6.629-14.139-20.32-15.824-34.96s-.3-30.305,1.435-45.729c1.234-10.966,2.9-22.7,8.444-31.615,5.861-9.433,15.1-13.651,23.131-12.756s15,6.181,21.013,12.642c7.511,8.074,14.286,18.386,24.007,20.991,6.622,1.775,13.853-.28,20.895-1.441,11.757-1.942,23.35-1.385,34.862-.656,11.02.7,22.107,1.567,32.376,5.595,7.266,2.853,12.843,8.793,19.624,12.655,4.42,2.518,9.407,2.838,13.526,6.194a21.553,21.553,0,0,1,7.432,21.419C322.746,136.292,315.689,141.495,311.45,148.62Z" transform="translate(-117.177 -49.595)" fill="#eb2424" opacity="0.1"/>
  <path id="Path_553" data-name="Path 553" d="M908.621,237.474l-9.411-2.2S901.431,245.582,908.621,237.474Z" transform="translate(-730.753 -193.718)" fill="#eb2424"/>
  <path id="Path_559" data-name="Path 559" d="M272.553,500.936s3.492-10.791-18.644-23.8c0,0-22.476-6.81-20.177-30.2,0,0-25.909,19.72-8.377,44.84s32.665,19.637,32.665,19.637Z" transform="translate(-197.276 -358.019)" fill="#eb2424"/>
  <path id="Path_560" data-name="Path 560" d="M307.706,505.81s-10.8-12.127-21.153-16.816a20.579,20.579,0,0,1-5.624-3.892,27.381,27.381,0,0,1-7.776-24.841l2.488-13.322" transform="translate(-239.177 -358.019)" fill="none" stroke="#535461" stroke-miterlimit="10" stroke-width="2"/>
  <rect id="Rectangle_51" data-name="Rectangle 51" width="122.914" height="148.266" transform="translate(41.59 7.429)" fill="url(#linear-gradient)"/>
  <rect id="Rectangle_52" data-name="Rectangle 52" width="120.051" height="144.811" transform="translate(43.022 9.154)" fill="#f7f7fd"/>
  <rect id="Rectangle_53" data-name="Rectangle 53" width="30.349" height="2.511" transform="translate(50.273 25.477)" fill="#e2e2ec"/>
  <rect id="Rectangle_54" data-name="Rectangle 54" width="51.834" height="2.511" transform="translate(50.273 31.616)" fill="#e2e2ec"/>
  <rect id="Rectangle_55" data-name="Rectangle 55" width="21.539" height="19.308" transform="translate(135.786 23.078)" fill="#fff"/>
  <path id="Path_561" data-name="Path 561" d="M768.541,152.444v19.085H747.216V152.444h21.325m.215-.224H747v19.532h21.756Z" transform="translate(-611.331 -129.254)" fill="#e2e2ec"/>
  <rect id="Rectangle_56" data-name="Rectangle 56" width="21.539" height="19.308" transform="translate(114.032 23.078)" fill="#fff"/>
  <path id="Path_562" data-name="Path 562" d="M667.541,152.444v19.085H646.215V152.444h21.325m.215-.224H646v19.532h21.756Z" transform="translate(-532.087 -129.254)" fill="#e2e2ec"/>
  <rect id="Rectangle_57" data-name="Rectangle 57" width="21.539" height="19.308" transform="translate(135.786 42.61)" fill="#fff"/>
  <path id="Path_563" data-name="Path 563" d="M768.541,239.724v19.085H747.216V239.724h21.325m.215-.224H747v19.532h21.756Z" transform="translate(-611.331 -197.002)" fill="#e2e2ec"/>
  <rect id="Rectangle_58" data-name="Rectangle 58" width="21.539" height="19.308" transform="translate(114.032 42.61)" fill="#fff"/>
  <path id="Path_564" data-name="Path 564" d="M667.541,239.724v19.085H646.215V239.724h21.325m.215-.224H646v19.532h21.756Z" transform="translate(-532.087 -197.002)" fill="#e2e2ec"/>
  <rect id="Rectangle_59" data-name="Rectangle 59" width="21.539" height="19.308" transform="translate(92.277 42.61)" fill="#fff"/>
  <path id="Path_565" data-name="Path 565" d="M566.591,239.724v19.085H545.265V239.724h21.326m.215-.224H545.05v19.532h21.756Z" transform="translate(-452.882 -197.002)" fill="#e2e2ec"/>
  <rect id="Rectangle_60" data-name="Rectangle 60" width="21.539" height="19.308" transform="translate(70.523 42.61)" fill="#fff"/>
  <path id="Path_566" data-name="Path 566" d="M465.6,239.724v19.085H444.275V239.724H465.6m.215-.224H444.06v19.532h21.756Z" transform="translate(-373.647 -197.002)" fill="#e2e2ec"/>
  <rect id="Rectangle_61" data-name="Rectangle 61" width="21.539" height="19.308" transform="translate(48.769 42.61)" fill="#fff"/>
  <path id="Path_567" data-name="Path 567" d="M364.611,239.724v19.085H343.285V239.724h21.325m.215-.224H343.07v19.532h21.756Z" transform="translate(-294.411 -197.002)" fill="#e2e2ec"/>
  <rect id="Rectangle_62" data-name="Rectangle 62" width="21.539" height="19.308" transform="translate(135.786 62.14)" fill="#fff"/>
  <path id="Path_568" data-name="Path 568" d="M768.541,327v19.085H747.216V327h21.325m.215-.224H747v19.532h21.756Z" transform="translate(-611.331 -264.749)" fill="#e2e2ec"/>
  <rect id="Rectangle_63" data-name="Rectangle 63" width="21.539" height="19.308" transform="translate(114.032 62.14)" fill="#fff"/>
  <path id="Path_569" data-name="Path 569" d="M667.541,327v19.085H646.215V327h21.325m.215-.224H646v19.532h21.756Z" transform="translate(-532.087 -264.749)" fill="#e2e2ec"/>
  <rect id="Rectangle_64" data-name="Rectangle 64" width="21.539" height="19.308" transform="translate(92.277 62.14)" fill="#fff"/>
  <path id="Path_570" data-name="Path 570" d="M566.591,327v19.085H545.265V327h21.326m.215-.224H545.05v19.532h21.756Z" transform="translate(-452.882 -264.749)" fill="#e2e2ec"/>
  <rect id="Rectangle_65" data-name="Rectangle 65" width="21.539" height="19.308" transform="translate(70.523 62.14)" fill="#fff"/>
  <path id="Path_571" data-name="Path 571" d="M465.6,327v19.085H444.275V327H465.6m.215-.224H444.06v19.532h21.756Z" transform="translate(-373.647 -264.749)" fill="#e2e2ec"/>
  <rect id="Rectangle_66" data-name="Rectangle 66" width="21.539" height="19.308" transform="translate(48.769 62.14)" fill="#fff"/>
  <path id="Path_572" data-name="Path 572" d="M364.611,327v19.085H343.285V327h21.325m.215-.224H343.07v19.532h21.756Z" transform="translate(-294.411 -264.749)" fill="#e2e2ec"/>
  <rect id="Rectangle_67" data-name="Rectangle 67" width="21.539" height="19.308" transform="translate(135.786 81.673)" fill="#fff"/>
  <path id="Path_573" data-name="Path 573" d="M768.541,414.274v19.085H747.216V414.274h21.325m.215-.224H747v19.532h21.756Z" transform="translate(-611.331 -332.489)" fill="#e2e2ec"/>
  <rect id="Rectangle_68" data-name="Rectangle 68" width="21.539" height="19.308" transform="translate(114.032 81.673)" fill="#fff"/>
  <path id="Path_574" data-name="Path 574" d="M667.541,414.274v19.085H646.215V414.274h21.325m.215-.224H646v19.532h21.756Z" transform="translate(-532.087 -332.489)" fill="#e2e2ec"/>
  <rect id="Rectangle_69" data-name="Rectangle 69" width="21.539" height="19.308" transform="translate(92.277 81.673)" fill="#fff"/>
  <path id="Path_575" data-name="Path 575" d="M566.591,414.274v19.085H545.265V414.274h21.326m.215-.224H545.05v19.532h21.756Z" transform="translate(-452.882 -332.489)" fill="#e2e2ec"/>
  <rect id="Rectangle_70" data-name="Rectangle 70" width="21.539" height="19.308" transform="translate(70.523 81.673)" fill="#fff"/>
  <path id="Path_576" data-name="Path 576" d="M465.6,414.274v19.085H444.275V414.274H465.6m.215-.224H444.06v19.532h21.756Z" transform="translate(-373.647 -332.489)" fill="#e2e2ec"/>
  <rect id="Rectangle_71" data-name="Rectangle 71" width="21.539" height="19.308" transform="translate(48.769 81.673)" fill="#fff"/>
  <path id="Path_577" data-name="Path 577" d="M364.611,414.274v19.085H343.285V414.274h21.325m.215-.224H343.07v19.532h21.756Z" transform="translate(-294.411 -332.489)" fill="#e2e2ec"/>
  <rect id="Rectangle_72" data-name="Rectangle 72" width="21.539" height="19.308" transform="translate(135.786 101.203)" fill="#fff"/>
  <path id="Path_578" data-name="Path 578" d="M768.541,501.554v19.082H747.216V501.554h21.325m.215-.224H747v19.53h21.756Z" transform="translate(-611.331 -400.237)" fill="#e2e2ec"/>
  <rect id="Rectangle_73" data-name="Rectangle 73" width="21.539" height="19.308" transform="translate(114.032 101.203)" fill="#fff"/>
  <path id="Path_579" data-name="Path 579" d="M667.541,501.554v19.082H646.215V501.554h21.325m.215-.224H646v19.53h21.756Z" transform="translate(-532.087 -400.237)" fill="#e2e2ec"/>
  <rect id="Rectangle_74" data-name="Rectangle 74" width="21.539" height="19.308" transform="translate(92.277 101.203)" fill="#fff"/>
  <path id="Path_580" data-name="Path 580" d="M566.591,501.554v19.082H545.265V501.554h21.326m.215-.224H545.05v19.53h21.756Z" transform="translate(-452.882 -400.237)" fill="#e2e2ec"/>
  <rect id="Rectangle_75" data-name="Rectangle 75" width="21.539" height="19.308" transform="translate(70.523 101.203)" fill="#fff"/>
  <path id="Path_581" data-name="Path 581" d="M465.6,501.554v19.082H444.275V501.554H465.6m.215-.224H444.06v19.53h21.756Z" transform="translate(-373.647 -400.237)" fill="#e2e2ec"/>
  <rect id="Rectangle_76" data-name="Rectangle 76" width="21.539" height="19.308" transform="translate(48.769 101.203)" fill="#fff"/>
  <path id="Path_582" data-name="Path 582" d="M364.611,501.554v19.082H343.285V501.554h21.325m.215-.224H343.07v19.53h21.756Z" transform="translate(-294.411 -400.237)" fill="#e2e2ec"/>
  <rect id="Rectangle_77" data-name="Rectangle 77" width="21.539" height="19.308" transform="translate(135.786 120.735)" fill="#fff"/>
  <path id="Path_583" data-name="Path 583" d="M768.541,588.824v19.085H747.216V588.824h21.325m.215-.224H747v19.532h21.756Z" transform="translate(-611.331 -467.977)" fill="#e2e2ec"/>
  <rect id="Rectangle_78" data-name="Rectangle 78" width="21.539" height="19.308" transform="translate(114.032 120.735)" fill="#fff"/>
  <path id="Path_584" data-name="Path 584" d="M667.541,588.824v19.085H646.215V588.824h21.325m.215-.224H646v19.532h21.756Z" transform="translate(-532.087 -467.977)" fill="#e2e2ec"/>
  <rect id="Rectangle_79" data-name="Rectangle 79" width="21.539" height="19.308" transform="translate(92.277 120.735)" fill="#fff"/>
  <path id="Path_585" data-name="Path 585" d="M566.591,588.824v19.085H545.265V588.824h21.326m.215-.224H545.05v19.532h21.756Z" transform="translate(-452.882 -467.977)" fill="#e2e2ec"/>
  <rect id="Rectangle_80" data-name="Rectangle 80" width="21.539" height="19.308" transform="translate(70.523 120.735)" fill="#fff"/>
  <path id="Path_586" data-name="Path 586" d="M465.6,588.824v19.085H444.275V588.824H465.6m.215-.224H444.06v19.532h21.756Z" transform="translate(-373.647 -467.977)" fill="#e2e2ec"/>
  <rect id="Rectangle_81" data-name="Rectangle 81" width="21.539" height="19.308" transform="translate(48.769 120.735)" fill="#fff"/>
  <path id="Path_587" data-name="Path 587" d="M364.611,588.824v19.085H343.285V588.824h21.325m.215-.224H343.07v19.532h21.756Z" transform="translate(-294.411 -467.977)" fill="#e2e2ec"/>
  <path id="Path_588" data-name="Path 588" d="M505.047,734.964a3.573,3.573,0,0,0,1.374-1.757,1.5,1.5,0,0,0-.961-1.79,2.968,2.968,0,0,0-2.538.754,3.63,3.63,0,0,1-2.466,1.009,2.909,2.909,0,0,0,1.161-2.979,1.167,1.167,0,0,0-.323-.6,1.771,1.771,0,0,0-1.962.1c-1.863,1.119-2.382,3.256-2.393,5.187a8.344,8.344,0,0,1-.034-2.137,2.056,2.056,0,0,0-.946-1.891,3.275,3.275,0,0,0-1.443-.289,3.364,3.364,0,0,0-2.341.564,1.743,1.743,0,0,0,.093,2.437,9.011,9.011,0,0,0,2.423,1.645,4.98,4.98,0,0,1,1.723,1.4,1.285,1.285,0,0,1,.129.251h5.25A14.945,14.945,0,0,0,505.047,734.964Z" transform="translate(-411.037 -577.219)" fill="#eb2424"/>
  <ellipse id="Ellipse_76" data-name="Ellipse 76" cx="1.228" cy="1.276" rx="1.228" ry="1.276" transform="translate(50.383 44.271)" fill="#fc6681"/>
  <ellipse id="Ellipse_77" data-name="Ellipse 77" cx="1.228" cy="1.276" rx="1.228" ry="1.276" transform="translate(53.45 44.271)" fill="#ffd037"/>
  <ellipse id="Ellipse_78" data-name="Ellipse 78" cx="1.228" cy="1.276" rx="1.228" ry="1.276" transform="translate(93.74 63.181)" fill="#eb2424"/>
  <ellipse id="Ellipse_79" data-name="Ellipse 79" cx="1.228" cy="1.276" rx="1.228" ry="1.276" transform="translate(96.81 63.181)" fill="#eb2424"/>
  <ellipse id="Ellipse_80" data-name="Ellipse 80" cx="1.228" cy="1.276" rx="1.228" ry="1.276" transform="translate(159.39 99.726)" fill="#eb2424"/>
  <ellipse id="Ellipse_81" data-name="Ellipse 81" cx="1.228" cy="1.276" rx="1.228" ry="1.276" transform="translate(160.004 98.24)" fill="#eb2424"/>
  <ellipse id="Ellipse_82" data-name="Ellipse 82" cx="1.228" cy="1.276" rx="1.228" ry="1.276" transform="translate(160.618 96.964)" fill="#eb2424"/>
  <ellipse id="Ellipse_83" data-name="Ellipse 83" cx="1.228" cy="1.276" rx="1.228" ry="1.276" transform="translate(137.711 44.271)" fill="#eb2424"/>
  <ellipse id="Ellipse_84" data-name="Ellipse 84" cx="1.228" cy="1.276" rx="1.228" ry="1.276" transform="translate(140.779 44.271)" fill="#eb2424"/>
  <ellipse id="Ellipse_85" data-name="Ellipse 85" cx="1.228" cy="1.276" rx="1.228" ry="1.276" transform="translate(143.848 44.271)" fill="#eb2424"/>
  <ellipse id="Ellipse_86" data-name="Ellipse 86" cx="1.228" cy="1.276" rx="1.228" ry="1.276" transform="translate(146.916 44.271)" fill="#eb2424"/>
  <ellipse id="Ellipse_87" data-name="Ellipse 87" cx="1.228" cy="1.276" rx="1.228" ry="1.276" transform="translate(137.711 83.79)" fill="#eb2424"/>
  <ellipse id="Ellipse_88" data-name="Ellipse 88" cx="1.228" cy="1.276" rx="1.228" ry="1.276" transform="translate(140.779 83.79)" fill="#eb2424"/>
  <ellipse id="Ellipse_89" data-name="Ellipse 89" cx="1.228" cy="1.276" rx="1.228" ry="1.276" transform="translate(143.848 83.79)" fill="#eb2424"/>
  <ellipse id="Ellipse_90" data-name="Ellipse 90" cx="1.228" cy="1.276" rx="1.228" ry="1.276" transform="translate(146.916 83.79)" fill="#eb2424"/>
  <ellipse id="Ellipse_91" data-name="Ellipse 91" cx="1.228" cy="1.276" rx="1.228" ry="1.276" transform="translate(72.061 63.181)" fill="#ffd037"/>
  <ellipse id="Ellipse_92" data-name="Ellipse 92" cx="1.228" cy="1.276" rx="1.228" ry="1.276" transform="translate(50.383 82.516)" fill="#fc6681"/>
  <path id="Path_589" data-name="Path 589" d="M855.243,266.651c1.346.826,3.447,1.363,6.107-.412l-.026,3.93c.19,2.685,3.4,12.512,3.4,12.512l2.262,8.079a65.5,65.5,0,0,1,2.486,17.574,17.425,17.425,0,0,0,.722,5.532c1.2,3.381-.474,7.739-1.2,9.361a36.735,36.735,0,0,1-3.733,1.092,2.482,2.482,0,0,0-.334.105l-.015-.022s-3.395,1.4-4.9,1.206a1.379,1.379,0,0,0-.948,2.386,6.65,6.65,0,0,1-2.26.309c-1.508-.192-2.264,2.5.566,3.272s18.868,0,18.868,0a2.392,2.392,0,0,0,1.206-2.609c1.232-.049,2-.087,2-.087s2.83-1.343,0-5.006l-.151.119-.605-1.851v-2.5s3.584-17.9,2.454-20.02-1.7-12.9-1.7-12.9l.383-11.742a28.688,28.688,0,0,0,1.812-8.318,18.262,18.262,0,0,0,.724-3.945c.045-.631.082-1.293.106-1.98a13.748,13.748,0,0,0-.7-4.429,43.71,43.71,0,0,1,4.274-5.575,5.872,5.872,0,0,0,1.7-5.006l-.943-6.546-2.264-11.165c.284-3.1-.338-4.881-1.025-5.888.164-1,.317-2,.431-3.005a39.926,39.926,0,0,0-.661-13.087,9.033,9.033,0,0,0-1.784-4.167c-1.144-1.285-3-2.068-3.427-3.751a11.278,11.278,0,0,0-.263-1.267c-.414-1.1-1.723-1.5-2.869-1.645-2.042-.257-5-.448-6.958.38a8.578,8.578,0,0,0-4.007,3.9,3.413,3.413,0,0,0-.448,2.4,3.367,3.367,0,0,0,.325.821,7.645,7.645,0,0,0-.439,2.571,7.509,7.509,0,0,0,4.614,6.967c.045.148.086.293.121.436a7.743,7.743,0,0,1,.185,1.05c-.037.671-.078,1.363-.108,2.045q-.032.141-.069.277a47.893,47.893,0,0,0-4.739,2.511c1.133,1.732-.189,9.048-.189,9.048-2.831,1.732-5.661,6.161-2.641,10.78a11.921,11.921,0,0,1,1.32,9.623l-.472,7.526h0v.013l-.095,1.506h.036l-.036.571.082.016v.613a8.826,8.826,0,0,0-4.416,3.413,11.964,11.964,0,0,1-1.975,2.518,1.543,1.543,0,0,0-.5,1.288A1.519,1.519,0,0,0,855.243,266.651Zm22.782-20a7.4,7.4,0,0,1,.67-3.787q.665.013,1.333.016c.045.325.1.633.164.915.383,1.7-1.148,2.509-2.169,2.853Z" transform="translate(-695.685 -162.45)" fill="url(#linear-gradient-2)"/>
  <path id="Path_590" data-name="Path 590" d="M910.469,754.049l.726,2.263-2.369,2.462-7.806,1.886-5.629-.566.364-2.075h0a2.455,2.455,0,0,1,1.788-1.828c2.313-.564,6.725-1.853,7.651-3.641Z" transform="translate(-727.756 -595.237)" fill="#db8b8b"/>
  <path id="Path_591" data-name="Path 591" d="M910.469,754.049l.726,2.263-2.369,2.462-7.806,1.886-5.629-.566.364-2.075h0a2.455,2.455,0,0,1,1.788-1.828c2.313-.564,6.725-1.853,7.651-3.641Z" transform="translate(-727.756 -595.237)" opacity="0.1"/>
  <path id="Path_592" data-name="Path 592" d="M881.957,770.611l1.09-1.508-1.09-1.748s-3.268,1.37-4.72,1.182-2.178,2.462.545,3.207,18.155,0,18.155,0,2.723-1.32,0-4.9l-2.37,1.887s-3.994,2.262-5.991,1.887Z" transform="translate(-712.499 -606.329)" fill="#2e3037"/>
  <path id="Path_593" data-name="Path 593" d="M881.1,771.811l5.629.566,7.806-1.886,2.37-2.462-.192-.6-.271-.841-.271-.819-5.265-1.508a3.328,3.328,0,0,1-1.077,1.119,22.016,22.016,0,0,1-6.585,2.531,1.85,1.85,0,0,0-.215.069,2.458,2.458,0,0,0-1.564,1.759Z" transform="translate(-716.544 -604.326)" fill="#db8b8b"/>
  <path id="Path_594" data-name="Path 594" d="M881.1,782.8l5.629.566,7.806-1.886,2.37-2.462-.192-.6-2.167,1.732s-3.994,2.263-5.99,1.887h-5.639l1.09-1.508-.978-1.567a2.459,2.459,0,0,0-1.564,1.759Z" transform="translate(-716.544 -615.318)" opacity="0.1"/>
  <path id="Path_595" data-name="Path 595" d="M867.627,782.411l1.09-1.508-1.09-1.748s-3.268,1.37-4.72,1.182-2.178,2.462.545,3.207,18.155,0,18.155,0,2.723-1.32,0-4.9l-2.369,1.887s-3.994,2.262-5.991,1.887Z" transform="translate(-701.256 -615.488)" fill="#2e3037"/>
  <path id="Path_596" data-name="Path 596" d="M910.6,271.994s8.715.942,7.444-2.829a7.041,7.041,0,0,1-.269-3.33,9.428,9.428,0,0,1,1.54-3.836l-8.17,1.32a10.854,10.854,0,0,1,1.107,2.726A5.66,5.66,0,0,1,910.6,271.994Z" transform="translate(-739.69 -214.466)" fill="#db8b8b"/>
  <path id="Path_597" data-name="Path 597" d="M941.32,498.82s-.181,8.11-2,12.071l-.364,11.5s.545,10.563,1.635,12.637-2.369,19.615-2.369,19.615v3.019s-5.816,2.263-7.445-.378l1.635-22.446-.726-31.12Z" transform="translate(-755.523 -398.289)" fill="#474463"/>
  <path id="Path_598" data-name="Path 598" d="M941.32,498.82s-.181,8.11-2,12.071l-.364,11.5s.545,10.563,1.635,12.637-2.369,19.615-2.369,19.615v3.019s-5.816,2.263-7.445-.378l1.635-22.446-.726-31.12Z" transform="translate(-755.523 -398.289)" opacity="0.1"/>
  <path id="Path_599" data-name="Path 599" d="M966.818,382.51l1.09,3.019.907,6.414a5.806,5.806,0,0,1-1.635,4.9,53.907,53.907,0,0,0-5.084,6.978l-3.447-10.742s3.447-.566,2.906-3.019a37.026,37.026,0,0,1-.366-7Z" transform="translate(-777.39 -308.008)" fill="#fc6681"/>
  <path id="Path_600" data-name="Path 600" d="M966.818,382.51l1.09,3.019.907,6.414a5.806,5.806,0,0,1-1.635,4.9,53.907,53.907,0,0,0-5.084,6.978l-3.447-10.742s3.447-.566,2.906-3.019a37.026,37.026,0,0,1-.366-7Z" transform="translate(-777.39 -308.008)" opacity="0.05"/>
  <path id="Path_601" data-name="Path 601" d="M921.66,765.381c2.329,3.8,5.954,1.649,6.6,1.22l-.263-.833-5.265-1.508A3.329,3.329,0,0,1,921.66,765.381Z" transform="translate(-748.367 -604.326)" opacity="0.1"/>
  <path id="Path_602" data-name="Path 602" d="M887.85,459.044c.181,2.641,3.268,12.259,3.268,12.259l2.178,7.915a65.257,65.257,0,0,1,2.393,17.218,17.328,17.328,0,0,0,.7,5.42c1.452,4.149-1.452,9.809-1.452,9.809,2.542,4.715,6.893,1.508,6.893,1.508v-3.017s3.446-16.41,2.542-19.615-1.271-11.883-1.271-11.883V462.994a18.072,18.072,0,0,0,4.982-11.261c.043-.618.078-1.267.1-1.94.146-4.252-2.654-9.245-3.748-11.022-.263-.43-.431-.671-.431-.671l-16.031,6.606-.037.016v2.07Z" transform="translate(-721.84 -351.157)" fill="#474463"/>
  <path id="Path_603" data-name="Path 603" d="M913.13,263.318a10.851,10.851,0,0,1,1.107,2.726,6.864,6.864,0,0,0,5.523-.21A9.427,9.427,0,0,1,921.3,262Z" transform="translate(-741.675 -214.466)" opacity="0.1"/>
  <ellipse id="Ellipse_93" data-name="Ellipse 93" cx="7.08" cy="7.356" rx="7.08" ry="7.356" transform="translate(168.006 36.966)" fill="#db8b8b"/>
  <path id="Path_604" data-name="Path 604" d="M887.85,446.816l.078.016c7.613,1.627,17.17-6.617,17.17-6.617a9.934,9.934,0,0,1-.661-1.4c-.263-.43-.431-.671-.431-.671l-16.031,6.606-.041.66Z" transform="translate(-721.84 -351.188)" opacity="0.1"/>
  <path id="Path_605" data-name="Path 605" d="M882.66,290.511s10.167-6.414,13.435-3.773l4.539,6.042s2.906.942,2.37,6.978l2.169,10.937-6.536,1.7s-3.813,3.773-.726,9.242c0,0-9.622,8.3-17.248,6.6l.545-8.864a11.876,11.876,0,0,0-1.271-9.43c-2.906-4.527-.181-8.864,2.542-10.563C882.479,299.378,883.747,292.21,882.66,290.511Z" transform="translate(-714.653 -233.173)" fill="#fc6681"/>
  <path id="Path_606" data-name="Path 606" d="M865.446,477.75s-3.813.754-5.629,3.773a11.686,11.686,0,0,1-1.9,2.462,1.528,1.528,0,0,0-.467,1.249,1.505,1.505,0,0,0,.682,1.137c1.441.9,3.791,1.452,6.76-1.081C869.985,480.957,865.446,477.75,865.446,477.75Z" transform="translate(-697.984 -381.934)" fill="#db8b8b"/>
  <path id="Path_607" data-name="Path 607" d="M898.273,321.339s3.632-.378,4.539,9.43,2.37,12.071,2.37,12.071.907,5.093-1.271,8.11-6.355,9.43-6.355,9.43-4.539,1.32-5.446-3.395l5.629-10.939s.907-3.773-1.271-6.414S892.644,319.452,898.273,321.339Z" transform="translate(-725.183 -260.416)" opacity="0.1"/>
  <path id="Path_608" data-name="Path 608" d="M896.553,318.809s3.632-.378,4.539,9.43,2.369,12.071,2.369,12.071.907,5.093-1.271,8.11-6.354,9.43-6.354,9.43-4.539,1.32-5.446-3.395l5.629-10.939s.907-3.773-1.271-6.414S890.931,316.922,896.553,318.809Z" transform="translate(-723.833 -258.452)" fill="#fc6681"/>
  <path id="Path_609" data-name="Path 609" d="M905,350.9s-.362,5.841,1.267,9.054,1.635,7.356,0,9.623" transform="translate(-735.266 -283.472)" opacity="0.1"/>
  <path id="Path_610" data-name="Path 610" d="M900.91,307.757s1.452-1.508,5.629-1.7,5.991-1.508,5.991-1.508" transform="translate(-732.087 -247.494)" opacity="0.1"/>
  <path id="Path_611" data-name="Path 611" d="M908.311,204.427c1.1.141,2.369.535,2.761,1.611a11.387,11.387,0,0,1,.252,1.242c.412,1.647,2.2,2.415,3.3,3.675a9.073,9.073,0,0,1,1.723,4.082,39.816,39.816,0,0,1,.646,12.814c-.353,3.133-1.077,6.208-1.28,9.35a15.3,15.3,0,0,0,1.82,9.088,22.775,22.775,0,0,1,2.154,3.381,6.1,6.1,0,0,1-3.819,1.05q-2.341.083-4.685,0a4.838,4.838,0,0,1-2.38-.515,3.764,3.764,0,0,1-1.249-1.394,10.234,10.234,0,0,1-1.077-5.295c.041-1.826.317-3.643.349-5.472a4.939,4.939,0,0,0-.61-2.869,9.14,9.14,0,0,0-1.521-1.461c-1.939-1.79-2.611-4.659-2.675-7.356s.364-5.4.144-8.085c-.086-1.052-.465-2.316-1.461-2.52a4.957,4.957,0,0,1-.948-.125c-.8-.32-.722-1.49-.95-2.348-.256-.962-1.047-1.705-1.269-2.685-.523-2.283,2.273-5.006,4.106-5.8C903.505,203.984,906.346,204.177,908.311,204.427Z" transform="translate(-729.39 -169.609)" opacity="0.1"/>
  <path id="Path_612" data-name="Path 612" d="M909.151,202.741c1.1.141,2.37.535,2.762,1.611a11.4,11.4,0,0,1,.252,1.242c.411,1.647,2.2,2.415,3.3,3.675a9.072,9.072,0,0,1,1.723,4.082,39.812,39.812,0,0,1,.646,12.814c-.353,3.133-1.077,6.208-1.279,9.35a15.3,15.3,0,0,0,1.82,9.088,22.768,22.768,0,0,1,2.154,3.381,6.1,6.1,0,0,1-3.819,1.05q-2.341.083-4.685,0a4.839,4.839,0,0,1-2.38-.515,3.765,3.765,0,0,1-1.249-1.394,10.234,10.234,0,0,1-1.077-5.295c.041-1.826.317-3.643.349-5.472a4.938,4.938,0,0,0-.61-2.869,9.141,9.141,0,0,0-1.521-1.461c-1.939-1.79-2.611-4.659-2.675-7.356s.364-5.4.144-8.085c-.086-1.052-.465-2.316-1.461-2.52a4.953,4.953,0,0,1-.948-.125c-.8-.32-.722-1.49-.95-2.348-.256-.962-1.047-1.705-1.269-2.685-.523-2.283,2.273-5.006,4.106-5.8C904.345,202.3,907.186,202.489,909.151,202.741Z" transform="translate(-730.049 -168.299)" fill="#472727"/>
</svg>
