<svg xmlns="http://www.w3.org/2000/svg" width="21.375" height="12" viewBox="0 0 21.375 12"><defs><style>.a{fill:#353263;}</style></defs><g transform="translate(0 1)"><path class="a" d="M20.188,2a1.215,1.215,0,0,0,1.188-1h0a1.215,1.215,0,0,0-1.187-1h-19A1.215,1.215,0,0,0,0,1H0A1.215,1.215,0,0,0,1.188,2Z" transform="translate(0 9)"/><path class="a" d="M20.188,2a1.215,1.215,0,0,0,1.188-1h0a1.215,1.215,0,0,0-1.187-1h-19A1.215,1.215,0,0,0,0,1H0A1.215,1.215,0,0,0,1.188,2Z" transform="translate(0 4)"/><path class="a" d="M20.188,2a1.215,1.215,0,0,0,1.188-1h0a1.215,1.215,0,0,0-1.187-1h-19A1.215,1.215,0,0,0,0,1H0A1.215,1.215,0,0,0,1.188,2Z" transform="translate(0 -1)"/></g></svg>