<svg xmlns="http://www.w3.org/2000/svg" width="636.635" height="487.524" viewBox="0 0 636.635 487.524">
  <g id="landing-page-image-desktop" transform="translate(-31.888 -0.578)"
                              style="mix-blend-mode: multiply;isolation: isolate">
                              <path id="Path_49" data-name="Path 49"
                                    d="M358.574,113.719S266.2,85.336,253.447,146.652,266.7,276.329,266.7,276.329H417.143Z"
                                    transform="translate(-200.705 59.325)" fill="#ffd200" />
                              <path id="Path_50" data-name="Path 50"
                                    d="M183.5,97.61s48.938-2.309,58.568,46.328-6.79,116.259-6.79,116.259l73.787,19.838-3.718,8.8H200.083L167.75,213.083Z"
                                    transform="translate(97.634 46.797)" fill="#eb2424" />
                              <path id="Path_51" data-name="Path 51"
                                    d="M183.5,97.61s48.938-2.309,58.568,46.328-6.79,116.259-6.79,116.259l73.787,19.838-3.718,8.8H200.083L167.75,213.083Z"
                                    transform="translate(97.634 46.797)" fill="#fff" opacity="0.46" />
                              <g id="Group_79" data-name="Group 79"
                                    transform="matrix(0.995, 0.105, -0.105, 0.995, 218.923, 0)">
                                    <path id="Path_52" data-name="Path 52"
                                          d="M74.882,28.619S76.706,62.487,69,84.7a17.919,17.919,0,0,1-9.676,10.114A23.038,23.038,0,0,1,44.1,96.1C31.034,92.637,14.672,84.7,11.023,66.658L.606,36.508C-2.166,23.811,4.745,11,17.85,4.55,40.745-8.263,75,7.967,74.882,28.619Z"
                                          transform="translate(11.46 19.899)" fill="#f4a28c" />
                                    <path id="Path_53" data-name="Path 53"
                                          d="M14.773,0,0,110.347l71.863,2.563-18.128-81.3Z"
                                          transform="translate(0 71.884)" fill="#f4a28c" />
                                    <path id="Path_54" data-name="Path 54"
                                          d="M70.863,49.573A181.564,181.564,0,0,1,34.431,45.9c6.8,9.659,6.221,21.846-1.471,31C25.626,85.958,11.826,89.325,0,84.949L2.708,41.433C3,28.707,11.424,17.138,24.661,11.283A163.29,163.29,0,0,1,42.317,4.8C57.208.279,78.337,9.424,91.874,1.435a10.939,10.939,0,0,1,9.407-.683,8.331,8.331,0,0,1,5.483,6.562c1.707,13.316-2.06,34.019-23.542,40.5a40.823,40.823,0,0,1-12.36,1.759Z"
                                          transform="translate(5.532 0)" fill="#24285b" />
                                    <path id="Path_55" data-name="Path 55"
                                          d="M19.524,12.482S19.524-.583,8.341.02-3.783,19.467,11.7,21.778Z"
                                          transform="translate(23.264 63.572)" fill="#f4a28c" />
                                    <path id="Path_56" data-name="Path 56"
                                          d="M9.24,0,19.658,13.416a4.758,4.758,0,0,1,.532,5.221A6.317,6.317,0,0,1,15.3,21.808L0,23.718Z"
                                          transform="translate(76.925 69.924)" fill="#f4a28c" />
                                    <path id="Path_57" data-name="Path 57"
                                          d="M25.956,6.583A53.067,53.067,0,0,1,0,0S1.059,20.5,32.135,34.471Z"
                                          transform="translate(26.779 99.521)" fill="#ce8172" opacity="0.31" />
                              </g>
                              <path id="Path_58" data-name="Path 58"
                                    d="M357.107,102.9s-109.769-21.039-147.275,0S251.01,319.668,251.01,319.668l115.612-3.649S467.776,123.017,357.107,102.9Z"
                                    transform="translate(-76.443 41.505)" fill="#eb2424" />
                              <rect id="Rectangle_2" data-name="Rectangle 2" width="587.143" height="254.868"
                                    transform="translate(31.888 349.234)" fill="#c9c9c9" />
                              <rect id="Rectangle_3" data-name="Rectangle 3" width="587.143" height="25.058"
                                    transform="translate(31.888 335.539)" fill="#e6e6e6" />
                              <rect id="Rectangle_4" data-name="Rectangle 4" width="231.824" height="183.118"
                                    transform="translate(436.698 38.657)" fill="#24285b" />
                              <rect id="Rectangle_5" data-name="Rectangle 5" width="74.457" height="8.337"
                                    transform="translate(526.305 140.389)" fill="#eb2424" />
                              <rect id="Rectangle_6" data-name="Rectangle 6" width="66.582" height="8.337"
                                    transform="translate(512.818 117.179)" fill="#ffd200" />
                              <rect id="Rectangle_7" data-name="Rectangle 7" width="34.734" height="8.337"
                                    transform="translate(516.11 181.705)" fill="#ffd200" />
                              <rect id="Rectangle_8" data-name="Rectangle 8" width="88.73" height="8.337"
                                    transform="translate(490.67 160.527)" fill="#eb2424" />
                              <rect id="Rectangle_9" data-name="Rectangle 9" width="33.372" height="8.337"
                                    transform="translate(595.012 160.527)" fill="#fff" />
                              <rect id="Rectangle_10" data-name="Rectangle 10" width="33.372" height="8.337"
                                    transform="translate(561.779 182.421)" fill="#fff" />
                              <rect id="Rectangle_11" data-name="Rectangle 11" width="33.372" height="8.337"
                                    transform="translate(616.375 140.389)" fill="#fff" />
                              <circle id="Ellipse_8" data-name="Ellipse 8" cx="3.926" cy="3.926" r="3.926"
                                    transform="translate(649.423 48.772)" fill="#fff" />
                              <circle id="Ellipse_9" data-name="Ellipse 9" cx="3.926" cy="3.926" r="3.926"
                                    transform="translate(637.737 48.772)" fill="#eb2424" />
                              <circle id="Ellipse_10" data-name="Ellipse 10" cx="3.926" cy="3.926" r="3.926"
                                    transform="translate(626.721 48.772)" fill="#ffd200" />
                              <rect id="Rectangle_12" data-name="Rectangle 12" width="33.372" height="8.337"
                                    transform="translate(616.375 77.017)" fill="#fff" />
                              <rect id="Rectangle_13" data-name="Rectangle 13" width="33.372" height="8.337"
                                    transform="translate(595.012 97.848)" fill="#fff" />
                              <rect id="Rectangle_14" data-name="Rectangle 14" width="66.582" height="8.337"
                                    transform="translate(512.818 97.848)" fill="#ffd200" />
                              <rect id="Rectangle_15" data-name="Rectangle 15" width="33.372" height="8.337"
                                    transform="translate(595.012 117.179)" fill="#fff" />
                              <rect id="Rectangle_16" data-name="Rectangle 16" width="68.753" height="8.337"
                                    transform="translate(534.273 77.017)" fill="#eb2424" />
                              <rect id="Rectangle_17" data-name="Rectangle 17" width="48.799" height="8.337"
                                    transform="translate(470.856 77.017)" fill="#eb2424" />
                              <path id="Path_62" data-name="Path 62"
                                    d="M216.572,176.472s50.416-14.6,44.365,13.857H216.572Z"
                                    transform="translate(32.403 145.187)" fill="#f4a28c" />
                              <rect id="Rectangle_18" data-name="Rectangle 18" width="95.358" height="7.829"
                                    transform="translate(262.66 327.71)" fill="#e6e6e6" />
                              <rect id="Rectangle_19" data-name="Rectangle 19" width="200.6" height="151.871"
                                    transform="translate(303.087 136.301)" fill="#e6e6e6" />
                              <path id="Path_63" data-name="Path 63"
                                    d="M258.318,101.92s39.376,28.707,21.478,81.547C253.122,262.2,387,258.271,387,258.271l-10.9,26.282L222.452,271.366,209.08,218.248Z"
                                    transform="translate(-76.002 52.464)" opacity="0.08" />
                              <path id="Path_64" data-name="Path 64"
                                    d="M237.09,135.11l21.57,104.5H151.94v-13.88l53.349-3.418,4.55-87.205Z"
                                    transform="translate(184.656 95.925)" fill="#c9c9c9" />
                              <path id="Path_65" data-name="Path 65"
                                    d="M323.605,118.407A27.714,27.714,0,0,0,289.471,94.9c-21.386,5.312-48.245,22.125-52.263,72.517-6.813,85.45,17.413,125.912,17.413,125.912H388.594v-17l-93-11.363S330.857,177.321,323.605,118.407Z"
                                    transform="translate(-139.986 42.213)" fill="#eb2424" />
                              <path id="Path_66" data-name="Path 66"
                                    d="M323.605,118.407A27.714,27.714,0,0,0,289.471,94.9c-21.386,5.312-48.245,22.125-52.263,72.517-6.813,85.45,17.413,125.912,17.413,125.912H388.594v-17l-93-11.363S330.857,177.321,323.605,118.407Z"
                                    transform="translate(-139.986 42.213)" fill="#fff" opacity="0.46" />
                              <path id="Path_67" data-name="Path 67"
                                    d="M95.267,183.841s18.915-5.173,23.095-22.794c0,0-29.33-5.935-30.162,24.342Z"
                                    transform="translate(472.586 129.272)" fill="#eb2424" opacity="0.58" />
                              <path id="Path_68" data-name="Path 68"
                                    d="M109.791,192.772s13.233-20.9,1.594-40.462c0,0-22.309,14.18-12.4,40.508Z"
                                    transform="translate(455.729 118.448)" fill="#eb2424" opacity="0.73" />
                              <path id="Path_69" data-name="Path 69"
                                    d="M129.187,184.729s-6.928-22.079-28.129-26.259c0,0-3.949,14.319,13.7,26.328Z"
                                    transform="translate(432.763 126.515)" fill="#eb2424" />
                              <path id="Path_70" data-name="Path 70"
                                    d="M126.31,169.62l-3.834,26.259-24.157.115-3.58-26.236Z"
                                    transform="translate(449.533 141.115)" fill="#24285b" />
                        </g>
</svg>
