<svg xmlns="http://www.w3.org/2000/svg" width="330" height="206.489" viewBox="0 0 330 206.489">
  <g id="landing-image-small" transform="translate(-17.708 -0.948)" style="mix-blend-mode: multiply;isolation: isolate">
    <path id="Path_49" data-name="Path 49" d="M306.335,110.933s-47.96-16.328-54.578,18.945,6.882,74.6,6.882,74.6h78.1Z" transform="translate(-223.221 -11.387)" fill="#ffd200"/>
    <path id="Path_50" data-name="Path 50" d="M175.927,97.6s25.407-1.329,30.407,26.651-3.525,66.879-3.525,66.879l38.308,11.412-1.93,5.062h-54.65L167.75,164.03Z" transform="translate(-29.063 -14.53)" fill="#eb2424"/>
    <path id="Path_51" data-name="Path 51" d="M175.927,97.6s25.407-1.329,30.407,26.651-3.525,66.879-3.525,66.879l38.308,11.412-1.93,5.062h-54.65L167.75,164.03Z" transform="translate(-29.063 -14.53)" fill="#fff" opacity="0.46"/>
    <g id="Group_79" data-name="Group 79" transform="matrix(0.995, 0.105, -0.105, 0.995, 115.391, 0.548)">
      <path id="Path_52" data-name="Path 52" d="M38.952,16.72S40.1,36.193,36.22,48.911a9.639,9.639,0,0,1-4.97,5.755,10.865,10.865,0,0,1-7.9.654C16.535,53.252,7.984,48.594,5.982,38.206L.391,20.82A16.8,16.8,0,0,1,9.168,2.556C20.994-4.674,38.893,4.853,38.952,16.72Z" transform="translate(5.403 11.198)" fill="#f4a28c"/>
      <path id="Path_53" data-name="Path 53" d="M7.191.018.156,63.343l37.368,1.892-9.9-46.826Z" transform="translate(0.101 40.909)" fill="#f4a28c"/>
      <path id="Path_54" data-name="Path 54" d="M36.746,28.46a86.323,86.323,0,0,1-18.958-2.32A15.442,15.442,0,0,1,17.2,43.947,14.336,14.336,0,0,1,.119,48.375L1.273,23.384a19.352,19.352,0,0,1,11.235-17.2,78.091,78.091,0,0,1,9.14-3.622C29.361.053,40.4,5.432,47.386.919A5.184,5.184,0,0,1,52.272.582a4.835,4.835,0,0,1,2.888,3.8c.965,7.662-.872,19.537-12,23.136a19.162,19.162,0,0,1-6.414.939Z" transform="translate(2.446 0.006)" fill="#24285b"/>
      <path id="Path_55" data-name="Path 55" d="M10.179,7.246S10.1-.262,4.294.019s-6.189,11.1,1.871,12.523Z" transform="translate(11.699 36.242)" fill="#f4a28c"/>
      <path id="Path_56" data-name="Path 56" d="M4.7.012l5.493,7.771a2.986,2.986,0,0,1,.307,3,3.2,3.2,0,0,1-2.522,1.794L.033,13.587Z" transform="translate(39.69 40.206)" fill="#f4a28c"/>
      <path id="Path_57" data-name="Path 57" d="M13.53,3.934A25.958,25.958,0,0,1,0,0S.67,11.787,16.9,20Z" transform="translate(13.694 56.879)" fill="#ce8172" opacity="0.31"/>
    </g>
    <path id="Path_58" data-name="Path 58" d="M281.42,98.93s-56.988-12.1-76.46,0,21.351,123.962,21.351,123.962l60.049-1.363S338.876,110.5,281.42,98.93Z" transform="translate(-134.555 -15.858)" fill="#eb2424"/>
    <rect id="Rectangle_3" data-name="Rectangle 3" width="304.306" height="14.415" transform="translate(17.708 193.023)" fill="#e6e6e6"/>
    <rect id="Rectangle_4" data-name="Rectangle 4" width="120.355" height="105.341" transform="translate(227.353 22.238)" fill="#24285b"/>
    <rect id="Rectangle_5" data-name="Rectangle 5" width="38.656" height="4.796" transform="translate(273.874 80.76)" fill="#eb2424"/>
    <rect id="Rectangle_6" data-name="Rectangle 6" width="34.567" height="4.796" transform="translate(266.872 67.408)" fill="#ffd200"/>
    <rect id="Rectangle_7" data-name="Rectangle 7" width="18.033" height="4.796" transform="translate(268.682 104.528)" fill="#ffd200"/>
    <rect id="Rectangle_8" data-name="Rectangle 8" width="46.065" height="4.796" transform="translate(255.374 92.345)" fill="#eb2424"/>
    <rect id="Rectangle_9" data-name="Rectangle 9" width="17.326" height="4.796" transform="translate(309.544 92.345)" fill="#fff"/>
    <rect id="Rectangle_10" data-name="Rectangle 10" width="17.326" height="4.796" transform="translate(292.291 104.94)" fill="#fff"/>
    <rect id="Rectangle_11" data-name="Rectangle 11" width="17.326" height="4.796" transform="translate(320.635 80.76)" fill="#fff"/>
    <ellipse id="Ellipse_8" data-name="Ellipse 8" cx="2.038" cy="2.259" rx="2.038" ry="2.259" transform="translate(337.793 28.057)" fill="#fff"/>
    <ellipse id="Ellipse_9" data-name="Ellipse 9" cx="2.038" cy="2.259" rx="2.038" ry="2.259" transform="translate(331.726 28.057)" fill="#eb2424"/>
    <ellipse id="Ellipse_10" data-name="Ellipse 10" cx="2.038" cy="2.259" rx="2.038" ry="2.259" transform="translate(326.007 28.057)" fill="#ffd200"/>
    <rect id="Rectangle_12" data-name="Rectangle 12" width="17.326" height="4.796" transform="translate(320.635 44.305)" fill="#fff"/>
    <rect id="Rectangle_13" data-name="Rectangle 13" width="17.326" height="4.796" transform="translate(309.544 56.288)" fill="#fff"/>
    <rect id="Rectangle_14" data-name="Rectangle 14" width="34.567" height="4.796" transform="translate(266.872 56.288)" fill="#ffd200"/>
    <rect id="Rectangle_15" data-name="Rectangle 15" width="17.326" height="4.796" transform="translate(309.544 67.408)" fill="#fff"/>
    <rect id="Rectangle_16" data-name="Rectangle 16" width="35.694" height="4.796" transform="translate(278.011 44.305)" fill="#eb2424"/>
    <rect id="Rectangle_17" data-name="Rectangle 17" width="25.335" height="4.796" transform="translate(245.218 44.305)" fill="#eb2424"/>
    <path id="Path_62" data-name="Path 62" d="M216.572,174.883s26.174-8.4,23.033,7.971H216.572Z" transform="translate(-86.35 10.156)" fill="#f4a28c"/>
    <rect id="Rectangle_18" data-name="Rectangle 18" width="49.507" height="4.504" transform="translate(137.296 188.519)" fill="#e6e6e6"/>
    <rect id="Rectangle_19" data-name="Rectangle 19" width="104.145" height="87.365" transform="translate(158.183 78.409)" fill="#e6e6e6"/>
    <path id="Path_63" data-name="Path 63" d="M234.643,101.92s20.443,16.514,11.151,46.911c-13.848,45.29,55.658,43.032,55.658,43.032l-5.659,15.119L216.022,199.4l-6.942-30.557Z" transform="translate(-138.952 -13.109)" opacity="0.08"/>
    <path id="Path_64" data-name="Path 64" d="M196.147,135.11l11.2,60.117H151.94v-7.985l27.7-1.966L182,135.11Z" transform="translate(23.664 -2.204)" fill="#c9c9c9"/>
    <path id="Path_65" data-name="Path 65" d="M281.482,108.079A16.284,16.284,0,0,0,275.364,96.9a13.249,13.249,0,0,0-11.6-2.35c-11.1,3.056-25.047,12.727-27.133,41.716-3.537,49.156,9.04,72.433,9.04,72.433h69.554v-9.778l-48.284-6.536S285.247,141.97,281.482,108.079Z" transform="translate(-184.999 -15.681)" fill="#eb2424"/>
    <path id="Path_66" data-name="Path 66" d="M281.482,108.079A16.284,16.284,0,0,0,275.364,96.9a13.249,13.249,0,0,0-11.6-2.35c-11.1,3.056-25.047,12.727-27.133,41.716-3.537,49.156,9.04,72.433,9.04,72.433h69.554v-9.778l-48.284-6.536S285.247,141.97,281.482,108.079Z" transform="translate(-184.999 -15.681)" fill="#fff" opacity="0.46"/>
    <path id="Path_67" data-name="Path 67" d="M91.869,173.96s9.82-2.976,11.99-13.113c0,0-15.227-3.414-15.659,14Z" transform="translate(203.575 6.163)" fill="#eb2424" opacity="0.58"/>
    <path id="Path_68" data-name="Path 68" d="M103.374,175.586s6.87-12.023.827-23.276c0,0-11.582,8.157-6.439,23.3Z" transform="translate(190.859 3.447)" fill="#eb2424" opacity="0.73"/>
    <path id="Path_69" data-name="Path 69" d="M115.48,173.576s-3.6-12.7-14.6-15.106c0,0-2.05,8.237,7.11,15.145Z" transform="translate(176.991 5.471)" fill="#eb2424"/>
    <path id="Path_70" data-name="Path 70" d="M111.13,169.62l-1.99,15.106-12.542.066L94.74,169.7Z" transform="translate(188.462 9.134)" fill="#24285b"/>
  </g>
</svg>
