<svg xmlns="http://www.w3.org/2000/svg" width="159.221" height="34.999" viewBox="0 0 159.221 34.999"><defs><style>.a{fill:#eb2424;}.b{fill:#353263;}</style></defs><g transform="translate(-2 -3)"><path class="a" d="M399,213.224a13.21,13.21,0,0,1,12.533-9.4,12.857,12.857,0,0,1,7.417,2.356,20.882,20.882,0,0,0,2.385-3.031,16.573,16.573,0,0,0-9.8-3.208,17.036,17.036,0,0,0-16.3,12.622l1.7.335Q397.977,213.1,399,213.224Z" transform="translate(-393.101 -195.209)"/><path class="a" d="M419.193,183.62a11.726,11.726,0,0,1-2.37,6.128,23.4,23.4,0,0,1-2.426,3c-11.191,9.648-23.594,8.092-26.364,7.037a17.192,17.192,0,0,0,.729,7.939,26.5,26.5,0,0,0,4.116-.033c9.743-.644,18.949-5.527,23.5-12.466a18.783,18.783,0,0,0,1.954-3.865A16.241,16.241,0,0,0,419.193,183.62Z" transform="translate(-385.86 -180.62)"/><path class="b" d="M413.2,331.743a34.244,34.244,0,0,0,23.186-13.524,25.9,25.9,0,0,0,1.95-3.8q.341-.831.592-1.624a22.8,22.8,0,0,1-1.42,2.144q-.574.768-1.223,1.514c-5.169,5.915-13.386,9.859-22.013,10.707-1.11.109-2.226.17-3.344.175l-1.023,0A17.162,17.162,0,0,0,413.2,331.743ZM440.5,312.2a18.482,18.482,0,0,1-.17,3.631,20.741,20.741,0,0,1-1.245,4.623c-2.564,6.514-8.337,12.34-15.549,16.02.5.045,1.006.07,1.518.07A17.069,17.069,0,0,0,440.5,312.2Z" transform="translate(-406.518 -298.544)"/></g><path class="a" d="M8.176-3.129a3.463,3.463,0,0,1-.311,1.323A3.042,3.042,0,0,1,7.09-.778,3.561,3.561,0,0,1,5.9-.111,4.741,4.741,0,0,1,4.354.127,4.167,4.167,0,0,1,2.7-.184a3.357,3.357,0,0,1-1.231-.892A3.93,3.93,0,0,1,.7-2.491,6.219,6.219,0,0,1,.438-4.367v-.5A5.954,5.954,0,0,1,.714-6.744,4.061,4.061,0,0,1,1.5-8.163a3.452,3.452,0,0,1,1.228-.9,3.945,3.945,0,0,1,1.6-.314,4.691,4.691,0,0,1,1.6.251,3.433,3.433,0,0,1,1.177.7,3.188,3.188,0,0,1,.755,1.054,4.107,4.107,0,0,1,.336,1.327H5.973a2.622,2.622,0,0,0-.1-.686,1.176,1.176,0,0,0-.289-.5,1.258,1.258,0,0,0-.5-.3,2.391,2.391,0,0,0-.749-.1,1.586,1.586,0,0,0-.717.152A1.257,1.257,0,0,0,3.1-7a2.515,2.515,0,0,0-.3.854,6.935,6.935,0,0,0-.1,1.26v.514A7.6,7.6,0,0,0,2.793-3.11a2.559,2.559,0,0,0,.282.854,1.179,1.179,0,0,0,.508.486,1.758,1.758,0,0,0,.771.152A1.711,1.711,0,0,0,5.529-1.98,1.536,1.536,0,0,0,5.96-3.129ZM8.861-3.5a4.332,4.332,0,0,1,.216-1.39A3.163,3.163,0,0,1,9.712-6a2.879,2.879,0,0,1,1.038-.733A3.594,3.594,0,0,1,12.168-7a3.629,3.629,0,0,1,1.431.263A2.879,2.879,0,0,1,14.638-6a3.163,3.163,0,0,1,.635,1.111,4.332,4.332,0,0,1,.216,1.39v.133a4.382,4.382,0,0,1-.213,1.393,3.1,3.1,0,0,1-.632,1.1,2.9,2.9,0,0,1-1.038.73,3.612,3.612,0,0,1-1.425.263,3.612,3.612,0,0,1-1.425-.263,2.928,2.928,0,0,1-1.041-.73,3.109,3.109,0,0,1-.638-1.1,4.323,4.323,0,0,1-.216-1.393ZM11-3.364a4.575,4.575,0,0,0,.054.724,1.789,1.789,0,0,0,.19.584,1.046,1.046,0,0,0,.365.39,1.059,1.059,0,0,0,.571.143,1.03,1.03,0,0,0,.562-.143,1.031,1.031,0,0,0,.359-.39,1.9,1.9,0,0,0,.19-.584,4.326,4.326,0,0,0,.057-.724V-3.5a4.489,4.489,0,0,0-.054-.711A1.825,1.825,0,0,0,13.1-4.8a1.091,1.091,0,0,0-.365-.4,1.024,1.024,0,0,0-.571-.149,1,1,0,0,0-.562.149,1.075,1.075,0,0,0-.359.4,1.935,1.935,0,0,0-.19.587A4.245,4.245,0,0,0,11-3.5Zm5.161-.121a5.576,5.576,0,0,1,.171-1.428,3.314,3.314,0,0,1,.508-1.111,2.324,2.324,0,0,1,.835-.717A2.519,2.519,0,0,1,18.833-7a1.919,1.919,0,0,1,.87.19,2.2,2.2,0,0,1,.679.533V-9.75h2.146V0H20.6L20.5-.736a2.336,2.336,0,0,1-.717.632,1.925,1.925,0,0,1-.958.232,2.41,2.41,0,0,1-1.149-.263,2.424,2.424,0,0,1-.832-.727,3.322,3.322,0,0,1-.508-1.1,5.333,5.333,0,0,1-.171-1.387Zm2.139.133a4.791,4.791,0,0,0,.051.72,1.952,1.952,0,0,0,.175.581.991.991,0,0,0,.33.387.891.891,0,0,0,.511.14,1.157,1.157,0,0,0,.616-.156,1.08,1.08,0,0,0,.4-.441V-4.735a1.025,1.025,0,0,0-1-.609.879.879,0,0,0-.5.14,1.01,1.01,0,0,0-.333.39,2.06,2.06,0,0,0-.184.59,4.466,4.466,0,0,0-.057.74ZM26,0H23.854V-6.868H26ZM23.728-8.639a1.009,1.009,0,0,1,.086-.419.96.96,0,0,1,.244-.33,1.128,1.128,0,0,1,.375-.216,1.442,1.442,0,0,1,.482-.076A1.442,1.442,0,0,1,25.4-9.6a1.128,1.128,0,0,1,.375.216.96.96,0,0,1,.244.33,1.009,1.009,0,0,1,.086.419,1.009,1.009,0,0,1-.086.419.96.96,0,0,1-.244.33,1.128,1.128,0,0,1-.375.216,1.442,1.442,0,0,1-.482.076,1.442,1.442,0,0,1-.482-.076,1.128,1.128,0,0,1-.375-.216.96.96,0,0,1-.244-.33A1.009,1.009,0,0,1,23.728-8.639Zm5.554,1.771.07.806a2.308,2.308,0,0,1,.847-.7A2.552,2.552,0,0,1,31.313-7a2.668,2.668,0,0,1,.873.136,1.622,1.622,0,0,1,.682.451,2.128,2.128,0,0,1,.441.825,4.383,4.383,0,0,1,.156,1.26V0H31.319V-4.329a1.614,1.614,0,0,0-.067-.508.734.734,0,0,0-.19-.311.654.654,0,0,0-.3-.156,1.848,1.848,0,0,0-.409-.041,1.1,1.1,0,0,0-.568.133,1.048,1.048,0,0,0-.365.362V0H27.276V-6.868ZM34.4-3.485a4.971,4.971,0,0,1,.194-1.428,3.3,3.3,0,0,1,.559-1.111,2.515,2.515,0,0,1,.889-.717A2.664,2.664,0,0,1,37.216-7a2.3,2.3,0,0,1,.987.19,2,2,0,0,1,.689.533l.076-.6h1.942v6.6A3.009,3.009,0,0,1,40.657,1a2.58,2.58,0,0,1-.714.93,3.185,3.185,0,0,1-1.1.574,4.864,4.864,0,0,1-1.425.2,3.938,3.938,0,0,1-.708-.067,3.863,3.863,0,0,1-.7-.2,3.471,3.471,0,0,1-.632-.321,2.18,2.18,0,0,1-.5-.444l.9-1.257a2.1,2.1,0,0,0,.647.5,2,2,0,0,0,.927.2A1.429,1.429,0,0,0,38.4.759a1.411,1.411,0,0,0,.362-1.038V-.552a2.09,2.09,0,0,1-.673.5A2.066,2.066,0,0,1,37.2.127a2.564,2.564,0,0,1-1.174-.263,2.592,2.592,0,0,1-.882-.727,3.35,3.35,0,0,1-.555-1.1A4.756,4.756,0,0,1,34.4-3.352Zm2.146.133a3.365,3.365,0,0,0,.073.72,1.909,1.909,0,0,0,.222.581,1.123,1.123,0,0,0,.378.387,1,1,0,0,0,.533.14,1.384,1.384,0,0,0,.609-.121,1.015,1.015,0,0,0,.4-.343V-4.875a1,1,0,0,0-.4-.349,1.347,1.347,0,0,0-.6-.121.99.99,0,0,0-.527.14,1.142,1.142,0,0,0-.381.39,2.011,2.011,0,0,0-.232.59,3.248,3.248,0,0,0-.079.74ZM53.181,0H50.965L47.69-5.751V0H45.462V-9.242H47.69l3.269,5.751V-9.242h2.222Zm3.567,0H54.6V-6.868h2.146ZM54.476-8.639a1.009,1.009,0,0,1,.086-.419.96.96,0,0,1,.244-.33A1.128,1.128,0,0,1,55.18-9.6a1.442,1.442,0,0,1,.482-.076,1.442,1.442,0,0,1,.482.076,1.128,1.128,0,0,1,.375.216.96.96,0,0,1,.244.33,1.009,1.009,0,0,1,.086.419,1.009,1.009,0,0,1-.086.419.96.96,0,0,1-.244.33,1.128,1.128,0,0,1-.375.216,1.442,1.442,0,0,1-.482.076,1.442,1.442,0,0,1-.482-.076,1.128,1.128,0,0,1-.375-.216.96.96,0,0,1-.244-.33A1.009,1.009,0,0,1,54.476-8.639ZM60.03-6.868l.07.806a2.308,2.308,0,0,1,.847-.7A2.552,2.552,0,0,1,62.061-7a2.668,2.668,0,0,1,.873.136,1.622,1.622,0,0,1,.682.451,2.128,2.128,0,0,1,.441.825,4.383,4.383,0,0,1,.156,1.26V0H62.067V-4.329A1.614,1.614,0,0,0,62-4.837a.734.734,0,0,0-.19-.311.654.654,0,0,0-.3-.156,1.848,1.848,0,0,0-.409-.041,1.1,1.1,0,0,0-.568.133,1.048,1.048,0,0,0-.365.362V0H58.024V-6.868Zm7.668,0V.222a3.08,3.08,0,0,1-.181,1.1,2.114,2.114,0,0,1-.524.8,2.236,2.236,0,0,1-.828.489,3.392,3.392,0,0,1-1.095.165q-.273,0-.5-.022a4.105,4.105,0,0,1-.508-.086V1.047q.165.025.3.041a2.624,2.624,0,0,0,.3.016.926.926,0,0,0,.66-.216.877.877,0,0,0,.229-.667v-7.09Zm-2.3-1.771a1.009,1.009,0,0,1,.086-.419.96.96,0,0,1,.244-.33A1.123,1.123,0,0,1,66.1-9.6a1.45,1.45,0,0,1,.479-.076,1.442,1.442,0,0,1,.482.076,1.128,1.128,0,0,1,.375.216.96.96,0,0,1,.244.33,1.009,1.009,0,0,1,.086.419,1.009,1.009,0,0,1-.086.419.96.96,0,0,1-.244.33,1.128,1.128,0,0,1-.375.216,1.442,1.442,0,0,1-.482.076,1.45,1.45,0,0,1-.479-.076,1.123,1.123,0,0,1-.378-.216.96.96,0,0,1-.244-.33A1.009,1.009,0,0,1,65.394-8.639ZM72.776,0a1.489,1.489,0,0,1-.117-.282q-.048-.156-.086-.333a2.09,2.09,0,0,1-.641.527,2.087,2.087,0,0,1-1.009.216,2.626,2.626,0,0,1-.9-.152,2.374,2.374,0,0,1-.74-.422,2,2,0,0,1-.5-.651,1.873,1.873,0,0,1-.187-.838,2.245,2.245,0,0,1,.194-.952,1.8,1.8,0,0,1,.59-.708,2.925,2.925,0,0,1,1-.444A5.839,5.839,0,0,1,71.817-4.2h.66v-.362a1.129,1.129,0,0,0-.19-.692.735.735,0,0,0-.628-.254.8.8,0,0,0-.565.184.739.739,0,0,0-.2.565H68.758a1.912,1.912,0,0,1,.213-.889,2.087,2.087,0,0,1,.606-.711,3.039,3.039,0,0,1,.949-.47A4.2,4.2,0,0,1,71.767-7a4.065,4.065,0,0,1,1.139.152,2.556,2.556,0,0,1,.9.46,2.141,2.141,0,0,1,.6.768,2.494,2.494,0,0,1,.216,1.07v2.812q0,.336.019.584a3.585,3.585,0,0,0,.057.435,2.271,2.271,0,0,0,.092.333,2.015,2.015,0,0,0,.124.273V0ZM71.437-1.4a1.193,1.193,0,0,0,.663-.171,1.074,1.074,0,0,0,.378-.387v-1.1H71.8a1.362,1.362,0,0,0-.5.083.857.857,0,0,0-.33.222.839.839,0,0,0-.178.321,1.314,1.314,0,0,0-.054.378.612.612,0,0,0,.2.473A.712.712,0,0,0,71.437-1.4ZM79.4-1.93a.451.451,0,0,0-.06-.235.6.6,0,0,0-.213-.194,1.959,1.959,0,0,0-.413-.175q-.26-.083-.66-.171a5.974,5.974,0,0,1-.943-.282,3.047,3.047,0,0,1-.768-.432,1.923,1.923,0,0,1-.514-.606,1.666,1.666,0,0,1-.187-.8,1.912,1.912,0,0,1,.187-.832,2.015,2.015,0,0,1,.549-.692,2.731,2.731,0,0,1,.889-.473A3.808,3.808,0,0,1,78.47-7a4.408,4.408,0,0,1,1.25.165,2.938,2.938,0,0,1,.949.46,2.047,2.047,0,0,1,.6.7,1.957,1.957,0,0,1,.209.9H79.333a.872.872,0,0,0-.2-.609.879.879,0,0,0-.673-.216.968.968,0,0,0-.308.048.812.812,0,0,0-.251.133.644.644,0,0,0-.171.206.564.564,0,0,0-.063.267.531.531,0,0,0,.27.457,2.508,2.508,0,0,0,.873.292,8.52,8.52,0,0,1,1,.244,3.167,3.167,0,0,1,.847.4,1.925,1.925,0,0,1,.587.625,1.8,1.8,0,0,1,.219.92,1.746,1.746,0,0,1-.209.844,2,2,0,0,1-.6.67,3.065,3.065,0,0,1-.943.444A4.421,4.421,0,0,1,78.47.127a3.778,3.778,0,0,1-1.311-.209,3.041,3.041,0,0,1-.952-.543,2.286,2.286,0,0,1-.581-.749,1.923,1.923,0,0,1-.2-.828h2a.827.827,0,0,0,.317.7,1.306,1.306,0,0,0,.781.219,1.027,1.027,0,0,0,.657-.178A.569.569,0,0,0,79.4-1.93Z" transform="translate(38.703 22)"/><path class="b" d="M8.525-4.431a5.692,5.692,0,0,1-.3,1.9,4.169,4.169,0,0,1-.835,1.435,3.611,3.611,0,0,1-1.276.9A4.105,4.105,0,0,1,4.494.127,4.185,4.185,0,0,1,2.853-.187a3.6,3.6,0,0,1-1.282-.9A4.169,4.169,0,0,1,.736-2.526a5.692,5.692,0,0,1-.3-1.9v-.375a5.747,5.747,0,0,1,.3-1.9,4.13,4.13,0,0,1,.832-1.435,3.639,3.639,0,0,1,1.279-.908,4.125,4.125,0,0,1,1.638-.317,4.092,4.092,0,0,1,1.625.317,3.639,3.639,0,0,1,1.279.908,4.209,4.209,0,0,1,.838,1.435,5.637,5.637,0,0,1,.3,1.9ZM6.259-4.818A3.886,3.886,0,0,0,5.8-6.909a1.476,1.476,0,0,0-1.317-.714,1.465,1.465,0,0,0-1.336.714A4.023,4.023,0,0,0,2.7-4.818v.387a4,4,0,0,0,.451,2.088,1.474,1.474,0,0,0,1.339.73A1.457,1.457,0,0,0,5.8-2.339a3.949,3.949,0,0,0,.457-2.092ZM10.048,0V-5.383h-1V-6.868h1v-.559a2.829,2.829,0,0,1,.184-1.057,2.053,2.053,0,0,1,.527-.771,2.258,2.258,0,0,1,.828-.47,3.516,3.516,0,0,1,1.095-.159,3.422,3.422,0,0,1,.521.038q.248.038.482.1l.006,1.574a1.285,1.285,0,0,0-.232-.044,2.947,2.947,0,0,0-.3-.013,1.107,1.107,0,0,0-.72.206.732.732,0,0,0-.251.6v.559h1.339v1.485H12.194V0Zm4.71,0V-5.383h-1V-6.868h1v-.559a2.829,2.829,0,0,1,.184-1.057,2.053,2.053,0,0,1,.527-.771,2.258,2.258,0,0,1,.828-.47,3.516,3.516,0,0,1,1.095-.159,3.422,3.422,0,0,1,.521.038q.248.038.482.1L18.4-8.176a1.285,1.285,0,0,0-.232-.044,2.947,2.947,0,0,0-.3-.013,1.107,1.107,0,0,0-.72.206.732.732,0,0,0-.251.6v.559h1.339v1.485H16.9V0Zm7.408.127a3.972,3.972,0,0,1-1.5-.267,3.24,3.24,0,0,1-1.111-.724,3.131,3.131,0,0,1-.689-1.06,3.46,3.46,0,0,1-.238-1.282v-.241a4.606,4.606,0,0,1,.206-1.4,3.126,3.126,0,0,1,.622-1.127,2.911,2.911,0,0,1,1.035-.749A3.552,3.552,0,0,1,21.938-7a3.47,3.47,0,0,1,1.311.235,2.684,2.684,0,0,1,.984.673,2.953,2.953,0,0,1,.616,1.06,4.3,4.3,0,0,1,.213,1.4v.87H20.808a1.542,1.542,0,0,0,.5.908,1.492,1.492,0,0,0,1,.33,2.344,2.344,0,0,0,.86-.165,1.729,1.729,0,0,0,.727-.546l.978,1.155a2.493,2.493,0,0,1-.422.444,2.947,2.947,0,0,1-.6.384,3.806,3.806,0,0,1-.768.273A3.843,3.843,0,0,1,22.166.127Zm-.241-5.472a1.069,1.069,0,0,0-.47.1.92.92,0,0,0-.327.26,1.286,1.286,0,0,0-.206.394,2.83,2.83,0,0,0-.114.5h2.158v-.165a1.06,1.06,0,0,0-.26-.8A1.036,1.036,0,0,0,21.925-5.345Zm8.15.413-.156-.016q-.092-.01-.19-.016l-.194-.013q-.1-.006-.165-.006a1.9,1.9,0,0,0-.832.156.955.955,0,0,0-.463.479V0H25.937V-6.868h2.006l.07.882a2.092,2.092,0,0,1,.632-.743A1.475,1.475,0,0,1,29.517-7a2.583,2.583,0,0,1,.314.019,1.707,1.707,0,0,1,.282.057Zm4.367,3a.451.451,0,0,0-.06-.235.6.6,0,0,0-.213-.194,1.959,1.959,0,0,0-.413-.175q-.26-.083-.66-.171a5.974,5.974,0,0,1-.943-.282,3.047,3.047,0,0,1-.768-.432,1.923,1.923,0,0,1-.514-.606,1.666,1.666,0,0,1-.187-.8,1.912,1.912,0,0,1,.187-.832,2.015,2.015,0,0,1,.549-.692,2.731,2.731,0,0,1,.889-.473A3.808,3.808,0,0,1,33.509-7a4.408,4.408,0,0,1,1.25.165,2.938,2.938,0,0,1,.949.46,2.047,2.047,0,0,1,.6.7,1.957,1.957,0,0,1,.209.9H34.373a.872.872,0,0,0-.2-.609.879.879,0,0,0-.673-.216.968.968,0,0,0-.308.048.812.812,0,0,0-.251.133.644.644,0,0,0-.171.206.564.564,0,0,0-.063.267.531.531,0,0,0,.27.457,2.508,2.508,0,0,0,.873.292,8.52,8.52,0,0,1,1,.244,3.167,3.167,0,0,1,.847.4,1.925,1.925,0,0,1,.587.625,1.8,1.8,0,0,1,.219.92,1.746,1.746,0,0,1-.209.844,2,2,0,0,1-.6.67,3.065,3.065,0,0,1-.943.444,4.421,4.421,0,0,1-1.244.162A3.778,3.778,0,0,1,32.2-.083a3.041,3.041,0,0,1-.952-.543,2.286,2.286,0,0,1-.581-.749,1.923,1.923,0,0,1-.2-.828h2a.827.827,0,0,0,.317.7,1.306,1.306,0,0,0,.781.219,1.027,1.027,0,0,0,.657-.178A.569.569,0,0,0,34.442-1.93Z" transform="translate(122.703 22)"/></svg>