<svg xmlns="http://www.w3.org/2000/svg" width="270.974" height="51.676" viewBox="0 0 270.974 51.676">
  <g id="logo" transform="translate(0 0)">
    <g id="logo-2" data-name="logo">
      <g id="Folder_1" data-name="Folder 1">
        <g id="Group_4" data-name="Group 4">
          <path id="Path_6" data-name="Path 6" d="M400.753,218.929a19.235,19.235,0,0,1,29.213-10.071,29.968,29.968,0,0,0,3.492-4.333,24.79,24.79,0,0,0-38.217,13.458l2.487.478Q399.247,218.752,400.753,218.929Z" transform="translate(-394.304 -197.869)" fill="#eb2424"/>
          <path id="Path_7" data-name="Path 7" d="M433.1,183.62c.057,2.2-1.116,5.434-3.422,8.848a33.78,33.78,0,0,1-3.5,4.337c-16.159,13.931-34.067,11.684-38.066,10.16a24.825,24.825,0,0,0,1.053,11.463,38.264,38.264,0,0,0,5.943-.048c14.068-.93,27.361-7.98,33.925-18a27.123,27.123,0,0,0,2.822-5.58A23.451,23.451,0,0,0,433.1,183.62Z" transform="translate(-387.86 -183.62)" fill="#eb2424"/>
        </g>
        <path id="Path_8" data-name="Path 8" d="M414.7,340.588c8.2-.875,22.585-5.178,33.682-19.645a37.626,37.626,0,0,0,2.833-5.517q.495-1.207.86-2.359a33.141,33.141,0,0,1-2.063,3.115q-.834,1.115-1.776,2.2c-7.508,8.592-19.445,14.322-31.978,15.554-1.613.159-3.234.247-4.858.254l-1.486.005A24.925,24.925,0,0,0,414.7,340.588ZM454.352,312.2a26.844,26.844,0,0,1-.246,5.274,30.128,30.128,0,0,1-1.809,6.716c-3.724,9.462-12.11,17.925-22.588,23.271.727.065,1.462.1,2.205.1A24.794,24.794,0,0,0,454.352,312.2Z" transform="translate(-407.112 -295.887)" fill="#353263"/>
      </g>
      <text id="Coding_Ninjas_Offers" data-name="Coding Ninjas Offers" transform="translate(54.974 34.455)" fill="#eb2424" font-size="23" font-family="'Poppins', Arial, Helvetica, sans-serif" font-weight="800"><tspan x="0" y="0">Coding Ninjas </tspan><tspan y="0" fill="#353263">Offers</tspan></text>
    </g>
  </g>
</svg>
