<svg xmlns="http://www.w3.org/2000/svg" width="22.427" height="12.471" viewBox="0 0 22.427 12.471">
  <path id="menu-hambuger" d="M3.6,8.494H22.825a1.459,1.459,0,0,0,1.6-1.247A1.459,1.459,0,0,0,22.825,6H3.6A1.459,1.459,0,0,0,2,7.247,1.459,1.459,0,0,0,3.6,8.494Zm19.223,2.494H3.6A1.459,1.459,0,0,0,2,12.236a1.459,1.459,0,0,0,1.6,1.247H22.825a1.459,1.459,0,0,0,1.6-1.247A1.459,1.459,0,0,0,22.825,10.988Zm0,4.988H3.6A1.459,1.459,0,0,0,2,17.224a1.459,1.459,0,0,0,1.6,1.247H22.825a1.459,1.459,0,0,0,1.6-1.247A1.459,1.459,0,0,0,22.825,15.977Z" transform="translate(-2 -6)" fill="#353263"/>
</svg>
