<svg xmlns="http://www.w3.org/2000/svg" xmlns:xlink="http://www.w3.org/1999/xlink" width="117.726" height="118.65" viewBox="0 0 117.726 118.65">
  <defs>
    <linearGradient id="linear-gradient" x1="0.5" y1="1" x2="0.5" gradientUnits="objectBoundingBox">
      <stop offset="0" stop-color="gray" stop-opacity="0.251"/>
      <stop offset="0.54" stop-color="gray" stop-opacity="0.122"/>
      <stop offset="1" stop-color="gray" stop-opacity="0.102"/>
    </linearGradient>
    <linearGradient id="linear-gradient-2" x1="0.5" y1="1" x2="0.5" y2="0" xlink:href="#linear-gradient"/>
  </defs>
  <g id="feautes-small-5" transform="translate(0)">
    <path id="Path_1063" data-name="Path 1063" d="M131.4,51.124c-4.427.953-9.51,2.652-11.3,7.874-1.636,4.774.284,10.153,1.576,15.093a60.97,60.97,0,0,1,1.96,15.07c.033,7.192-1.132,14.775,1.235,21.31,2.67,7.373,9.278,11.637,11.594,19.194.971,3.169,1.089,6.636,1.552,9.985a42.909,42.909,0,0,0,7.946,19.856c2.736,3.609,6.3,6.638,10.246,6.71,2.994.056,5.82-1.578,8.594-3.008a78.312,78.312,0,0,1,9.93-4.287,10.153,10.153,0,0,1,4.362-.8c2.837.295,5.2,2.8,7.9,3.977,7.3,3.182,14.839-3.733,22.537-4.462,6.6-.626,13.228,3.365,19.713,1.7a3.483,3.483,0,0,0,2.478-1.753c.829-1.757-.2-4.189.538-6.012s2.728-2.011,3.9-3.4c1.189-1.411,1.286-3.848.68-5.764a16.628,16.628,0,0,0-2.9-4.935,210.916,210.916,0,0,1-15.334-23.508c-4.738-8.425-9.172-18.334-7.839-28.544.461-3.513,1.592-6.838,2.105-10.34s.3-7.467-1.58-10.11a12.184,12.184,0,0,0-4.233-3.36C192.766,53.5,177.467,45.2,162.007,48.271a50.666,50.666,0,0,1-7.555,1.41c-3.686.159-7.154-1.822-10.754-1.178C139.61,49.228,135.48,50.245,131.4,51.124Z" transform="translate(-119.466 -47.566)" fill="#eb2424" opacity="0.1"/>
    <path id="Path_1064" data-name="Path 1064" d="M221.381,130.071s-5.038-3.326-6.532-8.422a10.459,10.459,0,0,0-3.352-5.257,14.07,14.07,0,0,0-2.357-1.532" transform="translate(-198.156 -104.903)" fill="none" stroke="#535461" stroke-miterlimit="10" stroke-width="2"/>
    <path id="Path_1065" data-name="Path 1065" d="M186.651,90.883a13.277,13.277,0,0,1,.99,3.285,8.684,8.684,0,0,1-2.725-1.211,1.7,1.7,0,0,1,.047-2.031A1.081,1.081,0,0,1,186.651,90.883Z" transform="translate(-176.623 -84.13)" fill="#eb2424"/>
    <path id="Path_1066" data-name="Path 1066" d="M217.327,96.738a13.643,13.643,0,0,1-.653,3.4,11.691,11.691,0,0,1-1.741-2.8,1.481,1.481,0,0,1,.956-1.68,1.234,1.234,0,0,1,1.438,1.073Z" transform="translate(-203.226 -88.508)" fill="#eb2424"/>
    <path id="Path_1067" data-name="Path 1067" d="M253.905,129.452a11.041,11.041,0,0,1-1.993,2.543,13.921,13.921,0,0,1-.328-3.472,1.194,1.194,0,0,1,1.55-.935,1.557,1.557,0,0,1,.777,1.864Z" transform="translate(-235.358 -115.692)" fill="#eb2424"/>
    <path id="Path_1068" data-name="Path 1068" d="M274.612,165.047a12.028,12.028,0,0,1-1.607,2.911,13.483,13.483,0,0,1-.812-3.354,1.47,1.47,0,0,1,.754-1.213,1.064,1.064,0,0,1,1.245.227,1.649,1.649,0,0,1,.421,1.427Z" transform="translate(-253.48 -146.192)" fill="#eb2424"/>
    <path id="Path_1069" data-name="Path 1069" d="M206.263,124.763c.676-.009,2.621-1.508,2.621-1.508s-1.973-1.444-2.649-1.435a1.373,1.373,0,0,0-1.211,1.49,1.359,1.359,0,0,0,1.239,1.456Z" transform="translate(-194.545 -110.838)" fill="#eb2424"/>
    <path id="Path_1070" data-name="Path 1070" d="M229.1,165.419c.642-.252,2.125-2.382,2.125-2.382s-2.243-.667-2.885-.415a1.565,1.565,0,0,0-.741,1.839,1.2,1.2,0,0,0,1.5.96Z" transform="translate(-214.306 -145.58)" fill="#eb2424"/>
    <path id="Path_1071" data-name="Path 1071" d="M259.678,200.7c.669-.118,2.43-1.915,2.43-1.915s-2.117-1.114-2.784-1a1.276,1.276,0,0,0-1.006.9,1.717,1.717,0,0,0,.182,1.493,1.122,1.122,0,0,0,1.179.517Z" transform="translate(-241.229 -175.609)" fill="#eb2424"/>
    <path id="Path_1072" data-name="Path 1072" d="M184.381,268.071s-5.038-3.326-6.532-8.422a10.459,10.459,0,0,0-3.352-5.257,14.072,14.072,0,0,0-2.357-1.532" transform="translate(-165.688 -222.575)" fill="none" stroke="#535461" stroke-miterlimit="10" stroke-width="2"/>
    <path id="Path_1073" data-name="Path 1073" d="M149.651,228.883a13.277,13.277,0,0,1,.99,3.285,8.684,8.684,0,0,1-2.725-1.211,1.7,1.7,0,0,1,.047-2.031A1.081,1.081,0,0,1,149.651,228.883Z" transform="translate(-144.155 -201.802)" fill="#eb2424"/>
    <path id="Path_1074" data-name="Path 1074" d="M180.327,234.738a13.643,13.643,0,0,1-.653,3.4,11.69,11.69,0,0,1-1.741-2.8,1.481,1.481,0,0,1,.956-1.68,1.234,1.234,0,0,1,1.438,1.073Z" transform="translate(-170.758 -206.179)" fill="#eb2424"/>
    <path id="Path_1075" data-name="Path 1075" d="M216.905,267.452a11.041,11.041,0,0,1-1.993,2.543,13.921,13.921,0,0,1-.328-3.472,1.194,1.194,0,0,1,1.55-.935,1.557,1.557,0,0,1,.777,1.864Z" transform="translate(-202.89 -233.363)" fill="#eb2424"/>
    <path id="Path_1076" data-name="Path 1076" d="M237.612,303.047a12.029,12.029,0,0,1-1.607,2.911,13.482,13.482,0,0,1-.812-3.354,1.47,1.47,0,0,1,.754-1.213,1.064,1.064,0,0,1,1.245.227,1.649,1.649,0,0,1,.42,1.427Z" transform="translate(-221.012 -263.863)" fill="#eb2424"/>
    <path id="Path_1077" data-name="Path 1077" d="M169.263,262.763c.676-.009,2.621-1.508,2.621-1.508s-1.973-1.444-2.649-1.435a1.373,1.373,0,0,0-1.211,1.49,1.359,1.359,0,0,0,1.239,1.456Z" transform="translate(-162.077 -228.509)" fill="#eb2424"/>
    <path id="Path_1078" data-name="Path 1078" d="M191.482,303.419c.642-.252,2.125-2.382,2.125-2.382s-2.243-.667-2.885-.415a1.391,1.391,0,0,0-.859,1.094,1.661,1.661,0,0,0,.388,1.431,1.07,1.07,0,0,0,1.23.274Z" transform="translate(-181.215 -263.252)" fill="#eb2424"/>
    <path id="Path_1079" data-name="Path 1079" d="M222.679,338.7c.669-.118,2.43-1.915,2.43-1.915s-2.117-1.114-2.784-1a1.276,1.276,0,0,0-1.006.9,1.717,1.717,0,0,0,.182,1.493,1.122,1.122,0,0,0,1.179.517Z" transform="translate(-208.761 -293.28)" fill="#eb2424"/>
    <path id="Path_1080" data-name="Path 1080" d="M303.813,47.27h-56.9c-2.879,0-5.216,2.8-5.22,6.261v94.826c0,3.463,2.341,6.267,5.22,6.262h56.9c2.879,0,5.216-2.8,5.22-6.261V53.529c0-3.462-2.342-6.264-5.22-6.259Z" transform="translate(-226.719 -47.27)" fill="url(#linear-gradient)"/>
    <rect id="Rectangle_134" data-name="Rectangle 134" width="65.74" height="105.096" rx="20" transform="translate(15.773 1.286)" fill="#535461"/>
    <rect id="Rectangle_135" data-name="Rectangle 135" width="59.06" height="85.214" transform="translate(19.113 11.228)" fill="#f1f1f4"/>
    <ellipse id="Ellipse_173" data-name="Ellipse 173" cx="0.802" cy="0.965" rx="0.802" ry="0.965" transform="translate(47.574 5.141)" fill="#fff"/>
    <ellipse id="Ellipse_174" data-name="Ellipse 174" cx="2.406" cy="2.893" rx="2.406" ry="2.893" transform="translate(45.97 98.347)" fill="#fff"/>
    <rect id="Rectangle_136" data-name="Rectangle 136" width="11.514" height="13.847" rx="5.757" transform="translate(26.228 22.297)" fill="#eb2424"/>
    <rect id="Rectangle_137" data-name="Rectangle 137" width="11.514" height="13.847" rx="5.757" transform="translate(71.058 36.144) rotate(180)" fill="#eb2424" opacity="0.2"/>
    <rect id="Rectangle_138" data-name="Rectangle 138" width="11.514" height="13.847" rx="5.757" transform="translate(42.886 22.297)" fill="#eb2424"/>
    <rect id="Rectangle_139" data-name="Rectangle 139" width="11.514" height="13.847" rx="5.757" transform="translate(26.228 46.75)" fill="#eb2424"/>
    <rect id="Rectangle_140" data-name="Rectangle 140" width="11.514" height="13.847" rx="5.757" transform="translate(71.058 60.597) rotate(180)" fill="#eb2424" opacity="0.2"/>
    <rect id="Rectangle_141" data-name="Rectangle 141" width="11.514" height="13.847" rx="5.757" transform="translate(42.886 46.75)" fill="#eb2424" opacity="0.2"/>
    <rect id="Rectangle_142" data-name="Rectangle 142" width="11.514" height="13.847" rx="5.757" transform="translate(26.228 71.203)" fill="#eb2424"/>
    <rect id="Rectangle_143" data-name="Rectangle 143" width="11.514" height="13.847" rx="5.757" transform="translate(71.058 85.051) rotate(180)" fill="#eb2424"/>
    <rect id="Rectangle_144" data-name="Rectangle 144" width="11.514" height="13.847" rx="5.757" transform="translate(42.886 71.203)" fill="#eb2424"/>
    <path id="Path_1081" data-name="Path 1081" d="M720.877,259.09a1.3,1.3,0,0,0-.146-.442,2.372,2.372,0,0,0-.288-.334c-.578-.654-.267-1.833-.49-2.741a4.144,4.144,0,0,0-1.847-2.21,1.36,1.36,0,0,0-.385-.187,2.68,2.68,0,0,0-.509-.049,2.109,2.109,0,0,1-.777-.212c-.354-.174-.67-.442-1.033-.589a.444.444,0,0,0-.22-.037c-.4-.044-.409.548-.834.891a.821.821,0,0,0-.344.6.916.916,0,0,0,.556.726c.262.152.322.122.374.121h.022c.035.007.075.044.176.178a3.875,3.875,0,0,0-2.835,3.961,4.636,4.636,0,0,0,.288,1.62c-.011.094-.023.191-.037.295a12.141,12.141,0,0,1-.777,3.045c-.336.083-.547.147-.547.147a.452.452,0,0,1,.006.059l-.122.109-.514.442a17.322,17.322,0,0,1-2.09-6.409s-.122.1-.331.261V257l-.066-.015.066-.147.478-1.087a3.417,3.417,0,0,0,.283-1.326c.022-1.709-.025-5.922-1.007-6.622-1.238-.884-1.486,2.937-2.146,4.9a11.044,11.044,0,0,0-.1,4.555c.011.066.021.127.031.183a8.624,8.624,0,0,0-1.172.647c.261.124.456,1.106.563,1.813l.032.214a5.258,5.258,0,0,1-.761.224l2.129,5.586c-.454.633-1.4,1.743-2.129,1.168-.991-.784-4.042-.392-4.042-.392s-1.744-5.57-1.661-7.237l-.245.147v-1.519a1.349,1.349,0,0,1-.178.122l.065-.138.094-.2a3.424,3.424,0,0,0,.314-1.246c.1-1.713.253-6.112-.873-6.661-1.4-.685-1.816,4.209-1.816,4.209l.3,4.431.006.1c-.666.071-1.214.071-1.214.071a6.391,6.391,0,0,1,.245,1.984v.2a1.275,1.275,0,0,1-.822-.027l2.229,7.243s.165,1.768,3.055,2.546a32.879,32.879,0,0,1,3.572,1.161c-1.178,3.359-5.267,15.467-4.068,18.414,0,0,.642-.295,1.3-.554.152,2.54.415,6.386.735,8.85a29.65,29.65,0,0,0-.7,3.01c-.007.052-.013.1-.018.147-.245,2.35-2.229,6.853.743,10.67,0,0,2.064,1.473,2.229,3.23.138,1.482,2.32,5.176,3.011,6.317-.552,1.142-2.11,4.153-3.507,4.941-1.733.98-.331,2.35,1.32,2.062s7.1-4.992,7.1-4.992-.038-3.076-.555-3.3h0l-.5-1.232a3.2,3.2,0,0,0,.8-.265c2.229-1.077,5.284-3.035,5.284-3.035s.06-2.3-.806-3.142a7.3,7.3,0,0,0-2.5-3.123s-1.488-4.6-5.121-5.879a4.547,4.547,0,0,1-.565-2.133c.239-.551.4-.9.4-.9l1.879-5.362a7.224,7.224,0,0,0,1.225-1.813q.042-.091.081-.184c1.133.161,2.021.321,2.021.321l-.082-4.7c-.748-9.7,1.564-12.535,1.564-12.535s3.307-4.8,3.633-8.223c.3-3.163-1.922-3.322-2.266-3.328a4.188,4.188,0,0,1,.043-1.411l.039.034a.423.423,0,0,0,.245.122.234.234,0,0,0,.054,0h.029a.423.423,0,0,0,.229-.085c.864-.545,1.536-1.531,2.484-1.815.2-.059.405-.085.6-.162a1.842,1.842,0,0,0,.98-1.1A3.175,3.175,0,0,0,720.877,259.09Zm-12.126,51.853c.165.685,2.807,3.035,2.807,3.035l.1.844a26.848,26.848,0,0,1-2.135,2.173l-.939-2.332s-1.4-5.384-2.642-5.97c-.229-.109-.3-.442-.271-.909.8.709,2.941,2.61,3.074,3.164Z" transform="translate(-624.111 -218.152)" fill="url(#linear-gradient-2)"/>
    <path id="Path_1082" data-name="Path 1082" d="M738.293,396.105s-5.615,15.627-4.251,19c0,0,2.246-1.061,2.572-.868s3.529-20.161,3.529-20.161Z" transform="translate(-658.578 -342.992)" fill="#575988"/>
    <path id="Path_1083" data-name="Path 1083" d="M738.293,396.105s-5.615,15.627-4.251,19c0,0,2.246-1.061,2.572-.868s3.529-20.161,3.529-20.161Z" transform="translate(-658.578 -342.992)" opacity="0.05"/>
    <path id="Path_1084" data-name="Path 1084" d="M763.764,740.668s-1.926,4.341-3.61,5.3-.321,2.316,1.284,2.026,6.9-4.92,6.9-4.92-.037-3.03-.54-3.251S763.764,740.668,763.764,740.668Z" transform="translate(-681.001 -637.779)" fill="#575988"/>
    <path id="Path_1085" data-name="Path 1085" d="M805.846,688.265s-2.727,3.279-3.931,3.569,1.042,2.219,3.208,1.158,5.133-2.99,5.133-2.99.08-3.094-1.284-3.376S805.846,688.265,805.846,688.265Z" transform="translate(-718.03 -592.418)" fill="#575988"/>
    <path id="Path_1086" data-name="Path 1086" d="M744.74,510.865s.561,11.769,1.284,13.405,3.449,6.655,3.449,6.655,3.128,2.7,3.289,3.376,2.727,2.99,2.727,2.99l.16,1.351s4.252-.295,4.01-2.025-2.486-3.376-2.486-3.376-1.444-4.534-4.973-5.788c0,0-1.123-1.93-.16-3.472,0,0,2.407-7.234,3.77-8.1s-.562-5.879-.562-5.879Z" transform="translate(-668.153 -441.836)" fill="#67647e"/>
    <path id="Path_1087" data-name="Path 1087" d="M744.74,510.865s.561,11.769,1.284,13.405,3.449,6.655,3.449,6.655,3.128,2.7,3.289,3.376,2.727,2.99,2.727,2.99l.16,1.351s4.252-.295,4.01-2.025-2.486-3.376-2.486-3.376-1.444-4.534-4.973-5.788c0,0-1.123-1.93-.16-3.472,0,0,2.407-7.234,3.77-8.1s-.562-5.879-.562-5.879Z" transform="translate(-668.153 -441.836)" opacity="0.05"/>
    <path id="Path_1088" data-name="Path 1088" d="M747.686,547.965l2.572,6.463c-.4,1.64-4.251,1.061-4.251,1.061s-2.968-4.823-3.128-6.56-2.166-3.183-2.166-3.183c-2.887-3.762-.963-8.2-.721-10.515a1.483,1.483,0,0,1,.017-.147c.213-1.553,1.511-6.019,2.521-9.364.681-2.254,1.231-4,1.231-4s5.373.295,6.492,2.6a3.536,3.536,0,0,1-.116,3.048,7.126,7.126,0,0,1-1.186,1.787l-1.826,5.294s-3.207,7.047-2,7.628S747.686,547.965,747.686,547.965Z" transform="translate(-663.24 -451.829)" fill="#67647e"/>
    <path id="Path_1089" data-name="Path 1089" d="M711.993,273.229a3.411,3.411,0,0,1-.3,1.229l-.092.2-.452.98H709.7l-.031-.457-.29-4.366s.4-4.823,1.765-4.148C712.239,267.208,712.093,271.541,711.993,273.229Z" transform="translate(-637.124 -234.291)" fill="#f7c4a7"/>
    <path id="Path_1090" data-name="Path 1090" d="M713.677,321.28l-.452.98h-1.444l-.031-.457A4.729,4.729,0,0,0,713.677,321.28Z" transform="translate(-639.204 -280.916)" opacity="0.1"/>
    <path id="Path_1091" data-name="Path 1091" d="M705.379,321.39v2.218l-2.968.965s0-.231-.008-.552a6.249,6.249,0,0,0-.233-1.955S704.577,322.069,705.379,321.39Z" transform="translate(-630.797 -281.01)" fill="#e6e6f0"/>
    <path id="Path_1092" data-name="Path 1092" d="M707.046,330.22v.918l-2.968.965s0-.231-.009-.552A12.421,12.421,0,0,0,707.046,330.22Z" transform="translate(-632.465 -288.539)" opacity="0.1"/>
    <path id="Path_1093" data-name="Path 1093" d="M829.878,330.277c-.585,2.033.175,2.946.175,2.946s-7.219.579-5.454-.965c1.03-.9,1.487-2.89,1.688-4.387a17.913,17.913,0,0,0,.158-1.877s5.769-.1,4.572,1.833a9.941,9.941,0,0,0-1.139,2.45Z" transform="translate(-737.987 -284.935)" fill="#f7c4a7"/>
    <path id="Path_1094" data-name="Path 1094" d="M845.1,327.822a6.365,6.365,0,0,0-.98,1.778,2.7,2.7,0,0,1-.546.055c-1.375,0-2.714-.34-3.205-1.782a17.909,17.909,0,0,0,.158-1.878S846.3,325.888,845.1,327.822Z" transform="translate(-752.07 -284.934)" opacity="0.1"/>
    <ellipse id="Ellipse_175" data-name="Ellipse 175" cx="3.289" cy="3.955" rx="3.289" ry="3.955" transform="translate(88.056 37.1)" fill="#f7c4a7"/>
    <path id="Path_1095" data-name="Path 1095" d="M701.6,330.55s-3.128,1.93-4.01,1.447l2.166,7.139s.161,1.737,2.968,2.5a25.288,25.288,0,0,1,4.171,1.447l5.213-7.427-2.647.868s-1.363,2.316-2.327,1.544-3.928-.383-3.928-.383S701.521,332.191,701.6,330.55Z" transform="translate(-626.779 -288.82)" fill="#575988"/>
    <path id="Path_1096" data-name="Path 1096" d="M701.6,330.55s-3.128,1.93-4.01,1.447l2.166,7.139s.161,1.737,2.968,2.5a25.288,25.288,0,0,1,4.171,1.447l5.213-7.427-2.647.868s-1.363,2.316-2.327,1.544-3.928-.383-3.928-.383S701.521,332.191,701.6,330.55Z" transform="translate(-626.779 -288.82)" opacity="0.05"/>
    <path id="Path_1097" data-name="Path 1097" d="M752.432,359.2s4.24-1.458,4.686,1.251c0,0-1.96-1.149-4.767.884a7.682,7.682,0,0,0-.612.483,15.415,15.415,0,0,0-4.89,8.962l-1.792,9.443-.16,2.538s-2.572.61-3.047-.3a7.309,7.309,0,0,1,.561-4.976c.721-1.015,1.841-5.386,1.841-5.386l.7-2.534a18.067,18.067,0,0,1,2.747-5.794h0l.169-.246A10.951,10.951,0,0,1,751.781,360C752.191,359.79,752.489,359.521,752.432,359.2Z" transform="translate(-665.418 -312.916)" opacity="0.1"/>
    <path id="Path_1098" data-name="Path 1098" d="M752.432,357.891s4.24-1.458,4.686,1.251c0,0-1.96-1.149-4.767.884a7.669,7.669,0,0,0-.612.483,15.415,15.415,0,0,0-4.89,8.962l-1.792,9.443-.16,2.538s-2.572.61-3.047-.3a7.309,7.309,0,0,1,.561-4.976c.721-1.015,1.845-5.383,1.845-5.383l.7-2.534a18.066,18.066,0,0,1,2.747-5.794h0l.169-.246a10.952,10.952,0,0,1,3.911-3.518C752.191,358.48,752.489,358.211,752.432,357.891Z" transform="translate(-665.418 -311.799)" fill="#e6e6f0"/>
    <path id="Path_1099" data-name="Path 1099" d="M742.81,380.321l.035,1.662,1.123-.868s2-8.755,3.409-11.141c.165-.281.245-.7.4-.772l5.735-6.655V361a35.807,35.807,0,0,0-3.169,3.094,13.569,13.569,0,0,0-2.572,2.8,37.257,37.257,0,0,0-2.2,4.581l-1.925,5.209Z" transform="translate(-666.46 -314.785)" opacity="0.1"/>
    <path id="Path_1100" data-name="Path 1100" d="M752.944,360.35v1.5l-5.816,6.7c-.154.071-.235.491-.4.772-1.41,2.388-3.409,11.141-3.409,11.141l-1.123.868-.035-1.662.838-3.641,1.926-5.209a37.231,37.231,0,0,1,2.2-4.581,13.333,13.333,0,0,1,2.572-2.8,30.909,30.909,0,0,1,3.092-2.946Z" transform="translate(-665.889 -314.23)" fill="#787c9c"/>
    <path id="Path_1101" data-name="Path 1101" d="M852.42,284.805a.9.9,0,0,1-.54-.716.781.781,0,0,1,.334-.589c.458-.376.422-1.055.949-.843.353.147.66.411,1,.582a2.024,2.024,0,0,0,.755.209,2.569,2.569,0,0,1,.49.047,1.318,1.318,0,0,1,.367.184,3.822,3.822,0,0,1,1.514,2.273c.218.9.2,1.956.757,2.6a2.329,2.329,0,0,1,.279.328,1.3,1.3,0,0,1,.141.442,3.175,3.175,0,0,1-.11,1.6,1.8,1.8,0,0,1-.957,1.089c-.19.075-.389.1-.583.159-.921.28-1.574,1.252-2.414,1.788a.31.31,0,0,1-.458-.037,1.585,1.585,0,0,1-.583-1.192,2.781,2.781,0,0,1,.214-.859,9.605,9.605,0,0,0,.4-1.554.908.908,0,0,0,.009-.376c-.061-.234-.277-.343-.426-.51a1.51,1.51,0,0,1-.213-1.305,9.6,9.6,0,0,1,.49-1.268,1.156,1.156,0,0,0,.1-.411c0-.564-.634-.871-.9-1.243C852.687,284.7,852.916,285.1,852.42,284.805Z" transform="translate(-762.17 -247.948)" opacity="0.1"/>
    <path id="Path_1102" data-name="Path 1102" d="M853.08,284.805a.9.9,0,0,1-.54-.716.782.782,0,0,1,.334-.589c.458-.376.423-1.055.949-.843.353.147.66.411,1,.582a2.024,2.024,0,0,0,.754.209c.165.012.7-.295.857-.247a1.319,1.319,0,0,1,.367.184,3.824,3.824,0,0,1,1.514,2.273c.218.9.066,2.015.627,2.652.094.109-.034.442.042.564a1.3,1.3,0,0,1,.141.442,3.175,3.175,0,0,1-.11,1.6,1.8,1.8,0,0,1-.957,1.089c-.19.075-.39.1-.583.159-.921.28-1.574,1.252-2.414,1.788a.31.31,0,0,1-.458-.037,1.584,1.584,0,0,1-.583-1.192,2.779,2.779,0,0,1,.214-.859,9.619,9.619,0,0,0,.4-1.554.906.906,0,0,0,.009-.376c-.061-.234-.277-.343-.426-.51a1.511,1.511,0,0,1-.213-1.305,9.58,9.58,0,0,1,.49-1.268,1.16,1.16,0,0,0,.1-.411c0-.564-.635-.871-.9-1.243C853.347,284.7,853.576,285.1,853.08,284.805Z" transform="translate(-762.75 -247.948)" fill="#b96b6b"/>
    <path id="Path_1103" data-name="Path 1103" d="M774.382,527.422a17.017,17.017,0,0,0-4.135-.25c-1.309.262-3.147-1.142-3.477-1.4.681-2.254,1.231-4,1.231-4s5.373.295,6.492,2.6A3.515,3.515,0,0,1,774.382,527.422Z" transform="translate(-687.485 -451.872)" opacity="0.1"/>
    <path id="Path_1104" data-name="Path 1104" d="M780.457,367.8c-.321,3.376-3.529,8.1-3.529,8.1s-2.246,2.8-1.524,12.348l.08,4.63s-4.733-.868-6.176-.579-3.529-1.447-3.529-1.447-.8-16.69,2.651-20.159a24.87,24.87,0,0,1,1.382-2.276c.926-1.348,2.185-2.867,3.363-3.241a1.777,1.777,0,0,1,.464-.085s3.61-2.411,4.572-.579C778.211,364.518,780.777,364.421,780.457,367.8Z" transform="translate(-686.545 -317.192)" fill="#575988"/>
    <path id="Path_1105" data-name="Path 1105" d="M766.68,497.854a6.665,6.665,0,0,1,3.449-.482c2.166.193,6.021-2.123,6.021-2.123" transform="translate(-687.406 -429.258)" opacity="0.1"/>
    <path id="Path_1106" data-name="Path 1106" d="M769.006,659s.08.295-.963.675a3.305,3.305,0,0,0-1.363.772" transform="translate(-687.406 -568.886)" opacity="0.05"/>
    <rect id="Rectangle_145" data-name="Rectangle 145" width="11.514" height="13.847" rx="5.757" transform="translate(84.205 38.153) rotate(180)" fill="#eb2424"/>
    <path id="Path_1107" data-name="Path 1107" d="M787.671,258.386a3.409,3.409,0,0,1-.274,1.308l-.463,1.072-.321.737-2.005.193s-.042-.2-.093-.527a10.908,10.908,0,0,1,.093-4.489c.642-1.93.882-5.692,2.082-4.823C787.647,252.55,787.693,256.7,787.671,258.386Z" transform="translate(-702.887 -221.61)" fill="#f7c4a7"/>
    <path id="Path_1108" data-name="Path 1108" d="M788.309,312.492v.029l-.321.737-2.005.193s-.042-.2-.093-.527A3.888,3.888,0,0,1,788.309,312.492Z" transform="translate(-704.263 -273.366)" opacity="0.1"/>
    <path id="Path_1109" data-name="Path 1109" d="M780.359,313.8v1.741l-2.887,1.833s-.033-.314-.094-.72c-.105-.7-.294-1.666-.547-1.787C776.83,314.864,778.915,313.415,780.359,313.8Z" transform="translate(-696.313 -274.483)" fill="#e6e6f0"/>
    <path id="Path_1110" data-name="Path 1110" d="M807.869,380.1a3.043,3.043,0,0,1-2.594,1c-5.078-.62-5.215-2.778-5.215-2.778l-.779-2.083c.926-1.348,2.185-2.867,3.364-3.241.841,1.631,1.592,2.808,1.592,2.808s3.77-3.472,4.893-.193A4.4,4.4,0,0,1,807.869,380.1Z" transform="translate(-716.013 -325.017)" opacity="0.05"/>
    <path id="Path_1111" data-name="Path 1111" d="M784.281,321.4v.678l-2.887,1.833s-.033-.314-.094-.72A13.016,13.016,0,0,0,784.281,321.4Z" transform="translate(-700.235 -281.018)" opacity="0.1"/>
    <path id="Path_1112" data-name="Path 1112" d="M779.53,321.39a11.639,11.639,0,0,1-4.01,2.218l3.77,10.032s.138,2.158,5.215,2.778a3.044,3.044,0,0,0,2.593-1,4.381,4.381,0,0,0,1.254-4.481c-1.123-3.279-4.893.193-4.893.193S779.61,325.055,779.53,321.39Z" transform="translate(-695.163 -281.01)" fill="#575988"/>
    <rect id="Rectangle_146" data-name="Rectangle 146" width="19.108" height="2.062" rx="1.031" transform="translate(96.849 105.23)" fill="#eb2424"/>
    <rect id="Rectangle_147" data-name="Rectangle 147" width="19.108" height="2.062" rx="1.031" transform="translate(94.767 103.168)" fill="#eb2424"/>
    <rect id="Rectangle_148" data-name="Rectangle 148" width="19.108" height="2.062" rx="1.031" transform="translate(94.767 103.168)" opacity="0.05"/>
  </g>
</svg>
