<svg xmlns="http://www.w3.org/2000/svg" xmlns:xlink="http://www.w3.org/1999/xlink" width="108.301" height="103.943" viewBox="0 0 108.301 103.943">
  <defs>
    <linearGradient id="linear-gradient" x1="0.5" y1="1" x2="0.5" gradientUnits="objectBoundingBox">
      <stop offset="0" stop-color="gray" stop-opacity="0.251"/>
      <stop offset="0.54" stop-color="gray" stop-opacity="0.122"/>
      <stop offset="1" stop-color="gray" stop-opacity="0.102"/>
    </linearGradient>
  </defs>
  <g id="feautes-small-1" transform="translate(0 0)">
    <rect id="Rectangle_117" data-name="Rectangle 117" width="101.607" height="66.271" transform="translate(6.695 0.174)" fill="#ededf4"/>
    <ellipse id="Ellipse_137" data-name="Ellipse 137" cx="8.598" cy="1.363" rx="8.598" ry="1.363" transform="translate(15.503 53.127)" fill="#3b477b"/>
    <rect id="Rectangle_118" data-name="Rectangle 118" width="2.726" height="49.913" transform="translate(22.738 4.578)" fill="#3b477b"/>
    <ellipse id="Ellipse_138" data-name="Ellipse 138" cx="3.461" cy="3.461" rx="3.461" ry="3.461" transform="translate(20.64 2.48)" fill="#3b477b"/>
    <path id="Path_863" data-name="Path 863" d="M406.888,218.53a39.519,39.519,0,0,0-2.411,9.015l-5.977-6.6s1.606-.648,3.311-1.375a12.94,12.94,0,0,1,5.077-1.037Z" transform="translate(-375.133 -209.443)" fill="#eb2424"/>
    <path id="Path_864" data-name="Path 864" d="M406.888,218.53a39.519,39.519,0,0,0-2.411,9.015l-5.977-6.6s1.606-.648,3.311-1.375a12.94,12.94,0,0,1,5.077-1.037Z" transform="translate(-375.133 -209.443)" opacity="0.08"/>
    <path id="Path_865" data-name="Path 865" d="M354.572,218.53s1.887,5.557,1.986,7.759v2.622h11.01v-2.726a31.236,31.236,0,0,0-4.529-4.64,13.38,13.38,0,0,0-8.469-3.013Z" transform="translate(-337.915 -209.443)" fill="#eb2424"/>
    <path id="Path_866" data-name="Path 866" d="M350.665,276.261a14.155,14.155,0,0,0-3.041,7.334c-.209,3.973,1.783,15.834,1.783,15.834a22,22,0,0,0,13.421,0s2.1-12.164,1.887-16.043-4.246-8.966-4.246-8.966Z" transform="translate(-332.018 -256.794)" fill="#eb2424"/>
    <path id="Path_867" data-name="Path 867" d="M412.57,266.845a5.115,5.115,0,0,1,2.2.315,5.461,5.461,0,0,0,1.94.458" transform="translate(-387.053 -250.366)" opacity="0.08"/>
    <path id="Path_868" data-name="Path 868" d="M412.57,270.935a5.114,5.114,0,0,1,2.2.315,5.461,5.461,0,0,0,1.94.458" transform="translate(-387.053 -253.831)" opacity="0.08"/>
    <path id="Path_869" data-name="Path 869" d="M412.57,276.455a5.115,5.115,0,0,1,2.2.315,5.461,5.461,0,0,0,1.94.458" transform="translate(-387.053 -258.508)" opacity="0.08"/>
    <path id="Path_870" data-name="Path 870" d="M362.672,286.82a12.063,12.063,0,0,0-.733,2.516,8.77,8.77,0,0,1-.839,2.2" transform="translate(-343.447 -267.299)" opacity="0.08"/>
    <path id="Path_871" data-name="Path 871" d="M366.792,295.74a12.063,12.063,0,0,0-.733,2.516,8.768,8.768,0,0,1-.839,2.2" transform="translate(-346.938 -274.856)" opacity="0.08"/>
    <path id="Path_872" data-name="Path 872" d="M437.27,286.82a12.061,12.061,0,0,1,.733,2.516,8.768,8.768,0,0,0,.839,2.2" transform="translate(-407.979 -267.299)" opacity="0.08"/>
    <path id="Path_873" data-name="Path 873" d="M433.15,295.74a12.063,12.063,0,0,1,.733,2.516,8.768,8.768,0,0,0,.839,2.2" transform="translate(-404.488 -274.856)" opacity="0.08"/>
    <ellipse id="Ellipse_139" data-name="Ellipse 139" cx="8.598" cy="1.363" rx="8.598" ry="1.363" transform="translate(48.323 59.733)" fill="#3b477b"/>
    <rect id="Rectangle_119" data-name="Rectangle 119" width="2.726" height="49.913" transform="translate(55.558 11.184)" fill="#3b477b"/>
    <ellipse id="Ellipse_140" data-name="Ellipse 140" cx="3.461" cy="3.461" rx="3.461" ry="3.461" transform="translate(53.46 9.087)" fill="#3b477b"/>
    <path id="Path_874" data-name="Path 874" d="M514.258,343.544l-12.478,17.3,3.461,1.364s-.63.629-.209.944c0,0,1.468,1.363,5.348,1.572,0,0,1.154-1.572,3.461.524s5.138.42,5.138.42a3.732,3.732,0,0,1,4.507-.1c2.411,1.681,5.453-.839,5.453-.839a4.529,4.529,0,0,1,4.928-1.468c3.355.839,3.361-2.307,3.361-2.307L524.546,343.13Z" transform="translate(-462.632 -315.006)" fill="#eb2424"/>
    <g id="Group_84" data-name="Group 84" transform="translate(39.148 28.539)" opacity="0.08">
      <path id="Path_875" data-name="Path 875" d="M713.34,473.881a2.77,2.77,0,0,0,2.015-.209A4.8,4.8,0,0,0,713.34,473.881Z" transform="translate(-681.015 -454.116)" fill="#fff"/>
      <path id="Path_876" data-name="Path 876" d="M508.176,365.448c-.419-.315.208-.943.208-.943l-3.461-1.363,9.333-17.3-12.475,17.3,3.461,1.364s-.63.629-.209.944c0,0,1.468,1.363,5.348,1.572a1.475,1.475,0,0,1,.477-.382A6.476,6.476,0,0,1,508.176,365.448Z" transform="translate(-501.78 -345.84)" fill="#fff"/>
      <path id="Path_877" data-name="Path 877" d="M579.983,481.842c-2.307-2.1-3.461-.524-3.461-.524-.13,0-.258-.015-.382-.024a5.927,5.927,0,0,1,.7.55,4.2,4.2,0,0,0,4.349.764A4.051,4.051,0,0,1,579.983,481.842Z" transform="translate(-564.778 -460.138)" fill="#fff"/>
      <path id="Path_878" data-name="Path 878" d="M643.623,486a3.612,3.612,0,0,0-3.753-.354,4.382,4.382,0,0,1,.611.355,3.724,3.724,0,0,0,3.551.24A3.262,3.262,0,0,1,643.623,486Z" transform="translate(-618.771 -463.972)" fill="#fff"/>
    </g>
    <path id="Path_879" data-name="Path 879" d="M582.558,290.374H570.813s-.733-8.912-1.783-10.275a11.944,11.944,0,0,1,1.322-.483,19.761,19.761,0,0,1,2.139-.536,20.9,20.9,0,0,1,7.548-.069,20.22,20.22,0,0,1,2.161.5q.846.246,1.717.584S581.823,288.487,582.558,290.374Z" transform="translate(-519.607 -260.421)" fill="#eb2424"/>
    <path id="Path_880" data-name="Path 880" d="M581.268,292.466h-1.562c-.02-1.973-1.465-8.35-2.026-10.76a19.783,19.783,0,0,1,2.139-.536C579.94,283.708,580.98,290.6,581.268,292.466Z" transform="translate(-526.935 -262.513)" fill="#fff" opacity="0.08"/>
    <path id="Path_881" data-name="Path 881" d="M635.231,281.2c-.542,2.327-2.029,8.862-2.049,10.859H631.62c.289-1.884,1.346-8.885,1.448-11.363A20.221,20.221,0,0,1,635.231,281.2Z" transform="translate(-572.634 -262.114)" fill="#fff" opacity="0.08"/>
    <ellipse id="Ellipse_141" data-name="Ellipse 141" cx="8.598" cy="1.363" rx="8.598" ry="1.363" transform="translate(80.935 53.442)" fill="#3b477b"/>
    <rect id="Rectangle_120" data-name="Rectangle 120" width="2.726" height="49.913" transform="translate(88.168 4.892)" fill="#3b477b"/>
    <ellipse id="Ellipse_142" data-name="Ellipse 142" cx="3.461" cy="3.461" rx="3.461" ry="3.461" transform="translate(86.072 2.795)" fill="#3b477b"/>
    <path id="Path_882" data-name="Path 882" d="M794.21,241.109c-.1-.338-.2-.656-.295-.941v-3.9l1.259-5.348c-2.937-4.3-7.028,0-7.028,0-4.509-3.985-6.816,0-6.816,0,.315.733,1.048,5.348,1.048,5.348V240.7a22.86,22.86,0,0,0-1.939,11.27l.785,13.349s7.55,2.937,13.842,0l.629-11.194A38.4,38.4,0,0,0,794.21,241.109Z" transform="translate(-698.67 -218.325)" fill="#eb2424"/>
    <g id="Group_85" data-name="Group 85" transform="translate(81.775 10.686)" opacity="0.08">
      <path id="Path_883" data-name="Path 883" d="M836.891,231.016a6.907,6.907,0,0,1,3.313-1.866c-1.662-.538-3.311.458-4.2,1.155A10.161,10.161,0,0,1,836.891,231.016Z" transform="translate(-827.561 -228.997)"/>
      <path id="Path_884" data-name="Path 884" d="M783.177,266.186l-.785-13.349a22.857,22.857,0,0,1,1.939-11.27v-4.431s-.733-4.614-1.048-5.348a3.859,3.859,0,0,1,2.507-1.727,3.646,3.646,0,0,0-4.08,1.623c.315.733,1.048,5.348,1.048,5.348v4.431a22.859,22.859,0,0,0-1.939,11.27l.785,13.349a22.92,22.92,0,0,0,6.883,1.3A22.614,22.614,0,0,1,783.177,266.186Z" transform="translate(-780.767 -229.774)"/>
    </g>
    <g id="Group_86" data-name="Group 86" transform="translate(84.991 10.688)" opacity="0.08">
      <path id="Path_885" data-name="Path 885" d="M804.787,231.7a7.078,7.078,0,0,1,.753-.657,4.508,4.508,0,0,0-3.72-1.024A6.8,6.8,0,0,1,804.787,231.7Z" transform="translate(-801.82 -229.792)"/>
      <path id="Path_886" data-name="Path 886" d="M836.144,241.11c-.1-.338-.2-.655-.295-.941v-3.9l1.259-5.348a3.59,3.59,0,0,0-3.934-1.82,4.071,4.071,0,0,1,2.361,1.82l-1.259,5.348v3.893c.1.286.194.6.295.941a38.4,38.4,0,0,1,1.488,13.015l-.63,11.194a14.629,14.629,0,0,1-5.609,1.288A15.528,15.528,0,0,0,837,265.315l.639-11.19A38.4,38.4,0,0,0,836.144,241.11Z" transform="translate(-825.542 -229.014)"/>
    </g>
    <rect id="Rectangle_121" data-name="Rectangle 121" width="9.168" height="4.889" transform="translate(10.744 66.541)" fill="#ededf4"/>
    <path id="Path_887" data-name="Path 887" d="M70.881,99.64,43.76,125.068v5.071L77.6,99.64Z" transform="translate(-37.065 -99.466)" fill="#fff" opacity="0.3"/>
    <path id="Path_888" data-name="Path 888" d="M43.76,136.33v10.237l59.589-47.893L94.563,98.5Z" transform="translate(-37.065 -98.5)" fill="#fff" opacity="0.3"/>
    <path id="Path_889" data-name="Path 889" d="M273.673,411.5l.012-.023.014-.029.009-.024a.387.387,0,0,0,.009-.038v-.144a.984.984,0,0,0-.321-.686,1.491,1.491,0,0,0-1.036-.5c-2.2-.1-4.671-3.873-4.671-3.873l-.1.081a9.9,9.9,0,0,1-.66-1.585h.244v-.055h0v-.055h0l-.339-3.514.917-10.523a9.44,9.44,0,0,0,.634-1.968,3.486,3.486,0,0,0,.07-.764c0-.018,0-.037,0-.055a3.542,3.542,0,0,0-.4-1.632L264.21,378.7c.131.014.214.015.214.015,1.134-1.618.408-4.025-.4-5.759l.284-.153a.551.551,0,0,1-.11-.058l.11-.053c-.66-.24-1.2-2.139-1.453-3.209l.368-1.345a6.4,6.4,0,0,1,1.772.536s-.05-.1-.137-.29h0l.13.064s-.05-.1-.134-.283h0a21.661,21.661,0,0,1-2.041-7.718,7.681,7.681,0,0,1,.11-1.245,6.209,6.209,0,0,0,.1-1.189,4.753,4.753,0,0,0-2.506-4.381,5.956,5.956,0,0,1-1.833-2.674,2.15,2.15,0,0,0-.88-1.18,6.935,6.935,0,0,1,1.316-3.015c.066-.012.13-.024.194-.04q.113-.153.222-.281a4.028,4.028,0,0,0,2.935-3.838,3.973,3.973,0,0,0-1.763-3.285c.1-.012.217-.09.354-.306a1.144,1.144,0,0,0,.057-1.015,1.844,1.844,0,0,0-.466-.622,4.735,4.735,0,0,0-1.022-.735,7.293,7.293,0,0,0-2.75-1.138,7.373,7.373,0,0,0-1.52.031l-2.307.206a4.2,4.2,0,0,0-3,1.1c-.68.843-.578,2.076-1.261,2.9a11.657,11.657,0,0,1-1.954,1.36,4.047,4.047,0,0,0-1.177,3.93,16.68,16.68,0,0,0,1.615,3.983,7.606,7.606,0,0,1,.975,4.125c-.153,1.222-.817,2.341-1.054,3.554a5.233,5.233,0,0,0,.185,2.694,1.128,1.128,0,0,0,.263.475.423.423,0,0,1,.115.112,1.32,1.32,0,0,0,.888.251,6.272,6.272,0,0,1,2.249.329,2.313,2.313,0,0,1,.642.408,1.528,1.528,0,0,1,.468,1.186c-.064.672-.643,1.375-.28,1.945h.06a.766.766,0,0,0,.055.1,4.321,4.321,0,0,0,1.161.029,17.052,17.052,0,0,1,.153,1.93,3.281,3.281,0,0,1-.315,1.638h.115a1.346,1.346,0,0,1-.115.232l.451-.034a31.4,31.4,0,0,1-1.887,2.79,5.959,5.959,0,0,0-1.334,3.722,5.446,5.446,0,0,0,.021.6,4.822,4.822,0,0,0,1.488,3.173,6.3,6.3,0,0,1,.44,1.893,1.649,1.649,0,0,1-.1.558v7.907l-1.375,5.235a18.893,18.893,0,0,0-.261,3.167,9.615,9.615,0,0,0,.949,4.63l1.147,5.458.115.012v1.528c-.141-.122-.229-.208-.229-.208l-.341,3.342h.011l-.011.108a43.368,43.368,0,0,0,7.458.556h1.166l.232-.011h.069l.153-.009h.075l.142-.011h.066l.17-.017h.024l.182-.021h.05l.121-.018.057-.009.108-.018.05-.009.125-.026h.02l.136-.032.034-.009.093-.024.04-.012.081-.024.035-.011.09-.032h.015l.1-.04.02-.009.067-.032.024-.012.055-.031.021-.012.06-.037h.008l.061-.046h.008l.043-.038.012-.012.034-.035.009-.011.032-.041h0a.493.493,0,0,0,.029-.049h0a.436.436,0,0,0,.02-.044v-.009a.393.393,0,0,0,.011-.04v-.009a.4.4,0,0,0,0-.044h0a.383.383,0,0,0,0-.084c.06-.4-.55-.79-1.085-.79-1.147,0-4.934-3.23-5.163-3.453-.1-.093-.27-.064-.486.041a7.047,7.047,0,0,1-.547-.556.488.488,0,0,0,.115-.266l-.015-.038a.483.483,0,0,0,.015-.073,12.177,12.177,0,0,1-.811-2.8c0-.032,0-.064.008-.1l.093-7.994a5.21,5.21,0,0,1,.955-2.9,5.986,5.986,0,0,0,1.018-3.244l1.591-5.8a28.286,28.286,0,0,1,4.012,4.874,32.72,32.72,0,0,0-.805,6.764v.055a14.165,14.165,0,0,0,.251,2.79,28.617,28.617,0,0,1,.611,5.583c0,.633-.031.989-.031.989h0v.055h0v.055h.229v1.436l-.058-.044-1.435,2.506.031.029-.031.081s2.41,2.445,8.376,3.119l.333.035.095.009.231.02h.089l.289.021h0l.263.014h1.021l.171-.014h.026l.141-.017h.047l.1-.017.043-.008.122-.028h.018l.092-.028.035-.012.064-.024.032-.012.078-.038.017-.011.052-.032.024-.017.035-.028.02-.018a.479.479,0,0,0,.038-.041l.015-.02Z" transform="translate(-245.564 -308.527)" fill="url(#linear-gradient)"/>
    <path id="Path_890" data-name="Path 890" d="M353.39,563.61s3.413,5.065,1.542,7.818c0,0-2.75,0-2.092-2.973a10.565,10.565,0,0,0-.22-5.4Z" transform="translate(-336.263 -501.332)" fill="#f7c4a7"/>
    <path id="Path_891" data-name="Path 891" d="M292.8,789.243v3.963l3.523.33,1.322-1.986-.33-.55a6.342,6.342,0,0,1-1.872-2.309C295.113,787.589,292.8,789.243,292.8,789.243Z" transform="translate(-285.583 -692.168)" fill="#f7c4a7"/>
    <path id="Path_892" data-name="Path 892" d="M291.309,804.22s2.39-2.675,2.863-2.2c.22.22,3.853,3.413,4.955,3.413s2.533,1.762-2.75,1.652a40.6,40.6,0,0,1-7.157-.55l.33-3.3S290.759,804.44,291.309,804.22Z" transform="translate(-282.55 -703.732)" opacity="0.1"/>
    <path id="Path_893" data-name="Path 893" d="M291.309,804.94s2.39-2.676,2.863-2.2c.22.22,3.853,3.413,4.955,3.413s2.533,1.762-2.75,1.652a40.6,40.6,0,0,1-7.157-.55l.327-3.3S290.759,805.16,291.309,804.94Z" transform="translate(-282.55 -704.342)" fill="#f3b5b7"/>
    <path id="Path_894" data-name="Path 894" d="M360.54,774.092v3.083l1.872,1.542,2.092-.55.55-1.212a9.806,9.806,0,0,1-1.432-4.185Z" transform="translate(-342.973 -679)" fill="#f7c4a7"/>
    <path id="Path_895" data-name="Path 895" d="M354.152,796.036h1.322l1.375-1.157s2.371,3.727,4.481,3.829a1.416,1.416,0,0,1,.993.5c.552.639.805,1.575-3.108,1.125-5.724-.654-8.035-3.073-8.035-3.073l1.375-2.478Z" transform="translate(-335.043 -697.647)" opacity="0.1"/>
    <path id="Path_896" data-name="Path 896" d="M354.135,796.737h1.322l1.375-1.157s2.371,3.727,4.481,3.829a1.416,1.416,0,0,1,.993.5c.552.639.805,1.575-3.108,1.125-5.727-.66-8.038-3.083-8.038-3.083l1.375-2.478Z" transform="translate(-335.026 -698.232)" fill="#f3b5b7"/>
    <path id="Path_897" data-name="Path 897" d="M348.392,545.862s.66,3.523,1.542,3.853c0,0-1.872.882-1.542,1.762l-1.542-7.157,1.872.22Z" transform="translate(-331.374 -485.455)" opacity="0.1"/>
    <path id="Path_898" data-name="Path 898" d="M348.392,545.142s.66,3.523,1.542,3.853c0,0-1.872.882-1.542,1.762L346.85,543.6l1.872.214Z" transform="translate(-331.374 -484.845)" fill="#fc6681"/>
    <path id="Path_899" data-name="Path 899" d="M348.392,545.142s.66,3.523,1.542,3.853c0,0-1.872.882-1.542,1.762L346.85,543.6l1.872.214Z" transform="translate(-331.374 -484.845)" opacity="0.1"/>
    <path id="Path_900" data-name="Path 900" d="M324.718,581.08l6.57,13.035a3.574,3.574,0,0,1,.316,2.307,9.53,9.53,0,0,1-.611,1.947l-.882,10.46.325,3.523H326.48a26.47,26.47,0,0,0-.55-6.607c-.77-3.856.55-9.473.55-9.473a24.265,24.265,0,0,0-5.175-5.947C318.552,588.342,324.718,581.08,324.718,581.08Z" transform="translate(-309.133 -516.599)" opacity="0.1"/>
    <path id="Path_901" data-name="Path 901" d="M324.718,580.35l6.57,13.035a3.574,3.574,0,0,1,.316,2.307,9.528,9.528,0,0,1-.611,1.946l-.879,10.466.322,3.514H326.48a26.47,26.47,0,0,0-.55-6.607c-.77-3.856.55-9.473.55-9.473a24.263,24.263,0,0,0-5.175-5.947C318.552,587.609,324.718,580.35,324.718,580.35Z" transform="translate(-309.133 -515.98)" fill="#575988"/>
    <path id="Path_902" data-name="Path 902" d="M324.718,580.72l6.57,13.035a3.573,3.573,0,0,1,.316,2.307,9.529,9.529,0,0,1-.611,1.947l-.882,10.46.325,3.523H326.48a26.469,26.469,0,0,0-.55-6.607c-.77-3.857.55-9.473.55-9.473a24.264,24.264,0,0,0-5.175-5.947C318.552,587.982,324.718,580.72,324.718,580.72Z" transform="translate(-309.133 -516.294)" opacity="0.05"/>
    <path id="Path_903" data-name="Path 903" d="M281.215,542.88a39.915,39.915,0,0,1-2.37,3.716,5.942,5.942,0,0,0-1.261,4.159,4.837,4.837,0,0,0,1.429,3.137,4.731,4.731,0,0,1,.33,2.533v7.818l-1.322,5.175s-.882,4.845.66,7.6l1.1,5.4s3.523.44,3.633-.66a10.013,10.013,0,0,1-.764-2.973l.089-7.9a5.256,5.256,0,0,1,.917-2.874,6.062,6.062,0,0,0,.978-3.209l5.831-21.912Z" transform="translate(-272.676 -484.235)" opacity="0.1"/>
    <path id="Path_904" data-name="Path 904" d="M281.215,542.16a39.913,39.913,0,0,1-2.37,3.716,5.942,5.942,0,0,0-1.261,4.159,4.837,4.837,0,0,0,1.429,3.137,4.731,4.731,0,0,1,.33,2.533v7.821l-1.322,5.175s-.882,4.845.66,7.6l1.1,5.4s3.523.44,3.633-.66a10.013,10.013,0,0,1-.764-2.973l.089-7.9a5.256,5.256,0,0,1,.917-2.874,6.062,6.062,0,0,0,.978-3.209l5.831-21.915Z" transform="translate(-272.676 -483.625)" fill="#575988"/>
    <path id="Path_905" data-name="Path 905" d="M340.212,593.55s.764,4.955-1.986,6.5c0,0-1.1-.764.44-3.3l.11-3.413Z" transform="translate(-323.745 -526.977)" fill="#f7c4a7"/>
    <path id="Path_906" data-name="Path 906" d="M359.218,813.655c-5.2-.6-7.588-2.656-7.979-3.025l-.06.162s2.312,2.422,8.038,3.083c2.929.338,3.523-.1,3.406-.611C362.514,813.666,361.712,813.943,359.218,813.655Z" transform="translate(-335.043 -711.075)" opacity="0.1"/>
    <path id="Path_907" data-name="Path 907" d="M296.317,829.764a42.585,42.585,0,0,1-7.125-.544l-.032.324a40.567,40.567,0,0,0,7.157.55c3.29.069,3.973-.588,3.762-1.094C299.9,829.425,298.922,829.823,296.317,829.764Z" transform="translate(-282.499 -726.639)" opacity="0.1"/>
    <path id="Path_908" data-name="Path 908" d="M292.44,610.023s2.643,0,3.413-.66,2.643,0,2.643,0" transform="translate(-285.278 -540.312)" opacity="0.1"/>
    <path id="Path_909" data-name="Path 909" d="M279.444,576.757c-1.542-2.75-.66-7.6-.66-7.6l1.322-5.175v-7.818a4.73,4.73,0,0,0-.33-2.533,4.831,4.831,0,0,1-1.429-3.137,5.942,5.942,0,0,1,1.261-4.159,39.9,39.9,0,0,0,2.37-3.716h8.779l.029-.11h-9.25a39.915,39.915,0,0,1-2.37,3.716,5.942,5.942,0,0,0-1.268,4.161,4.837,4.837,0,0,0,1.429,3.137,4.73,4.73,0,0,1,.33,2.533v7.818l-1.322,5.175s-.882,4.845.66,7.6l1.1,5.4s.167.021.426.041Z" transform="translate(-272.942 -483.922)" opacity="0.1"/>
    <path id="Path_910" data-name="Path 910" d="M304.821,394.2s-2.533,2.306-2.636,4.955-4.295-.55-4.295-.55a5.693,5.693,0,0,0,2.973-5.615Z" transform="translate(-289.895 -357.247)" fill="#f7c4a7"/>
    <path id="Path_911" data-name="Path 911" d="M291.1,425.38s-3.413-1.322-4.075,4.295l.764,7.378s1.322,5.615.44,7.047c0,0,9.03-.764,11.672.66,0,0-2.643-5.5-1.986-9.36a4.79,4.79,0,0,0-2.312-5.285,5.914,5.914,0,0,1-1.762-2.643C293.516,426.04,291.1,425.38,291.1,425.38Z" transform="translate(-280.694 -384.573)" opacity="0.1"/>
    <path id="Path_912" data-name="Path 912" d="M291.08,423.932s-3.413-1.328-4.08,4.293l.63,6.026c.084.8.206,1.6.362,2.393.333,1.694.862,4.963.22,6.006,0,0,9.03-.764,11.672.66,0,0-2.643-5.5-1.986-9.36a4.79,4.79,0,0,0-2.312-5.285,5.914,5.914,0,0,1-1.762-2.643C293.494,424.591,291.08,423.932,291.08,423.932Z" transform="translate(-280.669 -383.346)" fill="#fc6681"/>
    <path id="Path_913" data-name="Path 913" d="M309.38,472.25l3.963,14.645s1.542,3.523.882,4.515c0,0,1.762.882,2.533,0s-1.652-11.012-1.652-11.012l-1.432-8.148Z" transform="translate(-299.63 -424.397)" opacity="0.1"/>
    <path id="Path_914" data-name="Path 914" d="M310.1,471.53l3.957,14.645s1.542,3.523.882,4.515c0,0,1.762.882,2.533,0s-1.652-11.012-1.652-11.012l-1.432-8.148Z" transform="translate(-300.239 -423.787)" fill="#fc6681"/>
    <path id="Path_915" data-name="Path 915" d="M337.84,487.75s1.1,3.193,1.652,3.523.22,2.75.22,2.75" transform="translate(-323.741 -437.529)" opacity="0.1"/>
    <path id="Path_916" data-name="Path 916" d="M316.94,395.678c.6.367,1.172,1.375,1.927,1.375a3.972,3.972,0,0,0,.934-.112,10.135,10.135,0,0,1,1.16-1.32L317,394.41A2.575,2.575,0,0,1,316.94,395.678Z" transform="translate(-306.034 -358.45)" opacity="0.1"/>
    <ellipse id="Ellipse_143" data-name="Ellipse 143" cx="3.963" cy="3.963" rx="3.963" ry="3.963" transform="translate(8.87 30.456)" fill="#f7c4a7"/>
    <g id="Group_87" data-name="Group 87" transform="translate(6.337 40.455)" opacity="0.1">
      <path id="Path_917" data-name="Path 917" d="M288.825,442.637c.611-1.086.086-4.29-.243-5.959-.153-.791-.278-1.591-.362-2.393l-.63-6.026c.413-3.5,1.9-4.307,2.953-4.416-1-.1-3.013.24-3.5,4.416l.629,6.026c.084.8.206,1.6.362,2.393.333,1.694.862,4.963.22,6.006C288.256,442.68,288.461,442.663,288.825,442.637Z" transform="translate(-287.04 -423.83)"/>
      <path id="Path_918" data-name="Path 918" d="M330.28,545.846c2.445.012,5.042.2,6.275.868,0,0-.047-.1-.128-.28A22.738,22.738,0,0,0,330.28,545.846Z" transform="translate(-323.673 -527.203)"/>
    </g>
    <path id="Path_919" data-name="Path 919" d="M263.574,345a7.618,7.618,0,0,1-1.581,2.274,3.642,3.642,0,0,0-1.222,2.605c-.244,1.887-.472,3.9.353,5.611a10.246,10.246,0,0,1,.694,1.435,4.348,4.348,0,0,1-.37,2.839,16.735,16.735,0,0,1-1.953,3.545,5.691,5.691,0,0,0-1.138,2.031,3.5,3.5,0,0,1-.393,1.5c-.432.548-1.264.506-1.956.411-.348-.568.206-1.259.267-1.922a1.792,1.792,0,0,0-1.175-1.681,5.828,5.828,0,0,0-2.159-.324,1.247,1.247,0,0,1-.851-.248,1.125,1.125,0,0,1-.252-.471,5.323,5.323,0,0,1-.168-2.63c.228-1.2.866-2.3,1.011-3.514a7.711,7.711,0,0,0-.937-4.084,16.731,16.731,0,0,1-1.551-3.937,4.079,4.079,0,0,1,1.129-3.885c.6-.49,1.39-.743,1.875-1.345.655-.814.567-2.043,1.21-2.866a4,4,0,0,1,2.88-1.091l2.214-.2a5.157,5.157,0,0,1,4.1,1.1,2.965,2.965,0,0,1,1.319,1.232,1.162,1.162,0,0,1-.055,1c-.406.654-.6.023-.917.171C263.473,342.758,263.829,344.344,263.574,345Z" transform="translate(-249.414 -311.503)" opacity="0.1"/>
    <path id="Path_920" data-name="Path 920" d="M262.862,344.273a7.618,7.618,0,0,1-1.58,2.272,3.642,3.642,0,0,0-1.222,2.605c-.244,1.887-.472,3.9.353,5.611a10.249,10.249,0,0,1,.694,1.435,4.348,4.348,0,0,1-.37,2.839,16.735,16.735,0,0,1-1.953,3.545,5.691,5.691,0,0,0-1.138,2.031,3.5,3.5,0,0,1-.393,1.5c-.432.548-1.264.506-1.956.411-.348-.568.206-1.259.267-1.922a1.792,1.792,0,0,0-1.175-1.681,5.828,5.828,0,0,0-2.159-.324,1.247,1.247,0,0,1-.851-.247,1.125,1.125,0,0,1-.252-.471,5.323,5.323,0,0,1-.168-2.63c.228-1.2.866-2.3,1.011-3.514a7.711,7.711,0,0,0-.937-4.084,16.733,16.733,0,0,1-1.551-3.937,4.079,4.079,0,0,1,1.129-3.885c.6-.49,1.39-.742,1.875-1.345.655-.814.567-2.043,1.21-2.866a4,4,0,0,1,2.88-1.091l2.214-.2a5.157,5.157,0,0,1,4.1,1.1,2.964,2.964,0,0,1,1.319,1.231,1.161,1.161,0,0,1-.055,1c-.406.654-.6.023-.917.171C262.762,342.03,263.118,343.611,262.862,344.273Z" transform="translate(-248.812 -310.885)" fill="#965d7b"/>
  </g>
</svg>
