<svg xmlns="http://www.w3.org/2000/svg" xmlns:xlink="http://www.w3.org/1999/xlink" width="120.591" height="93.345" viewBox="0 0 120.591 93.345">
  <defs>
    <linearGradient id="linear-gradient" x1="0.5" y1="1" x2="0.5" gradientUnits="objectBoundingBox">
      <stop offset="0" stop-color="gray" stop-opacity="0.251"/>
      <stop offset="0.54" stop-color="gray" stop-opacity="0.122"/>
      <stop offset="1" stop-color="gray" stop-opacity="0.102"/>
    </linearGradient>
    <linearGradient id="linear-gradient-2" y2="0" xlink:href="#linear-gradient"/>
  </defs>
  <g id="feautes-small-2" transform="translate(0)">
    <g id="Group_88" data-name="Group 88" transform="translate(10.575 19.383)" opacity="0.8">
      <path id="Path_921" data-name="Path 921" d="M196.52,315.572H300.3V248.447a2.117,2.117,0,0,0-2.117-2.117H198.637a2.117,2.117,0,0,0-2.117,2.117Z" transform="translate(-196.52 -246.33)" fill="url(#linear-gradient)"/>
    </g>
    <path id="Path_922" data-name="Path 922" d="M156.051,153.77H59.357a2.117,2.117,0,0,0-2.117,2.117v65.906H158.162v-65.9A2.117,2.117,0,0,0,156.051,153.77Z" transform="translate(-45.234 -133.168)" fill="#fff"/>
    <rect id="Rectangle_122" data-name="Rectangle 122" width="94.424" height="61.933" transform="translate(15.255 24.56)" fill="#f5f5f5"/>
    <rect id="Rectangle_123" data-name="Rectangle 123" width="94.024" height="55.721" transform="translate(15.294 27.567)" fill="#e0e0e0" opacity="0.8"/>
    <rect id="Rectangle_124" data-name="Rectangle 124" width="94.024" height="2.961" transform="translate(15.294 24.606)" fill="#f5f5f5"/>
    <circle id="Ellipse_144" data-name="Ellipse 144" cx="0.718" cy="0.718" r="0.718" transform="translate(106.583 25.324)" fill="#ff5252"/>
    <circle id="Ellipse_145" data-name="Ellipse 145" cx="0.718" cy="0.718" r="0.718" transform="translate(104.61 25.324)" fill="#ff0"/>
    <circle id="Ellipse_146" data-name="Ellipse 146" cx="0.718" cy="0.718" r="0.718" transform="translate(102.635 25.324)" fill="#69f0ae"/>
    <g id="Group_89" data-name="Group 89" transform="translate(4.185 82.082)" opacity="0.8">
      <path id="Path_923" data-name="Path 923" d="M153.486,725.285c5.777.438,104.991.268,108.457,0,4.545-2.191,4.462-10.69,4.462-10.69l-45.5-.3-.153,2.587h-19.47l-.761-2.278H150.1S149.1,722.392,153.486,725.285Z" transform="translate(-149.999 -714.29)" fill="url(#linear-gradient-2)"/>
    </g>
    <path id="Path_924" data-name="Path 924" d="M155.158,721.67H204.6a1.518,1.518,0,0,0,1.152,2.511h18.875a1.518,1.518,0,0,0,1.152-2.511h44.272s.076,7.381-4.413,9.289c-3.423.228-101.425.381-107.131,0C154.162,728.441,155.158,721.67,155.158,721.67Z" transform="translate(-150.136 -638.599)" fill="#f5f5f5"/>
    <circle id="Ellipse_147" data-name="Ellipse 147" cx="0.608" cy="0.608" r="0.608" transform="translate(109.032 84.061)" fill="#e0e0e0"/>
    <circle id="Ellipse_148" data-name="Ellipse 148" cx="0.608" cy="0.608" r="0.608" transform="translate(107.206 84.061)" fill="#e0e0e0"/>
    <circle id="Ellipse_149" data-name="Ellipse 149" cx="0.608" cy="0.608" r="0.608" transform="translate(105.381 84.061)" fill="#e0e0e0"/>
    <path id="Path_925" data-name="Path 925" d="M303.383,375.85h-4.313a18.691,18.691,0,0,0-18.691,18.691v13.587h41.694V394.541A18.691,18.691,0,0,0,303.383,375.85Z" transform="translate(-239.042 -325.493)" fill="#eb2424"/>
    <ellipse id="Ellipse_150" data-name="Ellipse 150" cx="19.055" cy="19.055" rx="19.055" ry="19.055" transform="translate(43.089 4.98)" fill="#333"/>
    <path id="Path_926" data-name="Path 926" d="M395.7,334.43h-5.511a3.886,3.886,0,0,0-3.886,3.885V342.1a5.941,5.941,0,0,0,5.941,5.941h1.406a5.941,5.941,0,0,0,5.941-5.941v-3.781a3.886,3.886,0,0,0-3.885-3.885Z" transform="translate(-330.747 -289.622)" opacity="0.1"/>
    <path id="Path_927" data-name="Path 927" d="M399.594,331.53H386.3v7.677a5.941,5.941,0,0,0,5.941,5.941h1.412a5.941,5.941,0,0,0,5.941-5.941V331.53Z" transform="translate(-330.754 -287.111)" fill="#fdb797"/>
    <path id="Path_928" data-name="Path 928" d="M549.724,437.186a19.133,19.133,0,0,1-13.294.036V435.59h13.294Z" transform="translate(-480.908 -390.849)" opacity="0.1"/>
    <ellipse id="Ellipse_151" data-name="Ellipse 151" cx="19.055" cy="19.055" rx="19.055" ry="19.055" transform="translate(43.089 9.116)" fill="#fdb797"/>
    <path id="Path_929" data-name="Path 929" d="M486.6,172.471H450.26s3.1-14.672,16.839-13.744S486.6,172.471,486.6,172.471Z" transform="translate(-406.235 -151.044)" opacity="0.1"/>
    <path id="Path_930" data-name="Path 930" d="M486.6,168.83H450.26s3.1-14.672,16.839-13.737S486.6,168.83,486.6,168.83Z" transform="translate(-406.235 -147.897)" fill="#333"/>
    <ellipse id="Ellipse_152" data-name="Ellipse 152" cx="1.773" cy="3.324" rx="1.773" ry="3.324" transform="translate(79.032 24.035)" fill="#fdb797"/>
    <ellipse id="Ellipse_153" data-name="Ellipse 153" cx="1.773" cy="3.324" rx="1.773" ry="3.324" transform="translate(41.809 24.035)" fill="#fdb797"/>
    <path id="Path_931" data-name="Path 931" d="M502.822,116.864a6.751,6.751,0,0,0-2.449-3.631,12.78,12.78,0,0,0-3.1-1.332,23.724,23.724,0,0,1-4.513-2.158,28.832,28.832,0,0,0-4.913-2.852c-3.061-1.132-6.471-.52-9.632.292a8.083,8.083,0,0,0-2.252.837,8.529,8.529,0,0,0-2,1.935l-5.016,6.051a9.553,9.553,0,0,0-1.246,1.757,6.04,6.04,0,0,0-.571,1.982,5.208,5.208,0,0,0,.536,3.252,5.128,5.128,0,0,0,4.273,2.243,15.557,15.557,0,0,0,4.932-.891,96.675,96.675,0,0,1,15.837-3.569,44.671,44.671,0,0,1,8.059-.261c.844.055,1.959.442,2.472-.418C503.678,119.352,503.051,117.612,502.822,116.864Z" transform="translate(-425.281 -105.653)" fill="#333"/>
    <line id="Line_2" data-name="Line 2" y2="14.794" transform="translate(74.869 67.841)" fill="none" stroke="#000" stroke-miterlimit="10" stroke-width="4" opacity="0.05"/>
    <line id="Line_3" data-name="Line 3" y2="14.794" transform="translate(49.166 67.841)" fill="none" stroke="#000" stroke-miterlimit="10" stroke-width="4" opacity="0.05"/>
    <g id="Group_90" data-name="Group 90" transform="translate(0)" opacity="0.8">
      <path id="Path_932" data-name="Path 932" d="M621.26,26.592h23.911l8.07,6.729V26.592h5.379V0H621.26Z" transform="translate(-621.26)" fill="url(#linear-gradient)"/>
    </g>
    <rect id="Rectangle_125" data-name="Rectangle 125" width="36.347" height="25.429" transform="translate(0.506 0.316)" fill="#fff"/>
    <rect id="Rectangle_126" data-name="Rectangle 126" width="28.8" height="0.756" transform="translate(3.961 4.054)" fill="#e0e0e0"/>
    <rect id="Rectangle_127" data-name="Rectangle 127" width="19.8" height="0.756" transform="translate(12.96 7.457)" fill="#e0e0e0"/>
    <rect id="Rectangle_128" data-name="Rectangle 128" width="23.76" height="0.756" transform="translate(9 10.859)" fill="#e0e0e0"/>
    <rect id="Rectangle_129" data-name="Rectangle 129" width="19.08" height="0.756" transform="translate(13.68 14.262)" fill="#eb2424"/>
    <rect id="Rectangle_130" data-name="Rectangle 130" width="28.8" height="0.756" transform="translate(3.961 17.664)" fill="#eb2424"/>
    <rect id="Rectangle_131" data-name="Rectangle 131" width="28.8" height="0.756" transform="translate(3.961 21.067)" fill="#e0e0e0"/>
    <path id="Path_933" data-name="Path 933" d="M678.847,184.113v6.726l-7.4-7.4Z" transform="translate(-648.212 -158.862)" fill="#fff"/>
  </g>
</svg>
