<svg xmlns="http://www.w3.org/2000/svg" xmlns:xlink="http://www.w3.org/1999/xlink" width="148.286" height="109.124" viewBox="0 0 148.286 109.124">
  <defs>
    <linearGradient id="linear-gradient" x1="0.5" y1="1" x2="0.5" gradientUnits="objectBoundingBox">
      <stop offset="0" stop-color="gray" stop-opacity="0.251"/>
      <stop offset="0.54" stop-color="gray" stop-opacity="0.122"/>
      <stop offset="1" stop-color="gray" stop-opacity="0.102"/>
    </linearGradient>
  </defs>
  <g id="feautes-small-7" transform="translate(0 0)">
    <path id="Path_1184" data-name="Path 1184" d="M121.158,50.587c-9.506-.329-18.561-3.4-27.206-6.757s-17.211-7.077-26.489-8.857c-5.968-1.144-12.793-1.3-17.6,1.894-4.628,3.079-6.123,8.4-6.926,13.326-.6,3.711-.961,7.611.7,11.09,1.151,2.411,3.194,4.438,4.607,6.748,4.915,8.039,1.444,17.951-3.887,25.8-2.493,3.682-5.4,7.194-7.325,11.114s-2.82,8.409-1.134,12.406c1.673,3.963,5.657,6.939,9.973,9.032,8.767,4.252,19.1,5.47,29.173,6.159,22.3,1.52,44.723.863,67.083.207,8.275-.245,16.586-.493,24.727-1.773,4.52-.71,9.186-1.837,12.467-4.56a10.448,10.448,0,0,0,2.407-13.648c-4.682-7.269-17.631-9.074-20.9-16.876-1.8-4.294.049-9.077,2.667-13.06,5.617-8.544,15.031-16.039,15.527-25.8.341-6.707-4.185-13.425-11.182-16.6-7.336-3.327-17.506-2.908-22.918,2.6C139.343,48.7,129.551,50.879,121.158,50.587Z" transform="translate(-35.001 -34.225)" fill="#eb2424" opacity="0.1"/>
    <path id="Path_1185" data-name="Path 1185" d="M494.77,677.7l-25.59-.328.075-.656,1.237-10.826h22.473l1.654,10.826.126.82Z" transform="translate(-407.61 -578.507)" fill="#d0d2d5"/>
    <path id="Path_1186" data-name="Path 1186" d="M494.745,749.21h-12.77l-12.795-.164.075-.656h25.364Z" transform="translate(-407.61 -650.18)" opacity="0.1"/>
    <rect id="Rectangle_172" data-name="Rectangle 172" width="33.955" height="0.82" transform="translate(57.305 98.374)" fill="#d0d2d5"/>
    <path id="Path_1187" data-name="Path 1187" d="M321.378,190.386a2.135,2.135,0,0,0-2.125-2.146H224.426a2.135,2.135,0,0,0-2.126,2.146v57.478h99.078Z" transform="translate(-197.721 -168.029)" fill="#444053"/>
    <path id="Path_1188" data-name="Path 1188" d="M222.3,638.24v6.732a2.126,2.126,0,0,0,2.126,2.126h94.827a2.126,2.126,0,0,0,2.125-2.126V638.24Z" transform="translate(-197.721 -558.976)" fill="#d0d2d5"/>
    <rect id="Rectangle_173" data-name="Rectangle 173" width="91.368" height="51.671" transform="translate(28.68 23.82)" fill="#eb2424" opacity="0.1"/>
    <path id="Path_1189" data-name="Path 1189" d="M588.925,657.024a2.216,2.216,0,0,0,1.743-.845h0a2.264,2.264,0,0,0,.172-.253l-1.215-.2,1.312.01a2.212,2.212,0,0,0,.042-1.756l-1.762.919,1.626-1.194a2.214,2.214,0,1,0-3.657,2.478h0A2.214,2.214,0,0,0,588.925,657.024Z" transform="translate(-514.315 -571.457)" fill="#eb2424"/>
    <path id="Path_1190" data-name="Path 1190" d="M585.43,671.52l10.208,10.252-1.566-10.252Z" transform="translate(-508.605 -583.398)" opacity="0.1"/>
    <rect id="Rectangle_174" data-name="Rectangle 174" width="59.972" height="35.957" rx="2.6" transform="translate(31.364 33.142)" fill="#fff"/>
    <rect id="Rectangle_175" data-name="Rectangle 175" width="91.335" height="3.018" transform="translate(28.739 23.825)" fill="#fff"/>
    <rect id="Rectangle_176" data-name="Rectangle 176" width="2.625" height="1.837" rx="0.78" transform="translate(29.133 24.35)" fill="#eb2424"/>
    <rect id="Rectangle_177" data-name="Rectangle 177" width="27.558" height="1.837" rx="0.58" transform="translate(60.365 24.35)" fill="#eb2424" opacity="0.3"/>
    <path id="Path_1191" data-name="Path 1191" d="M691.837,222.147h-.067l-.025-.021a.558.558,0,0,0,.131-.357.543.543,0,1,0-.542.547.561.561,0,0,0,.357-.131l.025.021v.068l.42.42.131-.131Zm-.5,0a.375.375,0,1,1,.268-.11A.375.375,0,0,1,691.334,222.147Z" transform="translate(-604.732 -196.69)" fill="#444053"/>
    <circle id="Ellipse_183" data-name="Ellipse 183" cx="0.919" cy="0.919" r="0.919" transform="translate(117.843 24.35)" fill="#eb2424"/>
    <rect id="Rectangle_178" data-name="Rectangle 178" width="8.53" height="5.774" rx="2.43" transform="translate(95.666 30.124)" fill="#fff"/>
    <rect id="Rectangle_179" data-name="Rectangle 179" width="11.023" height="0.919" rx="0.459" transform="translate(106.426 30.124)" fill="#fff"/>
    <rect id="Rectangle_180" data-name="Rectangle 180" width="11.023" height="0.919" rx="0.459" transform="translate(106.426 32.093)" fill="#fff"/>
    <rect id="Rectangle_181" data-name="Rectangle 181" width="11.023" height="0.919" rx="0.459" transform="translate(106.426 34.061)" fill="#fff"/>
    <rect id="Rectangle_182" data-name="Rectangle 182" width="8.53" height="5.774" rx="2.43" transform="translate(95.666 39.179)" fill="#fff"/>
    <rect id="Rectangle_183" data-name="Rectangle 183" width="11.023" height="0.919" rx="0.459" transform="translate(106.426 39.179)" fill="#fff"/>
    <rect id="Rectangle_184" data-name="Rectangle 184" width="11.023" height="0.919" rx="0.459" transform="translate(106.426 41.147)" fill="#fff"/>
    <rect id="Rectangle_185" data-name="Rectangle 185" width="11.023" height="0.919" rx="0.459" transform="translate(106.426 43.116)" fill="#fff"/>
    <rect id="Rectangle_186" data-name="Rectangle 186" width="8.53" height="5.774" rx="2.43" transform="translate(95.666 48.234)" fill="#fff"/>
    <rect id="Rectangle_187" data-name="Rectangle 187" width="11.023" height="0.919" rx="0.459" transform="translate(106.426 48.234)" fill="#fff"/>
    <rect id="Rectangle_188" data-name="Rectangle 188" width="11.023" height="0.919" rx="0.459" transform="translate(106.426 50.202)" fill="#fff"/>
    <rect id="Rectangle_189" data-name="Rectangle 189" width="11.023" height="0.919" rx="0.459" transform="translate(106.426 52.171)" fill="#fff"/>
    <rect id="Rectangle_190" data-name="Rectangle 190" width="8.53" height="5.774" rx="2.43" transform="translate(95.666 57.289)" fill="#fff"/>
    <rect id="Rectangle_191" data-name="Rectangle 191" width="11.023" height="0.919" rx="0.459" transform="translate(106.426 57.289)" fill="#fff"/>
    <rect id="Rectangle_192" data-name="Rectangle 192" width="11.023" height="0.919" rx="0.459" transform="translate(106.426 59.257)" fill="#fff"/>
    <rect id="Rectangle_193" data-name="Rectangle 193" width="11.023" height="0.919" rx="0.459" transform="translate(106.426 61.225)" fill="#fff"/>
    <rect id="Rectangle_194" data-name="Rectangle 194" width="8.53" height="5.774" rx="2.43" transform="translate(95.666 66.343)" fill="#fff"/>
    <rect id="Rectangle_195" data-name="Rectangle 195" width="11.023" height="0.919" rx="0.459" transform="translate(106.426 66.343)" fill="#fff"/>
    <rect id="Rectangle_196" data-name="Rectangle 196" width="11.023" height="0.919" rx="0.459" transform="translate(106.426 68.312)" fill="#fff"/>
    <rect id="Rectangle_197" data-name="Rectangle 197" width="11.023" height="0.919" rx="0.459" transform="translate(106.426 70.28)" fill="#fff"/>
    <rect id="Rectangle_198" data-name="Rectangle 198" width="13.494" height="0.699" transform="translate(40.014 42.671)" fill="#eb2424" opacity="0.1"/>
    <rect id="Rectangle_199" data-name="Rectangle 199" width="1.299" height="3.698" transform="translate(41.214 38.973)" fill="#eb2424" opacity="0.1"/>
    <rect id="Rectangle_200" data-name="Rectangle 200" width="1.299" height="3.698" transform="translate(43.112 38.973)" fill="#eb2424" opacity="0.1"/>
    <rect id="Rectangle_201" data-name="Rectangle 201" width="1.299" height="3.698" transform="translate(45.011 38.973)" fill="#eb2424" opacity="0.1"/>
    <rect id="Rectangle_202" data-name="Rectangle 202" width="1.299" height="3.698" transform="translate(46.91 38.973)" fill="#eb2424" opacity="0.1"/>
    <rect id="Rectangle_203" data-name="Rectangle 203" width="1.299" height="3.698" transform="translate(48.809 38.973)" fill="#eb2424" opacity="0.1"/>
    <rect id="Rectangle_204" data-name="Rectangle 204" width="1.299" height="3.698" transform="translate(50.709 38.973)" fill="#eb2424" opacity="0.1"/>
    <rect id="Rectangle_205" data-name="Rectangle 205" width="1.299" height="0.4" transform="translate(41.214 39.672)" fill="#eb2424" opacity="0.1"/>
    <rect id="Rectangle_206" data-name="Rectangle 206" width="1.299" height="0.4" transform="translate(43.112 39.672)" fill="#eb2424" opacity="0.1"/>
    <rect id="Rectangle_207" data-name="Rectangle 207" width="1.299" height="0.4" transform="translate(45.011 39.672)" fill="#eb2424" opacity="0.1"/>
    <rect id="Rectangle_208" data-name="Rectangle 208" width="1.299" height="0.4" transform="translate(46.91 39.672)" fill="#eb2424" opacity="0.1"/>
    <rect id="Rectangle_209" data-name="Rectangle 209" width="1.299" height="0.4" transform="translate(48.809 39.672)" fill="#eb2424" opacity="0.1"/>
    <rect id="Rectangle_210" data-name="Rectangle 210" width="1.299" height="0.4" transform="translate(50.709 39.672)" fill="#eb2424" opacity="0.1"/>
    <rect id="Rectangle_211" data-name="Rectangle 211" width="1.299" height="0.4" transform="translate(41.214 41.472)" fill="#eb2424" opacity="0.1"/>
    <rect id="Rectangle_212" data-name="Rectangle 212" width="1.299" height="0.4" transform="translate(43.112 41.472)" fill="#eb2424" opacity="0.1"/>
    <rect id="Rectangle_213" data-name="Rectangle 213" width="1.299" height="0.4" transform="translate(45.011 41.472)" fill="#eb2424" opacity="0.1"/>
    <rect id="Rectangle_214" data-name="Rectangle 214" width="1.299" height="0.4" transform="translate(46.91 41.472)" fill="#eb2424" opacity="0.1"/>
    <rect id="Rectangle_215" data-name="Rectangle 215" width="1.299" height="0.4" transform="translate(48.809 41.472)" fill="#eb2424" opacity="0.1"/>
    <rect id="Rectangle_216" data-name="Rectangle 216" width="1.299" height="0.4" transform="translate(50.709 41.472)" fill="#eb2424" opacity="0.1"/>
    <rect id="Rectangle_217" data-name="Rectangle 217" width="13.494" height="0.699" transform="translate(69.6 44.47)" fill="#eb2424" opacity="0.1"/>
    <rect id="Rectangle_218" data-name="Rectangle 218" width="1.299" height="3.698" transform="translate(70.799 40.772)" fill="#eb2424" opacity="0.1"/>
    <rect id="Rectangle_219" data-name="Rectangle 219" width="1.299" height="3.698" transform="translate(72.698 40.772)" fill="#eb2424" opacity="0.1"/>
    <rect id="Rectangle_220" data-name="Rectangle 220" width="1.299" height="3.698" transform="translate(74.597 40.772)" fill="#eb2424" opacity="0.1"/>
    <rect id="Rectangle_221" data-name="Rectangle 221" width="1.299" height="3.698" transform="translate(76.497 40.772)" fill="#eb2424" opacity="0.1"/>
    <rect id="Rectangle_222" data-name="Rectangle 222" width="1.299" height="3.698" transform="translate(78.396 40.772)" fill="#eb2424" opacity="0.1"/>
    <rect id="Rectangle_223" data-name="Rectangle 223" width="1.299" height="3.698" transform="translate(80.295 40.772)" fill="#eb2424" opacity="0.1"/>
    <rect id="Rectangle_224" data-name="Rectangle 224" width="1.299" height="0.4" transform="translate(70.799 41.472)" fill="#eb2424" opacity="0.1"/>
    <rect id="Rectangle_225" data-name="Rectangle 225" width="1.299" height="0.4" transform="translate(72.698 41.472)" fill="#eb2424" opacity="0.1"/>
    <rect id="Rectangle_226" data-name="Rectangle 226" width="1.299" height="0.4" transform="translate(74.597 41.472)" fill="#eb2424" opacity="0.1"/>
    <rect id="Rectangle_227" data-name="Rectangle 227" width="1.299" height="0.4" transform="translate(76.497 41.472)" fill="#eb2424" opacity="0.1"/>
    <rect id="Rectangle_228" data-name="Rectangle 228" width="1.299" height="0.4" transform="translate(78.396 41.472)" fill="#eb2424" opacity="0.1"/>
    <rect id="Rectangle_229" data-name="Rectangle 229" width="1.299" height="0.4" transform="translate(80.295 41.472)" fill="#eb2424" opacity="0.1"/>
    <rect id="Rectangle_230" data-name="Rectangle 230" width="1.299" height="0.4" transform="translate(70.799 43.271)" fill="#eb2424" opacity="0.1"/>
    <rect id="Rectangle_231" data-name="Rectangle 231" width="1.299" height="0.4" transform="translate(72.698 43.271)" fill="#eb2424" opacity="0.1"/>
    <rect id="Rectangle_232" data-name="Rectangle 232" width="1.299" height="0.4" transform="translate(74.597 43.271)" fill="#eb2424" opacity="0.1"/>
    <rect id="Rectangle_233" data-name="Rectangle 233" width="1.299" height="0.4" transform="translate(76.497 43.271)" fill="#eb2424" opacity="0.1"/>
    <rect id="Rectangle_234" data-name="Rectangle 234" width="1.299" height="0.4" transform="translate(78.396 43.271)" fill="#eb2424" opacity="0.1"/>
    <rect id="Rectangle_235" data-name="Rectangle 235" width="1.299" height="0.4" transform="translate(80.295 43.271)" fill="#eb2424" opacity="0.1"/>
    <rect id="Rectangle_236" data-name="Rectangle 236" width="13.494" height="0.699" transform="translate(69.6 49.567)" fill="#eb2424" opacity="0.1"/>
    <rect id="Rectangle_237" data-name="Rectangle 237" width="1.299" height="3.698" transform="translate(70.799 45.869)" fill="#eb2424" opacity="0.1"/>
    <rect id="Rectangle_238" data-name="Rectangle 238" width="1.299" height="3.698" transform="translate(72.698 45.869)" fill="#eb2424" opacity="0.1"/>
    <rect id="Rectangle_239" data-name="Rectangle 239" width="1.299" height="3.698" transform="translate(74.597 45.869)" fill="#eb2424" opacity="0.1"/>
    <rect id="Rectangle_240" data-name="Rectangle 240" width="1.299" height="3.698" transform="translate(76.497 45.869)" fill="#eb2424" opacity="0.1"/>
    <rect id="Rectangle_241" data-name="Rectangle 241" width="1.299" height="3.698" transform="translate(78.396 45.869)" fill="#eb2424" opacity="0.1"/>
    <rect id="Rectangle_242" data-name="Rectangle 242" width="1.299" height="3.698" transform="translate(80.295 45.869)" fill="#eb2424" opacity="0.1"/>
    <rect id="Rectangle_243" data-name="Rectangle 243" width="1.299" height="0.4" transform="translate(70.799 46.568)" fill="#eb2424" opacity="0.1"/>
    <rect id="Rectangle_244" data-name="Rectangle 244" width="1.299" height="0.4" transform="translate(72.698 46.568)" fill="#eb2424" opacity="0.1"/>
    <rect id="Rectangle_245" data-name="Rectangle 245" width="1.299" height="0.4" transform="translate(74.597 46.568)" fill="#eb2424" opacity="0.1"/>
    <rect id="Rectangle_246" data-name="Rectangle 246" width="1.299" height="0.4" transform="translate(76.497 46.568)" fill="#eb2424" opacity="0.1"/>
    <rect id="Rectangle_247" data-name="Rectangle 247" width="1.299" height="0.4" transform="translate(78.396 46.568)" fill="#eb2424" opacity="0.1"/>
    <rect id="Rectangle_248" data-name="Rectangle 248" width="1.299" height="0.4" transform="translate(80.295 46.568)" fill="#eb2424" opacity="0.1"/>
    <rect id="Rectangle_249" data-name="Rectangle 249" width="1.299" height="0.4" transform="translate(70.799 48.368)" fill="#eb2424" opacity="0.1"/>
    <rect id="Rectangle_250" data-name="Rectangle 250" width="1.299" height="0.4" transform="translate(72.698 48.368)" fill="#eb2424" opacity="0.1"/>
    <rect id="Rectangle_251" data-name="Rectangle 251" width="1.299" height="0.4" transform="translate(74.597 48.368)" fill="#eb2424" opacity="0.1"/>
    <rect id="Rectangle_252" data-name="Rectangle 252" width="1.299" height="0.4" transform="translate(76.497 48.368)" fill="#eb2424" opacity="0.1"/>
    <rect id="Rectangle_253" data-name="Rectangle 253" width="1.299" height="0.4" transform="translate(78.396 48.368)" fill="#eb2424" opacity="0.1"/>
    <rect id="Rectangle_254" data-name="Rectangle 254" width="1.299" height="0.4" transform="translate(80.295 48.368)" fill="#eb2424" opacity="0.1"/>
    <path id="Path_1192" data-name="Path 1192" d="M397.961,381.564a3.738,3.738,0,0,1-.276-.406l1.943-.319-2.1.016a3.551,3.551,0,0,1-.068-2.806l2.815,1.459-2.6-1.911a3.543,3.543,0,1,1,5.849,3.963,3.448,3.448,0,0,1,.4.646l-2.522,1.312,2.689-.9a3.543,3.543,0,0,1-.571,3.321,3.543,3.543,0,1,1-5.564,0,3.543,3.543,0,0,1,0-4.379Z" transform="translate(-349.669 -330.984)" fill="#eb2424" opacity="0.1"/>
    <path id="Path_1193" data-name="Path 1193" d="M404.281,435.994a13.99,13.99,0,0,0-1.136,6.983,3.543,3.543,0,0,1-5.187-4.8C397.483,437.581,404.281,435.6,404.281,435.994Z" transform="translate(-349.667 -383.225)" fill="#eb2424" opacity="0.1"/>
    <path id="Path_1194" data-name="Path 1194" d="M419.762,497.2a.335.335,0,0,1,.017.029h-1.2c.007-.009.01-.02.017-.029a1.164,1.164,0,0,1-.155-.592,1.214,1.214,0,0,1,.072-.417h0c.067.01.15.022.245.033a4.212,4.212,0,0,0,.839,0q.121-.012.248-.031a.011.011,0,0,0,0,.007,1.182,1.182,0,0,1,.071.411A1.164,1.164,0,0,1,419.762,497.2Z" transform="translate(-368.121 -435.567)" fill="#3f3d56" opacity="0.2"/>
    <path id="Path_1195" data-name="Path 1195" d="M332.871,417.356h-6.693c-.014-.038-.028-.079-.039-.118a3.523,3.523,0,0,1,.077-2.315,3.543,3.543,0,0,1-1.293-4.185,3.387,3.387,0,0,1-.382-.306l1.761-.878-2,.635a3.543,3.543,0,0,1-.892-2.66l3.125.564-3.047-1.059a3.543,3.543,0,1,1,6.757,2.06,3.591,3.591,0,0,1,.581.505l-2.024,2,2.3-1.656a3.543,3.543,0,0,1,.436,3.346A3.543,3.543,0,0,1,332.871,417.356Z" transform="translate(-285.55 -355.695)" fill="#eb2424" opacity="0.1"/>
    <path id="Path_1196" data-name="Path 1196" d="M349.98,461.61h-6.693c-.014-.038-.028-.079-.039-.118a3.523,3.523,0,0,1,.077-2.315c-.63-.436,5.279-4.34,5.4-3.959a9.5,9.5,0,0,0,1.259,6.392Z" transform="translate(-302.659 -399.948)" fill="#eb2424" opacity="0.1"/>
    <path id="Path_1197" data-name="Path 1197" d="M553.6,432.1a3.531,3.531,0,0,1-1.773,1.491,3.6,3.6,0,0,1,.015.761L549,434.181l2.77.6a3.545,3.545,0,0,1-.422,1.071,3.487,3.487,0,0,1-.945,1.037h-3.861v.1H542.61c.008-.034.016-.067.025-.1a19.758,19.758,0,0,0,4.407-6.161,3.576,3.576,0,0,1-.029-.49l1.831.723-1.811-1.064a3.543,3.543,0,0,1,1.39-2.438l1.668,2.7-1.251-2.974a3.543,3.543,0,0,1,4.76,4.913Z" transform="translate(-475.997 -375.234)" fill="#eb2424" opacity="0.1"/>
    <path id="Path_1198" data-name="Path 1198" d="M551.352,485.907a3.486,3.486,0,0,1-.945,1.037h-3.861v.1H542.61c.008-.034.016-.067.025-.1a3.544,3.544,0,0,1,2.159-2.4c-.033-.262.73-.223,1.747-.052C548.534,484.823,551.488,485.681,551.352,485.907Z" transform="translate(-475.997 -425.283)" fill="#eb2424" opacity="0.1"/>
    <path id="Path_1199" data-name="Path 1199" d="M475.789,422.87s.486,2.625-.6,3.482.919,5.993,4.223,5.393,4.651-4.908,4.651-4.908a2.921,2.921,0,0,1-2.083-4.167Z" transform="translate(-417.168 -371.695)" fill="#ee8e9e"/>
    <path id="Path_1200" data-name="Path 1200" d="M475.789,422.87s.486,2.625-.6,3.482.919,5.993,4.223,5.393,4.651-4.908,4.651-4.908a2.921,2.921,0,0,1-2.083-4.167Z" transform="translate(-417.168 -371.695)" opacity="0.1"/>
    <ellipse id="Ellipse_184" data-name="Ellipse 184" cx="5.479" cy="5.479" rx="5.479" ry="5.479" transform="translate(56.067 42.143)" fill="#ee8e9e"/>
    <path id="Path_1201" data-name="Path 1201" d="M452.841,450.557v3.724H434.75v-3.555a2.294,2.294,0,0,1,1.4-2.113l.518-.22c1.312-.559,2.907-1.253,3.428-1.542a.857.857,0,0,0,.16-.1c.285-.285.228.085.228.085s-.008.071-.013.193c-.031.839.089,4.134,3.951,3.859,3.768-.263,3.937-2.811,3.9-3.56a2.041,2.041,0,0,0-.017-.207,4.869,4.869,0,0,1,.762.249,15.984,15.984,0,0,1,2.261.979c.1.068.215.139.344.211a2.259,2.259,0,0,1,.407.29,2.3,2.3,0,0,1,.762,1.71Z" transform="translate(-382.291 -392.519)" fill="#eb2424"/>
    <path id="Path_1202" data-name="Path 1202" d="M484.442,447.366a4.937,4.937,0,0,1-4.929,4.317c-3.845.076-4.068-3.748-4.043-4.833a.777.777,0,0,0,.161-.1c.286-.285.228.085.228.085s-.484,4.366,3.937,4.052,3.878-3.766,3.878-3.766A5.4,5.4,0,0,1,484.442,447.366Z" transform="translate(-417.666 -392.519)" opacity="0.1"/>
    <path id="Path_1203" data-name="Path 1203" d="M452.126,339.971a.938.938,0,0,1,.988.361,1.79,1.79,0,0,1,.255.94c.238.05.371-.219.394-.423a10.875,10.875,0,0,1,.373-2.472,2.951,2.951,0,0,1,1.819-1.88,2.11,2.11,0,0,1,.993-.095c.2.033.384.1.581.131.682.113,1.424-.21,2.063.014a1.645,1.645,0,0,1,.844.8,1.715,1.715,0,0,0,.328.476,2.272,2.272,0,0,0,1.087.383,1.4,1.4,0,0,1,.982.509,1.33,1.33,0,0,1-.01.879,2.155,2.155,0,0,0,.222,1.361c.072.131.219.29.394.247a.345.345,0,0,0,.186-.151c.447-.627.436-1.444,1-2.009.188-.189.43-.336.613-.525a1.192,1.192,0,0,0,.318-1.081,3.549,3.549,0,0,0-.727-1.168,4.593,4.593,0,0,1-.778-1.615.292.292,0,0,1,0-.211.563.563,0,0,1,.2-.163.753.753,0,0,0,.255-.962,1.6,1.6,0,0,0-.9-.718,5.88,5.88,0,0,0-1.23-.262.669.669,0,0,1-.684-.337c-.038-.1-.038-.2-.076-.3a.7.7,0,0,0-.525-.367,1.536,1.536,0,0,0-.7.05c-.262.073-.56.184-.787.055-.119-.067-.185-.189-.314-.244-.262-.11-.533.113-.72.3a1.753,1.753,0,0,1-.65.437.967.967,0,0,1-.806-.054,2.545,2.545,0,0,1-.413-.444,1.556,1.556,0,0,0-.978-.394,3.442,3.442,0,0,0-1.1.121,6.665,6.665,0,0,0-1.938.814,2.083,2.083,0,0,0-.744.692,1.576,1.576,0,0,0-.167.713,2.572,2.572,0,0,0,.9,2.135,1.266,1.266,0,0,0-.643.961,5.257,5.257,0,0,0-.249,1.8,3.953,3.953,0,0,1,.068.936,2.014,2.014,0,0,0-.06.448A.429.429,0,0,0,452.126,339.971Z" transform="translate(-397.065 -292.075)" fill="#454b69"/>
    <g id="Group_93" data-name="Group 93" transform="translate(54.699 40.924)" opacity="0.1">
      <path id="Path_1204" data-name="Path 1204" d="M538.507,378a1.282,1.282,0,0,1-.236.349c-.182.192-.425.34-.613.525-.562.562-.55,1.383-1,2.01a.337.337,0,0,1-.186.15c-.171.045-.318-.11-.394-.247a2.261,2.261,0,0,1-.2-.525l-.026.131a2.154,2.154,0,0,0,.222,1.361c.072.131.219.29.394.247a.345.345,0,0,0,.186-.151c.448-.627.436-1.443,1-2.009.188-.189.43-.336.613-.525a1.191,1.191,0,0,0,.318-1.081,1.42,1.42,0,0,0-.081-.235Z" transform="translate(-524.805 -373.811)"/>
      <path id="Path_1205" data-name="Path 1205" d="M545.459,347.444a.55.55,0,0,0-.2.163.29.29,0,0,0,0,.21,4.444,4.444,0,0,0,.2.6h0a.753.753,0,0,0,.255-.962.922.922,0,0,0-.092-.154A.759.759,0,0,1,545.459,347.444Z" transform="translate(-532.981 -347.14)"/>
      <path id="Path_1206" data-name="Path 1206" d="M452.734,347.6a2.433,2.433,0,0,1-.86-1.521,2.054,2.054,0,0,0-.039.357,2.732,2.732,0,0,0,.432,1.623A.919.919,0,0,1,452.734,347.6Z" transform="translate(-451.83 -346.08)"/>
      <path id="Path_1207" data-name="Path 1207" d="M463.043,367.683a1.331,1.331,0,0,0,.01-.879,1.4,1.4,0,0,0-.982-.509,2.286,2.286,0,0,1-1.087-.383,1.716,1.716,0,0,1-.328-.476,1.625,1.625,0,0,0-.844-.8c-.639-.224-1.381.1-2.063-.014-.2-.033-.383-.1-.581-.131a2.1,2.1,0,0,0-.993.094,2.957,2.957,0,0,0-1.819,1.88,10.855,10.855,0,0,0-.373,2.472c-.022.2-.156.472-.394.423a1.805,1.805,0,0,0-.255-.941.938.938,0,0,0-.988-.36.48.48,0,0,1-.277-.177,1.52,1.52,0,0,1,0,.362,2.014,2.014,0,0,0-.06.447.429.429,0,0,0,.342.337.938.938,0,0,1,.988.361,1.791,1.791,0,0,1,.255.94c.238.05.371-.219.394-.423a10.876,10.876,0,0,1,.373-2.472,2.951,2.951,0,0,1,1.819-1.88,2.11,2.11,0,0,1,.993-.094c.2.033.385.1.581.131.682.113,1.424-.21,2.063.014a1.645,1.645,0,0,1,.844.8,1.717,1.717,0,0,0,.328.476,2.273,2.273,0,0,0,1.087.383,1.434,1.434,0,0,1,.962.478A.114.114,0,0,1,463.043,367.683Z" transform="translate(-451.985 -362.058)"/>
      <path id="Path_1208" data-name="Path 1208" d="M451.9,380.991a2.494,2.494,0,0,0-.043-.731,3.255,3.255,0,0,0-.025.766,1.4,1.4,0,0,0,.024.2C451.869,381.144,451.889,381.068,451.9,380.991Z" transform="translate(-451.819 -375.775)"/>
    </g>
    <path id="Path_1209" data-name="Path 1209" d="M403.49,529.091v-2.369a.067.067,0,0,1,.067-.067h.269a.067.067,0,0,1,.067.067v.985l1.092-1.012a.179.179,0,0,1,.293.131v2.146a.179.179,0,0,1-.293.131l-1.092-1.005v.98a.067.067,0,0,1-.067.067h-.269A.067.067,0,0,1,403.49,529.091Z" transform="translate(-355.134 -462.034)" fill="#444053"/>
    <path id="Path_1210" data-name="Path 1210" d="M592.713,526.751v2.369a.067.067,0,0,1-.068.067h-.262a.067.067,0,0,1-.067-.067v-.985l-1.092,1.01a.18.18,0,0,1-.294-.131V526.86a.18.18,0,0,1,.294-.131l1.092,1.005v-.979a.067.067,0,0,1,.067-.067h.262a.067.067,0,0,1,.068.063Z" transform="translate(-517.976 -462.062)" fill="#444053"/>
    <path id="Path_1211" data-name="Path 1211" d="M495.337,529.545H494.8a.262.262,0,0,1-.262-.262v-1.961a.262.262,0,0,1,.262-.262h.534a.262.262,0,0,1,.262.262v1.961A.263.263,0,0,1,495.337,529.545Zm1.693-.262v-1.961a.262.262,0,0,0-.262-.262h-.539a.262.262,0,0,0-.262.262v1.961a.262.262,0,0,0,.262.262h.534a.262.262,0,0,0,.268-.262Z" transform="translate(-434.235 -462.386)" fill="#444053"/>
    <rect id="Rectangle_255" data-name="Rectangle 255" width="31.495" height="0.35" transform="translate(45.799 61.496)" fill="#444053" opacity="0.6"/>
    <ellipse id="Ellipse_185" data-name="Ellipse 185" cx="0.831" cy="0.831" rx="0.831" ry="0.831" transform="translate(54.693 60.84)" fill="#444053"/>
    <rect id="Rectangle_256" data-name="Rectangle 256" width="9.725" height="0.35" transform="translate(45.799 61.496)" fill="#444053"/>
    <ellipse id="Ellipse_186" data-name="Ellipse 186" cx="7.804" cy="1.501" rx="7.804" ry="1.501" transform="translate(117.792 98.04)" fill="#eb2424"/>
    <ellipse id="Ellipse_187" data-name="Ellipse 187" cx="0.908" cy="1.189" rx="0.908" ry="1.189" transform="translate(124.558 97.715)" fill="#3f3d56"/>
    <ellipse id="Ellipse_188" data-name="Ellipse 188" cx="0.908" cy="1.189" rx="0.908" ry="1.189" transform="translate(124.558 96.261)" fill="#3f3d56"/>
    <ellipse id="Ellipse_189" data-name="Ellipse 189" cx="0.908" cy="1.189" rx="0.908" ry="1.189" transform="translate(124.558 94.808)" fill="#3f3d56"/>
    <ellipse id="Ellipse_190" data-name="Ellipse 190" cx="0.908" cy="1.189" rx="0.908" ry="1.189" transform="translate(124.558 93.354)" fill="#3f3d56"/>
    <ellipse id="Ellipse_191" data-name="Ellipse 191" cx="0.908" cy="1.189" rx="0.908" ry="1.189" transform="translate(124.558 91.9)" fill="#3f3d56"/>
    <ellipse id="Ellipse_192" data-name="Ellipse 192" cx="0.908" cy="1.189" rx="0.908" ry="1.189" transform="translate(124.558 90.446)" fill="#3f3d56"/>
    <ellipse id="Ellipse_193" data-name="Ellipse 193" cx="0.908" cy="1.189" rx="0.908" ry="1.189" transform="translate(124.558 88.992)" fill="#3f3d56"/>
    <path id="Path_1212" data-name="Path 1212" d="M965.54,598.992a4.509,4.509,0,0,0,.339-.5l-2.388-.394,2.583.02a4.366,4.366,0,0,0,.083-3.449l-3.462,1.8,3.194-2.348a4.353,4.353,0,1,0-7.189,4.871,4.444,4.444,0,0,0-.5.787l3.1,1.61-3.3-1.109a55.658,55.658,0,0,1,1.17,9.972,8.81,8.81,0,0,0,6.373-11.266Z" transform="translate(-836.673 -518.758)" fill="#eb2424"/>
    <path id="Path_1213" data-name="Path 1213" d="M957.78,665.706a17.326,17.326,0,0,1,1.4,8.576,4.352,4.352,0,0,0,6.373-5.886C966.135,667.658,957.78,665.218,957.78,665.706Z" transform="translate(-836.685 -582.782)" opacity="0.1"/>
    <ellipse id="Ellipse_194" data-name="Ellipse 194" cx="12.992" cy="2.756" rx="12.992" ry="2.756" transform="translate(25.065 103.612)" fill="#eb2424" opacity="0.1"/>
    <path id="Path_1214" data-name="Path 1214" d="M288.162,499.035a3.418,3.418,0,0,0-.818-.11,2.53,2.53,0,0,1-1.5-.73,2.756,2.756,0,0,1-.6-.919c.087.031.173.064.262.1a2.6,2.6,0,0,1,.255-1.92q.614-1.575,1.161-3.167a25.59,25.59,0,0,0,1.689-8.346c0-1.034-.19-2.012-.227-3.044-.028-.766.091-1.531.085-2.3,0-.108,0-.214-.008-.322a2.038,2.038,0,0,0,.692-1.661,4,4,0,0,0-.07-.483,7.817,7.817,0,0,0-.184-.821c-.087-.285-.2-.558-.306-.836-.2-.539-.328-1.1-.495-1.65a.568.568,0,0,1,.178.049.385.385,0,0,1-.084-.172,4.253,4.253,0,0,1-.157-1.072l.112-.05a2.791,2.791,0,0,0-.054-1.062c.063-.563.161-1.13.222-1.69.022-.21.013-.474-.18-.525-.039-.3-.055-.6-.071-.908q-.083-1.587-.164-3.172c-.055-1.062-.11-2.122-.131-3.185a9.3,9.3,0,0,0-.182-2.018,2.44,2.44,0,0,0-.093-.919,1.883,1.883,0,0,0-1.772-1.342,3.526,3.526,0,0,0-.839-.848c.154-.344.337-.7.488-.976a3.181,3.181,0,0,0,2.131-3.058,3.338,3.338,0,0,0-.361-1.521,1.646,1.646,0,0,0,.058-.177,1.455,1.455,0,0,0-.059-.852,2.5,2.5,0,0,0-.131-.3c-.034-.066-.071-.131-.109-.194l-.067-.1a1.882,1.882,0,0,0-.131-.178,4.351,4.351,0,0,0-.3-.36,2.961,2.961,0,0,0-.43-.383,1.9,1.9,0,0,0-.709-.327,2.159,2.159,0,0,0-.45-.041c-.091,0-.182,0-.273.008-.184.011-.366.024-.549.022a1.213,1.213,0,0,1-.182-.009,6.643,6.643,0,0,1-.95-.2l-.157-.033c-.054-.01-.106-.02-.16-.026a3.005,3.005,0,0,0-.434-.026h-.146a4.01,4.01,0,0,0-.434.045l-.144.022a4.148,4.148,0,0,0-1.056.314c-.043.02-.088.042-.131.066l-.026.014c-.035.018-.071.038-.1.059l-.02.012-.112.071-.009.007a4.7,4.7,0,0,0-1.814,3.346,13.813,13.813,0,0,0,.437,4.425l.276,1.312c.012.059.025.117.037.176a2.887,2.887,0,0,0-.865,1.2,5.12,5.12,0,0,0-.248,2.077c0,.144.008.289.022.433-.033.273-.062.547-.08.823-.083,1.273.072,2.552.031,3.828a28.023,28.023,0,0,0-.108,2.945,13.29,13.29,0,0,0,.525,2.542l.331,1.192a.316.316,0,0,0,.083.164.249.249,0,0,0,.185.038,11.172,11.172,0,0,0-.538,1.507,4.659,4.659,0,0,0-.194.968,5.917,5.917,0,0,0,.235,1.782q.315,1.312.627,2.635.22.925.44,1.849a19.706,19.706,0,0,1,.633,3.689,8.014,8.014,0,0,1-.131,1.875,16.338,16.338,0,0,0-.163,5.621,27.554,27.554,0,0,0,1.062,4.647c.106-.056.214-.109.324-.158l-.046.085q-.227.394-.42.807a4.585,4.585,0,0,0-.224.552,6.222,6.222,0,0,0-.218,1.636.8.8,0,0,0,.028.316.657.657,0,0,0,.472.354,4.316,4.316,0,0,0,1.745.028.215.215,0,0,0,.012.038.654.654,0,0,0,.472.354,6.819,6.819,0,0,0,2.5-.066,17.512,17.512,0,0,0,2.462-.214,1.171,1.171,0,0,0,.341-.131,1.117,1.117,0,0,0,.43-.6.765.765,0,0,0,.05-.2A.665.665,0,0,0,288.162,499.035Zm-2.775-12.153a3.308,3.308,0,0,1-.262.89,16.982,16.982,0,0,0-1.346,4.222,19.573,19.573,0,0,0-.3,2.92,5.261,5.261,0,0,1-.286,2.126l.109-.017c-.034.063-.067.131-.1.181l-.016.029a2.846,2.846,0,0,1-.358-1.005c0-.012-.059-.021-.15-.026a27.155,27.155,0,0,1-.383-6.285,2.91,2.91,0,0,1,.105-.755c.067-.211.18-.4.262-.609a4.477,4.477,0,0,0,.262-1.068,15.18,15.18,0,0,0,.165-2.824,11.717,11.717,0,0,1,.35-2.664c.084-.421.161-.844.2-1.266l.008-.085a12.712,12.712,0,0,1,1.611,4.184A5.983,5.983,0,0,1,285.387,486.882Zm-5.617-18.965.042.037a2.886,2.886,0,0,1,.349.366.484.484,0,0,1,.11.2c.039.192-.119.354-.249.495a2.247,2.247,0,0,0-.159.192q-.042-.646-.089-1.291Z" transform="translate(-245.756 -392.987)" fill="url(#linear-gradient)"/>
    <path id="Path_1215" data-name="Path 1215" d="M277.916,542.53l-.144,1.114c-.049.378-.1.755-.123,1.134-.088,1.262.075,2.53.033,3.8a26.161,26.161,0,0,0-.114,2.919,12.376,12.376,0,0,0,.555,2.52l.346,1.181a.312.312,0,0,0,.087.163.306.306,0,0,0,.222.036l1.538-.139c-.1-.451-.207-.919-.262-1.382-.042-.362-.067-.727-.093-1.092-.081-1.136-.175-2.273-.262-3.412l-.164-1.995a15.051,15.051,0,0,0-.36-2.577A5.13,5.13,0,0,0,277.916,542.53Z" transform="translate(-245.717 -475.826)" fill="#eb2424"/>
    <path id="Path_1216" data-name="Path 1216" d="M277.916,542.53l-.144,1.114c-.049.378-.1.755-.123,1.134-.088,1.262.075,2.53.033,3.8a26.161,26.161,0,0,0-.114,2.919,12.376,12.376,0,0,0,.555,2.52l.346,1.181a.312.312,0,0,0,.087.163.306.306,0,0,0,.222.036l1.538-.139c-.1-.451-.207-.919-.262-1.382-.042-.362-.067-.727-.093-1.092-.081-1.136-.175-2.273-.262-3.412l-.164-1.995a15.051,15.051,0,0,0-.36-2.577A5.13,5.13,0,0,0,277.916,542.53Z" transform="translate(-245.717 -475.826)" opacity="0.1"/>
    <path id="Path_1217" data-name="Path 1217" d="M298.133,822.4a4.7,4.7,0,0,0-.236.549,5.906,5.906,0,0,0-.228,1.622.787.787,0,0,0,.029.314.684.684,0,0,0,.5.35,7.524,7.524,0,0,0,2.625-.064,19.783,19.783,0,0,0,2.585-.211,1.322,1.322,0,0,0,.358-.125,1.116,1.116,0,0,0,.453-.591.77.77,0,0,0,.051-.194.671.671,0,0,0-.5-.633,3.741,3.741,0,0,0-.858-.109,2.7,2.7,0,0,1-2.394-2.258,5.944,5.944,0,0,0-1.575.056,1.316,1.316,0,0,0-.377.495Q298.335,821.992,298.133,822.4Z" transform="translate(-263.195 -717.77)" fill="#a26565"/>
    <path id="Path_1218" data-name="Path 1218" d="M298.133,822.4a4.7,4.7,0,0,0-.236.549,5.906,5.906,0,0,0-.228,1.622.787.787,0,0,0,.029.314.684.684,0,0,0,.5.35,7.524,7.524,0,0,0,2.625-.064,19.783,19.783,0,0,0,2.585-.211,1.322,1.322,0,0,0,.358-.125,1.116,1.116,0,0,0,.453-.591.77.77,0,0,0,.051-.194.671.671,0,0,0-.5-.633,3.741,3.741,0,0,0-.858-.109,2.7,2.7,0,0,1-2.394-2.258,5.944,5.944,0,0,0-1.575.056,1.316,1.316,0,0,0-.377.495Q298.335,821.992,298.133,822.4Z" transform="translate(-263.195 -717.77)" opacity="0.1"/>
    <path id="Path_1219" data-name="Path 1219" d="M315.981,825.536a4.458,4.458,0,0,0-.236.547,5.841,5.841,0,0,0-.228,1.622.765.765,0,0,0,.029.314.684.684,0,0,0,.5.352,7.554,7.554,0,0,0,2.625-.066,19.761,19.761,0,0,0,2.585-.211,1.266,1.266,0,0,0,.358-.131,1.112,1.112,0,0,0,.453-.591.771.771,0,0,0,.051-.194.672.672,0,0,0-.5-.633,3.817,3.817,0,0,0-.858-.109,2.7,2.7,0,0,1-2.394-2.257,5.936,5.936,0,0,0-1.575.055,1.307,1.307,0,0,0-.378.495C316.263,825,316.116,825.263,315.981,825.536Z" transform="translate(-278.7 -720.487)" fill="#a26565"/>
    <path id="Path_1220" data-name="Path 1220" d="M291.831,640.169a24.007,24.007,0,0,1-1.773,8.267q-.575,1.583-1.219,3.138a2.457,2.457,0,0,0-.269,1.9,4.606,4.606,0,0,0-2.416-.337,4.946,4.946,0,0,0,.3-2.1,18.412,18.412,0,0,1,.31-2.894,16.141,16.141,0,0,1,1.416-4.185,3.189,3.189,0,0,0,.274-.882,5.634,5.634,0,0,0-.117-2.035,12.134,12.134,0,0,0-1.693-4.147l-.008.084a12.265,12.265,0,0,1-.213,1.256,10.981,10.981,0,0,0-.369,2.64,14.283,14.283,0,0,1-.173,2.8,4.257,4.257,0,0,1-.282,1.058c-.091.2-.209.394-.28.6a2.755,2.755,0,0,0-.11.748,25.365,25.365,0,0,0,.436,6.4,4.061,4.061,0,0,0-2.115.482,26.057,26.057,0,0,1-1.115-4.606,15.3,15.3,0,0,1,.171-5.572,7.408,7.408,0,0,0,.138-1.857,18.542,18.542,0,0,0-.664-3.657l-.462-1.837q-.328-1.312-.656-2.613a5.556,5.556,0,0,1-.247-1.766,4.383,4.383,0,0,1,.2-.961,10.721,10.721,0,0,1,1.453-2.971,57.645,57.645,0,0,0,7.611-.289.511.511,0,0,1,.357.06.505.505,0,0,1,.144.325l.949,5.38a13.519,13.519,0,0,1,.269,2.27c0,.761-.118,1.52-.089,2.279C291.631,638.175,291.825,639.144,291.831,640.169Z" transform="translate(-248.444 -549.06)" fill="#454b69"/>
    <path id="Path_1221" data-name="Path 1221" d="M305.842,676.346a12.246,12.246,0,0,1-.213,1.256c-.55-.951-1.143-1.879-1.65-2.854-.131-.251-.255-.505-.379-.76l-.374-.761c-.07-.143-.139-.286-.2-.432a3.123,3.123,0,0,1-.235-.656c.184-.034.638.462.774.592a10.582,10.582,0,0,1,.787.871,9.554,9.554,0,0,1,.822,1.076A5.235,5.235,0,0,1,305.842,676.346Z" transform="translate(-267.648 -588.425)" opacity="0.1"/>
    <path id="Path_1222" data-name="Path 1222" d="M305.247,497.671s-1.4,2.237-1.144,2.706-4.422-.416-4.422-.416,2.55-2.237,2.289-3.174S305.247,497.671,305.247,497.671Z" transform="translate(-264.947 -435.852)" fill="#efb7b9"/>
    <circle id="Ellipse_195" data-name="Ellipse 195" cx="3.174" cy="3.174" r="3.174" transform="translate(35.878 56.147)" fill="#efb7b9"/>
    <path id="Path_1223" data-name="Path 1223" d="M287.1,512.664a3.222,3.222,0,0,0-1.335-1.073,4.773,4.773,0,0,0-.949-.234l-1.266-.223a1.613,1.613,0,0,0-.93.021,1.524,1.524,0,0,0-.394.29,5.247,5.247,0,0,1-1.419,1.092c-.151.064-.308.112-.459.176A2.651,2.651,0,0,0,279,514.156a4.817,4.817,0,0,0-.262,2.058,3.623,3.623,0,0,0,.072.724,4.67,4.67,0,0,0,.24.664,12.156,12.156,0,0,1,.438,1.408q.492,1.883.819,3.806a1.425,1.425,0,0,0,.159.525,1.885,1.885,0,0,0,.438.421,2.733,2.733,0,0,1,.366.364.475.475,0,0,1,.119.194c.041.189-.131.352-.262.489a2.37,2.37,0,0,0-.593,1.033.416.416,0,0,0-.094.285.5.5,0,0,1,.03.226.508.508,0,0,1-.119.185.7.7,0,0,0-.131.562,8.907,8.907,0,0,0,3.107.727c.262.013.525.013.787.045.186.024.37.062.556.084a5.994,5.994,0,0,0,.814.021,11,11,0,0,0,4.165-.625,4.833,4.833,0,0,0-.307-2c-.262-1.05-.328-2.125-.525-3.184-.131-.723-.328-1.436-.44-2.164a5.29,5.29,0,0,1,.063-2.192c.177-.627.231-1.268.415-1.894a3.244,3.244,0,0,0,.1-1.924A1.978,1.978,0,0,0,287.1,512.664Z" transform="translate(-246.75 -448.499)" fill="#eb2424"/>
    <path id="Path_1224" data-name="Path 1224" d="M290.868,453.758a1.906,1.906,0,0,0-.512-1.608,2.723,2.723,0,0,0-1.51-1.059,12.861,12.861,0,0,0-1.528-.02c-.45-.035-.883-.2-1.331-.263a4.217,4.217,0,0,0-1.218.046,4.625,4.625,0,0,0-1.109.31,4.4,4.4,0,0,0-2.327,3.543,12.962,12.962,0,0,0,.458,4.386l.29,1.3a25.9,25.9,0,0,1,.684,4.11,8.72,8.72,0,0,1-.64,4.081,8.778,8.778,0,0,0,4.033-4.565c.2-.537.357-1.094.585-1.622.2-.454.446-.884.619-1.348a4.378,4.378,0,0,0,.277-1.636c-.01-.42-.08-.837-.068-1.257a1.737,1.737,0,0,1,.409-1.161,3.548,3.548,0,0,1,.955-.568,3.978,3.978,0,0,0,1.337-1.115,1.224,1.224,0,0,0,.273-.7A8.909,8.909,0,0,1,290.868,453.758Z" transform="translate(-248.962 -396.12)" fill="#a26565"/>
    <path id="Path_1225" data-name="Path 1225" d="M351.208,643.582a8.411,8.411,0,0,0,.045.98c.054.241.178.459.252.7a3.306,3.306,0,0,1,.112.836c.01.236-.008.525-.218.635-.092.049-.2.049-.3.091s-.177.156-.122.245.15.075.236.092.18.106.131.178a.15.15,0,0,1-.076.049.929.929,0,0,0-.247.118.252.252,0,0,0-.1.24.148.148,0,0,0,.211.1.656.656,0,0,0-.062.262,1.2,1.2,0,0,0,1.028-.227,3.892,3.892,0,0,0,.394-.252,1.968,1.968,0,0,0,.766-1.676,3.9,3.9,0,0,0-.075-.479,7.2,7.2,0,0,0-.193-.815c-.091-.282-.214-.551-.32-.828-.226-.589-.371-1.206-.576-1.8a.273.273,0,0,0-.1-.156.278.278,0,0,0-.146-.028,2.39,2.39,0,0,0-.684.063.727.727,0,0,0-.417.262c-.062.131.037.241.1.35A2.938,2.938,0,0,1,351.208,643.582Z" transform="translate(-309.298 -562.099)" fill="#efb7b9"/>
    <path id="Path_1226" data-name="Path 1226" d="M333.067,533.64a.962.962,0,0,1,.168.234,5.876,5.876,0,0,1,.478,2.736c.024,1.05.081,2.1.139,3.156l.172,3.15c.017.3.033.6.076.9.2.051.21.314.188.525a9.576,9.576,0,0,0-.131,3.84.387.387,0,0,0,.088.171,1.025,1.025,0,0,0-.587-.008c-.188.039-.369.109-.558.152a1.183,1.183,0,0,0-.672.262,13.025,13.025,0,0,1-.44-1.7,6.527,6.527,0,0,0-.327-1.551c-.085-.2-.2-.377-.306-.564a12.34,12.34,0,0,1-1.084-3.185,4.65,4.65,0,0,1-.084-1.583,5.442,5.442,0,0,0,.066-.728,5.6,5.6,0,0,0-.1-.766,5.139,5.139,0,0,1,.154-2.219,5.99,5.99,0,0,1,.787-1.933A2.642,2.642,0,0,1,333.067,533.64Z" transform="translate(-291.371 -468.102)" opacity="0.1"/>
    <path id="Path_1227" data-name="Path 1227" d="M334.274,532.84a.969.969,0,0,1,.168.235,5.873,5.873,0,0,1,.478,2.736c.024,1.05.081,2.1.139,3.15l.172,3.149c.017.3.033.6.076.9.2.051.21.313.186.525a9.623,9.623,0,0,0-.131,3.84.385.385,0,0,0,.088.171,1.025,1.025,0,0,0-.587-.008c-.188.039-.369.109-.558.151a1.193,1.193,0,0,0-.672.262,12.878,12.878,0,0,1-.436-1.7,6.515,6.515,0,0,0-.327-1.55,6.319,6.319,0,0,0-.306-.564,12.3,12.3,0,0,1-1.084-3.186,4.648,4.648,0,0,1-.084-1.583,3.412,3.412,0,0,0-.035-1.495,5.131,5.131,0,0,1,.154-2.218,5.99,5.99,0,0,1,.787-1.933A2.63,2.63,0,0,1,334.274,532.84Z" transform="translate(-292.422 -467.407)" fill="#eb2424"/>
    <g id="Group_94" data-name="Group 94" transform="translate(33.164 54.665)" opacity="0.1">
      <path id="Path_1228" data-name="Path 1228" d="M302.492,452.151a2.723,2.723,0,0,0-1.51-1.059,12.861,12.861,0,0,0-1.528-.02c-.45-.035-.883-.2-1.331-.263a4.216,4.216,0,0,0-1.218.046,4.624,4.624,0,0,0-1.109.31,3.293,3.293,0,0,0-.547.311,4.666,4.666,0,0,1,.98-.262,4.2,4.2,0,0,1,1.217-.046c.449.058.881.219,1.332.255a13.154,13.154,0,0,1,1.528.02,2.708,2.708,0,0,1,1.509,1.06,1.9,1.9,0,0,1,.513,1.608,8.969,8.969,0,0,0-.322.862,1.217,1.217,0,0,1-.274.7,3.985,3.985,0,0,1-.963.9c.1-.047.2-.095.3-.146a3.978,3.978,0,0,0,1.337-1.115,1.224,1.224,0,0,0,.273-.7,9.043,9.043,0,0,1,.322-.862A1.892,1.892,0,0,0,302.492,452.151Z" transform="translate(-294.262 -450.785)"/>
      <path id="Path_1229" data-name="Path 1229" d="M293.575,497.184a1.314,1.314,0,0,1,.177-.154,2.719,2.719,0,0,0-.854.525,1.755,1.755,0,0,0-.409,1.161c-.016.42.059.837.068,1.256a4.384,4.384,0,0,1-.277,1.638c-.173.463-.424.892-.619,1.348-.227.525-.379,1.084-.584,1.621a8.792,8.792,0,0,1-3.335,4.149c-.008.017-.014.035-.022.052a8.778,8.778,0,0,0,4.033-4.565c.2-.537.357-1.094.585-1.622.2-.454.446-.885.619-1.348a4.379,4.379,0,0,0,.277-1.637c-.01-.42-.08-.837-.068-1.257A1.754,1.754,0,0,1,293.575,497.184Z" transform="translate(-287.72 -490.961)"/>
    </g>
  </g>
</svg>
