<svg xmlns="http://www.w3.org/2000/svg" xmlns:xlink="http://www.w3.org/1999/xlink" width="143.739" height="93.018" viewBox="0 0 143.739 93.018">
  <defs>
    <linearGradient id="linear-gradient" x1="0.5" y1="1" x2="0.5" gradientUnits="objectBoundingBox">
      <stop offset="0" stop-color="gray" stop-opacity="0.251"/>
      <stop offset="0.54" stop-color="gray" stop-opacity="0.122"/>
      <stop offset="1" stop-color="gray" stop-opacity="0.102"/>
    </linearGradient>
  </defs>
  <g id="feautes-small-3" transform="translate(0 0)">
    <rect id="Rectangle_132" data-name="Rectangle 132" width="143.739" height="1.051" transform="translate(0 91.966)" fill="#85848b"/>
    <path id="Path_934" data-name="Path 934" d="M788.337,650.014c0,.809-4.71,3.166-10.3,3.166s-9.953-2.358-9.953-3.166,4.534-.548,10.134-.548S788.337,649.2,788.337,650.014Z" transform="translate(-674.459 -576.612)" fill="#504f60"/>
    <path id="Path_935" data-name="Path 935" d="M788.337,653.72c0,.809-4.71,3.166-10.3,3.166s-9.953-2.358-9.953-3.166" transform="translate(-674.459 -580.318)" opacity="0.2"/>
    <path id="Path_936" data-name="Path 936" d="M502.15,531.933a6.248,6.248,0,0,0,2.72-.092c.137-.043.288-.137.274-.274a.331.331,0,0,0-.062-.137,8.478,8.478,0,0,1-.822-1.567.137.137,0,0,0-.051-.071.129.129,0,0,0-.088,0c-.4.106-.748.365-1.146.476a1.63,1.63,0,0,1-.625.047c-.181-.021-.427-.17-.592-.151C501.853,530.762,502.08,531.321,502.15,531.933Z" transform="translate(-444.611 -473.37)" fill="#eb2424"/>
    <path id="Path_937" data-name="Path 937" d="M623.717,514.819a4.756,4.756,0,0,0,1.572-1.478.258.258,0,0,0,.042-.128.264.264,0,0,0-.051-.123A5.09,5.09,0,0,0,624,511.71a3.729,3.729,0,0,0-.712.658c-.151.159-.567.411-.571.654,0,.137.159.3.233.411.1.148.194.3.285.452A5.363,5.363,0,0,1,623.717,514.819Z" transform="translate(-549.006 -457.774)" fill="#eb2424"/>
    <path id="Path_938" data-name="Path 938" d="M472.123,539.927a.611.611,0,0,1-.11.4.538.538,0,0,1-.23.137c-1.27.455-2.739-.112-4.006.336-.26.092-.507.225-.768.313a4.172,4.172,0,0,1-.959.17c-.448.043-.9.07-1.348.082a3.242,3.242,0,0,1-1.016-.089,1.221,1.221,0,0,1-.779-.618.594.594,0,0,1-.038-.44.475.475,0,0,1,.083-.137,1.2,1.2,0,0,1,.3-.243l.467-.3a3.13,3.13,0,0,1,.708-.376c.185-.06.381-.086.568-.137a3.857,3.857,0,0,0,1.623-1.213l.635-.679a.64.64,0,0,1,.221-.177.611.611,0,0,1,.274-.026,3.66,3.66,0,0,1,1.732.581,2.244,2.244,0,0,0,.427.252,1.525,1.525,0,0,0,1.194-.148c.163-.088.127-.137.2-.293s.236-.256.381-.114a.4.4,0,0,1,.09.173,4.866,4.866,0,0,1,.085,1.413.625.625,0,0,0,.027.219,1.248,1.248,0,0,0,.125.2.455.455,0,0,1,.026.052,1.4,1.4,0,0,1,.092.662Z" transform="translate(-411.025 -479.529)" fill="#514e7f"/>
    <path id="Path_939" data-name="Path 939" d="M472.123,554.656a.61.61,0,0,1-.11.4.536.536,0,0,1-.23.137c-1.27.455-2.739-.112-4.006.336-.26.092-.507.225-.768.313a4.172,4.172,0,0,1-.959.17c-.448.043-.9.07-1.348.082a3.235,3.235,0,0,1-1.016-.089,1.22,1.22,0,0,1-.779-.618.594.594,0,0,1-.038-.44.473.473,0,0,1,.083-.137c.074.155.127.361.174.435a.889.889,0,0,0,.594.429,1.475,1.475,0,0,0,.548-.07,27.581,27.581,0,0,0,3.478-.721,8.031,8.031,0,0,1,1.139-.439,8.949,8.949,0,0,1,1.233-.1c.649-.052,1.278-.248,1.917-.351a1.4,1.4,0,0,1,.086.666Z" transform="translate(-411.025 -494.258)" fill="#464353"/>
    <path id="Path_940" data-name="Path 940" d="M605.913,519.963a2.312,2.312,0,0,1-.7,1.25,8.167,8.167,0,0,0-.982,1.075,8.65,8.65,0,0,1-.9,1.552,2.479,2.479,0,0,1-.548.391,3.816,3.816,0,0,1-.705.325,5.255,5.255,0,0,1-1.993.108,1.79,1.79,0,0,1-.633-.122,1.907,1.907,0,0,1-.263-.162,1.257,1.257,0,0,1-.411-.411.411.411,0,0,1-.04-.3.7.7,0,0,1,.19-.291,4.506,4.506,0,0,1,.482-.435,2.887,2.887,0,0,0,.627-.548,1.773,1.773,0,0,0,.242-.548,4.862,4.862,0,0,0,.177-1.049,3.327,3.327,0,0,1,.073-.7c.1-.362.37-.685.34-1.06a.264.264,0,0,1,.014-.16A.223.223,0,0,1,601,518.8a2.233,2.233,0,0,1,.655-.152.762.762,0,0,1,.608.239c.093.112.155.274.292.318a.463.463,0,0,0,.208.008,1.743,1.743,0,0,0,.959-.295,1.2,1.2,0,0,0,.4-.873c0-.125-.056-.255.137-.274.145-.019.26.137.334.233a3.247,3.247,0,0,1,.641,1.168.343.343,0,0,1,.122-.023.53.53,0,0,1,.437.223A.871.871,0,0,1,605.913,519.963Z" transform="translate(-528.294 -463.002)" fill="#514e7f"/>
    <path id="Path_941" data-name="Path 941" d="M606.239,528.516a2.311,2.311,0,0,1-.7,1.25,8.18,8.18,0,0,0-.982,1.075,8.651,8.651,0,0,1-.9,1.552,2.478,2.478,0,0,1-.548.391,3.823,3.823,0,0,1-.705.325,5.256,5.256,0,0,1-1.993.108,1.791,1.791,0,0,1-.633-.122,1.894,1.894,0,0,1-.263-.162,1.257,1.257,0,0,1-.411-.411,1,1,0,0,1,.411-.1c.3.016.512.3.8.383.4.122.807-.163,1.216-.26a8.231,8.231,0,0,0,.812-.137,2.007,2.007,0,0,0,.6-.365,3.06,3.06,0,0,0,.642-.62,3.983,3.983,0,0,0,.377-.753,10.783,10.783,0,0,1,.762-1.458,1.028,1.028,0,0,1,.155-.2,2.131,2.131,0,0,1,.21-.152,1.594,1.594,0,0,0,.483-.883,1.544,1.544,0,0,1,.108-.295.53.53,0,0,1,.437.223A.871.871,0,0,1,606.239,528.516Z" transform="translate(-528.621 -471.555)" fill="#464353"/>
    <path id="Path_942" data-name="Path 942" d="M438.174,200.677a2.907,2.907,0,0,1,.822.96,19.812,19.812,0,0,1,1.232,3.713c.36-.363,1.78-.422,2.145-.785.152-.152.972-.912,1.1-1.088s1.038-.548,1.138-.735c.374-.67-2.651-3.21-2.264-3.872a.173.173,0,0,0,.032-.1.17.17,0,0,0-.051-.081,4.537,4.537,0,0,0-.875-.6,1.389,1.389,0,0,1-.667-.8,2.874,2.874,0,0,0-.774.524q-.833.714-1.637,1.457c-.21.195-.615.454-.712.732C437.544,200.3,437.974,200.514,438.174,200.677Z" transform="translate(-389.272 -186.453)" fill="#a1616a"/>
    <path id="Path_943" data-name="Path 943" d="M453.281,214.13a8.918,8.918,0,0,0-1.3,1.061,2.581,2.581,0,0,0-.822,1.321c-.038.2-.033.411-.064.618-.137.9-.912,1.556-1.254,2.4a4.164,4.164,0,0,0-.218.8,9.488,9.488,0,0,0-.157,1.574c-.008.511.493.864.677,1.341a8.186,8.186,0,0,1,.326,1.457,17.288,17.288,0,0,0,.822,2.7c.675,1.867,2.864,7.028,3.539,8.9,2.069-.519,7.577-1.713,9.41-2.809.611-.365-4.239-4.478-3.585-4.762a.244.244,0,0,0,.184-.344c-.653-2.859-2.7-5.209-3.624-7.993a24.267,24.267,0,0,0-1.338-2.71c-.4-.832-.609-1.752-1.085-2.543a1.6,1.6,0,0,0-.346-.432,2.044,2.044,0,0,0-.382-.232C453.794,214.341,453.542,214.263,453.281,214.13Z" transform="translate(-399.482 -200.985)" fill="#514e7f"/>
    <ellipse id="Ellipse_154" data-name="Ellipse 154" cx="3.239" cy="3.242" rx="3.239" ry="3.242" transform="translate(45.772 7.416)" fill="#a1616a"/>
    <path id="Path_944" data-name="Path 944" d="M466.4,205.277a1.085,1.085,0,0,1,1.217-.175.589.589,0,0,1,.362.585l1.606.025a3.224,3.224,0,0,1,.761.07,1.106,1.106,0,0,1,.635.4c.019.026.041.058.074.062a.118.118,0,0,0,.074-.025,1.393,1.393,0,0,1,.8-.137,4.319,4.319,0,0,1,2.351,1.034.761.761,0,0,1,.274.341c.056.182-.011.411.137.541a19.313,19.313,0,0,0,.863,4.386,1.967,1.967,0,0,0,.486.7,2.818,2.818,0,0,1,.519.776c.293.762-.111,1.659.174,2.423a4.155,4.155,0,0,0,.548.87,2.252,2.252,0,0,1,.468,1.124c.012.184-.011.369,0,.548a3.322,3.322,0,0,0,.137.728q.175.663.367,1.326a3.009,3.009,0,0,0,1.117,1.861,9.114,9.114,0,0,1-4.633-.018,2.4,2.4,0,0,1-.578-.289,3.334,3.334,0,0,1-1.015-1.637,7.734,7.734,0,0,1-.566-2.112,2.429,2.429,0,0,0-.1-.685,1.95,1.95,0,0,0-.909-.858,4.367,4.367,0,0,1-1.1-.853,1.7,1.7,0,0,1-.444-1.28c.027-.226.116-.444.125-.672a.526.526,0,0,0-.311-.548c-1.122-.34-1.657-1.67-1.906-2.816a9.054,9.054,0,0,1-.144-1.8l-.015-1.169a1.545,1.545,0,0,1-.5-1.109,1.318,1.318,0,0,0-.007-.367,1.013,1.013,0,0,0-.257-.391A3.488,3.488,0,0,1,466.4,205.277Z" transform="translate(-414.094 -193.097)" fill="#464353"/>
    <path id="Path_945" data-name="Path 945" d="M439.789,228.064a8.987,8.987,0,0,1-.036,1.088c-.031.137-.086.274-.126.4a2.36,2.36,0,0,0,.149,1.526,8.5,8.5,0,0,0,.779,1.35,2.192,2.192,0,0,1,.249.467,2.417,2.417,0,0,1,.1.533,16.587,16.587,0,0,0,.381,2.155,54.306,54.306,0,0,0,2.3,6.351.516.516,0,0,0,.312.212.568.568,0,0,0,.266-.055l.822-.315a.536.536,0,0,0,.19-.1.491.491,0,0,0,.118-.323,56.061,56.061,0,0,0-1.909-6.588,50.414,50.414,0,0,1-2-5.723,4.162,4.162,0,0,0-.587-1.83c-.166-.181-.11-.1-.308-.01a2.246,2.246,0,0,0-.29.152A.951.951,0,0,0,439.789,228.064Z" transform="translate(-390.932 -212.177)" fill="#464353"/>
    <path id="Path_946" data-name="Path 946" d="M556.62,320.79" transform="translate(-491.958 -293.024)" fill="#464353"/>
    <path id="Path_947" data-name="Path 947" d="M458.2,225.22c.22,1.167.448,2.33.674,3.5l3.216-.843a2.264,2.264,0,0,0-.274-.96c-.293-.736-.3-1.556-.537-2.312-.179-.576-.492-1.1-.66-1.685-.1-.337-.147-.685-.242-1.027a7.464,7.464,0,0,0-.378-.98,6.141,6.141,0,0,0-.7-1.3,2.045,2.045,0,0,0-1.083.7,1.52,1.52,0,0,0-.2.685c-.056.722.205,1.449.119,2.167A6.38,6.38,0,0,0,458.2,225.22Z" transform="translate(-406.846 -205.713)" fill="#eb2424"/>
    <path id="Path_948" data-name="Path 948" d="M476.95,329.936a3.847,3.847,0,0,1-.294,2.085A16.171,16.171,0,0,0,476,335.16a2.719,2.719,0,0,1-.162.794c-.1.229-.274.422-.392.64a3.218,3.218,0,0,0-.245,1.927c.047.432.116.862.2,1.287a3.259,3.259,0,0,1,.084,1.569c.255-.056.427.274.411.533a1.423,1.423,0,0,0,.025.772c.315.115.318.548.308.884a7.439,7.439,0,0,0,.219,1.727q.715,3.441,1.517,6.862a5.288,5.288,0,0,0,3.613.236.725.725,0,0,0,.457-.461.8.8,0,0,0-.044-.354l-.523-1.905a3.5,3.5,0,0,1-.188-1.409c.051-.352.2-.732.031-1.043-.059-.107-.152-.191-.221-.292-.274-.4-.13-.939-.108-1.426a1.13,1.13,0,0,0-.022-.326,1.628,1.628,0,0,0-.156-.358,5.476,5.476,0,0,1-.6-2.722.674.674,0,0,0-.048-.355,1.13,1.13,0,0,1-.089-.145.4.4,0,0,1,.029-.262,2.4,2.4,0,0,1-.422-.411.591.591,0,0,0,.1-.924.309.309,0,0,0,.147-.53c-.067-.047-.156-.067-.2-.137-.074-.1-.014-.243.047-.351l.319-.577c.238-.429.292-.96.548-1.371a10.283,10.283,0,0,0,.844-1.927l.922-2.546.62.539a1.962,1.962,0,0,1,.509.581,2.508,2.508,0,0,1,.166.7c.227,1.382,1.1,2.58,1.417,3.941a2.6,2.6,0,0,0,.293.88,1.915,1.915,0,0,1,.167.252,1.336,1.336,0,0,1,.07.418,1.951,1.951,0,0,0,.822,1.4c.305.21.685.354.85.685a1.279,1.279,0,0,0,.137.292c.148.178.467.2.53.422.036.125-.03.274.04.384a.363.363,0,0,0,.152.114l.892.446c1,.5,1.506,1.645,2.242,2.48a5.345,5.345,0,0,1,.671.888c.318.569.464,1.283,1,1.645a1.517,1.517,0,0,1,.389.289c.168.222.107.533.122.813s.229.613.494.528a1.953,1.953,0,0,0,0,1.035,5.2,5.2,0,0,0,3.158-1.28,1.248,1.248,0,0,0,.514-.864.31.31,0,0,0-.038-.171.489.489,0,0,0-.2-.152c-.834-.452-1.085-1.5-1.506-2.352a20.4,20.4,0,0,0-1.37-2.1c-.991-1.5-1.668-3.317-3.168-4.308a2.156,2.156,0,0,1-.879-.772c-.092-.2-.1-.432-.175-.64a.555.555,0,0,0-.468-.411,2.877,2.877,0,0,0,.107-1,1.258,1.258,0,0,0-.049-.429,2.086,2.086,0,0,0-.22-.425,4.08,4.08,0,0,1-.564-2.193,3.6,3.6,0,0,0-.038-1.183c-.06-.191-.166-.365-.238-.548a3.426,3.426,0,0,1-.171-1.031l-.082-1.317a6.487,6.487,0,0,0-.17-1.3c-.274-1.023-.548-5.306-1.486-5.789s-2.55,2.814-3.606,2.879a4.69,4.69,0,0,0-1.37.265A6.67,6.67,0,0,0,480.1,327.4l-1.942,1.632A7.152,7.152,0,0,1,476.95,329.936Z" transform="translate(-421.657 -294.912)" fill="#464353"/>
    <path id="Path_949" data-name="Path 949" d="M414.959,163.917a2.441,2.441,0,0,1,1.884-.92,4.385,4.385,0,0,1,2.083.524,2.572,2.572,0,0,0,.608.249c.342.07.723-.023,1.033.137a1.239,1.239,0,0,1,.455,1.234,2.267,2.267,0,0,0,.123,1.371,3.164,3.164,0,0,1,.237.358,1.184,1.184,0,0,1-.019.762,4.936,4.936,0,0,1-.393-.5.463.463,0,0,0-.567-.147c-.177.119-.174.336-.184.53s-.059.428-.242.491a.393.393,0,0,1-.411-.16c-.314-.384-.188-1-.5-1.383-.177-.219-.471-.326-.634-.556-.129-.181-.162-.411-.274-.606s-.374-.337-.548-.2a.741.741,0,0,0-.147.2.842.842,0,0,1-1,.3,1.671,1.671,0,0,0-.433-.188.535.535,0,0,0-.494.274,1.071,1.071,0,0,0-.137.573,1.321,1.321,0,0,1-.107.785.812.812,0,0,1-.219.208.682.682,0,0,1-.759.078.571.571,0,0,1-.17-.532,4.291,4.291,0,0,1,.162-.562c.12-.425-.037-.9.094-1.3A4.163,4.163,0,0,1,414.959,163.917Z" transform="translate(-368.986 -156.859)" fill="#464353"/>
    <path id="Path_950" data-name="Path 950" d="M432.755,203.5a.5.5,0,0,0,.03.3.473.473,0,0,0,.162.155,3.32,3.32,0,0,0,1.526.495.464.464,0,0,1,.211.055.371.371,0,0,1,.089.425,1.108,1.108,0,0,0-.1.452c.04.286.379.411.666.454a1.547,1.547,0,0,0,1.159-.226,1.791,1.791,0,0,0,.478-.717c.786-1.808,1.061-3.807,1.857-5.609a1.192,1.192,0,0,0,.119-.376.37.37,0,0,0-.148-.345c-.148-.092-.378-.04-.478-.184-.049-.073-.044-.171-.088-.248-.092-.163-.333-.137-.5-.232-.129-.069-.218-.21-.362-.237a.455.455,0,0,0-.374.162,4.822,4.822,0,0,0-.972,1.638,19.2,19.2,0,0,1-1.391,2.582,1.506,1.506,0,0,0-.436-.854c-.245-.049-.559.381-.692.541A3.451,3.451,0,0,0,432.755,203.5Z" transform="translate(-385.048 -186.768)" fill="#eb2424"/>
    <path id="Path_951" data-name="Path 951" d="M459.527,200.32a.656.656,0,0,0-.508.255,1.451,1.451,0,0,0-.212.685,5.959,5.959,0,0,1-.807,2.169" transform="translate(-406.844 -189.068)" opacity="0.1"/>
    <path id="Path_952" data-name="Path 952" d="M464.825,204.31a.782.782,0,0,0-.664.4,2.243,2.243,0,0,0-.167.677,3.717,3.717,0,0,1-.664,1.424" transform="translate(-411.444 -192.511)" opacity="0.1"/>
    <path id="Path_953" data-name="Path 953" d="M229.076,359.347v-1.7a4.724,4.724,0,0,0-4.722-4.725H157.182a4.724,4.724,0,0,0-4.722,4.725v3.139Z" transform="translate(-143.147 -320.75)" fill="#33323d"/>
    <path id="Path_954" data-name="Path 954" d="M323.361,272.289s-.192,11.906,1.917,15.824,3.013,20.96,3.013,20.96,22.109,2.289,37.516-2.742S414,299.243,414,299.243l-5.525-37.269s-27.292-1.752-42.818,5.66S323.361,272.289,323.361,272.289Z" transform="translate(-290.64 -242.114)" fill="#8dd070"/>
    <path id="Path_955" data-name="Path 955" d="M323.361,272.289s-.192,11.906,1.917,15.824,3.013,20.96,3.013,20.96,22.109,2.289,37.516-2.742S414,299.243,414,299.243l-5.525-37.269s-27.292-1.752-42.818,5.66S323.361,272.289,323.361,272.289Z" transform="translate(-290.64 -242.114)" opacity="0.1"/>
    <path id="Path_956" data-name="Path 956" d="M358.262,293.2s-.692,9.824,1.044,12.963,1.816,17.152,1.816,17.152,19.9.924,34.051-3.9,43.9-7.95,43.9-7.95l-3.38-30.479s-24.61-.254-38.973,6.534S358.262,293.2,358.262,293.2Z" transform="translate(-320.648 -258.681)" fill="#8dd070"/>
    <ellipse id="Ellipse_155" data-name="Ellipse 155" cx="5.165" cy="11.089" rx="5.165" ry="11.089" transform="translate(67.985 33.791) rotate(-7.1)" opacity="0.1"/>
    <path id="Path_957" data-name="Path 957" d="M345.043,130.66s-26.515,6.717-39.018,18.539S267.2,166.62,267.2,166.62s3.468,11.39,6.675,14.471,9.291,19.026,9.291,19.026,21.743-4.614,34.863-14.138,43.7-21.552,43.7-21.552Z" transform="translate(-242.174 -128.956)" opacity="0.2"/>
    <path id="Path_958" data-name="Path 958" d="M264.29,154.189s3.466,11.391,6.671,14.472,9.291,19.025,9.291,19.025,21.746-4.613,34.867-14.137S358.813,152,358.813,152L342.132,118.23s-26.513,6.717-39.017,18.539S264.29,154.189,264.29,154.189Z" transform="translate(-239.662 -118.23)" fill="#8dd070"/>
    <path id="Path_959" data-name="Path 959" d="M264.29,154.189s3.466,11.391,6.671,14.472,9.291,19.025,9.291,19.025,21.746-4.613,34.867-14.137S358.813,152,358.813,152L342.132,118.23s-26.513,6.717-39.017,18.539S264.29,154.189,264.29,154.189Z" transform="translate(-239.662 -118.23)" opacity="0.1"/>
    <path id="Path_960" data-name="Path 960" d="M308,176.906s2.354,9.564,4.969,12.017,6.984,15.764,6.984,15.764,19.219-5.234,31.212-14.171,39.344-21.037,39.344-21.037l-12.56-27.98s-23.5,7.316-35.089,18.188S308,176.906,308,176.906Z" transform="translate(-277.386 -138.31)" fill="#8dd070"/>
    <ellipse id="Ellipse_156" data-name="Ellipse 156" cx="5.163" cy="11.086" rx="5.163" ry="11.086" transform="translate(59.298 28.57) rotate(-24.97)" opacity="0.1"/>
    <path id="Path_961" data-name="Path 961" d="M230.915,381.987v47.291a4.087,4.087,0,0,1-4.087,4.089H156.574a4.087,4.087,0,0,1-4.084-4.089V377.22a7.208,7.208,0,0,0,4.084.685h70.255a4.088,4.088,0,0,1,4.087,4.082Z" transform="translate(-143.173 -341.719)" opacity="0.1"/>
    <path id="Path_962" data-name="Path 962" d="M230.915,386.369V433.66a4.088,4.088,0,0,1-4.087,4.089H156.574a4.087,4.087,0,0,1-4.084-4.089V381.6a7.231,7.231,0,0,0,4.084.685h70.255A4.088,4.088,0,0,1,230.915,386.369Z" transform="translate(-143.173 -345.499)" fill="#504f60"/>
    <path id="Path_963" data-name="Path 963" d="M583.729,543.936v15.124H569.075a7.562,7.562,0,0,1,0-15.124Z" transform="translate(-496.187 -485.582)" opacity="0.1"/>
    <path id="Path_964" data-name="Path 964" d="M585.189,541v15.126H570.535a7.562,7.562,0,0,1,0-15.124Z" transform="translate(-497.447 -483.049)" fill="#33323d"/>
    <ellipse id="Ellipse_157" data-name="Ellipse 157" cx="2.946" cy="2.948" rx="2.946" ry="2.948" transform="translate(70.845 62.968)" opacity="0.1"/>
    <ellipse id="Ellipse_158" data-name="Ellipse 158" cx="2.946" cy="2.948" rx="2.946" ry="2.948" transform="translate(71.045 62.568)" fill="#eb2424"/>
    <path id="Path_965" data-name="Path 965" d="M850.425,526.728c.116,1.262-.838,2.488-.56,3.724.06.265.174.514.215.781a3.005,3.005,0,0,1-.739,2.044l-3.588,5.269a3.269,3.269,0,0,1-.512.633c-.685.611-1.715.548-2.616.731a4.468,4.468,0,0,0-1.753.776.113.113,0,0,0-.016.154,1.506,1.506,0,0,0,1.3.613c.095.125,0,.307-.137.4-.193.137-.457.17-.5.5a.539.539,0,0,0,.066.329,1.021,1.021,0,0,0,.627.437,3.725,3.725,0,0,0,3.514-1.2c.93-.909,1.6-2.056,2.509-2.981.505-.511,1.079-.95,1.6-1.446a18.328,18.328,0,0,0,2.624-3.4,3.793,3.793,0,0,0,.568-1.157c.1-.421.052-.846.163-1.253a4.615,4.615,0,0,1,.86-1.408,4.66,4.66,0,0,0,.978-3.031,2.905,2.905,0,0,0-1.772-2.515,1.574,1.574,0,0,0-.993-.06,2.358,2.358,0,0,0-1.011.8l-.685.788a1.85,1.85,0,0,0-.4.6.632.632,0,0,0,.137.67" transform="translate(-737.248 -468.907)" fill="#fbbebe"/>
    <path id="Path_966" data-name="Path 966" d="M850.425,526.728c.116,1.262-.838,2.488-.56,3.724.06.265.174.514.215.781a3.005,3.005,0,0,1-.739,2.044l-3.588,5.269a3.269,3.269,0,0,1-.512.633c-.685.611-1.715.548-2.616.731a4.468,4.468,0,0,0-1.753.776.113.113,0,0,0-.016.154,1.506,1.506,0,0,0,1.3.613c.095.125,0,.307-.137.4-.193.137-.457.17-.5.5a.539.539,0,0,0,.066.329,1.021,1.021,0,0,0,.627.437,3.725,3.725,0,0,0,3.514-1.2c.93-.909,1.6-2.056,2.509-2.981.505-.511,1.079-.95,1.6-1.446a18.328,18.328,0,0,0,2.624-3.4,3.793,3.793,0,0,0,.568-1.157c.1-.421.052-.846.163-1.253a4.615,4.615,0,0,1,.86-1.408,4.66,4.66,0,0,0,.978-3.031,2.905,2.905,0,0,0-1.772-2.515,1.574,1.574,0,0,0-.993-.06,2.358,2.358,0,0,0-1.011.8l-.685.788a1.85,1.85,0,0,0-.4.6.632.632,0,0,0,.137.67" transform="translate(-737.248 -468.907)" opacity="0.05"/>
    <path id="Path_967" data-name="Path 967" d="M910.967,767.959a4.15,4.15,0,0,1-2.671.4c-.147-.018-.32-.029-.411.085-.137.164.025.411.192.539a3.95,3.95,0,0,0,1.834.755,12.066,12.066,0,0,0,1.794.119,30.293,30.293,0,0,0,4.9-.18.693.693,0,0,0,.274-.079.5.5,0,0,0,.2-.308,1.224,1.224,0,0,0-.426-1.168,3.572,3.572,0,0,0-1.143-.614l-1.424-.555a3.657,3.657,0,0,0-1.233-.448C912.178,766.55,911.533,767.627,910.967,767.959Z" transform="translate(-795.074 -677.637)" fill="#3f3d56"/>
    <path id="Path_968" data-name="Path 968" d="M910.967,767.959a4.15,4.15,0,0,1-2.671.4c-.147-.018-.32-.029-.411.085-.137.164.025.411.192.539a3.95,3.95,0,0,0,1.834.755,12.066,12.066,0,0,0,1.794.119,30.293,30.293,0,0,0,4.9-.18.693.693,0,0,0,.274-.079.5.5,0,0,0,.2-.308,1.224,1.224,0,0,0-.426-1.168,3.572,3.572,0,0,0-1.143-.614l-1.424-.555a3.657,3.657,0,0,0-1.233-.448C912.178,766.55,911.533,767.627,910.967,767.959Z" transform="translate(-795.074 -677.637)" opacity="0.05"/>
    <path id="Path_969" data-name="Path 969" d="M931.182,588.163a3.8,3.8,0,0,0-1.06,2.678,5.972,5.972,0,0,0,.59,1.478,10.432,10.432,0,0,1,.6,2.078c.222,1.034.445,2.07.581,3.12.155,1.186-.572,4.617-.64,5.811a1.228,1.228,0,0,1-.251.806c-.078.082-.182.148-.218.255a.436.436,0,0,0,.048.3,3.314,3.314,0,0,0,1.78,1.637,14.065,14.065,0,0,0,3.433.9.684.684,0,0,0,.323-.043.629.629,0,0,0,.249-.286c.6-1.14.023-5.2.031-6.482.008-1.073.262-2.14.215-3.212-.038-.861-.274-1.7-.352-2.561a15.125,15.125,0,0,1,.379-4.209c.2-1.067.4-2.133.649-3.186a6.12,6.12,0,0,1,.685-1.849c.274-.443.659-.813.978-1.234a5.571,5.571,0,0,0,1.1-4.077,10.666,10.666,0,0,0-2.234.595,6.958,6.958,0,0,0-1.991,1.282,16.735,16.735,0,0,0-1.255,1.553q-.875,1.068-1.728,2.151Q932.116,586.91,931.182,588.163Z" transform="translate(-814.29 -516.766)" fill="#464353"/>
    <path id="Path_970" data-name="Path 970" d="M931.182,587.856a3.8,3.8,0,0,0-1.06,2.678,5.96,5.96,0,0,0,.59,1.479,10.42,10.42,0,0,1,.6,2.077c.222,1.035.445,2.071.581,3.12.155,1.187-.572,4.617-.64,5.811a1.232,1.232,0,0,1-.251.807c-.078.081-.182.147-.218.254a.435.435,0,0,0,.048.3,3.355,3.355,0,0,0,1.78,1.645,13.222,13.222,0,0,0,3.433.643.683.683,0,0,0,.323-.043.618.618,0,0,0,.249-.285c.6-1.14.023-4.935.031-6.223.008-1.075.262-2.14.215-3.213-.038-.861-.274-1.7-.352-2.559a15.131,15.131,0,0,1,.379-4.211c.2-1.065.4-2.132.649-3.186a6.121,6.121,0,0,1,.685-1.849c.274-.443.659-.813.978-1.234a5.569,5.569,0,0,0,1.1-4.077,10.674,10.674,0,0,0-2.234.595,6.992,6.992,0,0,0-1.991,1.283,16.525,16.525,0,0,0-1.255,1.552q-.875,1.068-1.728,2.152Q932.116,586.6,931.182,587.856Z" transform="translate(-814.29 -516.507)" opacity="0.05"/>
    <ellipse id="Ellipse_159" data-name="Ellipse 159" cx="3.324" cy="3.327" rx="3.324" ry="3.327" transform="translate(106.969 47.354)" fill="#fbbebe"/>
    <path id="Path_971" data-name="Path 971" d="M891.71,482.943a4.3,4.3,0,0,0,2.76,1.927l-.251.911a8.645,8.645,0,0,1-2.127,4.307,2,2,0,0,0-.337-1.557,5.869,5.869,0,0,0-1.128-1.18l-1.913-1.659a.575.575,0,0,1-.137-.162.486.486,0,0,1,0-.365,4.444,4.444,0,0,1,1.506-1.746,5.209,5.209,0,0,0,.757-.883C891.223,481.992,891.46,482.54,891.71,482.943Z" transform="translate(-778.423 -432.402)" fill="#fbbebe"/>
    <path id="Path_972" data-name="Path 972" d="M852.628,446.755l-.075-.625c.525.137,1.023-.31,1.359-.772s.646-1.006,1.157-1.2a2.4,2.4,0,0,1,1.871.45,5.912,5.912,0,0,0,2.146.7,1.41,1.41,0,0,1,.355.058,1.235,1.235,0,0,1,.626,1.062,4.159,4.159,0,0,0,.231,1.3c.137.3.392.518.548.811.411.787.014,1.863.442,2.635l-1.065-.977c-.1-.089-.234-.182-.342-.107-.085.06-.092.191-.126.295a.559.559,0,0,1-.759.274,2.176,2.176,0,0,1-.685-.621,4.155,4.155,0,0,0-1.69-1.283,2.168,2.168,0,0,0-1.78.118c-.5.281-.861.936-1.471.96-.835.032-1.183-1.526-1.569-2.141a.754.754,0,0,0,.219-.943C852.075,446.724,852.616,446.659,852.628,446.755Z" transform="translate(-746.714 -399.419)" fill="#464353"/>
    <path id="Path_973" data-name="Path 973" d="M550.866,316.708a6.465,6.465,0,0,0-.738.776,1.554,1.554,0,0,0-.34,1,.511.511,0,0,0,.1.292.247.247,0,0,0,.274.084.367.367,0,0,0,.137-.121,6.607,6.607,0,0,1,.46-.5c.059-.059.137-.121.216-.1a.232.232,0,0,1,.093.062.632.632,0,0,1,.193.3.712.712,0,0,1-.212.584,1.5,1.5,0,0,0-.358.529.235.235,0,0,0,0,.17.255.255,0,0,0,.107.09,1.527,1.527,0,0,0,1.293.085c.274-.111.518-.3.8-.4a1.847,1.847,0,0,0,.353-.137.735.735,0,0,0,.314-.47,1.939,1.939,0,0,0,.021-.577,6.641,6.641,0,0,0-.471-2.17.274.274,0,0,0-.079-.115.252.252,0,0,0-.137-.037,3.253,3.253,0,0,0-1.264-.086.894.894,0,0,0-.3.266C551.262,316.3,550.866,316.616,550.866,316.708Z" transform="translate(-486.062 -288.821)" fill="#a1616a"/>
    <path id="Path_974" data-name="Path 974" d="M525.862,238.764c0-.334-.411-1.142.242-1.2,0-.358-.505-.58-.411-.96.03-.126.137-.229.149-.358.041-.366-.619-.565-.509-.916.041-.137.186-.217.218-.352.074-.317-.492-.458-.5-.783,0-.11.062-.212.056-.322,0-.137-.119-.241-.185-.361-.171-.306-.088-.779-.4-.936.207.018.274-.289.189-.477s-.259-.351-.26-.559a.84.84,0,0,0,0-.228c-.058-.2-.385-.217-.44-.411a1.749,1.749,0,0,1-.007-.225c-.022-.155-.181-.254-.33-.3a1.346,1.346,0,0,1-.441-.158c-.1-.073-.207-.193-.31-.137-.038.023-.057.067-.086.1-.123.144-.359.081-.513-.025a2.112,2.112,0,0,1-.782-1.413c-.1-.544-.094-1.106-.216-1.645a3.5,3.5,0,0,0-.148-.493,2.594,2.594,0,0,1-.23-.491c-.025-.315.627-.1.875-.069a3.89,3.89,0,0,1,.711.137,7.594,7.594,0,0,1,.727.319c.989.437,2.183.491,2.977,1.225a2.5,2.5,0,0,0,.822.668,3.718,3.718,0,0,1,.46.119c.377.177.435.677.641,1.039a2.03,2.03,0,0,1,.168.3,1.167,1.167,0,0,1,.055.384l.029.95a35.045,35.045,0,0,1-.077,4.769,3.912,3.912,0,0,0,.018,1.561c.041.137.1.266.137.4a2.46,2.46,0,0,1,.052.493l.022.615a.192.192,0,0,1-.03.137.2.2,0,0,1-.166.04c-.856-.077-1.721-.559-2.529-.267" transform="translate(-461.169 -211.187)" fill="#464353"/>
    <ellipse id="Ellipse_160" data-name="Ellipse 160" cx="10.129" cy="1.465" rx="10.129" ry="1.465" transform="translate(93.625 71.937)" fill="#504f60"/>
    <path id="Path_975" data-name="Path 975" d="M707.169,241.37c-.178-.764-.289-1.434-.289-1.434a2.956,2.956,0,0,0-.332-1.454v-.208h0v-1.535a5.245,5.245,0,0,1,.388-.8,6.059,6.059,0,0,0,0-2.251,9.966,9.966,0,0,1-.775-4.075c.248-1.582-2.1-7.024-2.1-7.024a6.942,6.942,0,0,1,.221-1.554,1.187,1.187,0,0,0,.03-.326v-.027a12.088,12.088,0,0,0-.86-3l.111-3.726a10.962,10.962,0,0,0-.331-5.147c-.3-1.029-.492-1.853-.613-2.489-.014-.071-.027-.137-.038-.207,1.765-.274,3.114-.493,3.114-.493s-1.024-4.289-1.716-5.04a9.91,9.91,0,0,1-1.245-3.11s-.36-3.028.222-3.913a5.888,5.888,0,0,0,.664-2.413s1.327-.96,1.494-1.394a7.117,7.117,0,0,0,.442-1.9c0-.509-.166-.96-.111-1.234s-.388-1.287-.166-1.77a1.3,1.3,0,0,0,.088-.465.074.074,0,0,0,0-.014h0a6.516,6.516,0,0,0-.117-1.258,3.566,3.566,0,0,0-1.315-.7l-.029-.115-.075-.3a1.462,1.462,0,0,0-.13-.077v-.11l-.012-.436.208-.979c.411-1.7-1.861-1.956-1.861-1.956a1.2,1.2,0,0,0-.644-.565c-.456-.16-.075,2.561.137,2.742a10.7,10.7,0,0,1,.9,1.4h0l.038.069a.971.971,0,0,0-.1.11l.086.591.014.09a2.454,2.454,0,0,0-.363.618,1.334,1.334,0,0,1,.333.96,3.076,3.076,0,0,0,.137,1.179c-.025-.029-.316-.344-.608-.267s-1.107.322-1.107.322-.608.107-.548.241-.411.724-.411.724l-1.635-1.552c-.017-.047-.034-.093-.048-.137a3.778,3.778,0,0,1-.137-.685,3.742,3.742,0,0,0,.523-.166,1.128,1.128,0,0,0,.452-.291,1.754,1.754,0,0,0,.264-.706,10.389,10.389,0,0,1,.607-1.354,4.407,4.407,0,0,0,.308-2.437,1.593,1.593,0,0,0-.251-.713c-.267-.367-.752-.517-1.1-.81s-.579-.742-.99-.96a1.962,1.962,0,0,0-1.241-.107,6.683,6.683,0,0,0-2.319.844,1.206,1.206,0,0,1-.775.255,1.012,1.012,0,0,1-.559-.411.133.133,0,0,1,.007-.022.13.13,0,0,1-.018-.022,2.892,2.892,0,0,0-.255,1.225,1.507,1.507,0,0,0,.008.2v.125h0a.309.309,0,0,1-.012.086.623.623,0,0,1-.153.221,1.471,1.471,0,0,0-.137.182.227.227,0,0,1,.022-.067.975.975,0,0,0-.17.517.528.528,0,0,0,.123.37,1.779,1.779,0,0,0,.267.214,3.134,3.134,0,0,0-.049.548,3.169,3.169,0,0,0,1.542,2.7c.019.045.037.092.055.137a3.907,3.907,0,0,1,.3,1.782.838.838,0,0,1-.019.129c-.007.042-.041.045-.059.069h0s-2.7.027-3.337-.548-1.605,1.408-1.605,1.408-.968.188-1.163,0-1.327-.026-1.327-.026a2.44,2.44,0,0,0-1.689-.617,4.955,4.955,0,0,0-1.233-.685h0l-.03-.011h0a1.38,1.38,0,0,0-.61-.077,12.293,12.293,0,0,1-1.716-1.689c-.388-.592-2.232-2.779-2.24-2.788v-.106l-.021-.318a1.135,1.135,0,0,1-.166.014c-.01-.032-.023-.069-.037-.111a6.13,6.13,0,0,0-.392-.9s0-.4.116-.5a6.934,6.934,0,0,0-.048-1.575s-1.2-2.8-2.269-.71c0,0-2.027,1.353-.326,2.929,0,0,.685.329.775.589.063.169.293.642.448.96l.07.137-.019.016.025.263.011.1c-.321.182-.538.363-.485.5a3,3,0,0,1,.193.724s2.353,2.95,2.657,4.21c0,0,6.309,3.753,8.384,4.02l-.367,1.871a14.918,14.918,0,0,0-.082,1.528c.027.4-.249,2.225-.249,2.225a14.888,14.888,0,0,1-.664,3.057,5.155,5.155,0,0,0-.249,1.983,13.565,13.565,0,0,1-.411,2.278,5.826,5.826,0,0,0-.084,2.28s-1.05,2.413,1.467.777c0,0,1.233-.077,2.66-.126v.137c0,.184,0,.382-.01.591-.019,1.382-.027,3.29.036,4.726.111,2.547.886,7.587.886,7.587v2.537a3.466,3.466,0,0,0-.074.724,4.713,4.713,0,0,0,.685,2.535l.194,1.689a6.593,6.593,0,0,1,.463,1.782.932.932,0,0,1-.019.16,1.083,1.083,0,0,0-.022.259,14.594,14.594,0,0,0,.435,2.6s.027,1.849.3,1.957c.237.092-.316,1.065-.481,1.345a.4.4,0,0,1-.01-.052l-.034.055a1.312,1.312,0,0,0-.086.469.672.672,0,0,0,.307.65c.526.322.808.589.362.7a4.653,4.653,0,0,0-.488.1.21.21,0,0,0-.023-.062.294.294,0,0,0-.182.324,1.373,1.373,0,0,0,.163.622,6.791,6.791,0,0,0,.749,1.371l.212-.023a1.031,1.031,0,0,1-.123.229.882.882,0,0,1-.312.274.966.966,0,0,1-.379.13,1.068,1.068,0,0,0-.783.381.818.818,0,0,0,.1,1.272l1.979.685s3.4.443,3.224-.322-.29-1.434-.29-1.434a3.024,3.024,0,0,0-.274-1.356,1.762,1.762,0,0,0-.121-.2l.121-.012a6.278,6.278,0,0,1,.581-2.011c.077-.074.094-.137.077-.175.034-.092-.053-.145-.164-.177l-.025.067a1.611,1.611,0,0,0-.33-.037s-.111-.884.249-1.206a.341.341,0,0,0,.07-.263,1.416,1.416,0,0,0-.038-.36.182.182,0,0,1-.012.022,12.989,12.989,0,0,0-.794-2.079,2.545,2.545,0,0,1,.195-1.125,28.377,28.377,0,0,0-.029-4.37,13.239,13.239,0,0,0-.166-2.868,3.222,3.222,0,0,1,.3-1.985v-.071l-.031-.308a.072.072,0,0,0,0,.019c-.056-.518-.162-1.457-.24-1.89-.111-.617.029-3.564.029-3.564l.5-1.261.886,2.173.941,2.9a2.474,2.474,0,0,1,.477,1.234v.09a1.561,1.561,0,0,0-.011.193,1.722,1.722,0,0,0,.286,1.032,4.468,4.468,0,0,0,.637,1.715,1.54,1.54,0,0,1,.388,1.018,17.8,17.8,0,0,0,.685,2.33,3.469,3.469,0,0,1,.194,1.347h0v.071s.066.71.063,1.3v.212a.052.052,0,0,0,0-.015,2.063,2.063,0,0,1-.057.482l-.008.027a.348.348,0,0,1,.01-.1,5.042,5.042,0,0,0-.137,1.234,3.2,3.2,0,0,0,.527,2.056c.748.858,1.218.751,1.218.751s-.359,1.072-.8,1.287a.2.2,0,0,0-.047.03.454.454,0,0,0-.011-.063.522.522,0,0,0-.137.4,2.877,2.877,0,0,0,.548,1.589.894.894,0,0,0,.374.219.6.6,0,0,1-.07.042,1.481,1.481,0,0,1-.152.073.8.8,0,0,1-.226.059,1.054,1.054,0,0,0-.783.381.817.817,0,0,0,.1,1.271l1.979.685S707.347,242.134,707.169,241.37Z" transform="translate(-594.701 -167.897)" fill="url(#linear-gradient)"/>
    <path id="Path_976" data-name="Path 976" d="M796.529,639.819l-1.917-.685a.833.833,0,0,1-.093-1.272,1.024,1.024,0,0,1,.759-.381.911.911,0,0,0,.366-.13.876.876,0,0,0,.3-.274,1.417,1.417,0,0,0,.218-.741s2.1-.617,2.679,0a1.56,1.56,0,0,1,.255.374,3.133,3.133,0,0,1,.274,1.356s.107.669.281,1.434S796.529,639.819,796.529,639.819Z" transform="translate(-697.059 -565.079)" fill="#2d293d"/>
    <path id="Path_977" data-name="Path 977" d="M864.969,632.9l-1.917-.686a.832.832,0,0,1-.093-1.271,1.012,1.012,0,0,1,.757-.381.71.71,0,0,0,.219-.059,1.455,1.455,0,0,0,.148-.073,1.214,1.214,0,0,0,.522-1.018s2.1-.617,2.679,0a1.514,1.514,0,0,1,.2.274,3.047,3.047,0,0,1,.32,1.456s.107.67.274,1.434S864.969,632.9,864.969,632.9Z" transform="translate(-756.126 -559.107)" fill="#2d293d"/>
    <path id="Path_978" data-name="Path 978" d="M809.455,636.322a1.556,1.556,0,0,1,.255.374h0l-3.15.366a1.416,1.416,0,0,0,.218-.742S808.88,635.705,809.455,636.322Z" transform="translate(-707.669 -565.068)" opacity="0.1"/>
    <path id="Path_979" data-name="Path 979" d="M875.25,629.708v.591c-.49.807-2.861.63-3.55.226a1.467,1.467,0,0,0,.148-.073,1.214,1.214,0,0,0,.522-1.018s2.1-.617,2.679,0A1.519,1.519,0,0,1,875.25,629.708Z" transform="translate(-763.888 -559.124)" opacity="0.1"/>
    <path id="Path_980" data-name="Path 980" d="M799.461,417.289a5.386,5.386,0,0,0-.374.8v2.118c-.537.884-3.321.589-3.7.107s-.77-1.738-.346-1.956.777-1.287.777-1.287-.456.107-1.179-.751-.508-2.761-.374-3.216a9.5,9.5,0,0,0,0-1.983,3.987,3.987,0,0,0-.186-1.422,17.723,17.723,0,0,1-.67-2.33,1.579,1.579,0,0,0-.375-1.018,4.591,4.591,0,0,1-.616-1.716,1.761,1.761,0,0,1-.267-1.153,2.342,2.342,0,0,0-.456-1.394l-.911-2.9-.857-2.171-.482,1.26s-.137,2.948-.026,3.564.274,2.252.274,2.252a3.308,3.308,0,0,0-.294,1.984,13.553,13.553,0,0,1,.153,2.87,29.283,29.283,0,0,1,.026,4.369,2.618,2.618,0,0,0-.188,1.127s1.1,2.358.75,2.68-.241,1.206-.241,1.206.749,0,.429.322a6.466,6.466,0,0,0-.563,2.011l-3.239.38a6.748,6.748,0,0,1-.724-1.371c-.429-1,.079-.884.511-.992s.159-.374-.35-.7-.214-1.046-.214-1.046.776-1.313.508-1.42-.294-1.957-.294-1.957a11.92,11.92,0,0,1-.4-2.788,5.337,5.337,0,0,0-.429-2.01l-.188-1.689a4.65,4.65,0,0,1-.589-3.191v-2.6s-.75-5.039-.857-7.586c-.068-1.631-.049-3.857-.027-5.246.014-.779.027-1.3.027-1.3l11.569-1.206a9.683,9.683,0,0,0,.209,1.72c.119.636.3,1.46.594,2.489a11.321,11.321,0,0,1,.322,5.146l-.108,3.727s1.017,2.492.8,3.35a7.163,7.163,0,0,0-.216,1.557s2.276,5.442,2.035,7.024a10.237,10.237,0,0,0,.749,4.075A6.168,6.168,0,0,1,799.461,417.289Z" transform="translate(-687.726 -349.252)" fill="#464353"/>
    <path id="Path_981" data-name="Path 981" d="M852.05,509.74l3.522-.47S853.577,511.308,852.05,509.74Z" transform="translate(-746.929 -455.668)" opacity="0.05"/>
    <path id="Path_982" data-name="Path 982" d="M870,484.14s.121,1.247-.642,1.716C869.36,485.856,870.725,485.642,870,484.14Z" transform="translate(-761.869 -433.983)" opacity="0.1"/>
    <path id="Path_983" data-name="Path 983" d="M846.232,455.2s-2.944,2.426-4.015,2.225S846.232,455.2,846.232,455.2Z" transform="translate(-738.314 -409.01)" opacity="0.1"/>
    <path id="Path_984" data-name="Path 984" d="M805.645,521s-2.236.509-2.3,1.408S805.645,521,805.645,521Z" transform="translate(-704.89 -465.79)" opacity="0.1"/>
    <path id="Path_985" data-name="Path 985" d="M808.492,602.56s-3.16.589-2.262.991a15.313,15.313,0,0,0,2.371.724S809.62,604.328,808.492,602.56Z" transform="translate(-707.246 -536.171)" opacity="0.05"/>
    <g id="Group_91" data-name="Group 91" transform="translate(95.726 37.82)" opacity="0.05">
      <path id="Path_986" data-name="Path 986" d="M800.018,611.568a.624.624,0,0,1-.289-.458l-.033.056s-.294.724.215,1.044c.057.037.114.074.164.11.094-.018.2-.031.293-.056C800.8,612.157,800.528,611.89,800.018,611.568Z" transform="translate(-797.398 -581.369)"/>
      <path id="Path_987" data-name="Path 987" d="M831.368,609.428c.088-.08.085-.285.031-.548a1.543,1.543,0,0,0-.179.776A.67.67,0,0,1,831.368,609.428Z" transform="translate(-824.678 -579.444)"/>
      <path id="Path_988" data-name="Path 988" d="M827.4,515.59a3.66,3.66,0,0,0-.214.986,3.994,3.994,0,0,1,.245-.677Z" transform="translate(-821.2 -498.942)"/>
      <path id="Path_989" data-name="Path 989" d="M881.219,503.483a1.259,1.259,0,0,0,.029-.293c-.04.2-.067.385-.088.548C881.178,503.655,881.2,503.575,881.219,503.483Z" transform="translate(-867.779 -488.242)"/>
      <path id="Path_990" data-name="Path 990" d="M827.725,581.366a1.723,1.723,0,0,0,.079-.6,2.027,2.027,0,0,0-.155.753A.721.721,0,0,1,827.725,581.366Z" transform="translate(-821.597 -555.188)"/>
      <path id="Path_991" data-name="Path 991" d="M803.992,622a10.636,10.636,0,0,0-.368,1.645l-3.239.374a6.748,6.748,0,0,1-.724-1.371,2.505,2.505,0,0,1-.092-.236c-.194.089-.274.291-.016.879a6.853,6.853,0,0,0,.726,1.371l3.239-.376a6.455,6.455,0,0,1,.561-2.011C804.242,622.121,804.141,622.04,803.992,622Z" transform="translate(-797.206 -590.766)"/>
      <path id="Path_992" data-name="Path 992" d="M785.962,420.56s.026,1.849.294,1.956h0c.137-.306.226-.6.105-.644-.274-.107-.294-1.957-.294-1.957a11.922,11.922,0,0,1-.4-2.788,5.338,5.338,0,0,0-.429-2.009l-.187-1.689a4.65,4.65,0,0,1-.589-3.191v-2.6s-.75-5.039-.857-7.586c-.068-1.631-.049-3.857-.027-5.246,0-.251.008-.473.012-.661l-.092.01s-.015.515-.027,1.3c-.022,1.389-.043,3.615.027,5.245.107,2.547.856,7.587.856,7.587v2.6a4.654,4.654,0,0,0,.59,3.19l.186,1.689a5.367,5.367,0,0,1,.428,2.011A11.943,11.943,0,0,0,785.962,420.56Z" transform="translate(-783.448 -394.14)"/>
      <path id="Path_993" data-name="Path 993" d="M867.386,623.443a3.136,3.136,0,0,1-.514-1.273c-.33.3.049,1.458.411,1.919.374.482,3.159.777,3.7-.108v-.51C870.251,624.188,867.74,623.9,867.386,623.443Z" transform="translate(-855.339 -590.913)"/>
      <path id="Path_994" data-name="Path 994" d="M898.775,609.248a5.411,5.411,0,0,0-.375.8v.38a5.6,5.6,0,0,1,.274-.537,1.648,1.648,0,0,0,.118-.665S898.779,609.242,898.775,609.248Z" transform="translate(-882.657 -579.747)"/>
      <path id="Path_995" data-name="Path 995" d="M862.952,587.511a5.34,5.34,0,0,0,.264-.637s-.456.107-1.179-.751a3.812,3.812,0,0,1-.481-2.573c-.137.456-.349,2.359.374,3.217A1.906,1.906,0,0,0,862.952,587.511Z" transform="translate(-850.74 -557.587)"/>
      <path id="Path_996" data-name="Path 996" d="M832.61,476.255a14.26,14.26,0,0,1,.053,1.589,2.152,2.152,0,0,1,.055-.248,9.316,9.316,0,0,0,0-1.983,3.968,3.968,0,0,0-.188-1.422,17.325,17.325,0,0,1-.663-2.333,1.578,1.578,0,0,0-.375-1.018,4.591,4.591,0,0,1-.616-1.716,1.765,1.765,0,0,1-.274-1.153,2.335,2.335,0,0,0-.455-1.394l-.911-2.895-.857-2.171-.483,1.261s0,.159-.016.411l.392-1.024.857,2.167.911,2.895a2.336,2.336,0,0,1,.455,1.394,1.765,1.765,0,0,0,.274,1.153,4.574,4.574,0,0,0,.616,1.716,1.57,1.57,0,0,1,.374,1.018,17.649,17.649,0,0,0,.67,2.33A3.966,3.966,0,0,1,832.61,476.255Z" transform="translate(-821.795 -452.275)"/>
    </g>
    <path id="Path_997" data-name="Path 997" d="M862.253,193.384l-.2.979.012.436.008.321-1.118.115L860.83,195h0a10.384,10.384,0,0,0-.867-1.4c-.207-.173-.575-2.895-.137-2.733a1.169,1.169,0,0,1,.622.563S862.649,191.682,862.253,193.384Z" transform="translate(-753.463 -180.904)" fill="#ffcdd3"/>
    <path id="Path_998" data-name="Path 998" d="M869.692,219.1l-1.118.115-.125-.232h0a.984.984,0,0,1,1.233-.2Z" transform="translate(-761.083 -204.88)" opacity="0.1"/>
    <path id="Path_999" data-name="Path 999" d="M869.568,220.266l-1.474.341-.031-.219-.084-.591a1.014,1.014,0,0,1,1.427-.195l.074.3Z" transform="translate(-760.678 -205.52)" fill="#eb2424"/>
    <path id="Path_1000" data-name="Path 1000" d="M682.9,180.441l-1.573.844-.137-.3c-.149-.314-.372-.787-.434-.96-.093-.26-.749-.589-.749-.589-1.643-1.575.315-2.929.315-2.929,1.038-2.09,2.191.71,2.191.71a7.106,7.106,0,0,1,.048,1.575c-.114.1-.114.5-.114.5a6.2,6.2,0,0,1,.379.9C682.879,180.349,682.9,180.441,682.9,180.441Z" transform="translate(-597.884 -167.853)" fill="#ffcdd3"/>
    <path id="Path_1001" data-name="Path 1001" d="M694.5,208.493l-1.574.844-.137-.3c.222-.186,1.009-.822,1.268-.8a1.894,1.894,0,0,0,.372.01C694.474,208.4,694.5,208.493,694.5,208.493Z" transform="translate(-609.48 -195.906)" opacity="0.1"/>
    <path id="Path_1002" data-name="Path 1002" d="M694.928,209.649l-1.768.872-.036-.38-.025-.263s1.024-.879,1.327-.844a1.608,1.608,0,0,0,.461,0l.021.318Z" transform="translate(-609.747 -196.586)" fill="#eb2424"/>
    <path id="Path_1003" data-name="Path 1003" d="M806.926,219.067s-7.707.87-6.267.4a1.928,1.928,0,0,0,1.485-1.672,4.02,4.02,0,0,0-.286-1.782,7.775,7.775,0,0,0-.685-1.394s5.889-3.243,4.712-.295a4.757,4.757,0,0,0-.334,1.4,3.949,3.949,0,0,0,.152,1.415A4.212,4.212,0,0,0,806.926,219.067Z" transform="translate(-702.422 -200.085)" fill="#ffcdd3"/>
    <path id="Path_1004" data-name="Path 1004" d="M810.248,214.3a4.759,4.759,0,0,0-.334,1.4,2.707,2.707,0,0,1-1.945.436,3.476,3.476,0,0,1-1.745-.144,7.775,7.775,0,0,0-.685-1.394S811.427,211.347,810.248,214.3Z" transform="translate(-706.789 -200.059)" opacity="0.1"/>
    <ellipse id="Ellipse_161" data-name="Ellipse 161" cx="3.187" cy="3.19" rx="3.187" ry="3.19" transform="translate(97.89 9.895)" fill="#ffcdd3"/>
    <path id="Path_1005" data-name="Path 1005" d="M806.926,242.439s-7.707.87-6.267.4a1.928,1.928,0,0,0,1.485-1.672,4.3,4.3,0,0,1,1.643-.876,2.3,2.3,0,0,1,1.4-.023,1.986,1.986,0,0,1,.508.236A4.213,4.213,0,0,0,806.926,242.439Z" transform="translate(-702.422 -223.457)" opacity="0.1"/>
    <path id="Path_1006" data-name="Path 1006" d="M870.095,223.2l-1.474.341-.031-.219a1.3,1.3,0,0,1,1.417-.485Z" transform="translate(-761.204 -208.451)" opacity="0.1"/>
    <path id="Path_1007" data-name="Path 1007" d="M695.084,211.649l-1.768.872-.036-.38a12.9,12.9,0,0,1,1.78-.791Z" transform="translate(-609.903 -198.586)" opacity="0.1"/>
    <path id="Path_1008" data-name="Path 1008" d="M795.406,387.69c-2.987.477-7.232,1.086-7.906.88a19.73,19.73,0,0,0-3.9-.1c.014-.779.027-1.3.027-1.3L795.2,385.97A9.683,9.683,0,0,0,795.406,387.69Z" transform="translate(-687.854 -349.27)" opacity="0.1"/>
    <path id="Path_1009" data-name="Path 1009" d="M717.511,236.969s-9.829,1.689-10.883,1.371-6.471.026-6.471.026c-2.438,1.635-1.42-.777-1.42-.777a6,6,0,0,1,.081-2.278,13.935,13.935,0,0,0,.4-2.281,5.315,5.315,0,0,1,.241-1.985,15.306,15.306,0,0,0,.644-3.055s.267-1.823.241-2.225.079-1.528.079-1.528l.349-1.877c-2.009-.267-8.116-4.02-8.116-4.02-.294-1.26-2.57-4.208-2.57-4.208a3.106,3.106,0,0,0-.188-.724c-.16-.429,2.25-1.287,2.25-1.287s1.794,2.193,2.169,2.788a11.946,11.946,0,0,0,1.66,1.689,1.29,1.29,0,0,1,.589.077l.031.01h0a4.772,4.772,0,0,1,1.2.685,2.327,2.327,0,0,1,1.634.617s1.1-.162,1.286.026,1.124,0,1.124,0,.937-1.983,1.553-1.408,3.231.548,3.231.548a3.781,3.781,0,0,1,1.726-.96,2.314,2.314,0,0,1,1.4-.023,1.771,1.771,0,0,1,.548.274l1.59,1.554s.455-.591.4-.724.536-.241.536-.241.776-.241,1.071-.322.564.239.589.267a3.206,3.206,0,0,1-.137-1.179,1.394,1.394,0,0,0-.322-.96c.937-2.306,3.053-.376,3.053-.376a4.426,4.426,0,0,1,.027,1.742c-.214.482.214,1.5.16,1.77s.108.724.108,1.234a7.544,7.544,0,0,1-.429,1.9c-.155.429-1.446,1.394-1.446,1.394a6.056,6.056,0,0,1-.644,2.413c-.563.884-.209,3.908-.209,3.908a10.107,10.107,0,0,0,1.205,3.11C716.521,232.688,717.511,236.969,717.511,236.969Z" transform="translate(-606.981 -199.25)" fill="#3f3d56"/>
    <path id="Path_1010" data-name="Path 1010" d="M778.489,254.408s-.294-.884-.563-.96a6.2,6.2,0,0,1-.777-.348l.173-.33s1.005.274,1.167.572A2.276,2.276,0,0,1,778.489,254.408Z" transform="translate(-682.287 -234.328)" opacity="0.1"/>
    <path id="Path_1011" data-name="Path 1011" d="M732.258,246.04c-.053.274-2.438.509-2.438.509l1.205-1.209h0l.03.011h0A4.775,4.775,0,0,1,732.258,246.04Z" transform="translate(-641.439 -227.916)" opacity="0.1"/>
    <ellipse id="Ellipse_162" data-name="Ellipse 162" cx="0.214" cy="0.214" rx="0.214" ry="0.214" transform="translate(83.709 14.231)" fill="#575988"/>
    <ellipse id="Ellipse_163" data-name="Ellipse 163" cx="0.214" cy="0.214" rx="0.214" ry="0.214" transform="translate(83.983 14.66)" fill="#575988"/>
    <ellipse id="Ellipse_164" data-name="Ellipse 164" cx="0.214" cy="0.214" rx="0.214" ry="0.214" transform="translate(84.251 15.056)" fill="#575988"/>
    <ellipse id="Ellipse_165" data-name="Ellipse 165" cx="0.214" cy="0.214" rx="0.214" ry="0.214" transform="translate(84.532 15.484)" fill="#575988"/>
    <ellipse id="Ellipse_166" data-name="Ellipse 166" cx="0.174" cy="0.174" rx="0.174" ry="0.174" transform="translate(109.817 15.5)" fill="#575988"/>
    <ellipse id="Ellipse_167" data-name="Ellipse 167" cx="0.174" cy="0.174" rx="0.174" ry="0.174" transform="translate(109.844 15.897)" fill="#575988"/>
    <ellipse id="Ellipse_168" data-name="Ellipse 168" cx="0.174" cy="0.174" rx="0.174" ry="0.174" transform="translate(109.867 16.291)" fill="#575988"/>
    <path id="Path_1012" data-name="Path 1012" d="M787,317.719c-.026-.031,6.012,7.6,10.7,3.19C797.7,320.91,790.3,321.915,787,317.719Z" transform="translate(-690.787 -290.374)" opacity="0.1"/>
    <path id="Path_1013" data-name="Path 1013" d="M761.7,346.66s3.613.1,3.991,1.139v1.083a.692.692,0,0,1-.672,0c-.364-.2-2.549-1.308-3.318-.773Z" transform="translate(-668.953 -315.348)" opacity="0.1"/>
    <path id="Path_1014" data-name="Path 1014" d="M762.19,346.66s3.455.095,3.817,1.087v1.031a.662.662,0,0,1-.644,0c-.348-.186-2.436-1.246-3.173-.736Z" transform="translate(-669.376 -315.348)" fill="#3f3d56"/>
    <path id="Path_1015" data-name="Path 1015" d="M776.1,289.38a11.64,11.64,0,0,0,1.4,2.406,9.434,9.434,0,0,0,2.191,2.121S776.16,289.876,776.1,289.38Z" transform="translate(-681.381 -265.92)" opacity="0.1"/>
    <path id="Path_1016" data-name="Path 1016" d="M767.47,258.73s.6,2.6,2.156,3.489Z" transform="translate(-673.932 -239.471)" opacity="0.1"/>
    <path id="Path_1017" data-name="Path 1017" d="M760.381,260.645c-.015-.048-.536,2.056,2,3.225C762.383,263.87,761.305,263.5,760.381,260.645Z" transform="translate(-667.768 -241.123)" opacity="0.1"/>
    <path id="Path_1018" data-name="Path 1018" d="M875.9,247.9a18.053,18.053,0,0,1,1.6,1.206S876.667,247.844,875.9,247.9Z" transform="translate(-767.516 -230.123)" opacity="0.1"/>
    <path id="Path_1019" data-name="Path 1019" d="M799.527,189.457a.5.5,0,0,0,.548.5,6.367,6.367,0,0,0,2.876-.274,1.1,1.1,0,0,0,.438-.291,1.8,1.8,0,0,0,.255-.706,10.289,10.289,0,0,1,.588-1.354,4.54,4.54,0,0,0,.316-2.433,1.646,1.646,0,0,0-.244-.711c-.258-.369-.727-.518-1.068-.811s-.56-.742-.959-.96a1.839,1.839,0,0,0-1.2-.107,6.309,6.309,0,0,0-2.243.843,1.144,1.144,0,0,1-.75.255,1,1,0,0,1-.548-.424,2.971,2.971,0,0,0-.229,1.391.6.6,0,0,1-.007.21.63.63,0,0,1-.149.221.812.812,0,0,0-.152,1c.1.122.262.189.362.314.179.223.119.548.115.833a.429.429,0,0,0,.071.282.41.41,0,0,0,.393.095,1.068,1.068,0,0,1,.419-.04.7.7,0,0,1,.364.274A5.155,5.155,0,0,1,799.527,189.457Z" transform="translate(-699.312 -173.481)" fill="#2d293d"/>
    <g id="Group_92" data-name="Group 92" transform="translate(97.565 9.472)" opacity="0.1">
      <path id="Path_1020" data-name="Path 1020" d="M803.5,205.925a1.1,1.1,0,0,1-.438.291,6.457,6.457,0,0,1-2.876.274.5.5,0,0,1-.549-.5,5,5,0,0,0-.812-1.886.7.7,0,0,0-.364-.281,1.123,1.123,0,0,0-.419.04.411.411,0,0,1-.393-.093.429.429,0,0,1-.071-.282c0-.288.064-.61-.115-.833-.1-.125-.259-.192-.362-.315a.626.626,0,0,1-.062-.639.731.731,0,0,0-.045.854c.1.122.261.189.361.314.18.225.119.548.115.833a.427.427,0,0,0,.07.282.411.411,0,0,0,.394.095,1.068,1.068,0,0,1,.419-.04.7.7,0,0,1,.364.274,5.009,5.009,0,0,1,.812,1.888.686.686,0,0,0,.237.435.663.663,0,0,0,.3.066,6.348,6.348,0,0,0,2.876-.274,1.085,1.085,0,0,0,.438-.291.841.841,0,0,0,.137-.258A.068.068,0,0,1,803.5,205.925Z" transform="translate(-796.877 -199.73)"/>
      <path id="Path_1021" data-name="Path 1021" d="M799.943,188.876a.469.469,0,0,0,.1-.162.6.6,0,0,0,0-.21,2.976,2.976,0,0,1,.149-1.154l-.018-.021a2.95,2.95,0,0,0-.229,1.39A.983.983,0,0,1,799.943,188.876Z" transform="translate(-799.516 -187.33)"/>
    </g>
    <path id="Path_1022" data-name="Path 1022" d="M812.08,248.44s3.981.529,4.339-.07" transform="translate(-712.433 -230.531)" opacity="0.1"/>
    <path id="Path_1023" data-name="Path 1023" d="M868.59,236.85s2.213,0,2.7.833" transform="translate(-761.204 -220.59)" opacity="0.1"/>
    <path id="Path_1024" data-name="Path 1024" d="M940.556,764.927a3.508,3.508,0,0,1-2.39.894c-.225,0-.535.043-.537.267a.376.376,0,0,0,.066.184,2.2,2.2,0,0,0,1.232.969,4.348,4.348,0,0,0,1.491.095l1.459-.075c.274-.015.548-.029.822-.063s.572-.09.859-.137a11.217,11.217,0,0,1,2.124-.1.643.643,0,0,0,.523-.137c.112-.137.055-.4.012-.6-.088-.424,0-.868-.081-1.293a2.269,2.269,0,0,0-1.489-1.587,3.129,3.129,0,0,0-2.443-.119A16.1,16.1,0,0,0,940.556,764.927Z" transform="translate(-820.789 -674.626)" fill="#3f3d56"/>
    <path id="Path_1025" data-name="Path 1025" d="M951.124,575.581c.129.613.722,1.082.738,1.707a2.668,2.668,0,0,1-.6,1.352,9.007,9.007,0,0,0-.612,1.387,21.21,21.21,0,0,1-1.8,3.578,2.863,2.863,0,0,0-.648,1.771,2.653,2.653,0,0,0,.311.847l1.027,2.042a5.918,5.918,0,0,1,.524,1.29c.089.388.1.789.149,1.184.162,1.253.749,2.514.4,3.728-.03.1-.137.23-.221.158a3.909,3.909,0,0,1,.586,1.993,2.78,2.78,0,0,0,.01,1.121,1.231,1.231,0,0,1,.16.441,2.835,2.835,0,0,1-.059.3.668.668,0,0,0,.512.622c.275.092.575.085.853.169a5.235,5.235,0,0,1,1.369.94,2.914,2.914,0,0,0,1.578.514.4.4,0,0,0,.233-.047.377.377,0,0,0,.129-.282,1.569,1.569,0,0,0-.564-1.363.616.616,0,0,1-.21-.219.528.528,0,0,1-.019-.245,18.491,18.491,0,0,0-.06-3.372,5.123,5.123,0,0,1-.053-1.073,4.392,4.392,0,0,0,.086-.892,4.754,4.754,0,0,0-.274-.855,6.162,6.162,0,0,1-.137-1.591,13.971,13.971,0,0,0-.451-2.741,2.072,2.072,0,0,0-.426-.99c-.214-.223-.559-.437-.478-.735a.873.873,0,0,1,.2-.292,1.173,1.173,0,0,0,.244-.894.4.4,0,0,0,.461-.217,7.225,7.225,0,0,0,3.613-4.112,1.358,1.358,0,0,1,.162-.367,1.653,1.653,0,0,1,.662-.429,5.026,5.026,0,0,0,1.738-1.774,3.137,3.137,0,0,0,.763-2.214l.042-1.611a.869.869,0,0,0-.03-.315.786.786,0,0,0-.174-.255,3.092,3.092,0,0,0-1.706-.921c-.438-.078-.886-.063-1.33-.1a16.529,16.529,0,0,0-2.569-.274,4.112,4.112,0,0,0-3.192,2.236C951.839,575.205,951.6,575.573,951.124,575.581Z" transform="translate(-829.908 -510.263)" fill="#464353"/>
    <path id="Path_1026" data-name="Path 1026" d="M905.368,495.948a1.8,1.8,0,0,1-.1.733.512.512,0,0,1-.6.308c.07-.158-.115-.337-.287-.318A.538.538,0,0,0,904,497a1.213,1.213,0,0,0-.109.744,3.027,3.027,0,0,1,.189.935c-.038.263-.231.525-.129.769a1.245,1.245,0,0,0,.248.3.84.84,0,0,1-.089,1.151l2.591.052a1.833,1.833,0,0,0,.322,1.261,7.943,7.943,0,0,0,5.922,3.87.515.515,0,0,0-.125.788.731.731,0,0,0,.833.048,5.909,5.909,0,0,0,.712-.535,2.19,2.19,0,0,1,1.464-.395c.325.031.64.137.966.153.958.051,1.78-.64,2.7-.922a6.237,6.237,0,0,0,2-.628.8.8,0,0,0,.373-.772,1.291,1.291,0,0,0-.274-.454,7.833,7.833,0,0,1-.749-1.4,8.407,8.407,0,0,0-1.872-2.511,16.739,16.739,0,0,0-1.857-1.409,3.159,3.159,0,0,0-.5-.3,5.626,5.626,0,0,1-.685-.274,3.651,3.651,0,0,1-.714-.8,10.692,10.692,0,0,0-1.935-1.347,4.586,4.586,0,0,0-1.307-.886c-.246-.075-.508-.081-.755-.155-.56-.17-.968-.668-1.517-.869a6.081,6.081,0,0,0-1.369-.174,3.2,3.2,0,0,1-1.431-.546,1.7,1.7,0,0,0-.456-.266c-.694-.211-.75,1.083-.822,1.531A14.777,14.777,0,0,0,905.368,495.948Z" transform="translate(-791.656 -441.103)" fill="#eb2424"/>
    <path id="Path_1027" data-name="Path 1027" d="M859.235,536.7c.116,1.264-.837,2.488-.559,3.726.059.263.173.514.214.781a3,3,0,0,1-.74,2.042l-3.588,5.271a3.313,3.313,0,0,1-.512.633c-.685.61-1.715.548-2.616.729a4.518,4.518,0,0,0-1.753.776.114.114,0,0,0-.022.158,1.506,1.506,0,0,0,1.3.613c.094.123,0,.307-.13.4-.192.137-.457.169-.5.5a.548.548,0,0,0,.066.329,1.023,1.023,0,0,0,.627.436,3.722,3.722,0,0,0,3.514-1.2c.93-.909,1.6-2.056,2.509-2.98.505-.513,1.079-.95,1.6-1.446a18.314,18.314,0,0,0,2.624-3.4,3.763,3.763,0,0,0,.568-1.157c.1-.421.052-.847.163-1.254a4.608,4.608,0,0,1,.86-1.406,4.654,4.654,0,0,0,.978-3.032,2.906,2.906,0,0,0-1.772-2.515,1.59,1.59,0,0,0-.993-.06,2.352,2.352,0,0,0-1.011.806l-.685.787a1.833,1.833,0,0,0-.385.6.632.632,0,0,0,.137.672" transform="translate(-744.847 -477.516)" fill="#fbbebe"/>
    <path id="Path_1028" data-name="Path 1028" d="M918.379,511.891a1.962,1.962,0,0,0-1.323.411,1.887,1.887,0,0,0-.334.524,5.217,5.217,0,0,0-.661,2.083,9.545,9.545,0,0,0,.24,1.741,6.667,6.667,0,0,1-.149,1.463,10.13,10.13,0,0,0,1.887-.726,6.316,6.316,0,0,1,1.105-.574,3.322,3.322,0,0,1,2.042.4c.029-.376-.253-1.031-.223-1.408a1.575,1.575,0,0,1,.084-.466,2.821,2.821,0,0,1,.283-.451,1.846,1.846,0,0,0-.166-2.162,3.006,3.006,0,0,0-1.928-.822,8.329,8.329,0,0,0-1.346-.047" transform="translate(-802.172 -457.89)" fill="#eb2424"/>
  </g>
</svg>
