<svg xmlns="http://www.w3.org/2000/svg" width="125.728" height="118.395" viewBox="0 0 125.728 118.395">
  <g id="feautes-small-4" transform="translate(0)">
    <path id="Path_1029" data-name="Path 1029" d="M516.326,380.018v32.7l5.47,8.915.416.678H543.8l.436-42.3Z" transform="translate(-425.047 -312.831)" fill="#e6e6e6"/>
    <path id="Path_1030" data-name="Path 1030" d="M516.326,380.018v32.7l5.47,8.915.336-41.62Z" transform="translate(-425.047 -312.831)" opacity="0.1"/>
    <path id="Path_1031" data-name="Path 1031" d="M91.611,375.084v32.7L86.14,416.7l-.416.678H64.139l-.436-42.3Z" transform="translate(-52.441 -308.77)" fill="#e6e6e6"/>
    <path id="Path_1032" data-name="Path 1032" d="M194.529,375.084v32.7l-5.47,8.915-.336-41.62Z" transform="translate(-155.36 -308.77)" opacity="0.1"/>
    <path id="Path_1033" data-name="Path 1033" d="M164.97,340.926v1.962H47.67v-2.834l10.9-5.669h96.806Z" transform="translate(-39.243 -275.266)" fill="#e6e6e6"/>
    <path id="Path_1034" data-name="Path 1034" d="M164.97,367.323v1.962H47.67v-2.834Z" transform="translate(-39.243 -301.663)" opacity="0.1"/>
    <path id="Path_1035" data-name="Path 1035" d="M108.115,419.776h-5.233l-2.18-1.526h9.811Z" transform="translate(-82.899 -344.304)" fill="#3f3d56"/>
    <path id="Path_1036" data-name="Path 1036" d="M108.115,455.542h-5.233l-2.18-1.526h9.811Z" transform="translate(-82.899 -373.748)" fill="#3f3d56"/>
    <path id="Path_1037" data-name="Path 1037" d="M108.115,506.107h-5.233l-2.18-1.526h9.811Z" transform="translate(-82.899 -415.373)" fill="#3f3d56"/>
    <path id="Path_1038" data-name="Path 1038" d="M108.115,556.673h-5.233l-2.18-1.526h9.811Z" transform="translate(-82.899 -457)" fill="#3f3d56"/>
    <path id="Path_1039" data-name="Path 1039" d="M584.089,424.709h5.233l2.18-1.526h-9.811Z" transform="translate(-478.856 -348.365)" fill="#3f3d56"/>
    <path id="Path_1040" data-name="Path 1040" d="M584.089,460.475h5.233l2.18-1.526h-9.811Z" transform="translate(-478.856 -377.808)" fill="#3f3d56"/>
    <path id="Path_1041" data-name="Path 1041" d="M584.089,511.041h5.233l2.18-1.526h-9.811Z" transform="translate(-478.856 -419.435)" fill="#3f3d56"/>
    <path id="Path_1042" data-name="Path 1042" d="M584.089,561.606h5.233l2.18-1.526h-9.811Z" transform="translate(-478.856 -461.061)" fill="#3f3d56"/>
    <path id="Path_1043" data-name="Path 1043" d="M646.929,235.615H602.876a1.666,1.666,0,0,0-1.666,1.666v29.675a1.666,1.666,0,0,0,1.666,1.666H619.6l-.626,4s-3.58,1.9-1.063,1.958,14.378,0,14.378,0,2.294,0-1.343-2.014l-.589-3.944h16.574a1.666,1.666,0,0,0,1.666-1.666V237.281a1.666,1.666,0,0,0-1.666-1.666Z" transform="translate(-538.132 -214.315)" fill="#3f3d56"/>
    <rect id="Rectangle_133" data-name="Rectangle 133" width="44.196" height="24.727" transform="translate(64.672 23.062)" fill="#f2f2f2"/>
    <ellipse id="Ellipse_169" data-name="Ellipse 169" cx="0.28" cy="0.28" rx="0.28" ry="0.28" transform="translate(86.49 21.999)" fill="#f2f2f2"/>
    <ellipse id="Ellipse_170" data-name="Ellipse 170" cx="1.063" cy="1.063" rx="1.063" ry="1.063" transform="translate(85.707 50.978)" fill="#f2f2f2"/>
    <path id="Path_1044" data-name="Path 1044" d="M341.3,348.574v.56H311.2v-.448l.041-.112.742-2.014h28.7Z" transform="translate(-256.186 -285.288)" fill="#3f3d56"/>
    <path id="Path_1045" data-name="Path 1045" d="M752.029,461.043c-.055.234-.262.482-.729.716-1.678.839-5.091-.224-5.091-.224s-2.629-.448-2.629-1.622a2.1,2.1,0,0,1,.23-.137c.706-.373,3.045-1.294,7.194.039a1.73,1.73,0,0,1,.789.517A.825.825,0,0,1,752.029,461.043Z" transform="translate(-655.333 -398.305)" fill="#3f3d56"/>
    <path id="Path_1046" data-name="Path 1046" d="M753.1,461.043a5.7,5.7,0,0,1-5.764-.459,4.126,4.126,0,0,0-2.455-.808c.706-.373,3.045-1.294,7.193.039a1.73,1.73,0,0,1,.789.517A.825.825,0,0,1,753.1,461.043Z" transform="translate(-656.406 -398.305)" opacity="0.1"/>
    <ellipse id="Ellipse_171" data-name="Ellipse 171" cx="0.727" cy="0.224" rx="0.727" ry="0.224" transform="translate(93.393 61.831)" fill="#f2f2f2"/>
    <path id="Path_1047" data-name="Path 1047" d="M341.3,357.952v.56H311.2v-.448l.041-.112Z" transform="translate(-256.186 -294.666)" opacity="0.1"/>
    <path id="Path_1048" data-name="Path 1048" d="M312.868,115.135a1.512,1.512,0,0,0-.877.2,2.288,2.288,0,0,0-.593.783A9.367,9.367,0,0,1,308.846,119c-.758.555-1.722,1.248-1.592,2.272a3.072,3.072,0,0,0,.37.959c.7,1.412,2.608,2.5,2.42,4.114.695-1.163-.235-1.739.46-2.9.331-.554.906-1.179,1.406-.832.167.117.277.325.451.428.416.244.858-.222,1.226-.553,1.269-1.139,3.073-.841,4.652-.486a2.909,2.909,0,0,1,2,1.1c.579.937-.55,1.948-.836,3.007a.577.577,0,0,0,.619.718c.474-.047,1.035-.085,1.063-.293.6.021,1.326-.046,1.582-.667a2.609,2.609,0,0,0,.122-.759,15.611,15.611,0,0,1,.829-2.986,4.034,4.034,0,0,0-.074-3.035,3.513,3.513,0,0,0-.648-.788C320.094,115.579,316.4,115.131,312.868,115.135Z" transform="translate(-296.133 -115.13)" fill="#2f2e41"/>
    <path id="Path_1049" data-name="Path 1049" d="M315.942,185.55s.611,5.088-1.628,5.495,2.035,7.326,2.035,7.326l10.175,1.221-2.442-8.14s-1.628-.611-.611-4.681S315.942,185.55,315.942,185.55Z" transform="translate(-301.422 -172.302)" fill="#ffb8b8"/>
    <path id="Path_1050" data-name="Path 1050" d="M47.028,569.318l.814,11.193h4.273l-1.221-11.193Z" transform="translate(-38.714 -468.666)" fill="#ffb8b8"/>
    <path id="Path_1051" data-name="Path 1051" d="M224.3,447.705l.61,9.361,4.681-2.035-1.832-7.733Z" transform="translate(-184.65 -368.217)" fill="#ffb8b8"/>
    <path id="Path_1052" data-name="Path 1052" d="M274.167,402.217s.2,11.8,1.425,15.67,1.018,4.07.814,4.681-.407.2-.407,1.221-.407,17.094,0,18.519-1.221,3.867,0,4.07,6.919,0,7.123-1.221-1.628-1.628-.814-2.442,2.035-17.5,2.035-17.5l2.849-11.6,5.291-6.105h11.193l3.46,13.431s-1.425,3.867-.407,3.867,7.123,1.221,7.123-3.256-2.035-17.7-2.442-18.112.2-1.832-.407-2.442-7.733-4.884-10.379-5.7-6.357-1.783-6.357-1.783Z" transform="translate(-268.906 -344.301)" fill="#2f2e41"/>
    <path id="Path_1053" data-name="Path 1053" d="M473.395,596.233a3.66,3.66,0,0,0-4.477,2.035c-1.425,3.053-.814,3.867-.814,3.867s4.681,1.628,5.495.814a4.963,4.963,0,0,1,2.636-.5,1.613,1.613,0,0,0,.567-3.115q-.075-.026-.151-.045C475.023,598.878,473.395,596.233,473.395,596.233Z" transform="translate(-428.45 -511.047)" fill="#2f2e41"/>
    <ellipse id="Ellipse_172" data-name="Ellipse 172" cx="6.105" cy="6.105" rx="6.105" ry="6.105" transform="translate(12.994 4.395)" fill="#ffb8b8"/>
    <path id="Path_1054" data-name="Path 1054" d="M283.859,227.313s9.972,2.035,12.414-1.221,3.46,9.158,3.46,9.158l1.221,13.024-1.832,7.123s-9.565,7.733-12.617,8.344-7.733,1.018-7.733,1.018,1.425-22.589,1.425-23S283.859,227.313,283.859,227.313Z" transform="translate(-272.696 -206.028)" fill="#eb2424"/>
    <path id="Path_1055" data-name="Path 1055" d="M266.629,211.244s-2.219-1.271-2.829-.05-6.309,4.274-6.919,4.274,1.221,16.891.407,18.926-4.681,16.891-2.442,18.112.61-1.221,2.849,1.832,13.228,3.053,13.838,1.832-4.884-10.379-3.867-18.926,2.646-20.35,1.221-21.979A14.158,14.158,0,0,1,266.629,211.244Z" transform="translate(-252.433 -193.775)" fill="#2f2e41"/>
    <path id="Path_1056" data-name="Path 1056" d="M366.258,217.178l.283-.975s8.467,2.807,8.874,4.639.2,14.652-1.221,15.67-3.46,2.646-2.035,5.088,3.053,5.088,4.274,5.291,3.46,1.628,2.849,3.053-7.937-1.221-7.937-1.221-4.884-3.663-4.681-9.361S366.258,217.178,366.258,217.178Z" transform="translate(-344.716 -198.334)" fill="#2f2e41"/>
    <path id="Path_1057" data-name="Path 1057" d="M363.741,357.554l-4.884,9.158s-7.123,7.326-3.053,8.14,6.309-6.716,6.309-6.716l5.291-7.53Z" transform="translate(-335.077 -314.697)" fill="#ffb8b8"/>
    <path id="Path_1058" data-name="Path 1058" d="M319.422,124.177a1.386,1.386,0,0,0-.714.139,1.664,1.664,0,0,0-.483.553,7.031,7.031,0,0,1-2.077,2.037c-.617.393-1.4.882-1.3,1.606a2.008,2.008,0,0,0,.3.678,5.332,5.332,0,0,1,.648,3.324l1.7-2.467c.269-.392.737-.834,1.144-.588.136.082.226.23.367.3.338.172.7-.157,1-.391,1.033-.805,2.5-.594,3.787-.343a2.481,2.481,0,0,1,1.632.777c.6.837-.026,2.046.322,3.012a.888.888,0,0,0,.367-.586c.485.015,1.08-.033,1.288-.471a1.624,1.624,0,0,0,.1-.536,9.921,9.921,0,0,1,.675-2.11,2.506,2.506,0,0,0-.06-2.145,2.6,2.6,0,0,0-.528-.557C325.3,124.491,322.3,124.174,319.422,124.177Z" transform="translate(-302.39 -122.575)" fill="#2f2e41"/>
    <path id="Path_1059" data-name="Path 1059" d="M398.967,237.836l1.9.5s4.413,11.3,3.4,19.033-1.628,6.105-1.628,6.105-1.628-3.663-5.291-2.849Z" transform="translate(-370.303 -216.143)" fill="#2f2e41"/>
    <path id="Path_1060" data-name="Path 1060" d="M277.462,736.653c-.491.667-.392,1.62-.827,2.325-.377.611-1.087.931-1.558,1.472a3.947,3.947,0,0,0-.4.576,2.458,2.458,0,0,0-.362,2.407,2.584,2.584,0,0,0,1.742.982,6.394,6.394,0,0,0,2.575.207,2.564,2.564,0,0,0,1.992-1.487,5.746,5.746,0,0,1,.213-.6c.463-.911,1.914-.921,2.388-1.826a2.378,2.378,0,0,0-.278-2.046l-.93-1.976c-.309-.656-1.56-.279-2.212-.436C278.954,736.044,278.074,735.818,277.462,736.653Z" transform="translate(-268.867 -626.287)" fill="#2f2e41"/>
    <path id="Path_1061" data-name="Path 1061" d="M254.6,373.944l8.547,13.228s5.291,6.716,6.919,3.663-5.7-8.14-5.7-8.14l-5.495-10.175Z" transform="translate(-252.796 -327.016)" fill="#ffb8b8"/>
    <path id="Path_1062" data-name="Path 1062" d="M250.482,238.243l-1.628-.407a6.663,6.663,0,0,0-4.07,5.291c-.814,4.274-.2,21.368.814,21.571s5.026-2.977,5.667-2.3-1.393-2.785-.783-4.617S250.482,238.243,250.482,238.243Z" transform="translate(-244.407 -216.143)" fill="#2f2e41"/>
    <g id="Group_13" data-name="Group 13" transform="translate(70.704 31.183)">
      <rect id="Rectangle_55" data-name="Rectangle 55" width="5.26" height="1.266" transform="translate(6.623)" fill="#eb2424"/>
      <rect id="Rectangle_56" data-name="Rectangle 56" width="1.851" height="1.266" transform="translate(28.247)" fill="#eb2424"/>
      <rect id="Rectangle_57" data-name="Rectangle 57" width="1.851" height="1.266" transform="translate(31.948)" fill="#eb2424"/>
      <rect id="Rectangle_58" data-name="Rectangle 58" width="12.565" height="1.266" transform="translate(13.734)" fill="#eb2424"/>
      <rect id="Rectangle_59" data-name="Rectangle 59" width="5.26" height="1.266" transform="translate(0 8.182)" fill="#eb2424"/>
      <rect id="Rectangle_60" data-name="Rectangle 60" width="1.851" height="1.266" transform="translate(21.624 8.182)" fill="#eb2424"/>
      <rect id="Rectangle_61" data-name="Rectangle 61" width="1.851" height="1.266" transform="translate(25.325 8.182)" fill="#eb2424"/>
      <rect id="Rectangle_62" data-name="Rectangle 62" width="12.565" height="1.266" transform="translate(7.11 8.182)" fill="#eb2424"/>
      <rect id="Rectangle_63" data-name="Rectangle 63" width="5.26" height="1.266" transform="translate(21.721 2.825)" fill="#eb2424"/>
      <rect id="Rectangle_64" data-name="Rectangle 64" width="5.26" height="1.266" transform="translate(28.831 2.825)" fill="#eb2424"/>
      <rect id="Rectangle_66" data-name="Rectangle 66" width="1.851" height="1.266" transform="translate(0 2.825)" fill="#eb2424"/>
      <rect id="Rectangle_67" data-name="Rectangle 67" width="1.851" height="1.266" transform="translate(3.701 2.825)" fill="#eb2424"/>
      <rect id="Rectangle_68" data-name="Rectangle 68" width="12.565" height="1.266" transform="translate(7.403 2.825)" fill="#eb2424"/>
      <rect id="Rectangle_69" data-name="Rectangle 69" width="5.26" height="1.266" transform="translate(10.812 5.552)" fill="#eb2424"/>
      <rect id="Rectangle_70" data-name="Rectangle 70" width="5.26" height="1.266" transform="translate(3.701 5.552)" fill="#eb2424"/>
      <rect id="Rectangle_71" data-name="Rectangle 71" width="1.851" height="1.266" transform="translate(0 5.552)" fill="#eb2424"/>
      <rect id="Rectangle_73" data-name="Rectangle 73" width="1.851" height="1.266" transform="translate(32.241 5.552)" fill="#eb2424"/>
      <rect id="Rectangle_74" data-name="Rectangle 74" width="12.565" height="1.266" transform="translate(17.825 5.552)" fill="#eb2424"/>
    </g>
  </g>
</svg>
