<svg id="feautes-small-10" xmlns="http://www.w3.org/2000/svg" width="145.331" height="76.084" viewBox="0 0 145.331 76.084">
  <path id="Path_1320" data-name="Path 1320" d="M56.1,389.12l-3.332-.28,1.111,6.3,3.777-1.959Z" transform="translate(-45.687 -323.079)" fill="#ffb9b9"/>
  <path id="Path_1321" data-name="Path 1321" d="M169.732,274.258l-7.775-9.514-4.443,4.337-8.775,13.292,1,1.959,10.663-9.095,7.22,11.893,6.887-4.337Z" transform="translate(-128.769 -219.97)" fill="#2f2e41"/>
  <path id="Path_1322" data-name="Path 1322" d="M169.732,274.258l-7.775-9.514-4.443,4.337-8.775,13.292,1,1.959,10.663-9.095,7.22,11.893,6.887-4.337Z" transform="translate(-128.769 -219.97)" opacity="0.1"/>
  <path id="Path_1323" data-name="Path 1323" d="M273.586,552.338l-1,.979-8.109-3.5-1.888-.979-3.777.979s0-3.918,3.554-3.778l3.666,1.119,4.332.42Z" transform="translate(-231.956 -491.754)" fill="#ffb9b9"/>
  <path id="Path_1324" data-name="Path 1324" d="M112.442,345.213,110,347.172H107.11l-13.44-6.3-19.66,4.477-.555-5.317L91.448,330.1l15.773,6.576Z" transform="translate(-63.592 -274.275)" fill="#2f2e41"/>
  <path id="Path_1325" data-name="Path 1325" d="M288.573,430.823l-1.666.42-.363-.534a3.424,3.424,0,0,1-.3-3.1h0l4.665-7.7s1.333-3.778,3.443-2.239-1.777,4.058-1.777,4.058l-2.333,4.617.222,2.378Z" transform="translate(-255.496 -384.79)" fill="#ffb9b9"/>
  <ellipse id="Ellipse_266" data-name="Ellipse 266" cx="4.332" cy="5.457" rx="4.332" ry="5.457" transform="translate(39.297 26.025)" fill="#ffb9b9"/>
  <path id="Path_1326" data-name="Path 1326" d="M369.258,427.87l2,6.016,4.776-2.519s-1.555-4.757-1.555-4.9S369.258,427.87,369.258,427.87Z" transform="translate(-327.573 -392.4)" fill="#ffb9b9"/>
  <path id="Path_1327" data-name="Path 1327" d="M323.322,464.815a38.87,38.87,0,0,1-1.221,9.7l-.324,1.257-1.555,8.955-1.666.56-1.222-1.959-2.444-2.238-1.777-3.638-1.524-3.2-.475-1-1.666-10.494-6.331-4.477-2.11-.42.444-1.539,1.888-3.218,1.888-.28.555-.56.444.28L308,451.284l.555.28,3.248.381,1.973-.521,2.837-1.918,1.162.239,4,4.2A38.667,38.667,0,0,1,323.322,464.815Z" transform="translate(-268.484 -411.548)" fill="#575a89"/>
  <path id="Path_1328" data-name="Path 1328" d="M66.889,588.4s.995-2.124.575-2.372-2.2-1.236-2.2-1.236L62.642,583.7s-3.776-7.069-3.859-.922,2.75,7.625,2.75,7.625,2.526,6.848,3.957,5.756,2.863-4.8,2.863-4.8S65.772,589.612,66.889,588.4Z" transform="translate(-58.781 -520.192)" fill="#2f2e41"/>
  <path id="Path_1329" data-name="Path 1329" d="M319.911,274.77l-4.221,3.5-6.3,7.155-.475-1-1.333-8.395h.333l3.443-7.975Z" transform="translate(-266.285 -222.721)" opacity="0.1"/>
  <path id="Path_1330" data-name="Path 1330" d="M289.156,263.09l-3.443,7.975h-1.222l-.777,2.8-1.777.56L286.712,281l6.776-7.7,4.221-3.5Z" transform="translate(-244.083 -218.596)" fill="#575a89"/>
  <path id="Path_1331" data-name="Path 1331" d="M348.941,366.19l-.469.227a.864.864,0,0,1-.277-.536,1,1,0,0,1,.11-.624l-.867-.051a6.352,6.352,0,0,1,4.711-3.27,5.818,5.818,0,0,1,5.066,2.277c.039-.171.47.162.646.5.059-.279.463,1.069.605,2.021.066-.317.32.195.1.686.141-.026.2.429.1.682.154-.091.128.451-.039.814.22-.025-1.737,3.8-2.529,6.037a8.763,8.763,0,0,0-1.231-3.726c-.126-.169-.264-.322-.4-.475l-.746-.829c-.867-.964-1.656-2.154-2.811-2.514-.794-.248-1.3-.3-.863-1.43-.391.205-.756.511-1.15.7C348.893,366.524,348.948,366.348,348.941,366.19Z" transform="translate(-308.681 -338.765)" fill="#2f2e41"/>
  <ellipse id="Ellipse_267" data-name="Ellipse 267" cx="0.778" cy="0.979" rx="0.778" ry="0.979" transform="translate(45.018 31.132)" fill="#ffb9b9"/>
  <rect id="Rectangle_330" data-name="Rectangle 330" width="3.759" height="4.735" transform="translate(23.958 10.098)" fill="#eb2424"/>
  <path id="Path_1332" data-name="Path 1332" d="M252.785,268.52H248.22v-5.75h4.565Zm-4.366-.25h4.168v-5.25h-4.168Z" transform="translate(-222.785 -256.392)" fill="#3f3d56"/>
  <path id="Path_1340" data-name="Path 1340" d="M0,0,4.662.258l.258,3.833L.258,3.833Z" transform="translate(9.888 24.734) rotate(74.063)" fill="#eb2424"/>
  <path id="Path_1333" data-name="Path 1333" d="M125.161,382.955l-1.253-5.529,4.389-1.579,1.253,5.529Zm-1.008-5.357,1.144,5.048L129.3,381.2l-1.144-5.048Z" transform="translate(-115.163 -350.346)" fill="#3f3d56"/>
  <path id="Path_1341" data-name="Path 1341" d="M.254.252l4.28-.487L4.048,3.98l-4.28.487Z" transform="matrix(-0.683, 0.731, -0.731, -0.683, 12.91, 4.607)" fill="#eb2424"/>
  <path id="Path_1334" data-name="Path 1334" d="M112.781,256.424l3.117-4.2,3.335,3.926-3.117,4.2Zm3.126-3.848-2.846,3.836L116.107,260l2.846-3.836Z" transform="translate(-105.531 -247.629)" fill="#3f3d56"/>
  <path id="Path_1335" data-name="Path 1335" d="M516.239,225.967H481.308v-.907H465.469v.907H430.394c-1.3,0-2.363,1.333-2.363,2.976v60.25c0,1.644,1.058,2.976,2.363,2.976h85.845c1.3,0,2.363-1.333,2.363-2.976v-60.25c0-1.644-1.058-2.976-2.363-2.976Z" transform="translate(-378.455 -225.06)" fill="#3f3d56"/>
  <rect id="Rectangle_333" data-name="Rectangle 333" width="84.235" height="59.854" transform="translate(52.744 6.167)" fill="#eb2424"/>
  <ellipse id="Ellipse_268" data-name="Ellipse 268" cx="0.864" cy="1.088" rx="0.864" ry="1.088" transform="translate(93.926 2.358)" fill="#eb2424"/>
  <path id="Path_1336" data-name="Path 1336" d="M452.99,96.318H392.845V36.464Z" transform="translate(-340.101 -30.297)" opacity="0.1"/>
  <ellipse id="Ellipse_269" data-name="Ellipse 269" cx="8.097" cy="10.199" rx="8.097" ry="10.199" transform="translate(57.828 41.144)" fill="#f2f2f2"/>
  <path id="Path_1337" data-name="Path 1337" d="M498.274,449.314c-5.562,0-10.072-5.68-10.072-12.687s4.509-12.687,10.072-12.687,10.072,5.68,10.072,12.687S503.834,449.306,498.274,449.314Zm0-25.208c-5.49,0-9.94,5.606-9.94,12.521s4.45,12.521,9.94,12.521,9.94-5.606,9.94-12.521S503.761,424.114,498.274,424.106Z" transform="translate(-430.547 -390.305)" fill="#3f3d56"/>
  <rect id="Rectangle_334" data-name="Rectangle 334" width="7.868" height="2.071" transform="translate(114.444 38.447)" fill="#3f3d56"/>
  <rect id="Rectangle_335" data-name="Rectangle 335" width="26.894" height="0.888" transform="translate(104.932 22.322)" fill="#3f3d56"/>
  <rect id="Rectangle_336" data-name="Rectangle 336" width="26.894" height="0.888" transform="translate(104.932 25.133)" fill="#3f3d56"/>
  <rect id="Rectangle_337" data-name="Rectangle 337" width="26.894" height="0.888" transform="translate(104.932 27.943)" fill="#3f3d56"/>
  <rect id="Rectangle_338" data-name="Rectangle 338" width="26.894" height="0.888" transform="translate(104.932 30.754)" fill="#3f3d56"/>
  <rect id="Rectangle_339" data-name="Rectangle 339" width="26.894" height="0.888" transform="translate(104.932 33.565)" fill="#3f3d56"/>
  <rect id="Rectangle_340" data-name="Rectangle 340" width="3.288" height="4.142" transform="translate(128.537 7.381)" fill="#f2f2f2"/>
  <path id="Path_1338" data-name="Path 1338" d="M1026.253,279.856h-3.993v-5.03h3.993Zm-3.819-.219h3.646v-4.592h-3.646Z" transform="translate(-892.901 -266.41)" fill="#3f3d56"/>
  <path id="Path_1339" data-name="Path 1339" d="M497.755,604.609h-8.221v-.746a.136.136,0,0,0-.117-.148H486.6a.136.136,0,0,0-.117.148v.746h-1.763v-.746a.135.135,0,0,0-.117-.148h-2.819a.135.135,0,0,0-.117.148v.746H479.9v-.746a.136.136,0,0,0-.117-.148h-2.819a.135.135,0,0,0-.117.148v.746h-1.762v-.746a.136.136,0,0,0-.117-.148h-2.819a.136.136,0,0,0-.117.148v.746h-1.762v-.746a.136.136,0,0,0-.117-.148h-2.819a.135.135,0,0,0-.117.148v.746h-1.762v-.746a.135.135,0,0,0-.117-.148h-2.819a.135.135,0,0,0-.117.148v.746h-1.762v-.746a.135.135,0,0,0-.117-.148H438.448a.135.135,0,0,0-.117.148v.746h-1.762v-.746a.135.135,0,0,0-.117-.148h-2.819a.135.135,0,0,0-.117.148v.746h-1.762v-.746a.135.135,0,0,0-.117-.148h-2.819a.135.135,0,0,0-.117.148v.746h-1.762v-.746a.135.135,0,0,0-.117-.148H424a.135.135,0,0,0-.117.148v.746h-1.762v-.746a.135.135,0,0,0-.117-.148h-2.819a.135.135,0,0,0-.117.148v.746h-1.762v-.746a.135.135,0,0,0-.117-.148h-2.819a.135.135,0,0,0-.117.148v.746h-1.762v-.746a.135.135,0,0,0-.117-.148h-2.819a.135.135,0,0,0-.117.148v.746h-5.4c-1.557,0-2.819,1.59-2.819,3.55v1.605c0,1.961,1.262,3.55,2.819,3.55h93.718c1.557,0,2.819-1.589,2.819-3.55v-1.605C500.574,606.2,499.312,604.609,497.755,604.609Z" transform="translate(-355.242 -539.676)" fill="#3f3d56"/>
</svg>
