<svg xmlns="http://www.w3.org/2000/svg" xmlns:xlink="http://www.w3.org/1999/xlink" width="150.925" height="96.776" viewBox="0 0 150.925 96.776">
  <defs>
    <linearGradient id="linear-gradient" x1="0.5" y1="1" x2="0.5" gradientUnits="objectBoundingBox">
      <stop offset="0" stop-color="gray" stop-opacity="0.251"/>
      <stop offset="0.54" stop-color="gray" stop-opacity="0.122"/>
      <stop offset="1" stop-color="gray" stop-opacity="0.102"/>
    </linearGradient>
  </defs>
  <g id="feautes-small-9" transform="translate(0)">
    <ellipse id="Ellipse_259" data-name="Ellipse 259" cx="26.252" cy="5.879" rx="26.252" ry="5.879" transform="translate(89.068 85.018)" fill="#eb2424" opacity="0.1"/>
    <g id="Group_97" data-name="Group 97" transform="translate(85.463 3.663)" opacity="0.1">
      <path id="Path_1270" data-name="Path 1270" d="M673.12,122.89c0,21.343,13.39,38.614,29.944,38.614" transform="translate(-673.12 -122.89)" fill="#eb2424"/>
    </g>
    <path id="Path_1271" data-name="Path 1271" d="M133.856,154.215c-9.674.074-18.968-2.112-27.856-4.549s-17.7-5.177-27.18-6.3c-6.1-.721-13.044-.607-17.839,2.188-4.615,2.688-5.981,7.095-6.655,11.161-.507,3.06-.755,6.27,1.031,9.054,1.233,1.932,3.364,3.518,4.868,5.358,5.231,6.4,1.987,14.644-3.2,21.263-2.432,3.105-5.278,6.084-7.124,9.363s-2.622,6.987-.792,10.2c1.816,3.183,5.953,5.469,10.4,7.035,9.042,3.158,19.581,3.787,29.842,3.987,22.716.444,45.491-.907,68.2-2.256a248.353,248.353,0,0,0,25.087-2.345c4.575-.745,9.287-1.838,12.543-4.185,4.136-2.981,5.015-7.809,2.051-11.257-4.973-5.782-18.185-6.793-21.74-13.062-1.957-3.451-.215-7.434,2.324-10.791,5.461-7.2,14.815-13.673,15.04-21.688.15-5.5-4.649-10.84-11.852-13.185-7.554-2.461-17.883-1.749-23.223,2.955C152.29,152.01,142.4,154.151,133.856,154.215Z" transform="translate(-48.065 -136.437)" fill="#eb2424" opacity="0.1"/>
    <path id="Path_1272" data-name="Path 1272" d="M330.376,100.365v70.881c0,2.108-2.035,3.828-4.545,3.828H229.654c-2.51,0-4.543-1.715-4.543-3.828V100.365a4.577,4.577,0,0,1,4.543-4.265l96.165.234A4.4,4.4,0,0,1,330.376,100.365Z" transform="translate(-200.903 -96.1)" fill="#fff"/>
    <path id="Path_1273" data-name="Path 1273" d="M330.376,100.386v3.281H225.11v-3.281A4.286,4.286,0,0,1,229.4,96.1h96.688A4.288,4.288,0,0,1,330.376,100.386Z" transform="translate(-200.903 -96.1)" fill="#3f3d56"/>
    <ellipse id="Ellipse_260" data-name="Ellipse 260" cx="1.515" cy="1.515" rx="1.515" ry="1.515" transform="translate(27.791 2.268)" fill="#fa5959" opacity="0.8"/>
    <ellipse id="Ellipse_261" data-name="Ellipse 261" cx="1.515" cy="1.515" rx="1.515" ry="1.515" transform="translate(32.197 2.268)" fill="#fed253" opacity="0.8"/>
    <ellipse id="Ellipse_262" data-name="Ellipse 262" cx="1.515" cy="1.515" rx="1.515" ry="1.515" transform="translate(36.604 2.268)" fill="#8ccf4d" opacity="0.8"/>
    <rect id="Rectangle_309" data-name="Rectangle 309" width="9.572" height="4.542" rx="2.271" transform="translate(62.49 23.34)" fill="#eb2424" opacity="0.2"/>
    <rect id="Rectangle_310" data-name="Rectangle 310" width="9.572" height="4.542" rx="2.271" transform="translate(81.883 23.34)" fill="#eb2424" opacity="0.2"/>
    <path id="Path_1274" data-name="Path 1274" d="M491.81,202.8l9.582,12.512,9.87-12.571" transform="translate(-424.561 -175.02)" fill="none" stroke="#3f3d56" stroke-miterlimit="10" stroke-width="1"/>
    <rect id="Rectangle_311" data-name="Rectangle 311" width="14.634" height="6.944" rx="3.472" transform="translate(69.513 39.891)" opacity="0.1"/>
    <rect id="Rectangle_312" data-name="Rectangle 312" width="14.039" height="6.663" rx="3.331" transform="translate(69.812 40.033)" fill="#eb2424"/>
    <line id="Line_4" data-name="Line 4" x1="0.124" y1="4.423" transform="translate(67.19 18.916)" fill="none" stroke="#3f3d56" stroke-miterlimit="10" stroke-width="1"/>
    <path id="Path_1275" data-name="Path 1275" d="M602.351,139.93l-5.625,4.207-5.916-4.207" transform="translate(-510.025 -120.798)" fill="none" stroke="#3f3d56" stroke-miterlimit="10" stroke-width="1"/>
    <rect id="Rectangle_313" data-name="Rectangle 313" width="9.572" height="4.542" rx="2.271" transform="translate(62.436 14.589)" fill="#eb2424" opacity="0.2"/>
    <rect id="Rectangle_314" data-name="Rectangle 314" width="9.572" height="4.542" rx="2.271" transform="translate(87.54 14.589)" fill="#eb2424" opacity="0.2"/>
    <rect id="Rectangle_315" data-name="Rectangle 315" width="9.572" height="4.542" rx="2.271" transform="translate(76 14.589)" fill="#eb2424" opacity="0.2"/>
    <line id="Line_5" data-name="Line 5" x1="0.037" y2="12.1" transform="translate(76.794 46.694)" fill="none" stroke="#3f3d56" stroke-miterlimit="10" stroke-width="1"/>
    <path id="Path_1276" data-name="Path 1276" d="M609.53,558.59Z" transform="translate(-532.762 -495.354)" fill="none" stroke="#3f3d56" stroke-miterlimit="10" stroke-width="1"/>
    <path id="Path_1277" data-name="Path 1277" d="M462.42,466.668l13.536-4.188,13.591,4.158" transform="translate(-399.189 -399.246)" fill="none" stroke="#3f3d56" stroke-miterlimit="10" stroke-width="1"/>
    <rect id="Rectangle_316" data-name="Rectangle 316" width="9.572" height="4.542" rx="2.271" transform="translate(72.009 58.795)" fill="#eb2424" opacity="0.2"/>
    <rect id="Rectangle_317" data-name="Rectangle 317" width="9.572" height="4.542" rx="2.271" transform="translate(118.328 31.534) rotate(90)" fill="#eb2424" opacity="0.2"/>
    <rect id="Rectangle_318" data-name="Rectangle 318" width="9.572" height="4.542" rx="2.271" transform="translate(113.786 56.096) rotate(-90)" fill="#eb2424" opacity="0.2"/>
    <rect id="Rectangle_319" data-name="Rectangle 319" width="9.572" height="4.542" rx="2.271" transform="translate(85.572 67.361)" fill="#eb2424" opacity="0.2"/>
    <rect id="Rectangle_320" data-name="Rectangle 320" width="9.572" height="4.542" rx="2.271" transform="translate(68.018 71.904) rotate(180)" fill="#eb2424" opacity="0.2"/>
    <rect id="Rectangle_321" data-name="Rectangle 321" width="9.572" height="4.542" rx="2.271" transform="translate(81.819 71.904) rotate(180)" fill="#eb2424" opacity="0.2"/>
    <line id="Line_6" data-name="Line 6" x2="4.26" y2="7.45" transform="translate(109.524 43.815)" fill="none" stroke="#3f3d56" stroke-miterlimit="10" stroke-width="1"/>
    <line id="Line_7" data-name="Line 7" x2="4.472" transform="translate(100.515 43.723)" fill="none" stroke="#3f3d56" stroke-miterlimit="10" stroke-width="1"/>
    <line id="Line_8" data-name="Line 8" x2="12.207" y2="0.36" transform="translate(83.851 43.363)" fill="none" stroke="#3f3d56" stroke-miterlimit="10" stroke-width="1"/>
    <line id="Line_9" data-name="Line 9" x1="4.24" y2="7.463" transform="translate(109.545 36.319)" fill="none" stroke="#3f3d56" stroke-miterlimit="10" stroke-width="1"/>
    <rect id="Rectangle_322" data-name="Rectangle 322" width="9.572" height="4.542" rx="2.271" transform="translate(100.6 38.909) rotate(90)" fill="#eb2424" opacity="0.2"/>
    <rect id="Rectangle_323" data-name="Rectangle 323" width="9.572" height="4.542" rx="2.271" transform="translate(109.524 39.028) rotate(90)" fill="#eb2424" opacity="0.2"/>
    <rect id="Rectangle_324" data-name="Rectangle 324" width="9.572" height="4.542" rx="2.271" transform="translate(39.876 31.532) rotate(90)" fill="#eb2424" opacity="0.2"/>
    <rect id="Rectangle_325" data-name="Rectangle 325" width="9.572" height="4.542" rx="2.271" transform="translate(35.334 56.096) rotate(-90)" fill="#eb2424" opacity="0.2"/>
    <line id="Line_10" data-name="Line 10" x1="4.262" y2="7.45" transform="translate(39.876 43.815)" fill="none" stroke="#3f3d56" stroke-miterlimit="10" stroke-width="1"/>
    <line id="Line_11" data-name="Line 11" x1="4.471" transform="translate(48.675 43.723)" fill="none" stroke="#3f3d56" stroke-miterlimit="10" stroke-width="1"/>
    <line id="Line_12" data-name="Line 12" x1="12.207" y2="0.36" transform="translate(57.604 43.363)" fill="none" stroke="#3f3d56" stroke-miterlimit="10" stroke-width="1"/>
    <line id="Line_13" data-name="Line 13" x2="4.24" y2="7.463" transform="translate(39.876 36.319)" fill="none" stroke="#3f3d56" stroke-miterlimit="10" stroke-width="1"/>
    <rect id="Rectangle_326" data-name="Rectangle 326" width="9.572" height="4.542" rx="2.271" transform="translate(57.604 38.91) rotate(90)" fill="#eb2424" opacity="0.2"/>
    <rect id="Rectangle_327" data-name="Rectangle 327" width="9.572" height="4.542" rx="2.271" transform="translate(48.68 39.028) rotate(90)" fill="#eb2424" opacity="0.2"/>
    <path id="Path_1278" data-name="Path 1278" d="M156.12,598c0,6.869,4.31,12.429,9.635,12.429" transform="translate(-141.346 -529.376)" fill="#46455b"/>
    <path id="Path_1279" data-name="Path 1279" d="M226.59,609.538c0-6.947,4.81-12.568,10.754-12.568" transform="translate(-202.181 -528.487)" fill="#eb2424"/>
    <path id="Path_1280" data-name="Path 1280" d="M181.66,602.55c0,6.525,2.748,11.805,6.143,11.805" transform="translate(-163.394 -533.304)" fill="#eb2424"/>
    <path id="Path_1281" data-name="Path 1281" d="M226.59,587.5c0-8.876,5.559-16.059,12.429-16.059" transform="translate(-202.181 -506.447)" fill="#46455b"/>
    <ellipse id="Ellipse_263" data-name="Ellipse 263" cx="2.395" cy="0.405" rx="2.395" ry="0.405" transform="translate(21.596 82.616)" fill="#eb2424" opacity="0.1"/>
    <path id="Path_1282" data-name="Path 1282" d="M211.77,684.869a5.012,5.012,0,0,0,1.777-.335c.41-.293,2.1-.644,2.2-.174s2.051,2.339.51,2.352a13.078,13.078,0,0,1-4-.491C211.856,685.971,211.77,684.869,211.77,684.869Z" transform="translate(-189.387 -603.73)" fill="#a8a8a8"/>
    <path id="Path_1283" data-name="Path 1283" d="M216.29,691.2a13.037,13.037,0,0,1-4-.491c-.313-.19-.437-.874-.48-1.19h-.045s.086,1.1.5,1.352a13.078,13.078,0,0,0,4,.491c.446,0,.6-.163.591-.4C216.792,691.11,216.622,691.2,216.29,691.2Z" transform="translate(-189.387 -608.383)" opacity="0.2"/>
    <path id="Path_1284" data-name="Path 1284" d="M810.028,553.2l-3.783-5.486a5.189,5.189,0,0,0-.318-1.676c-.248-.319-.053-1.023-.053-1.023s.265-.388.036-.422-.036-.9-.036-.9l-.018-1.377a4.834,4.834,0,0,0,.036-1.641.523.523,0,0,1,.018-.565s.212-.759,0-.957a5.7,5.7,0,0,1-.107-2.309,3.511,3.511,0,0,0-.37-1.605c0-.141-1.4-1.518-1.4-1.641a3.507,3.507,0,0,0-1.414-.777c-.531-.142-.8-.246-.778-.317s-.831-.353-.831-.353a1.667,1.667,0,0,1-1.026-.422c-.283-.37-1.149-.478-1.172-.481a.472.472,0,0,0-.016-.074l-.016-.079c.067-.112.129-.227.185-.346l.049-.108a1.5,1.5,0,0,0,.87-.273,1.189,1.189,0,0,0,.424-.846,1.861,1.861,0,0,0-.206-.939,1.592,1.592,0,0,1-.3-.991c.034-.149.123-.273.169-.425a1.12,1.12,0,0,0-.127-.835c-.137-.256-.32-.481-.469-.73a2.835,2.835,0,0,1-.373-1.031,1.623,1.623,0,0,0-.137-.562,1.041,1.041,0,0,0-.311-.313,3.1,3.1,0,0,0-1.9-.576,9.245,9.245,0,0,1-1.438.088,5.335,5.335,0,0,1-.841-.22,2.172,2.172,0,0,0-1.792.092c-.516.339-.722,1.006-1.072,1.529a12.143,12.143,0,0,0-1,1.339.045.045,0,0,1,.007-.029,1.688,1.688,0,0,0-.137.357,2.535,2.535,0,0,0,.078,1.169.825.825,0,0,0,.286.522,1.622,1.622,0,0,0,.618.122c-.008.034-.016.067-.023.1a4.034,4.034,0,0,0,2.8,4.71V533a2.686,2.686,0,0,1-.019.3h0a6.176,6.176,0,0,0-2.255-.119c-.477.246-1.415.442-1.556.582s-.495.036-.813.864-.353,1.676-.76,2.063-.618.654-.636.935.052.353-.107.442-.388.458-.318.6a.5.5,0,0,1-.194.529.589.589,0,0,0-.247.529s-.107.388-.354.476-.41.671-.41.671l-.8.922-1.59-1.758a.67.67,0,0,0-.945-.048l-.767.711a1.536,1.536,0,0,0-.781.465,2.052,2.052,0,0,0-.41.6l-.427.386a.656.656,0,0,0-.22.47.663.663,0,0,0,.111.727l1.017,1.127v.01a1.778,1.778,0,0,0-.984.4c-1.52,1.34-1.538,2.575-1.308,3.145a23.07,23.07,0,0,0,2.156,2.735,8.618,8.618,0,0,0,2.735,2.23h0l-.011.012c-.033.034-.064.071-.1.111l-.026.034-.025.034-.029.042-.022.034-.031.051a.317.317,0,0,1-.019.034c-.012.022-.025.045-.036.068l-.012.023c-.015.03-.029.063-.044.1a.157.157,0,0,0-.014.035c0,.011-.019.047-.027.071l-.016.045c-.008.022-.015.045-.023.068s-.01.033-.015.05l-.021.077-.012.048c-.011.041-.019.083-.029.127l-.008.051a.762.762,0,0,1-.015.09c0,.031-.007.042-.01.064a.365.365,0,0,1-.011.087c-.011.03,0,.045-.007.067a.5.5,0,0,0,0,.1v.062a1.49,1.49,0,0,1-.007.171,9.79,9.79,0,0,0,.085,2.363,1.145,1.145,0,0,0,.939.7,1.225,1.225,0,0,0,.3-.016,17.515,17.515,0,0,1,3.837-.387,6.56,6.56,0,0,0,1.9-.155l.16-.031.109.351.35-.1.3.171.187.108c.349,1.183,1.765.779,1.765.779l.336.194,3.418.088a6.91,6.91,0,0,0,1.209.581,1.2,1.2,0,0,0,.171.037,7.822,7.822,0,0,0,.95.018c.263,0,.465-.018.465-.018s-.036-.926-.085-1.963a28.3,28.3,0,0,0,3.16-.258,3.9,3.9,0,0,0,2.852-2.869,8.263,8.263,0,0,1,.178,1.094,8.006,8.006,0,0,0,.283.957,3.233,3.233,0,0,0,.39.706c1.344-.458.531-1.146.248-1.445s.194-.547.194-.547.372-.247.336-.477-.053-.476,1.149-.458S810.028,553.2,810.028,553.2Zm-18.669-11.262a8.149,8.149,0,0,0,.335,1.473,1.965,1.965,0,0,1,.04.581c-.712-.056-1.455-.087-1.455-.087a.169.169,0,0,1,.038.092l-.112-.026c-.052-.012-.107-.025-.163-.04l1.313-1.995Zm-2.6,4.136,1.231.2.1.016a4.128,4.128,0,0,0-.064.582c0,.018.027.04.067.066a1.584,1.584,0,0,0-.023.291,3.374,3.374,0,0,0,1.258.484c-.01.036-.019.068-.027.1h0c-.584-.308-1.5-.451-1.611-.684a23.145,23.145,0,0,0-3.228-1.317s-.115-.062-.312-.156l.82.156.227-.023a12.276,12.276,0,0,0,1.556.287Z" transform="translate(-679.281 -464.488)" fill="url(#linear-gradient)"/>
    <path id="Path_1285" data-name="Path 1285" d="M834.257,708.666s-.491,2.96-2.979,3.4-10.793.35-10.793.35-4.749-.684-6.466-4.7-2.821-5.606-1.349-5.678,9.41,2.681,9.865,2.717S834.695,698.66,834.257,708.666Z" transform="translate(-707.534 -619.19)" fill="#65617d"/>
    <path id="Path_1286" data-name="Path 1286" d="M834.257,708.666s-.491,2.96-2.979,3.4-10.793.35-10.793.35-4.749-.684-6.466-4.7-2.821-5.606-1.349-5.678,9.41,2.681,9.865,2.717S834.695,698.66,834.257,708.666Z" transform="translate(-707.534 -619.19)" opacity="0.05"/>
    <path id="Path_1287" data-name="Path 1287" d="M811.435,746.275a1.138,1.138,0,0,0,.93.7,1.2,1.2,0,0,0,.3-.016,17.3,17.3,0,0,1,3.8-.385,6.542,6.542,0,0,0,1.89-.153c.4-.075.684-.145.684-.145s-.7-2.324-.789-2.4-3.153-1.914-3.153-1.914l-2.432-.169h0a1.284,1.284,0,0,0-.82.484,2.6,2.6,0,0,0-.491,1.654A9.389,9.389,0,0,0,811.435,746.275Z" transform="translate(-706.983 -653.506)" fill="#3f3d56"/>
    <path id="Path_1288" data-name="Path 1288" d="M811.432,746.309a1.138,1.138,0,0,0,.93.7,10.112,10.112,0,0,1-.659-.957l.012-1.7a2.993,2.993,0,0,1,.957-2.523h-.01s-1.278.088-1.314,2.138A9.655,9.655,0,0,0,811.432,746.309Z" transform="translate(-706.98 -653.54)" opacity="0.05"/>
    <path id="Path_1289" data-name="Path 1289" d="M880.091,713.847l2.26-1.769,3.555-3.5s-.384-.019-.964-.044c-.137.092-.547.38-.563.732-.016.429-.957.03-1.452.273s-2.885,3.32-3.306,3.3-.753-.213-.928.085l-.012.019Z" transform="translate(-765.111 -624.793)" opacity="0.1"/>
    <path id="Path_1290" data-name="Path 1290" d="M815,742.273c.081.038.163.076.245.112a15.488,15.488,0,0,1,4,2.558,16.626,16.626,0,0,0,2.275,1.477c.4-.075.684-.145.684-.145s-.7-2.324-.789-2.4-3.153-1.914-3.153-1.914l-2.437-.169h0A1.283,1.283,0,0,0,815,742.273Z" transform="translate(-710.138 -653.506)" opacity="0.1"/>
    <path id="Path_1291" data-name="Path 1291" d="M779.425,686.214a23.438,23.438,0,0,0,2.138,2.716,8.372,8.372,0,0,0,2.926,2.313,15.514,15.514,0,0,1,4,2.558,18.339,18.339,0,0,0,2.434,1.571l.216.126.479.273.253.146s.587-.472,1.172-.946,1.15-.938,1.159-.957c.016-.052.245-.648.191-.684-.027-.018-.148-.261-.368-.547a2.494,2.494,0,0,0-.893-.738,2.533,2.533,0,0,1-1.157-1.206s-.077-.055-.193-.129a2.337,2.337,0,0,0-.789-.351c-.385-.048-1.1-.837-1.1-.837a2.165,2.165,0,0,1-.684-.718,24.344,24.344,0,0,0-3.153-2.424l6.588,4.232,1.577,1.013,2.261-1.769,3.555-3.5s-.479-.023-1.173-.053c-1.73-.075-4.8-.193-5.187-.105a2.935,2.935,0,0,1-.957.063,3.383,3.383,0,0,1-1.453-.265c-.578-.3-1.49-.448-1.6-.674A23.683,23.683,0,0,0,786.457,684s-4.222-2.242-5.73-.911S779.2,685.654,779.425,686.214Z" transform="translate(-679.336 -602.469)" fill="#65617d"/>
    <path id="Path_1292" data-name="Path 1292" d="M879.67,581.766l.547,1.8.7,4.066,2.575.175.746-1.231.744-1.231s.464-1.641.8-3.232c.294-1.406.487-2.77.167-2.918-.284-.137-.472-.606-.593-1.114-.015-.063-.03-.127-.042-.19a10.087,10.087,0,0,1-.171-1.307s-5.4-.28-4.649,1.946a3.529,3.529,0,0,1,.2,1.183,2.985,2.985,0,0,1-.019.3A2.522,2.522,0,0,1,879.67,581.766Z" transform="translate(-765.966 -510.882)" fill="#ee8e9e"/>
    <path id="Path_1293" data-name="Path 1293" d="M871.46,603.13l.194,3.065.438,2.612.491,1.209.438,6.615s4.225.488,5.253-.008a.455.455,0,0,0,.186-.146c1.24-1.873.834-7.3.834-7.3l.473-3.5-.316-1.818-.762-.082-.587-.062s-.137.163-.324.41c-.52.684-1.475,2.034-1.411,2.6.088.771-.105,1.559-.41,1.682s-.547.334-.595.123a.992.992,0,0,1-.053-.561,4.637,4.637,0,0,0-.228-1.21,5.052,5.052,0,0,1-.438-1.525,1.784,1.784,0,0,0-.193-1.1c-.141-.123-.332-.245-.175-.805s-.69-1.648-.69-1.648Z" transform="translate(-758.878 -532.544)" fill="#e3e8f4"/>
    <path id="Path_1294" data-name="Path 1294" d="M912.237,598.375l.176,5.239,1.012.561a.464.464,0,0,0,.186-.145c1.24-1.875.834-7.3.834-7.3l.473-3.5L914.6,591.4l-.762-.082c.294-1.406.487-2.77.167-2.918-.284-.137-.472-.606-.593-1.114h0L912.867,591s.045.335.062.684a1.951,1.951,0,0,1-.044.652,2.176,2.176,0,0,0-.036.876,7.043,7.043,0,0,0-.547,2.583C912.2,597.113,912.237,598.375,912.237,598.375Z" transform="translate(-794.074 -520.13)" opacity="0.1"/>
    <path id="Path_1295" data-name="Path 1295" d="M914.045,586.68s.883.109,1.164.479a1.643,1.643,0,0,0,1.016.42s.841.273.82.35.245.176.77.316a3.458,3.458,0,0,1,1.4.771c0,.123,1.391,1.489,1.391,1.63a3.484,3.484,0,0,1,.368,1.594,5.653,5.653,0,0,0,.105,2.3c.211.193,0,.946,0,.946a.517.517,0,0,0-.018.561,4.813,4.813,0,0,1-.034,1.63l.016,1.367s-.193.859.036.894-.036.421-.036.421-.193.7.053,1.016a5.135,5.135,0,0,1,.316,1.664l3.749,5.45s.053,1-1.139.982-1.174.227-1.139.455-.332.473-.332.473-.473.245-.193.547,1.086.982-.246,1.437a3.246,3.246,0,0,1-.386-.7,7.951,7.951,0,0,1-.28-.946s-.123-1.332-.368-1.5-.211-1.016-.211-1.016.351-.684-.137-.964-7.6-4.224-7.6-4.224l-.178-5.246s-.123-3.872.613-5.17a2.178,2.178,0,0,1,.035-.876,4.522,4.522,0,0,0-.018-1.332Z" transform="translate(-794.69 -519.604)" fill="#3f3d56"/>
    <path id="Path_1296" data-name="Path 1296" d="M847.016,600.778a6.079,6.079,0,0,0-2.235-.118c-.473.246-1.4.438-1.542.578s-.489.034-.805.859-.35,1.664-.753,2.051-.614.648-.632.928.053.35-.1.439-.386.455-.316.595,3.644,3.224,3.644,3.224a8.475,8.475,0,0,0,.334,1.473c.157.3-.175,4.4-.525,4.679s2.365.254,2.365.254.122-2.691.227-2.83a27.8,27.8,0,0,0-.07-3.008,17.1,17.1,0,0,1,.211-3.1,14.12,14.12,0,0,0,.2-2.8,5.8,5.8,0,0,1,.446-1.6C847.707,602.1,847.016,600.778,847.016,600.778Z" transform="translate(-732.251 -531.599)" opacity="0.1"/>
    <path id="Path_1297" data-name="Path 1297" d="M846.621,600.392a6.1,6.1,0,0,0-2.234-.118c-.473.245-1.4.436-1.537.573s-.491.036-.807.859-.35,1.665-.753,2.051-.612.648-.63.928.052.35-.105.438-.386.455-.316.6,3.648,3.229,3.648,3.229a8.339,8.339,0,0,0,.334,1.471c.159.3-.176,4.4-.526,4.679s2.365.254,2.365.254.123-2.689.228-2.83a27.781,27.781,0,0,0-.071-3.008,17.226,17.226,0,0,1,.211-3.1,14.134,14.134,0,0,0,.194-2.81,5.78,5.78,0,0,1,.446-1.594C847.312,601.708,846.621,600.392,846.621,600.392Z" transform="translate(-731.915 -531.266)" fill="#3f3d56"/>
    <path id="Path_1298" data-name="Path 1298" d="M885.234,578.464a3.531,3.531,0,0,1,.2,1.183,4.014,4.014,0,0,0,4.61-1.821,10.085,10.085,0,0,1-.171-1.307S884.481,576.238,885.234,578.464Z" transform="translate(-770.707 -510.822)" opacity="0.1"/>
    <path id="Path_1299" data-name="Path 1299" d="M866.21,545.226a4.013,4.013,0,1,0,.088-.834A4.013,4.013,0,0,0,866.21,545.226Z" transform="translate(-754.346 -480.352)" fill="#ee8e9e"/>
    <path id="Path_1300" data-name="Path 1300" d="M825.175,638.49l-.957.3a.5.5,0,0,1-.193.525.587.587,0,0,0-.245.526s-.105.386-.35.473-.4.666-.4.666l-.807.928s-.3.245-.245.368-.316.157-.316.157l.183,3.12,1.665.315,1.034-.105.841-.315.735-.439.334-.859,1.471-2.242Z" transform="translate(-715.888 -564.33)" fill="#3f3d56"/>
    <path id="Path_1301" data-name="Path 1301" d="M796.286,657.044s-2.138-3.085-3.733-1.419.648,4.363,1.174,4.276,3.031-.228,3.031-.228Z" transform="translate(-690.275 -578.696)" fill="#ee8e9e"/>
    <rect id="Rectangle_328" data-name="Rectangle 328" width="11.189" height="8.688" rx="1.54" transform="translate(101.341 72.065) rotate(27.04)" fill="#3f3d56"/>
    <rect id="Rectangle_329" data-name="Rectangle 329" width="9.404" height="7.087" transform="translate(101.786 73.171) rotate(27.04)" fill="#eb2424"/>
    <circle id="Ellipse_264" data-name="Ellipse 264" cx="0.155" cy="0.155" r="0.155" transform="translate(99.703 76.003)" fill="#e6e8ec"/>
    <ellipse id="Ellipse_265" data-name="Ellipse 265" cx="0.254" cy="0.254" rx="0.254" ry="0.254" transform="translate(108.67 80.548)" fill="#e6e8ec"/>
    <path id="Path_1302" data-name="Path 1302" d="M813.28,667c-.016,2.313,4.766,2.8,4.766,2.8l1.222.194.547.088.228-2.261s-.25-.037-.563-.109c-.464-.108-1.064-.3-1.189-.557C818.082,666.72,813.3,664.687,813.28,667Z" transform="translate(-708.653 -588.004)" fill="#ee8e9e"/>
    <path id="Path_1303" data-name="Path 1303" d="M866.85,544.455a.467.467,0,0,1,.294.137c.137.144.137.4.319.485a.353.353,0,0,0,.209.025c.466-.066.736-.592,1.183-.737a1.185,1.185,0,0,1,.784.068.572.572,0,0,1,.26.165c.15.194.045.48.115.714.1.325.484.455.82.5a1.437,1.437,0,0,1,.941.32.857.857,0,0,1,.167.684.535.535,0,0,0,0,.25c.093.264.547.224.666.016.088-.15.062-.273.265-.317a.864.864,0,0,1,.429.074,3.156,3.156,0,0,0,1.109.169,4.013,4.013,0,1,0-7.557-2.54Z" transform="translate(-754.899 -480.415)" opacity="0.1"/>
    <path id="Path_1304" data-name="Path 1304" d="M865.707,533.361a.548.548,0,0,1,0-.252.857.857,0,0,0-.167-.684,1.457,1.457,0,0,0-.941-.32c-.336-.047-.725-.172-.82-.5-.07-.234.036-.52-.115-.712a.565.565,0,0,0-.26-.167,1.184,1.184,0,0,0-.783-.068c-.447.145-.716.671-1.183.737a.352.352,0,0,1-.209-.025c-.176-.088-.183-.342-.319-.485-.213-.226-.617-.079-.878-.247a.813.813,0,0,1-.283-.518,2.527,2.527,0,0,1-.077-1.162c.152-.652.734-1.094,1.106-1.656.347-.518.547-1.175,1.062-1.519a2.117,2.117,0,0,1,1.777-.09,5.178,5.178,0,0,0,.833.217,9.109,9.109,0,0,0,1.426-.086,3.071,3.071,0,0,1,1.883.572,1.042,1.042,0,0,1,.308.312,1.569,1.569,0,0,1,.137.558,2.849,2.849,0,0,0,.37,1.026c.146.246.332.469.465.725a1.118,1.118,0,0,1,.126.83c-.045.144-.137.273-.168.423a1.58,1.58,0,0,0,.3.984,1.854,1.854,0,0,1,.205.934,1.178,1.178,0,0,1-.421.839,1.5,1.5,0,0,1-.887.273,3.146,3.146,0,0,1-1.131-.174.864.864,0,0,0-.429-.074c-.2.041-.178.167-.265.317C866.254,533.584,865.8,533.624,865.707,533.361Z" transform="translate(-748.668 -466.827)" fill="#3f3d56"/>
    <path id="Path_1305" data-name="Path 1305" d="M878.262,714.557l2.261-1.769,3.555-3.5s-.479-.023-1.173-.053a.769.769,0,0,0-.249.479c-.016.428-.957.03-1.452.273s-2.889,3.318-3.31,3.3-.753-.213-.928.085l-.012.019a.5.5,0,0,1-.273.159Z" transform="translate(-763.385 -625.398)" opacity="0.1"/>
    <path id="Path_1306" data-name="Path 1306" d="M854.93,706.791l1.136,3.626.178.569.547-.148,1.192-.328,5.311-1.459a4.6,4.6,0,0,0,1.914-.51,5.8,5.8,0,0,1,3.3-.719c.7.066,1.482-.237,2.13-1.434,0,0,1.471-4.345-2.244-5.589s-3.891.662-3.891.662l-.051.031c-.137.092-.547.38-.563.731-.016.429-.957.03-1.452.273s-2.9,3.32-3.32,3.3-.753-.213-.928.085l-.012.019c-.13.179-.521.22-.778.228h-.243l-.033.01-.273.081Z" transform="translate(-744.608 -617.755)" fill="#65617d"/>
    <path id="Path_1307" data-name="Path 1307" d="M857.08,681.364l.547.087.228-2.261s-.25-.037-.563-.109A11.637,11.637,0,0,1,857.08,681.364Z" transform="translate(-746.465 -599.37)" opacity="0.1"/>
    <path id="Path_1308" data-name="Path 1308" d="M871.931,618.19s1.63-.473,1.231,4.154a12.9,12.9,0,0,1-3.418,7.552s-3.469,1.524-5.029,1.28a27.087,27.087,0,0,0-2.7-.3,3.964,3.964,0,0,0-1.578-.421,7.346,7.346,0,0,1-2.751-.753c-.036-.175.457-2.751.246-2.944a16.647,16.647,0,0,1,2.7.273c.245.172.6.051.859,0a2.987,2.987,0,0,1,2.664-.137,1.615,1.615,0,0,0,.753-.088.755.755,0,0,1,.547-.036,1.572,1.572,0,0,0,.381-.193c.052-.07.473,0,.473,0a.186.186,0,0,0,.262-.123,1.139,1.139,0,0,1,.245-.386s.473-2.664,1.367-3.662a.573.573,0,0,0,.193-.509C868.307,621.62,869.829,617.629,871.931,618.19Z" transform="translate(-746.988 -546.759)" opacity="0.1"/>
    <path id="Path_1309" data-name="Path 1309" d="M871.587,615.59s1.63-.473,1.23,4.154A12.9,12.9,0,0,1,869.4,627.3s-3.47,1.525-5.029,1.28-2.7-.3-2.7-.3a3.967,3.967,0,0,0-1.577-.421,7.333,7.333,0,0,1-2.751-.753c-.036-.175.455-2.751.245-2.944a16.671,16.671,0,0,1,2.7.273c.246.172.6.049.859,0a2.986,2.986,0,0,1,2.664-.137,1.615,1.615,0,0,0,.753-.087.755.755,0,0,1,.547-.036,1.546,1.546,0,0,0,.38-.193c.052-.07.473,0,.473,0a.186.186,0,0,0,.263-.123,1.174,1.174,0,0,1,.246-.385s.473-2.664,1.367-3.662a.569.569,0,0,0,.193-.509C867.955,619.02,869.484,615.029,871.587,615.59Z" transform="translate(-746.686 -544.514)" fill="#3f3d56"/>
    <path id="Path_1310" data-name="Path 1310" d="M869,742.562l2.313,2.8c.01-.008.015-.014.015-.016.018-.052.245-.648.193-.684a3.247,3.247,0,0,0-1.262-1.28,2.393,2.393,0,0,1-.99-.9Z" transform="translate(-756.755 -654.101)" opacity="0.1"/>
    <path id="Path_1311" data-name="Path 1311" d="M868.914,759l.253.146s.587-.472,1.172-.946,1.15-.938,1.159-.957c.016-.052.245-.648.191-.684-.027-.018-.148-.261-.368-.547-1.57-.44-.57.649-.438.7a1.6,1.6,0,0,0-2.015,1.641A2.459,2.459,0,0,0,868.914,759Z" transform="translate(-756.638 -665.691)" opacity="0.1"/>
    <path id="Path_1312" data-name="Path 1312" d="M871.9,759.9l.334.193,3.381.088a6.838,6.838,0,0,0,1.2.576,1.047,1.047,0,0,0,.17.038,8.007,8.007,0,0,0,.942.018c.26,0,.459-.018.459-.018s-.16-4.266-.273-4.714c-.057-.215-.342-.167-.621-.06a4.112,4.112,0,0,0-.606.306,10.45,10.45,0,0,0-1.665.264c-.228.127-.875-.071-1.278,0s-1.121-.474-1.121-.474c-1.963-.648-.859.56-.719.612a1.6,1.6,0,0,0-2.014,1.641A1.351,1.351,0,0,0,871.9,759.9Z" transform="translate(-757.689 -665.709)" fill="#3f3d56"/>
    <path id="Path_1313" data-name="Path 1313" d="M919.13,758.252a5.71,5.71,0,0,0,1.135,2.56c.26,0,.459-.018.459-.018s-.16-4.266-.273-4.714c-.057-.215-.342-.167-.621-.06A4.858,4.858,0,0,0,919.13,758.252Z" transform="translate(-800.029 -665.711)" fill="#565387"/>
    <path id="Path_1314" data-name="Path 1314" d="M919.13,758.252a5.71,5.71,0,0,0,1.135,2.56c.26,0,.459-.018.459-.018s-.16-4.266-.273-4.714c-.057-.215-.342-.167-.621-.06A4.858,4.858,0,0,0,919.13,758.252Z" transform="translate(-800.029 -665.711)" opacity="0.1"/>
    <path id="Path_1315" data-name="Path 1315" d="M914.551,758.369a9.975,9.975,0,0,0,.6,2.386,1.049,1.049,0,0,0,.169.038,8.009,8.009,0,0,0,.942.018c.26,0,.459-.018.459-.018s-.16-4.266-.273-4.714c-.057-.215-.342-.167-.621-.06a4.114,4.114,0,0,0-.606.306A2.35,2.35,0,0,0,914.551,758.369Z" transform="translate(-796.029 -665.711)" opacity="0.05"/>
    <path id="Path_1316" data-name="Path 1316" d="M829.58,710.55a7.005,7.005,0,0,1,3.1,2.483Z" transform="translate(-722.725 -626.537)" opacity="0.1"/>
    <g id="Group_98" data-name="Group 98" transform="translate(110.961 61.784)" opacity="0.1">
      <path id="Path_1317" data-name="Path 1317" d="M928.978,556.77a.056.056,0,0,1-.01.038,1.47,1.47,0,0,1-.059.146A1.113,1.113,0,0,1,928.978,556.77Z" transform="translate(-919.434 -555.567)"/>
      <path id="Path_1318" data-name="Path 1318" d="M859.647,548.324a1.652,1.652,0,0,1,.137-.354c-.01.03-.018.06-.026.092a2.52,2.52,0,0,0,.078,1.161.812.812,0,0,0,.283.52c.261.167.665.022.878.247.137.137.137.4.319.485a.353.353,0,0,0,.209.025c.465-.066.736-.592,1.183-.737a1.185,1.185,0,0,1,.783.068.571.571,0,0,1,.26.167c.149.193.045.479.113.712.1.325.485.454.82.5a1.445,1.445,0,0,1,.941.32.857.857,0,0,1,.167.684.517.517,0,0,0,0,.25c.093.263.547.224.666.016.088-.15.06-.273.265-.319a.88.88,0,0,1,.429.075,3.18,3.18,0,0,0,1.132.169,1.5,1.5,0,0,0,.887-.273,1.033,1.033,0,0,0,.273-.331,1.123,1.123,0,0,1-.379.593,1.5,1.5,0,0,1-.887.273,3.146,3.146,0,0,1-1.135-.18.864.864,0,0,0-.429-.074c-.2.041-.178.167-.265.317-.119.208-.573.247-.666-.015a.547.547,0,0,1,0-.252.857.857,0,0,0-.167-.684,1.458,1.458,0,0,0-.941-.32c-.336-.047-.725-.172-.82-.5-.07-.234.036-.52-.115-.712a.574.574,0,0,0-.26-.167,1.186,1.186,0,0,0-.783-.068c-.447.145-.718.671-1.183.737a.352.352,0,0,1-.209-.025c-.176-.088-.183-.342-.318-.485-.213-.226-.617-.079-.878-.247a.812.812,0,0,1-.283-.518A2.454,2.454,0,0,1,859.647,548.324Z" transform="translate(-859.608 -547.97)"/>
    </g>
    <path id="Path_1319" data-name="Path 1319" d="M922.511,647.809c-.321.433-.684.834-.972,1.292a2.431,2.431,0,0,0-.425,1.53,4.027,4.027,0,0,0,.614-1.094,16.073,16.073,0,0,1,1.179-1.777c.075-.112.559-.762.314-.793C923.019,646.943,922.621,647.661,922.511,647.809Z" transform="translate(-801.734 -571.647)" opacity="0.1"/>
  </g>
</svg>
