<svg xmlns="http://www.w3.org/2000/svg" width="139" height="108.419" viewBox="0 0 139 108.419">
  <g id="feautes-small-6" transform="translate(-0.229 0)">
    <path id="Path_1127" data-name="Path 1127" d="M516.323,359.221q-.2.655-.412,1.286l8.028-4.95.014.119q.23-1.118.375-2.234l-8,5.833Z" transform="translate(-462.457 -315.263)" fill="#e6e6e6"/>
    <path id="Path_1132" data-name="Path 1132" d="M506.8,373.18a36.112,36.112,0,0,1-1.516,3.625l8.08-4.412.011.117a14.318,14.318,0,0,0,1.359-3.348q.18-.69.325-1.383l-8.123,5.009C506.894,372.921,506.849,373.052,506.8,373.18Z" transform="translate(-453.597 -327.221)" fill="#e6e6e6"/>
    <path id="Path_1135" data-name="Path 1135" d="M333.549,354.768l-12.905,2.457-.07-.1a21.133,21.133,0,0,0,2.085,3.714l14.289-3.067C335.793,356.678,334.642,355.671,333.549,354.768Z" transform="translate(-299.552 -316.368)" fill="#e6e6e6"/>
    <path id="Path_1136" data-name="Path 1136" d="M348.784,374.789q-.415-.414-.831-.812l-14.342,3.079-.072-.1q.432.616.92,1.231l-.072-.1Z" transform="translate(-310.366 -332.388)" fill="#e6e6e6"/>
    <path id="Path_1137" data-name="Path 1137" d="M380.6,408.437a36.359,36.359,0,0,0-2.5-3.569l-14.043,3.114a29.236,29.236,0,0,0,3.335,2.049l-.073-.109Z" transform="translate(-335.821 -358.15)" fill="#e6e6e6"/>
    <path id="Path_1140" data-name="Path 1140" d="M357.5,383.913a49.045,49.045,0,0,0-3.524-3.933l-14.432,3.312q.665.83,1.429,1.65a17.576,17.576,0,0,0,2.4,2.112l14.123-3.132Z" transform="translate(-315.37 -337.394)" fill="#e6e6e6"/>
    <path id="Path_1155" data-name="Path 1155" d="M516.323,359.221q-.2.655-.412,1.286l8.028-4.95.014.119q.23-1.118.375-2.234l-8,5.833Z" transform="translate(-462.457 -315.263)" fill="#eb2424"/>
    <path id="Path_1160" data-name="Path 1160" d="M506.8,373.18a36.112,36.112,0,0,1-1.516,3.625l8.08-4.412.011.117a14.318,14.318,0,0,0,1.359-3.348q.18-.69.325-1.383l-8.123,5.009C506.894,372.921,506.849,373.052,506.8,373.18Z" transform="translate(-453.597 -327.221)" fill="#eb2424"/>
    <path id="Path_1163" data-name="Path 1163" d="M333.549,354.768l-12.905,2.457-.07-.1a21.133,21.133,0,0,0,2.085,3.714l14.289-3.067C335.793,356.678,334.642,355.671,333.549,354.768Z" transform="translate(-299.552 -316.368)" fill="#eb2424"/>
    <path id="Path_1164" data-name="Path 1164" d="M348.784,374.789q-.415-.414-.831-.812l-14.342,3.079-.072-.1q.432.616.92,1.231l-.072-.1Z" transform="translate(-310.366 -332.388)" fill="#eb2424"/>
    <path id="Path_1165" data-name="Path 1165" d="M380.6,408.437a36.359,36.359,0,0,0-2.5-3.569l-14.043,3.114a29.236,29.236,0,0,0,3.335,2.049l-.073-.109Z" transform="translate(-335.821 -358.15)" fill="#eb2424"/>
    <path id="Path_1168" data-name="Path 1168" d="M357.5,383.913a49.045,49.045,0,0,0-3.524-3.933l-14.432,3.312q.665.83,1.429,1.65a17.576,17.576,0,0,0,2.4,2.112l14.123-3.132Z" transform="translate(-315.37 -337.394)" fill="#eb2424"/>
    <path id="Path_1169" data-name="Path 1169" d="M890.256,175.366s-2.116,6.022-.814,6.948-4.394,8.492-4.394,8.492l-6.835-1.853,3.743-6.33s.488-6.33.488-7.257S890.256,175.366,890.256,175.366Z" transform="translate(-764.602 -166.411)" fill="#ffb8b8"/>
    <path id="Path_1170" data-name="Path 1170" d="M890.256,175.366s-2.116,6.022-.814,6.948-4.394,8.492-4.394,8.492l-6.835-1.853,3.743-6.33s.488-6.33.488-7.257S890.256,175.366,890.256,175.366Z" transform="translate(-764.602 -166.411)" opacity="0.1"/>
    <path id="Path_1171" data-name="Path 1171" d="M842.775,413.072s.618,7.72,0,11.734-1.544,15.131-1.544,15.131,0,21-3.4,21.307-5.867.618-6.176-.618,1.544-1.853.618-2.47-1.235-2.779,0-5.25,0-27.483,0-27.483l-5.867,15.749s-.618,12.97-1.235,14.822.618,5.25-1.544,5.558-4.632-1.544-5.867-2.162,1.853-.618,1.235-.926-2.47-1.235-1.853-1.544,1.235-15.131,1.235-15.131,1.7-31.652,3.86-32.887a2.651,2.651,0,0,1,3.551.892Z" transform="translate(-713.57 -361.194)" fill="#2f2e41"/>
    <path id="Path_1172" data-name="Path 1172" d="M913.84,719.638v2.47s2.779,6.715,0,6.715-4.941.7-4.941-.231v-8.338Z" transform="translate(-790.193 -620.656)" fill="#2f2e41"/>
    <path id="Path_1173" data-name="Path 1173" d="M822.724,718.612v2.47s-2.779,6.715,0,6.715,4.941.7,4.941-.23V719.23Z" transform="translate(-717.296 -619.8)" fill="#2f2e41"/>
    <ellipse id="Ellipse_176" data-name="Ellipse 176" cx="5.558" cy="5.558" rx="5.558" ry="5.558" transform="translate(115.772 2.316)" fill="#ffb8b8"/>
    <path id="Path_1174" data-name="Path 1174" d="M880.651,233.229s-1.544,4.632-4.014,3.706l-2.47-.926-4.323,29.645s3.4,4.941,8.338,1.853S880.651,233.229,880.651,233.229Z" transform="translate(-757.622 -215.01)" fill="#d0cde1"/>
    <path id="Path_1175" data-name="Path 1175" d="M848.41,212.915l-1.39-2.934s-8.183,3.86-9.418,5.1a4.823,4.823,0,0,0-1.235,3.088l2.162,7.72s-.618,16.984-.618,17.6-2.162,4.014-.618,2.779,1.853-2.47,3.088-.618a22.648,22.648,0,0,0,4.014,4.014Z" transform="translate(-729.704 -195.622)" fill="#d0cde1"/>
    <path id="Path_1176" data-name="Path 1176" d="M822.092,361.555l.926,8.646s5.558,4.941,4.323,5.25a1.709,1.709,0,0,1-1.853-.926s-2.161,2.162-3.4.926-4.323-12.97-4.323-12.97Z" transform="translate(-714.194 -322.029)" fill="#ffb8b8"/>
    <path id="Path_1177" data-name="Path 1177" d="M891.931,123.519a6.181,6.181,0,0,1,3.59.6,5.255,5.255,0,0,1,1.241,1.214c1.012,1.279,1.886,2.889,1.51,4.476l-.437-.17a2.859,2.859,0,0,0,.276,1.225c-.061-.179-.267.11-.212.291l.481,1.578a1.485,1.485,0,0,0-1.894,1.13c-.055-1.832-.245-3.934-1.732-5.007a5.988,5.988,0,0,0-2.611-.853,5.252,5.252,0,0,0-2.531.013,1.821,1.821,0,0,0-1.311,1.935.862.862,0,0,0-.972.479,2.516,2.516,0,0,0-.2,1.151c-.4.28-.848-.276-1.009-.734a6.625,6.625,0,0,1-.512-3.339,2.547,2.547,0,0,1,2.257-2.2.791.791,0,0,1-.206-.557l.939-.079a1.038,1.038,0,0,1-.62-.327C888.357,124.761,891.322,123.54,891.931,123.519Z" transform="translate(-770.719 -123.5)" fill="#2f2e41"/>
    <path id="Path_1178" data-name="Path 1178" d="M906.12,210.422s2.514-2.463,3.419-2.313,2.14,2.313,2.14,2.313,7.411,2.47,7.1,4.941-3.706,14.514-3.706,14.514-2.779,14.514-.309,16.058-11.735,5.558-12.043,3.706-.926-20.381,0-23.16S906.12,210.422,906.12,210.422Z" transform="translate(-784.634 -194.055)" fill="#d0cde1"/>
    <path id="Path_1179" data-name="Path 1179" d="M822.9,251.827h-3.818s-2.667,11.734-2.975,12.97-.926,7.1-.618,7.1,6.485-1.235,6.485-.309Z" transform="translate(-712.22 -230.52)" fill="#d0cde1"/>
    <rect id="Rectangle_149" data-name="Rectangle 149" width="139" transform="translate(0.229 108.106)" fill="#3f3d56"/>
    <path id="Path_1181" data-name="Path 1181" d="M90.4,215.651h0v72.46H193.553v-72.46Z" transform="translate(-71.51 -179.845)" fill="#3f3d56"/>
    <rect id="Rectangle_155" data-name="Rectangle 155" width="64.788" height="5.399" transform="translate(38.075 39.643)" fill="#fff"/>
    <rect id="Rectangle_156" data-name="Rectangle 156" width="19.181" height="6.536" transform="translate(98.032 97.184)" fill="#eb2424"/>
    <rect id="Rectangle_157" data-name="Rectangle 157" width="48.165" height="39.214" transform="translate(23.725 53.14)" fill="#fff"/>
    <rect id="Rectangle_158" data-name="Rectangle 158" width="0.284" height="62.109" transform="matrix(0.631, -0.775, 0.775, 0.631, 23.635, 53.251)" fill="#f2f2f2"/>
    <rect id="Rectangle_159" data-name="Rectangle 159" width="62.109" height="0.284" transform="translate(23.636 92.245) rotate(-39.153)" fill="#f2f2f2"/>
    <rect id="Rectangle_160" data-name="Rectangle 160" width="34.667" height="0.995" transform="translate(82.688 56.55)" fill="#fff"/>
    <rect id="Rectangle_161" data-name="Rectangle 161" width="34.667" height="0.995" transform="translate(82.688 59.676)" fill="#fff"/>
    <rect id="Rectangle_162" data-name="Rectangle 162" width="34.667" height="0.995" transform="translate(82.688 62.801)" fill="#fff"/>
    <rect id="Rectangle_163" data-name="Rectangle 163" width="34.667" height="0.995" transform="translate(82.688 65.927)" fill="#fff"/>
    <rect id="Rectangle_164" data-name="Rectangle 164" width="34.667" height="0.995" transform="translate(82.688 69.053)" fill="#fff"/>
    <rect id="Rectangle_165" data-name="Rectangle 165" width="34.667" height="0.995" transform="translate(82.688 72.179)" fill="#fff"/>
    <rect id="Rectangle_166" data-name="Rectangle 166" width="34.667" height="0.995" transform="translate(82.688 75.304)" fill="#fff"/>
    <rect id="Rectangle_167" data-name="Rectangle 167" width="34.667" height="0.995" transform="translate(82.688 78.43)" fill="#fff"/>
    <rect id="Rectangle_168" data-name="Rectangle 168" width="34.667" height="0.995" transform="translate(82.688 81.556)" fill="#fff"/>
    <rect id="Rectangle_169" data-name="Rectangle 169" width="34.667" height="0.995" transform="translate(82.688 84.682)" fill="#fff"/>
    <rect id="Rectangle_170" data-name="Rectangle 170" width="34.667" height="0.995" transform="translate(82.688 87.807)" fill="#fff"/>
    <rect id="Rectangle_171" data-name="Rectangle 171" width="34.667" height="0.995" transform="translate(82.688 90.933)" fill="#fff"/>
    <path id="Path_1182" data-name="Path 1182" d="M921.56,364.524l-4.323,1.853s-8.338,1.235-8.338-2.162,8.338-1.544,8.338-1.544l2.779-.889Z" transform="translate(-790.193 -322.218)" fill="#ffb8b8"/>
    <path id="Path_1183" data-name="Path 1183" d="M970.266,240.668l3.706.926,2.779,16.366s.926,4.323-.618,4.632-5.867,2.779-5.867,2.779-.618-4.632-1.853-4.632l3.088-2.47-1.853-10.808Z" transform="translate(-839.826 -221.214)" fill="#d0cde1"/>
  </g>
</svg>
