<svg xmlns="http://www.w3.org/2000/svg" width="131.151" height="107.14" viewBox="0 0 131.151 107.14">
  <g id="feautes-small-12" transform="translate(0 0)">
    <path id="Path_1364" data-name="Path 1364" d="M236.513,110.624v.243q-.021,2.106-.25,4.2a.156.156,0,0,1,0,.025c-.012.116-.025.231-.039.347-.023.2-.047.391-.073.587a42.233,42.233,0,0,1-1.538,7.044h0a37.985,37.985,0,0,1-4.016,8.844q-.79,1.268-1.683,2.454h0c-.318.419-.642.829-.977,1.232q-.352.423-.718.833l-.152.168a39.59,39.59,0,0,1-4.136,3.931,64.925,64.925,0,0,1-7.615,5.329c-.149.092-.3.183-.451.267a.222.222,0,0,1-.033.02,80.3,80.3,0,0,1-11.088,5.667,50.293,50.293,0,0,1-12.914,3.5,63.548,63.548,0,0,1-18.539-.918,120.477,120.477,0,0,1-15.078-3.6l-.814-.255q-.632-.2-1.264-.411-3.812-1.261-7.539-2.8a99.1,99.1,0,0,1-17.791-9.553q-1.067-.718-2.1-1.468-1.449-1.043-2.863-2.148l-.582-.451a59.814,59.814,0,0,1-6.915-6.35,35.258,35.258,0,0,1-6.939-10.675q-.382-.949-.7-1.933l-.02-.065c-.107-.334-.205-.667-.3-1.014q-.2-.745-.351-1.508c-.021-.1-.04-.195-.057-.294a25.247,25.247,0,0,1-.42-5.195,24.018,24.018,0,0,1,.534-4.537h0a20.466,20.466,0,0,1,1.512-4.479h0a16.145,16.145,0,0,1,2.312-3.567h0a13.641,13.641,0,0,1,2.179-2.036,17.8,17.8,0,0,1,4.717-2.423h0c.782-.28,1.575-.526,2.371-.754.564-.163,1.132-.318,1.7-.47l1.665-.45c1.067-.291,2.135-.59,3.186-.913A35.891,35.891,0,0,0,137,83.531c.411-.25.83-.523,1.249-.817q.8-.556,1.58-1.209h0c.526-.44,1.041-.911,1.532-1.41.076-.077.151-.155.226-.234.4-.422.789-.863,1.149-1.322.176-.224.347-.452.51-.685.226-.322.439-.648.636-.985h0a10.081,10.081,0,0,0,1.529-5.491,8.445,8.445,0,0,0-.087-.962c-.173-1.178-.34-2.328-.463-3.453-.515-4.653-.3-8.872,3.194-12.836,4.342-4.928,11.156-5.932,17.36-5.539,17.935,1.134,34.262,11.374,48.61,23.564q1.861,1.58,3.677,3.2.458.408.917.822c2.268,2.043,4.5,4.162,6.582,6.431.168.184.336.368.5.554.1.115.2.228.3.344q.973,1.1,1.888,2.255a42.719,42.719,0,0,1,4.313,6.538A37.116,37.116,0,0,1,236,103.865h0a41.2,41.2,0,0,1,.458,4.426c.023.436.037.874.045,1.31v.419C236.514,110.223,236.514,110.421,236.513,110.624Z" transform="translate(-108.551 -48.512)" fill="#eb2424" opacity="0.1"/>
    <path id="Path_1365" data-name="Path 1365" d="M380.115,445.274l-2.135,38,2.135.028,1.735-38.562Z" transform="translate(-327.545 -385.4)" fill="#3f3d56"/>
    <rect id="Rectangle_359" data-name="Rectangle 359" width="26.42" height="5.738" transform="translate(18.278 79.127)" fill="#eb2424"/>
    <path id="Path_1366" data-name="Path 1366" d="M260.695,679.51v3.6H233.4q-1.449-1.044-2.863-2.148V679.51Z" transform="translate(-214.263 -595.314)" fill="#3f3d56"/>
    <path id="Path_1367" data-name="Path 1367" d="M217.512,518.07c-.075.346-.172.687-.275,1.028a13.4,13.4,0,0,0-.738,2.976c-.095,1.35.267,2.921-.667,3.9-.24.254-.554.443-.769.714a1.244,1.244,0,0,0-.091.133,2.067,2.067,0,0,0-.217,1.067,18.678,18.678,0,0,0,.151,2.315c.316,2.642.941,5.289.12,7.783a12,12,0,0,1-.519,1.269,9.917,9.917,0,0,0-.967,2.7,17.031,17.031,0,0,0-.072,2.155q-.632-.2-1.264-.411-3.812-1.261-7.539-2.8c.007-.036.013-.073.019-.109a8.5,8.5,0,0,0-.388-3.56c-.667-2.454-1.612-4.884-2.171-7.355a18.616,18.616,0,0,1-.442-2.936c-.016-.222-.025-.444-.027-.667-.007-.291,0-.582.012-.875.028-.586.053-1.281-.415-1.637a3.586,3.586,0,0,0-.9-.344,5.091,5.091,0,0,1-1.434-1.168,1.88,1.88,0,0,0-1.68-.494c-3,.687-5.2,3.232-8,4.518-.108.051-.216.1-.326.144a4.742,4.742,0,0,0-1.023.523,1.166,1.166,0,0,0-.459.647,2.422,2.422,0,0,0,.025.87,4.442,4.442,0,0,1-.06,1.418,4.336,4.336,0,0,1-.143.534c-.107.316-.25.626-.386.934q-1.067-.718-2.1-1.468-1.449-1.044-2.863-2.148l-.572-.46a59.823,59.823,0,0,1-6.915-6.35,24.17,24.17,0,0,0,.893-2.366c.112-.471.153-.961.308-1.418a5.1,5.1,0,0,1,.737-1.321,17.88,17.88,0,0,1,4.1-4.1,55.6,55.6,0,0,0,5.05-3.48,7.971,7.971,0,0,0,1.544-1.829,1.139,1.139,0,0,0,.071-.133,2.769,2.769,0,0,0,.239-.763c.107-.6.091-1.254.144-1.828a19.5,19.5,0,0,0,5.488.165c2.128-.239,4.21-.83,6.338-1.06.16-.019.322-.033.483-.047.682-.055,1.365-.067,2.05-.059.572,0,1.145.025,1.717.044l6.3.214a6.188,6.188,0,0,1,2.06.306,4.5,4.5,0,0,1,1.884,1.569c.063.085.125.171.184.259a8.139,8.139,0,0,1,.971,1.92c.025.069.049.133.072.21.06.185.112.372.159.562.036.148.068.3.1.446a19.132,19.132,0,0,0,.466,2.208c.016.052.033.1.052.155.279.782.742,1.483,1.091,2.234a8.3,8.3,0,0,1,.574,1.7A8.394,8.394,0,0,1,217.512,518.07Z" transform="translate(-165.631 -442.073)" fill="#35323e"/>
    <path id="Path_1368" data-name="Path 1368" d="M242.375,258.759c-.563-.448-1.38-.12-2.039.169a13.093,13.093,0,0,1-1.7.615.719.719,0,0,1-.374.039c-.267-.064-.379-.38-.578-.572a1.286,1.286,0,0,0-1.357-.073,3.1,3.1,0,0,1-1.364.4c-.51-.04-.953-.416-1.468-.428-.907-.021-1.669,1.1-2.527.8-.523-.18-.934-.861-1.449-.667-.4.152-.436.706-.678,1.067a2.576,2.576,0,0,1-1.312.727,3.768,3.768,0,0,0-2.287,3.847,13.26,13.26,0,0,0,.815,2.525c.835,2.44.548,5.193,1.6,7.547.133-.125.208-.172.338-.3a3.088,3.088,0,0,0-.18,2.215c.111.37.291.714.427,1.075a9.64,9.64,0,0,1,.342,1.241l1.161,5.121a33.256,33.256,0,0,1,.987,6.053,17.665,17.665,0,0,1-.3,3.976c2.1-.348,4.027-1.281,6.158-1.269a17.168,17.168,0,0,1,2.332.24,48.017,48.017,0,0,0,6.822.463,2.709,2.709,0,0,0,1.046-.147,7.845,7.845,0,0,0,.811-.51,3.589,3.589,0,0,1,1.827-.4c2.854-.052,5.6.993,8.44,1.361a10.161,10.161,0,0,0,.327-7.622,11.378,11.378,0,0,1-.7-2.208,11.168,11.168,0,0,1-.032-1.418,10.289,10.289,0,0,0-.645-3.547,3.647,3.647,0,0,1-.347-1.37,3.113,3.113,0,0,1,.48-1.334,9.259,9.259,0,0,1,3.943-4.3l2.059-1.382a20.315,20.315,0,0,0-1.4-5.288,9.4,9.4,0,0,0-3.407-4.1,11.259,11.259,0,0,0-1.609-.8,7.478,7.478,0,0,0-2.435-.667,12.911,12.911,0,0,0-2.855.363C248.26,260.706,244.745,260.644,242.375,258.759Z" transform="translate(-209.65 -230.514)" fill="#eb2424"/>
    <path id="Path_1369" data-name="Path 1369" d="M166.6,487.628l-.979,1.237L163.77,491.2l-2.135,2.694-.6.753h-1.157l-28.647.033-17.94.02h-.8c-.107-.334-.205-.667-.3-1.014q-.2-.745-.351-1.508c-.021-.1-.04-.195-.057-.294l6.509-4.255,2.447-.013h0l7.486-.043h0l4.18-.024h1.242l2.786-.015h0l21.235-.121h0l1.086-.007h.471l1.248-.007,4.642-.027.891-.339.065.069Z" transform="translate(-111.358 -428.517)" fill="#3f3d56"/>
    <path id="Path_1370" data-name="Path 1370" d="M163.39,449.274l-.111.133-.729.858-1.5,1.771-3.145,3.708-27.861-.711-21.009-.534c-.021-.1-.04-.195-.057-.294a25.248,25.248,0,0,1-.42-5.195l2.33-1.193.534-.275,4.154-2.135,3.645-1.868,9.508,1.236,2.106.273.953.123,1.394.182.117.016,21.866,2.836,2.416.314L159,448.7l4.371.568Z" transform="translate(-108.551 -390.83)" fill="#504f60"/>
    <path id="Path_1371" data-name="Path 1371" d="M461.309,534.51l-.023.524L461.153,538l-.718,16.279-.152,3.519-.4,9.052-.226,5.113-.814-.255q-.633-.2-1.264-.411l1.952-35.493.041-.745.859-.267Z" transform="translate(-411.008 -469.662)" fill="#3f3d56"/>
    <path id="Path_1372" data-name="Path 1372" d="M115.974,534.22l-.06,1.37-.088,2q-.382-.949-.7-1.933l-.02-.065c-.107-.334-.205-.667-.3-1.014Z" transform="translate(-113.975 -469.41)" fill="#3f3d56"/>
    <ellipse id="Ellipse_283" data-name="Ellipse 283" cx="6.138" cy="8.273" rx="6.138" ry="8.273" transform="translate(30.754 28.089)" fill="#a1616a"/>
    <ellipse id="Ellipse_284" data-name="Ellipse 284" cx="6.138" cy="8.273" rx="6.138" ry="8.273" transform="translate(30.754 28.089)" opacity="0.1"/>
    <circle id="Ellipse_285" data-name="Ellipse 285" cx="8.54" cy="8.54" r="8.54" transform="translate(29.219 22.818)" fill="#a1616a"/>
    <path id="Path_1373" data-name="Path 1373" d="M331.495,183.646a10.932,10.932,0,0,0-1.549.236,12.542,12.542,0,0,0-3.655,1.772,4.349,4.349,0,0,0-1.35,1.129c-.568.847-.348,1.925-.667,2.866a8.255,8.255,0,0,1-.727,1.366,16.267,16.267,0,0,0-1.444,3.928c-.075.278-.1.654.207.761a.834.834,0,0,0,.518-.059,3.037,3.037,0,0,1,2.882.235c.71.642.65,1.78,1.494,2.268.967.564,2.478-.117,3.356.548.376.286.512.743.821,1.087.718.8,2.1.762,3.248.6.659-.093,1.468-.156,1.868.307.192.219.247.519.47.717a1.225,1.225,0,0,0,1.524-.191,10.247,10.247,0,0,0,.9-1.276c.634-.8,1.748-1.237,2.4-2.028a4.885,4.885,0,0,0,.862-2.308l.556-2.988a4.921,4.921,0,0,0-.251-3.6c-.243-.384-.591-.715-.8-1.113-.14-.267-.219-.548-.382-.8a3.324,3.324,0,0,0-.685-.691l-1.317-1.09a11.074,11.074,0,0,0-1.44-1.067C336.459,183.157,333.643,183.446,331.495,183.646Z" transform="translate(-293.567 -165.45)" fill="#464353"/>
    <path id="Path_1374" data-name="Path 1374" d="M121.853,339.363c-.316.336-.608.7-.947,1.014a11.463,11.463,0,0,1-.934.747q-.785.587-1.534,1.216a8.593,8.593,0,0,0-1.406,1.405c-.713.957-1.05,2.147-1.717,3.136-.59.877-1.421,1.569-2.02,2.439a3.774,3.774,0,0,0-.576,1.21,5.623,5.623,0,0,0-.119,1.28,9.5,9.5,0,0,0,.121,2.107,3.2,3.2,0,0,0,1,1.82,4.4,4.4,0,0,0,1.789.774,1.611,1.611,0,0,0,1,.028,1.642,1.642,0,0,0,.579-.488l1.624-1.868a12.5,12.5,0,0,1,3.705-3.269c.467-.228.959-.4,1.428-.622a7.689,7.689,0,0,0,3.934-5.05c.133-.522.219-1.054.306-1.587l.235-1.46a.466.466,0,0,0,0-.223.48.48,0,0,0-.171-.2,28.306,28.306,0,0,1-3.168-2.989,7.314,7.314,0,0,0-.718-.822c-.336-.267-.311-.247-.715,0A8.577,8.577,0,0,0,121.853,339.363Z" transform="translate(-112.053 -299.169)" fill="#a1616a"/>
    <path id="Path_1375" data-name="Path 1375" d="M261.454,421.562a.251.251,0,1,0-.451.219l-.133.065L264.849,430l.719-.351-3.979-8.161Z" transform="translate(-240.546 -371.654)" fill="#3f3d56"/>
    <path id="Path_1376" data-name="Path 1376" d="M121.853,339.363c-.316.336-.608.7-.947,1.014a11.463,11.463,0,0,1-.934.747q-.785.587-1.534,1.216a8.593,8.593,0,0,0-1.406,1.405c-.713.957-1.05,2.147-1.717,3.136-.59.877-1.421,1.569-2.02,2.439a3.774,3.774,0,0,0-.576,1.21,5.623,5.623,0,0,0-.119,1.28,9.5,9.5,0,0,0,.121,2.107,3.2,3.2,0,0,0,1,1.82,4.4,4.4,0,0,0,1.789.774,1.611,1.611,0,0,0,1,.028,1.642,1.642,0,0,0,.579-.488l1.624-1.868a12.5,12.5,0,0,1,3.705-3.269c.467-.228.959-.4,1.428-.622a7.689,7.689,0,0,0,3.934-5.05c.133-.522.219-1.054.306-1.587l.235-1.46a.466.466,0,0,0,0-.223.48.48,0,0,0-.171-.2,28.306,28.306,0,0,1-3.168-2.989,7.314,7.314,0,0,0-.718-.822c-.336-.267-.311-.247-.715,0A8.577,8.577,0,0,0,121.853,339.363Z" transform="translate(-112.053 -299.169)" opacity="0.04"/>
    <path id="Path_1377" data-name="Path 1377" d="M462.383,383.474a6.229,6.229,0,0,1-.4,2.5,1.334,1.334,0,0,1-.742.778,1.728,1.728,0,0,1-.652.024,23.573,23.573,0,0,0-7.8.619c.68-1.361.29-2.993.478-4.5.052-.412.147-.818.183-1.232.133-1.468-.5-2.893-.783-4.342a9.713,9.713,0,0,1,0-3.8,2.535,2.535,0,0,1,.327-.914,2.146,2.146,0,0,1,.75-.652,6.3,6.3,0,0,1,3.569-.6c.818.055,2.458-.023,3.14.48.746.551.982,2.4,1.184,3.257a27.545,27.545,0,0,1,.614,3.986A42.827,42.827,0,0,1,462.383,383.474Z" transform="translate(-406.583 -328.25)" fill="#a1616a"/>
    <path id="Path_1378" data-name="Path 1378" d="M59.98,436.03l4.8,3.2,21.616-.8-14.277-2.4Z" transform="translate(-51.977 -377.852)" fill="#fff"/>
    <path id="Path_1379" data-name="Path 1379" d="M179.933,285.234c-.789.7-1.457,1.514-2.2,2.255a30.329,30.329,0,0,1-3.349,2.742,2.493,2.493,0,0,1,1.735,1.748c.051.2.076.4.133.592a3.237,3.237,0,0,0,.742,1.2c1.353,1.525,3.246,2.654,4.044,4.537a.419.419,0,0,0,.16.227.351.351,0,0,0,.207.024,2.828,2.828,0,0,0,1.735-1.224,12.791,12.791,0,0,0,2.268-3.992,7.116,7.116,0,0,0,.033-4.537,11.61,11.61,0,0,0-1.05-2.046l-1.035-1.724c-.18-.3-.41-.918-.763-1.067C181.826,283.642,180.423,284.744,179.933,285.234Z" transform="translate(-165.596 -252.5)" fill="#eb2424"/>
    <path id="Path_1380" data-name="Path 1380" d="M452.531,340.92l1.135,2.669a8.25,8.25,0,0,0-7.459,1.034,4.19,4.19,0,0,0-1.533,1.784.779.779,0,0,1-.773-.3,1.548,1.548,0,0,1-.286-.817,6.434,6.434,0,0,1,.667-2.988,4.3,4.3,0,0,1,.681-1.27,3.976,3.976,0,0,1,1.161-.831,25.856,25.856,0,0,1,4.21-1.86,1.26,1.26,0,0,1,1.6.379C452.335,339.4,452.219,340.192,452.531,340.92Z" transform="translate(-398.892 -299.563)" fill="#eb2424"/>
    <path id="Path_1381" data-name="Path 1381" d="M126.978,412.544c.284.227.534.5.826.711a5.9,5.9,0,0,0,.982.551l1.316.632a7.371,7.371,0,0,0,1.274.518c.563.151,1.154.165,1.72.306.714.176,1.366.543,2.07.755a2.393,2.393,0,0,0,2.114-.195c.367-.276.644-.733,1.1-.8a1.455,1.455,0,0,1,.838.24l3.424,1.8a2.608,2.608,0,0,1,1.192.975.9.9,0,0,1-.43,1.286,4.691,4.691,0,0,1-.534.031.418.418,0,0,0-.392.3.608.608,0,0,0,.084.314,1.312,1.312,0,0,1,.02,1.115.8.8,0,0,1-.969.4c.06.516-.5.878-1,1.015a9.062,9.062,0,0,1-3.891-.085,5.333,5.333,0,0,1-1.484-.4c-.222-.108-.427-.247-.651-.347a4.646,4.646,0,0,0-1.987-.226,46.029,46.029,0,0,1-9.252-1.1,4.475,4.475,0,0,1-1.635-.534,3.03,3.03,0,0,1-1.128-2.962,8.893,8.893,0,0,1,1.265-3.077l.714-1.258a1.62,1.62,0,0,1,.384-.507C124,411.208,126.079,411.821,126.978,412.544Z" transform="translate(-118.947 -363.179)" fill="#a1616a"/>
    <path id="Path_1382" data-name="Path 1382" d="M126.978,412.544c.284.227.534.5.826.711a5.9,5.9,0,0,0,.982.551l1.316.632a7.371,7.371,0,0,0,1.274.518c.563.151,1.154.165,1.72.306.714.176,1.366.543,2.07.755a2.393,2.393,0,0,0,2.114-.195c.367-.276.644-.733,1.1-.8a1.455,1.455,0,0,1,.838.24l3.424,1.8a2.608,2.608,0,0,1,1.192.975.9.9,0,0,1-.43,1.286,4.691,4.691,0,0,1-.534.031.418.418,0,0,0-.392.3.608.608,0,0,0,.084.314,1.312,1.312,0,0,1,.02,1.115.8.8,0,0,1-.969.4c.06.516-.5.878-1,1.015a9.062,9.062,0,0,1-3.891-.085,5.333,5.333,0,0,1-1.484-.4c-.222-.108-.427-.247-.651-.347a4.646,4.646,0,0,0-1.987-.226,46.029,46.029,0,0,1-9.252-1.1,4.475,4.475,0,0,1-1.635-.534,3.03,3.03,0,0,1-1.128-2.962,8.893,8.893,0,0,1,1.265-3.077l.714-1.258a1.62,1.62,0,0,1,.384-.507C124,411.208,126.079,411.821,126.978,412.544Z" transform="translate(-118.947 -363.179)" opacity="0.04"/>
    <path id="Path_1383" data-name="Path 1383" d="M298.806,432.766a21.694,21.694,0,0,1-2.219.612,13.149,13.149,0,0,0-2.008,1.075,17.961,17.961,0,0,1-5.7,1.683,16.639,16.639,0,0,1-3.6.376,23.166,23.166,0,0,1-4.761-1.019,9.105,9.105,0,0,0-4.814-.224,5.419,5.419,0,0,0-3.536,3.393,7.815,7.815,0,0,0-.31,3c.328.242.787-.093.966-.46s.276-.817.623-1.03c.6.2.749,1.006,1.245,1.4a2.248,2.248,0,0,0,1.117.37l2.028.288a1.659,1.659,0,0,0,1.409-.228c.172-.167.267-.4.424-.579a1.574,1.574,0,0,1,1.342-.371c1.5.149,2.906,1.122,4.4.891a8.331,8.331,0,0,0,1.477-.47c2.894-1.022,6.11-.4,9.122-.986a20.358,20.358,0,0,0,3.348-1.034,6.771,6.771,0,0,0,1.7-.843,3.581,3.581,0,0,0,1.382-3.177,3.632,3.632,0,0,0-1.282-2.354,4.537,4.537,0,0,0-.825-.708C299.789,432.142,299.262,432.551,298.806,432.766Z" transform="translate(-250.043 -381.096)" fill="#a1616a"/>
    <g id="Group_99" data-name="Group 99" transform="translate(28.755 20.262)" opacity="0.1">
      <path id="Path_1384" data-name="Path 1384" d="M340.164,214.723c-.223-.2-.278-.5-.47-.717-.4-.463-1.209-.4-1.868-.307-1.149.161-2.535.2-3.248-.6-.308-.344-.444-.8-.821-1.087-.878-.667-2.388.016-3.356-.548-.845-.492-.79-1.635-1.494-2.268a3.058,3.058,0,0,0-2.882-.235.834.834,0,0,1-.518.059c-.3-.107-.282-.483-.207-.761a16.267,16.267,0,0,1,1.444-3.928,8.256,8.256,0,0,0,.727-1.366,24.038,24.038,0,0,1,.522-2.6,3.593,3.593,0,0,0-1.053.934c-.568.847-.348,1.925-.667,2.866a8.258,8.258,0,0,1-.727,1.366,16.27,16.27,0,0,0-1.444,3.928c-.075.278-.1.654.207.761a.834.834,0,0,0,.518-.059,3.037,3.037,0,0,1,2.882.235c.71.642.65,1.78,1.494,2.268.967.564,2.478-.117,3.356.548.376.286.512.743.821,1.087.718.8,2.1.762,3.248.6.659-.093,1.468-.156,1.868.307.192.219.247.519.47.717a1.225,1.225,0,0,0,1.524-.191,4.043,4.043,0,0,0,.638-.873A.993.993,0,0,1,340.164,214.723Z" transform="translate(-324.055 -200.36)"/>
      <path id="Path_1385" data-name="Path 1385" d="M461.449,289.132a3.8,3.8,0,0,0-.239.346,7.235,7.235,0,0,0,1.438-1.173,2.836,2.836,0,0,0,.267-.384A7.009,7.009,0,0,0,461.449,289.132Z" transform="translate(-442.909 -276.237)"/>
    </g>
    <path id="Path_1386" data-name="Path 1386" d="M556.48,446.53l.4,38.3,1.868-.267-.4-38.029Z" transform="translate(-482.227 -386.951)" fill="#3f3d56"/>
    <path id="Path_1387" data-name="Path 1387" d="M640.48,498.53l.4,38.3,1.868-.267-.4-38.029Z" transform="translate(-555.019 -432.012)" fill="#3f3d56"/>
    <path id="Path_1388" data-name="Path 1388" d="M997.076,566.348h0l-.008-.735v-.438L997,558.439l-.111-10.531-.019-.909H995l.009.875.059,5.64.025,2.442h0l.021,1.978.035,3.419.021,2.016h0v.214l.028,2.65.024,2.336.152-.168q.367-.41.718-.833Z" transform="translate(-876.718 -480.485)" fill="#3f3d56"/>
    <path id="Path_1389" data-name="Path 1389" d="M618.047,545.03l-1.067,1.6,1.067,7.271,9.073,2.483H641.8l8.807.532,4.2-2.871-.726-4.932-3.2-4.079Z" transform="translate(-534.654 -472.308)" fill="#eb2424"/>
    <path id="Path_1390" data-name="Path 1390" d="M721.343,605.48l-.534,4.433s-2.8,8.691,19.748,8.158,18.681-2.306,18.681-2.306l-.133-5.143s.786,2.434-10.675,2.1-22.15-1.394-22.15-1.394S722.277,612.041,721.343,605.48Z" transform="translate(-639.017 -531.162)" fill="#3f3d56"/>
    <path id="Path_1391" data-name="Path 1391" d="M831.26,303.873a6.447,6.447,0,0,0-2.913,2.977,19.221,19.221,0,0,0-1.381,4,35.659,35.659,0,0,0-.962,4.371,13.24,13.24,0,0,0,1.121,7.76,8.747,8.747,0,0,0,6.058,4.725,11.147,11.147,0,0,0,3.069.036,24.955,24.955,0,0,0,5.419-1.194c1.835-.62,3.744-1.576,4.561-3.336a7.459,7.459,0,0,0,.491-3.308,35.187,35.187,0,0,0-1.376-9.045,7.7,7.7,0,0,0-1.057-2.434,7.461,7.461,0,0,0-1.968-1.735C839.2,304.592,835.1,302.127,831.26,303.873Z" transform="translate(-730.147 -269.286)" fill="#fbbebe"/>
    <path id="Path_1392" data-name="Path 1392" d="M831.26,303.873a6.447,6.447,0,0,0-2.913,2.977,19.221,19.221,0,0,0-1.381,4,35.659,35.659,0,0,0-.962,4.371,13.24,13.24,0,0,0,1.121,7.76,8.747,8.747,0,0,0,6.058,4.725,11.147,11.147,0,0,0,3.069.036,24.955,24.955,0,0,0,5.419-1.194c1.835-.62,3.744-1.576,4.561-3.336a7.459,7.459,0,0,0,.491-3.308,35.187,35.187,0,0,0-1.376-9.045,7.7,7.7,0,0,0-1.057-2.434,7.461,7.461,0,0,0-1.968-1.735C839.2,304.592,835.1,302.127,831.26,303.873Z" transform="translate(-730.147 -269.286)" opacity="0.05"/>
    <path id="Path_1393" data-name="Path 1393" d="M779.208,358.958a6.059,6.059,0,0,0,1.334,1.334,8.143,8.143,0,0,0,4.443,1.045c1.238.037,2.658-.033,3.435-1a4,4,0,0,0,.648-1.53,67.874,67.874,0,0,0,1.855-10.11l3.533.012c1.529,6.548,1.4,13.354,1.27,20.078l-.193,9.8-2.276-.242c-5.405-.572-10.819-1.145-16.254-1.244a92.991,92.991,0,0,0-9.543.315l4.957-14.739a24.393,24.393,0,0,0,1.444-5.871c.217-2.921-.6-6,.534-8.707a1.058,1.058,0,0,1,.412-.556,1.17,1.17,0,0,1,.706-.055c.448.06,1.819,0,2.144.287.48.416.163.479-.007,1.15a14.041,14.041,0,0,0-.586,3.564A10.526,10.526,0,0,0,779.208,358.958Z" transform="translate(-679.54 -307.576)" fill="#eb2424"/>
    <path id="Path_1394" data-name="Path 1394" d="M953.582,358.162h0q.893-1.185,1.683-2.454c-.267-.571-.561-1.129-.794-1.712a17.2,17.2,0,0,1-.766-2.782q-.1-.48-.207-.961A63.129,63.129,0,0,1,951.9,339.7q-.02-.44-.025-.881v-1.1c.016-.8.067-1.608.159-2.411.017-.157.037-.315.059-.472a.672.672,0,0,1,.013-.1l9.073-.331h0l.763-.028a2.8,2.8,0,0,0,1.512-.346,2.752,2.752,0,0,0,.8-2.4,35.653,35.653,0,0,0-.753-6.612,9.851,9.851,0,0,0-1.937-4.565c-.9-1.033-2.215-1.784-2.686-3.069a13.857,13.857,0,0,0-.446-1.458,4.544,4.544,0,0,0-.955-1.144,15.919,15.919,0,0,1-3.056-4.232,13.374,13.374,0,0,0-1.832-3.042c-.035-.039-.069-.075-.105-.109a1.7,1.7,0,0,0-2.1-.45,2.691,2.691,0,0,0-.416.259h0a5.064,5.064,0,0,0-.791.753,18.012,18.012,0,0,0-2.152,3.069,17.076,17.076,0,0,0-1.1,2.4,16.577,16.577,0,0,0-.594,2c-.115.5-.205,1.011-.278,1.521a37.014,37.014,0,0,0-.229,5.81c.04,1.783.119,3.569.28,5.345q.06.645.133,1.288.147,1.272.363,2.535c.057.322.116.643.182.963.016.085.033.171.051.255l.008.036a21.619,21.619,0,0,1,.41,2.256q.016.143.024.284a10.993,10.993,0,0,1-.011,1.309c-.031.515-.079,1.029-.1,1.544a2.528,2.528,0,0,1-.009.267c-.007.26,0,.52,0,.781a12.352,12.352,0,0,0,.221,1.853,11.989,11.989,0,0,0,1.154,3.261c.051.1.1.191.155.284.677,1.209,1.531,2.318,2.156,3.555a15.337,15.337,0,0,1,1.2,3.5q.133.6.254,1.2c.124.64.235,1.286.348,1.932.011.064.023.133.035.192.151.857.31,1.709.514,2.546.119.487.252.967.408,1.44Z" transform="translate(-833.224 -272.299)" fill="#464353"/>
    <path id="Path_1395" data-name="Path 1395" d="M836.537,570.906c0,.12-.008.24-.013.362a17.1,17.1,0,0,1-.161,1.749,11.376,11.376,0,0,1-.578,2.32,7.82,7.82,0,0,1-.689,1.416,6.528,6.528,0,0,1-.857,1.1,6.84,6.84,0,0,1-3.069,1.449,7.553,7.553,0,0,0-1.48.6c-.084.047-.167.1-.247.151l-1.4.925A4.175,4.175,0,0,0,826.87,582a2.168,2.168,0,0,0-.133.225,5.114,5.114,0,0,0-.411,1.233c-.726,3.024-1.453,6.05-1.951,9.119-.033.2-.065.407-.1.611l-.012.064a.341.341,0,0,0-.021-.044,80.314,80.314,0,0,1-11.088,5.667l-.829-6.939a8.391,8.391,0,0,1-.085-1.705c.079-.9.444-1.749.543-2.645a4.507,4.507,0,0,0-.476-2.545,2.782,2.782,0,0,1-.391-.943.587.587,0,0,1,.5-.686,1.233,1.233,0,0,0,.21-1.1,3.2,3.2,0,0,0-.187-.61,2.564,2.564,0,0,1-.319-1.734.649.649,0,0,0,.067-.334.054.054,0,0,0,0-.021c-.045-.15-.223-.215-.315-.342-.173-.236,0-.558.107-.83a3.167,3.167,0,0,0,.179-.909c.015-.172.025-.346.044-.516a5.2,5.2,0,0,1,.124-.686,5.413,5.413,0,0,1,2.192-3.138c.519-.35,1.1-.6,1.627-.934a14.913,14.913,0,0,0,1.551-1.2q1.763-1.468,3.665-2.767a46.309,46.309,0,0,1,4.233-2.57q.467-.252.934-.491.508-.267,1.023-.506a5.006,5.006,0,0,1,3.563.021c.51.145,1.013.319,1.5.476a6.933,6.933,0,0,1,1.361.611,5.018,5.018,0,0,1,2.336,2.746.141.141,0,0,1,0,.023A6.986,6.986,0,0,1,836.537,570.906Z" transform="translate(-717.962 -495.56)" fill="#f86d70"/>
    <path id="Path_1396" data-name="Path 1396" d="M836.537,570.906c0,.12-.008.24-.013.362a17.1,17.1,0,0,1-.161,1.749,11.376,11.376,0,0,1-.578,2.32,7.82,7.82,0,0,1-.689,1.416,6.528,6.528,0,0,1-.857,1.1,6.84,6.84,0,0,1-3.069,1.449,7.553,7.553,0,0,0-1.48.6c-.084.047-.167.1-.247.151l-1.4.925A4.175,4.175,0,0,0,826.87,582a2.168,2.168,0,0,0-.133.225,5.114,5.114,0,0,0-.411,1.233c-.726,3.024-1.453,6.05-1.951,9.119-.033.2-.065.407-.1.611l-.012.064a.341.341,0,0,0-.021-.044,80.314,80.314,0,0,1-11.088,5.667l-.829-6.939a8.391,8.391,0,0,1-.085-1.705c.079-.9.444-1.749.543-2.645a4.507,4.507,0,0,0-.476-2.545,2.782,2.782,0,0,1-.391-.943.587.587,0,0,1,.5-.686,1.233,1.233,0,0,0,.21-1.1,3.2,3.2,0,0,0-.187-.61,2.564,2.564,0,0,1-.319-1.734.649.649,0,0,0,.067-.334.054.054,0,0,0,0-.021c-.045-.15-.223-.215-.315-.342-.173-.236,0-.558.107-.83a3.167,3.167,0,0,0,.179-.909c.015-.172.025-.346.044-.516a5.2,5.2,0,0,1,.124-.686,5.413,5.413,0,0,1,2.192-3.138c.519-.35,1.1-.6,1.627-.934a14.913,14.913,0,0,0,1.551-1.2q1.763-1.468,3.665-2.767a46.309,46.309,0,0,1,4.233-2.57q.467-.252.934-.491.508-.267,1.023-.506a5.006,5.006,0,0,1,3.563.021c.51.145,1.013.319,1.5.476a6.933,6.933,0,0,1,1.361.611,5.018,5.018,0,0,1,2.336,2.746.141.141,0,0,1,0,.023A6.986,6.986,0,0,1,836.537,570.906Z" transform="translate(-717.962 -495.56)" opacity="0.1"/>
    <path id="Path_1397" data-name="Path 1397" d="M898.454,446.561a.251.251,0,1,0-.451.219l-.133.065L901.849,455l.719-.351-3.979-8.161Z" transform="translate(-792.549 -393.318)" fill="#3f3d56"/>
    <circle id="Ellipse_286" data-name="Ellipse 286" cx="8.54" cy="8.54" r="8.54" transform="translate(102.341 27.622)" fill="#fbbebe"/>
    <path id="Path_1398" data-name="Path 1398" d="M896.632,178.574a11.353,11.353,0,0,0-.3-2.014,11.824,11.824,0,0,0-3-5.831,11.7,11.7,0,0,0-.348-1.12.207.207,0,0,0-.009-.027,12.529,12.529,0,0,0-2.015-3.572,2.824,2.824,0,0,0-1.947-1.26,1.578,1.578,0,0,1-.667-.072,1.2,1.2,0,0,1-.372-.382,3.5,3.5,0,0,0-3.384-1.266l-.083.017c-.047.009-.093.02-.133.032l-.168.049q.092.152.18.308.237.423.44.865.168.368.311.749a6.683,6.683,0,0,0-3.5,2.05l-2.394,2.172-.012.012-.069.067c-.017.017-.035.035-.051.053a.111.111,0,0,0-.017.019c-.02.021-.039.044-.057.067a1,1,0,0,0-.089.133.484.484,0,0,0-.035.063.129.129,0,0,0-.009.02.477.477,0,0,0-.023.056.018.018,0,0,0,0,.008.3.3,0,0,0-.009.033.4.4,0,0,0,.023.283l1.578.017h.186c.008.211.015.423.023.634a9.009,9.009,0,0,0-.721.6,7.84,7.84,0,0,0-.7.742,10.24,10.24,0,0,0-2.242,6.178v.817c0,.133.012.267.023.4a1,1,0,0,0,.133.5.459.459,0,0,0,.037.048.92.92,0,0,0,.283.208l.115.056h0c.057.028.112.055.165.085.5.284.8.833,1.258,1.185.027.02.053.04.08.057l.06.04.037.024.051.029a1.1,1.1,0,0,0,.1.055h0l.064.032h.011c.053.024.107.047.162.067l.076.027.023.008c.021.007.044.015.067.02q.068.02.133.036l.133.029c.052.009.105.019.159.025l.079.011.08.008q.191.017.384.02h0a9.607,9.607,0,0,0,1.21-.084l3.405-.4a7.336,7.336,0,0,1,2.323-.021,15.306,15.306,0,0,1,1.868.658c.141.049.283.095.426.133.052.015.105.031.159.044l.073.019.171.041c.061.015.123.029.184.041.087.019.172.035.259.051.059.012.119.021.179.032h.012l.171.027h.041l.127.017c.061.009.123.017.185.024q.2.025.408.044c.22.021.442.037.667.051l.222.013.221.011.667.029h.123a3.442,3.442,0,0,0,.83-.043c.048-.009.095-.02.141-.033s.085-.027.133-.043a2.284,2.284,0,0,0,1.12-1.106c.053-.1.1-.2.148-.3s.087-.207.124-.311c.047-.133.087-.26.122-.394.011-.036.02-.072.028-.109s.027-.111.037-.167c.033-.153.059-.308.077-.464a1.449,1.449,0,0,1,.017-.149c.012-.133.021-.258.027-.388v-.3C896.641,178.854,896.632,178.711,896.632,178.574Zm-3.421-7.966c-.108-.1-.219-.2-.331-.291a1.377,1.377,0,0,1,.33.291Z" transform="translate(-774.481 -147.699)" fill="#464353"/>
    <path id="Path_1399" data-name="Path 1399" d="M717.607,305.037a9.056,9.056,0,0,0-2.993-.348,4.149,4.149,0,0,0-1.651.915,20.07,20.07,0,0,0-4.639,5.3,2.8,2.8,0,0,0-.428,1,2.66,2.66,0,0,0,.184,1.238c.913,2.7,2.865,4.949,3.754,7.654a16.468,16.468,0,0,1-.079,8.868,37.06,37.06,0,0,1-4.115,10.234,5.836,5.836,0,0,1-.947,1.3c-.486.467-1.138.8-1.426,1.412a6.314,6.314,0,0,0-.267.857c-.267.8-.913,1.486-.975,2.331a5.32,5.32,0,0,0,.444,1.868,5.148,5.148,0,0,1-.095,3.216c-.677,1.855-2.446,3.541-1.932,5.448,1.146-.33,2.417-.758,2.957-1.821a3.245,3.245,0,0,1,.607-1.1c.642-.546,1.735-.052,2.416-.554a1.528,1.528,0,0,0,.3-1.764c-.229-.6-.624-1.129-.8-1.747-.307-1.114.184-2.292.093-3.444-.043-.534-.207-1.045-.219-1.576a3.7,3.7,0,0,1,1.308-2.7A10.866,10.866,0,0,1,711.728,340l3.491-1.735c1.266-.627,2.654-1.392,3.069-2.742a5.547,5.547,0,0,0,.167-1.573c.119-8.074,2.142-15.985,4.152-23.806a29.506,29.506,0,0,1,1.094-3.592c.464-1.164,1.373-2.1,1.836-3.178C722.851,303.064,720.4,305.387,717.607,305.037Z" transform="translate(-623.116 -269.346)" fill="#464353"/>
    <path id="Path_1400" data-name="Path 1400" d="M777.162,564.19c.308,1.868.5,3.776.643,5.675a64.908,64.908,0,0,1-7.615,5.329c-.149.092-.3.183-.451.267l-.012.064a.329.329,0,0,0-.021-.044,2.008,2.008,0,0,0-1-.99q-1.477-3.1-2.952-6.2a16.3,16.3,0,0,1-1.334-3.449.526.526,0,0,0-.016-.077c-.2-.934-.25-1.9-.384-2.85a8.234,8.234,0,0,0-.364-1.593c-.16-.46-.38-.907-.575-1.357a4.518,4.518,0,0,1-.451-1.716,1.121,1.121,0,0,0-.081-.56,1.452,1.452,0,0,0-.364-.352,1.389,1.389,0,0,1-.448-1.269c-.8.041-1.252.9-1.573,1.632a8.9,8.9,0,0,1-1.142,2,3.8,3.8,0,0,1-1.265,1.053c-.044.021-.088.043-.133.061a6.257,6.257,0,0,1-3.623.1,6.79,6.79,0,0,1-3-1.09l-.091-.072a3.919,3.919,0,0,1-.667-.713,7.755,7.755,0,0,1-1.2-3.469c-.016-.115-.032-.229-.047-.344a12.837,12.837,0,0,1-.1-2.6c.016-.213.039-.427.067-.639.019-.133.039-.278.061-.416a.036.036,0,0,1,0-.012c.035-.22.072-.442.109-.667a6.134,6.134,0,0,1,.667-2.184,4.137,4.137,0,0,1,.982-1.051c.144-.113.292-.221.442-.326.243-.168.492-.328.746-.479a12.885,12.885,0,0,1,2-.974c.165-.064.333-.124.5-.181a3.936,3.936,0,0,1,2.039-.161,10.729,10.729,0,0,0,1.825.107,46.013,46.013,0,0,0,4.7-.523c2.17-.267,4.5-.3,6.393.8.091.052.179.107.267.164a7.906,7.906,0,0,1,2.294,2.424c.133.2.25.408.364.618a15.729,15.729,0,0,1,.717,1.481,1.842,1.842,0,0,1,.2.8,1.046,1.046,0,0,1-.021.157c-.036.189-.108.374-.133.566-.084.727.534,1.334.765,2.027a9.946,9.946,0,0,1,.217,1.409,7.327,7.327,0,0,0,.742,1.868,23.368,23.368,0,0,1,1.188,2.985c.232.711.431,1.433.606,2.162q.085.351.161.7C776.938,562.921,777.057,563.554,777.162,564.19Z" transform="translate(-663.429 -477.846)" fill="#f86d70"/>
    <path id="Path_1401" data-name="Path 1401" d="M608.021,451.369v.934l-.172,0-.192,0-2.146-.027-5.287-.069-1.484-.019-.384-.005-2.227-.028-3.138-.041-6.658-.087-11.554-.149-4.17-.053-1.673-.021-1.54-.02-.959-.013-.909-.012-6.737-.087-1.868-.024-.407-.005-.264-.682L554.331,446l-.351-.9.267-1.067,1.2.8.739.092,12.17,1.513,2.284.284,4.844.6,4.745.59,1.86.231,11.007,1.369,3.076.383,2.546.316,9.052,1.126Z" transform="translate(-480.061 -384.784)" fill="#3f3d56"/>
    <path id="Path_1402" data-name="Path 1402" d="M555.98,444.03l2.4,6.271,51.372,1.068v-6.805Z" transform="translate(-481.794 -384.784)" fill="#504f60"/>
    <path id="Path_1403" data-name="Path 1403" d="M575.98,496.03l.4,38.3,1.868-.267-.4-38.029Z" transform="translate(-499.125 -429.846)" fill="#3f3d56"/>
    <path id="Path_1404" data-name="Path 1404" d="M1050.893,550.616h-.192a42.232,42.232,0,0,1-1.538,7.044l-.607-7.072-.025-.3,2.245-.259.075-.008Z" transform="translate(-923.106 -483.102)" fill="#3f3d56"/>
    <path id="Path_1405" data-name="Path 1405" d="M736.6,455.565l-19.548.4-6.071-2,16.279-.934Z" transform="translate(-616.112 -392.584)" fill="#fff"/>
    <path id="Path_1406" data-name="Path 1406" d="M820.663,456.916a1.311,1.311,0,0,0-.534.38,1.409,1.409,0,0,0-.2.606l-.328,1.957a.865.865,0,0,0,.025.543c.085.164.334.25.458.113a1.758,1.758,0,0,0,.24,1.1.77.77,0,0,0,1,.259.651.651,0,0,0,.981.152c-.189.064-.2.354-.068.5a.872.872,0,0,0,.544.218,13.316,13.316,0,0,0,6.925-.871c.207-.085-.338-2.635-.392-2.9a2.917,2.917,0,0,0-.719-1.78c-1.241-.99-3.445-1.185-4.957-1.067A8.539,8.539,0,0,0,820.663,456.916Z" transform="translate(-724.697 -401.716)" fill="#fbbebe"/>
    <path id="Path_1407" data-name="Path 1407" d="M883,451.961c-4.826.092-9.753.171-14.359-1.274a9.741,9.741,0,0,1-.088,5.187l22.566,1.868c.957.079,4.924.527,5.856.3s-7.826-3.11-7.472-4c.973-2.459,4.231-3.9,1.884-3.992C888.422,449.93,885.982,451.9,883,451.961Z" transform="translate(-767.141 -396.465)" opacity="0.1"/>
    <path id="Path_1408" data-name="Path 1408" d="M884,453.961c-4.826.092-9.753.171-14.359-1.274a9.739,9.739,0,0,1-.088,5.187l22.566,1.868c.957.079,4.924.534,5.856.3s.714-1.376,1.068-2.268c.973-2.459-4.309-5.635-6.656-5.727C889.422,451.93,886.982,453.9,884,453.961Z" transform="translate(-768.007 -398.198)" fill="#464353"/>
    <path id="Path_1409" data-name="Path 1409" d="M861.245,463.916a1.307,1.307,0,0,1,.534.38,1.43,1.43,0,0,1,.2.606l.328,1.957a.876.876,0,0,1-.025.543c-.085.164-.335.25-.458.113a1.767,1.767,0,0,1-.24,1.1.771.771,0,0,1-1.006.259.651.651,0,0,1-.981.152c.189.064.2.354.069.5a.875.875,0,0,1-.546.217,13.31,13.31,0,0,1-6.924-.871c-.207-.085.336-2.635.392-2.9a2.918,2.918,0,0,1,.719-1.78c1.24-.99,3.445-1.185,4.957-1.067A8.539,8.539,0,0,1,861.245,463.916Z" transform="translate(-752.929 -407.782)" fill="#fbbebe"/>
    <path id="Path_1410" data-name="Path 1410" d="M670.835,368.229a8.537,8.537,0,0,0-1.173,1.82,8.847,8.847,0,0,0-.375,4.088,2.385,2.385,0,0,0,.267,1.141,1.927,1.927,0,0,0,.7.594,9.861,9.861,0,0,0,3.83,1q3.034.336,6.09.41c5.047.123,10.17-.29,15.086.854a3.779,3.779,0,0,1-.267-3.2,10.9,10.9,0,0,1,1.637-2.876c-2.25-.713-4.662.4-7.019.29-2.419-.113-4.658-1.512-7.08-1.51a6.442,6.442,0,0,1-1.556-.06,1.3,1.3,0,0,1-1.042-1.026,1.492,1.492,0,0,0,1.525-1.013c.267-.606.315-1.29.574-1.9.645-1.517,2.386-2.22,3.469-3.469a.85.85,0,0,0,.06-1.289c-.9-1.2-2.258-1.868-3.385-2.8-.392-.326-1.184-1.553-1.624-1.667-.817-.209-1.509.97-2.04,1.545Q674.487,363.525,670.835,368.229Z" transform="translate(-594.409 -316.345)" fill="#464353"/>
    <path id="Path_1411" data-name="Path 1411" d="M882.39,434.81a4.416,4.416,0,0,1,.893.885,1.524,1.524,0,0,1,.279,1.193,1.783,1.783,0,0,1,1.111-1.845Z" transform="translate(-779.134 -383.265)" opacity="0.07"/>
    <g id="Group_100" data-name="Group 100" transform="translate(102.52 15.333)" opacity="0.1">
      <path id="Path_1412" data-name="Path 1412" d="M931.8,164.641a11.6,11.6,0,0,0-.542-1.221,3.269,3.269,0,0,0-.39.1,11.3,11.3,0,0,1,.618,1.178A2.233,2.233,0,0,1,931.8,164.641Z" transform="translate(-923.666 -163.42)"/>
      <path id="Path_1413" data-name="Path 1413" d="M995.87,212c.036.029.071.063.105.093a.2.2,0,0,0-.009-.025Z" transform="translate(-979.992 -205.518)"/>
      <path id="Path_1414" data-name="Path 1414" d="M892.405,211.114c.069-.055.133-.112.208-.165l-.021-.634-1.425-.015c-.231.212-.476.516-.34.8Z" transform="translate(-888.931 -204.045)"/>
      <path id="Path_1415" data-name="Path 1415" d="M895.93,280.051a2.279,2.279,0,0,1-1.12,1.106,3.034,3.034,0,0,1-1.222.115,14.288,14.288,0,0,1-4.166-.586,14.709,14.709,0,0,0-1.868-.659,7.3,7.3,0,0,0-2.323.023l-3.405.4a4,4,0,0,1-2.926-.411c-.459-.352-.755-.9-1.258-1.184a1.6,1.6,0,0,1-.6-.4,1,1,0,0,1-.133-.495c-.011-.14-.017-.28-.023-.42a11.255,11.255,0,0,0,.023,1.221,1,1,0,0,0,.133.495,1.6,1.6,0,0,0,.6.4c.5.283.8.831,1.258,1.184a3.968,3.968,0,0,0,2.926.411l3.405-.4a7.3,7.3,0,0,1,2.323-.023,15.1,15.1,0,0,1,1.868.659,14.135,14.135,0,0,0,4.166.586,3.058,3.058,0,0,0,1.222-.115,2.279,2.279,0,0,0,1.12-1.106,5.663,5.663,0,0,0,.576-3,5.211,5.211,0,0,1-.576,2.2Z" transform="translate(-876.877 -262.313)"/>
    </g>
    <path id="Path_1416" data-name="Path 1416" d="M937.56,179l1.868,1.735S937.827,180.067,937.56,179Z" transform="translate(-826.943 -161.589)" opacity="0.1"/>
  </g>
</svg>
