<svg xmlns="http://www.w3.org/2000/svg" xmlns:xlink="http://www.w3.org/1999/xlink" width="133.523" height="108.947" viewBox="0 0 133.523 108.947">
  <defs>
    <linearGradient id="linear-gradient" x1="0.5" y1="1" x2="0.5" gradientUnits="objectBoundingBox">
      <stop offset="0" stop-color="gray" stop-opacity="0.251"/>
      <stop offset="0.54" stop-color="gray" stop-opacity="0.122"/>
      <stop offset="1" stop-color="gray" stop-opacity="0.102"/>
    </linearGradient>
    <linearGradient id="linear-gradient-2" x1="9.926" x2="9.926" y2="0" xlink:href="#linear-gradient"/>
  </defs>
  <g id="feautes-small-8" transform="translate(0)">
    <path id="Path_1230" data-name="Path 1230" d="M172.559,231.85a5.711,5.711,0,0,0-3.838,4c-.5,2.278.655,4.574.823,6.913.54,7.663-9.262,13.07-7.863,20.6.555,2.993,2.8,5.195,5.011,7.014,3.542,2.9,7.473,5.471,11.825,6.195,6.606,1.1,13.509-2.135,19.93-.09,5.179,1.65,9.142,6.485,14.286,8.268,3.915,1.358,8.133.823,12.2.273,2.193-.3,4.491-.637,6.261-2.1,3.29-2.725,3.5-8.105,5.7-11.961,3.4-5.946,10.863-7.114,17.118-5.958s12.33,4,18.667,3.769a7.819,7.819,0,0,0,3.923-.994,10.521,10.521,0,0,0,3.265-4.047,70.983,70.983,0,0,0,8.536-32.535,12.85,12.85,0,0,0-.861-5.777,9.673,9.673,0,0,0-5.266-4.411c-5.043-2.135-10.615-2.484-15.557-4.891-4.767-2.322-8.627-6.395-12.778-9.885a64.948,64.948,0,0,0-28.033-13.885,16.024,16.024,0,0,0-7.227-.287c-2.729.682-5.082,2.574-7.2,4.611-5.627,5.419-10.138,12.1-15.324,18.043a90.629,90.629,0,0,1-11.642,11.165,42.372,42.372,0,0,1-6.1,4.5C176.464,231.419,174.629,231.156,172.559,231.85Z" transform="translate(-154.888 -176.656)" fill="#eb2424" opacity="0.2"/>
    <path id="Path_1231" data-name="Path 1231" d="M373.8,138.88s-5.3,7.826-1.508,16.949-6.606,23.779-6.606,23.779" transform="translate(-331.049 -131.845)" fill="none" stroke="#535461" stroke-miterlimit="10" stroke-width="2"/>
    <path id="Path_1232" data-name="Path 1232" d="M420.645,96.845a5.626,5.626,0,0,1-2.435,3.214,6.284,6.284,0,0,1-.909-4.08c.421-2.014,1.508-3.453,2.435-3.214S421.066,94.831,420.645,96.845Z" transform="translate(-375.515 -92.739)" fill="#8ed16f"/>
    <path id="Path_2029" data-name="Path 2029" d="M1.169-.026c.646-.014,1.165.152,1.16.372S1.8.756,1.15.771-.015.619-.01.4.524-.012,1.169-.026Z" transform="translate(42.767 4.7) rotate(-76.9)" fill="#8ed16f"/>
    <path id="Path_2030" data-name="Path 2030" d="M1.169-.026c.646-.014,1.165.152,1.16.372S1.8.756,1.15.771-.015.619-.01.4.524-.012,1.169-.026Z" transform="translate(42.767 4.7) rotate(-76.9)" opacity="0.3"/>
    <path id="Path_1233" data-name="Path 1233" d="M411.929,156.165a4.775,4.775,0,0,1-3.749-.528s.836-2.365,2.587-3.065,3.427-.457,3.749.528S413.679,155.463,411.929,156.165Z" transform="translate(-367.714 -143.11)" fill="#8ed16f"/>
    <path id="Path_2031" data-name="Path 2031" d="M1.071-.038c.591-.021,1.064.157,1.056.4S1.634.812,1.042.833-.022.676-.014.435.479-.017,1.071-.038Z" transform="matrix(0.94, -0.34, 0.34, 0.94, 42.461, 11.073)" fill="#8ed16f"/>
    <path id="Path_2032" data-name="Path 2032" d="M1.071-.038c.591-.021,1.064.157,1.056.4S1.634.812,1.042.833-.022.676-.014.435.479-.017,1.071-.038Z" transform="matrix(0.94, -0.34, 0.34, 0.94, 42.461, 11.073)" opacity="0.3"/>
    <path id="Path_1234" data-name="Path 1234" d="M408.959,202.935a4.775,4.775,0,0,1-3.749-.528s.836-2.365,2.587-3.065,3.427-.457,3.749.528S410.709,202.235,408.959,202.935Z" transform="translate(-365.152 -182.749)" fill="#8ed16f"/>
    <path id="Path_2033" data-name="Path 2033" d="M1.071-.038c.591-.021,1.064.157,1.056.4S1.633.812,1.042.833-.022.676-.014.436.479-.017,1.071-.038Z" transform="translate(42.074 18.309) rotate(-19.8)" fill="#8ed16f"/>
    <path id="Path_2034" data-name="Path 2034" d="M1.071-.038c.591-.021,1.064.157,1.056.4S1.633.812,1.042.833-.022.676-.014.436.479-.017,1.071-.038Z" transform="translate(42.074 18.309) rotate(-19.8)" opacity="0.3"/>
    <path id="Path_1235" data-name="Path 1235" d="M423.869,257.8a4.775,4.775,0,0,1-3.749-.528s.836-2.365,2.587-3.065,3.427-.457,3.749.528S425.619,257.108,423.869,257.8Z" transform="translate(-378.018 -229.253)" fill="#8ed16f"/>
    <path id="Path_2035" data-name="Path 2035" d="M1.071-.038c.591-.021,1.064.157,1.056.4S1.633.812,1.042.833-.022.676-.014.436.479-.017,1.071-.038Z" transform="translate(44.118 26.679) rotate(-19.8)" fill="#8ed16f"/>
    <path id="Path_2036" data-name="Path 2036" d="M1.071-.038c.591-.021,1.064.157,1.056.4S1.633.812,1.042.833-.022.676-.014.436.479-.017,1.071-.038Z" transform="translate(44.118 26.679) rotate(-19.8)" opacity="0.3"/>
    <path id="Path_1236" data-name="Path 1236" d="M414.169,307.985a4.775,4.775,0,0,1-3.749-.527s.836-2.365,2.587-3.065,3.427-.457,3.749.528S415.92,307.285,414.169,307.985Z" transform="translate(-369.647 -271.782)" fill="#8ed16f"/>
    <path id="Path_2037" data-name="Path 2037" d="M1.071-.038c.591-.021,1.064.157,1.056.4S1.634.812,1.042.833-.022.676-.014.435.479-.017,1.071-.038Z" transform="matrix(0.94, -0.34, 0.34, 0.94, 42.792, 34.202)" fill="#8ed16f"/>
    <path id="Path_2038" data-name="Path 2038" d="M1.071-.038c.591-.021,1.064.157,1.056.4S1.634.812,1.042.833-.022.676-.014.435.479-.017,1.071-.038Z" transform="matrix(0.94, -0.34, 0.34, 0.94, 42.792, 34.202)" opacity="0.3"/>
    <path id="Path_1237" data-name="Path 1237" d="M369.042,167.594a4.879,4.879,0,0,0,3.574,1.372,6.305,6.305,0,0,0-1.1-4.021c-1.291-1.488-2.891-2.1-3.574-1.372S367.751,166.106,369.042,167.594Z" transform="translate(-332.725 -152.513)" fill="#8ed16f"/>
    <path id="Path_2039" data-name="Path 2039" d="M.418-.022c.231-.012.391.478.358,1.1S.53,2.2.3,2.214s-.391-.478-.358-1.1S.187-.01.418-.022Z" transform="matrix(0.719, -0.695, 0.695, 0.719, 36.582, 13.167)" fill="#8ed16f"/>
    <path id="Path_2040" data-name="Path 2040" d="M.418-.022c.231-.012.391.478.358,1.1S.53,2.2.3,2.214s-.391-.478-.358-1.1S.187-.01.418-.022Z" transform="matrix(0.719, -0.695, 0.695, 0.719, 36.582, 13.167)" opacity="0.3"/>
    <path id="Path_1238" data-name="Path 1238" d="M363.632,322.584a4.879,4.879,0,0,0,3.574,1.372,6.305,6.305,0,0,0-1.1-4.021c-1.291-1.488-2.891-2.1-3.574-1.372S362.341,321.1,363.632,322.584Z" transform="translate(-328.056 -283.872)" fill="#8ed16f"/>
    <path id="Path_2041" data-name="Path 2041" d="M.418-.022c.231-.012.391.478.358,1.1S.53,2.2.3,2.214s-.391-.478-.358-1.1S.187-.01.418-.022Z" transform="matrix(0.719, -0.695, 0.695, 0.719, 35.839, 36.801)" fill="#8ed16f"/>
    <path id="Path_2042" data-name="Path 2042" d="M.418-.022c.231-.012.391.478.358,1.1S.53,2.2.3,2.214s-.391-.478-.358-1.1S.187-.01.418-.022Z" transform="matrix(0.719, -0.695, 0.695, 0.719, 35.839, 36.801)" opacity="0.3"/>
    <path id="Path_1239" data-name="Path 1239" d="M370.256,223.629a4.737,4.737,0,0,0,3.78-.037s-.583-2.456-2.245-3.38-3.356-.915-3.78.037S368.591,222.7,370.256,223.629Z" transform="translate(-332.968 -200.196)" fill="#8ed16f"/>
    <path id="Path_2043" data-name="Path 2043" d="M.432-.018C.67-.028.842.448.816,1.045S.575,2.134.337,2.143s-.411-.466-.384-1.063S.193-.008.432-.018Z" transform="translate(36.959 21.526) rotate(-63.48)" fill="#8ed16f"/>
    <path id="Path_2044" data-name="Path 2044" d="M.432-.018C.67-.028.842.448.816,1.045S.575,2.134.337,2.143s-.411-.466-.384-1.063S.193-.008.432-.018Z" transform="translate(36.959 21.526) rotate(-63.48)" opacity="0.3"/>
    <path id="Path_1240" data-name="Path 1240" d="M375.348,278.2a4.737,4.737,0,0,0,3.78-.037s-.583-2.456-2.245-3.38-3.356-.915-3.78.037S373.691,277.284,375.348,278.2Z" transform="translate(-337.363 -246.445)" fill="#8ed16f"/>
    <path id="Path_2045" data-name="Path 2045" d="M.432-.018C.67-.028.842.448.816,1.045S.575,2.134.337,2.143s-.411-.466-.384-1.063S.193-.008.432-.018Z" transform="translate(37.657 29.848) rotate(-63.48)" fill="#8ed16f"/>
    <path id="Path_2046" data-name="Path 2046" d="M.432-.018C.67-.028.842.448.816,1.045S.575,2.134.337,2.143s-.411-.466-.384-1.063S.193-.008.432-.018Z" transform="translate(37.657 29.848) rotate(-63.48)" opacity="0.3"/>
    <path id="Path_1241" data-name="Path 1241" d="M174.675,249.21s9.677,10.763,4.214,26.734,9.364,42.53,9.364,42.53-.159-.026-.454-.084c-19.878-3.9-29.748-29.184-18.7-47.965C173.2,263.441,176.583,255.251,174.675,249.21Z" transform="translate(-157.439 -225.353)" fill="#8ed16f"/>
    <path id="Path_1242" data-name="Path 1242" d="M113,533.972s11.042-1.956,12.049,9.051,21.234,12.533,21.234,12.533l-.38.281c-16.7,12.2-32.667,7.767-30.261-8.424C116.538,541.391,116.464,535.346,113,533.972Z" transform="translate(-113 -466.584)" fill="#8ed16f"/>
    <g id="Group_95" data-name="Group 95" transform="translate(0 67.254)" opacity="0.3">
      <path id="Path_1243" data-name="Path 1243" d="M113,533.972s11.042-1.956,12.049,9.051,21.234,12.533,21.234,12.533l-.38.281c-16.7,12.2-32.667,7.767-30.261-8.424C116.538,541.391,116.464,535.346,113,533.972Z" transform="translate(-113 -533.838)" fill="#fff"/>
    </g>
    <ellipse id="Ellipse_214" data-name="Ellipse 214" cx="3.036" cy="8.811" rx="3.036" ry="8.811" transform="translate(11.404 49.63)" fill="#8ed16f"/>
    <ellipse id="Ellipse_215" data-name="Ellipse 215" cx="3.036" cy="8.811" rx="3.036" ry="8.811" transform="translate(11.404 49.63)" opacity="0.3"/>
    <path id="Path_2047" data-name="Path 2047" d="M2.162-.115c1.194-.063,2.047,2.039,1.906,4.7S2.844,9.444,1.65,9.507-.4,7.468-.256,4.811.968-.051,2.162-.115Z" transform="translate(6.274 84.887) rotate(-45)" fill="#8ed16f"/>
    <path id="Path_2048" data-name="Path 2048" d="M2.162-.115c1.194-.063,2.047,2.039,1.906,4.7S2.844,9.444,1.65,9.507-.4,7.468-.256,4.811.968-.051,2.162-.115Z" transform="translate(6.274 84.887) rotate(-45)" opacity="0.3"/>
    <path id="Path_1244" data-name="Path 1244" d="M363.816,358.2H291.935a3.473,3.473,0,0,0-3.275,3.642V408.7a3.473,3.473,0,0,0,3.275,3.643h71.881a3.473,3.473,0,0,0,3.275-3.643V361.843A3.473,3.473,0,0,0,363.816,358.2Z" transform="translate(-264.579 -317.726)" fill="url(#linear-gradient)"/>
    <rect id="Rectangle_257" data-name="Rectangle 257" width="76.584" height="52.869" rx="24.81" transform="translate(25.003 41.112)" fill="#eb2424"/>
    <rect id="Rectangle_258" data-name="Rectangle 258" width="76.584" height="9.692" transform="translate(25.003 50.364)" fill="#eb2424"/>
    <rect id="Rectangle_259" data-name="Rectangle 259" width="76.584" height="9.692" transform="translate(25.003 50.364)" opacity="0.3"/>
    <rect id="Rectangle_260" data-name="Rectangle 260" width="62.06" height="4.699" transform="translate(32.266 67.253)" fill="#d6d6e3"/>
    <ellipse id="Ellipse_218" data-name="Ellipse 218" cx="6.074" cy="6.756" rx="6.074" ry="6.756" transform="translate(31.341 76.945)" fill="#eb2424"/>
    <ellipse id="Ellipse_219" data-name="Ellipse 219" cx="6.074" cy="6.756" rx="6.074" ry="6.756" transform="translate(31.341 76.945)" opacity="0.3"/>
    <path id="Path_1245" data-name="Path 1245" d="M822.14,216.433a1.463,1.463,0,0,0,.585.823c1.26.925,4,.729,4.328.729.07,0,.162.139.263.372a28.033,28.033,0,0,1,1.285,5.1c.067.886.807,5.031,2.019,6.576.037.047.074.091.11.133,1.189,1.328,2.583-.133,2.583-.133l.2-.773c-.056.3-.119.66-.182,1.058-.032.2-.063.412-.093.63a26.782,26.782,0,0,0-.284,3.716q0,.678.052,1.354c.011.125.023.249.038.369a14.354,14.354,0,0,1,.09,1.653,49.731,49.731,0,0,1-.764,7.363l.029-.011c-.018.1-.029.152-.029.152l.044-.015q-.032.227-.06.465c-.255,2.058-.4,4.62-.472,6.1a13.575,13.575,0,0,0,.093,2.336l1.338,10.476v4.879a9.533,9.533,0,0,0,.241,2.193c.436,1.843.077,8.278-.125,11.33-.056.832-.1,1.415-.112,1.583v.05l.038-.017v.053a.716.716,0,0,1,.178-.058c-.531.915-1.492,2.427-2.23,2.682a2.341,2.341,0,0,0-1.115.822l-.019.029-.027.043a.978.978,0,0,0-.16.467.558.558,0,0,1-.025-.09c-.056.34.128.651.7.8a4.276,4.276,0,0,0,1.021.091c2,0,5.554-.685,5.946-1.421V285.8l.064.023v.023l.245.09.673-2.513c.807-.665.137-12.562,0-15.3-.123-2.491,1.263-12.4,1.508-14.148l-.033-.044.037-.255a1.012,1.012,0,0,1,.137.134,2.016,2.016,0,0,1,.21.345,4.856,4.856,0,0,1,.3.683c1.354,3.757,1.964,14.5,1.964,15.463v10.1a11.629,11.629,0,0,0,.37,2.947,13.9,13.9,0,0,1,.288,1.534c.029.2.054.4.077.6s.047.412.064.592c0,.047.01.093.014.136a.3.3,0,0,1,0,.062c.037.4.056.659.056.659a.16.16,0,0,1,.027-.059l.007.1a.208.208,0,0,1,.053-.095,1.338,1.338,0,0,1,.181-.165v1.284l-.033-.027v.221a8.751,8.751,0,0,0,5.411,1.511,6.278,6.278,0,0,0,2.365-.329c.455-.249.206-.828-.208-1.272a1.512,1.512,0,0,0-1-.576c-.441.053-1.951-1.848-2.742-2.889l.089-.044.126-.061V267.681s.2-6.651.808-13.228a25.87,25.87,0,0,0-1.035-9.813l-.019-.063.184.032c.195.034.3.053.3.053a1.407,1.407,0,0,0-.012-.152h.012s-.236-2.853-.238-6.436c0-4.062.308-9.014,1.585-11.816a9.079,9.079,0,0,0,.96-3.909,4.426,4.426,0,0,0-.657-2.5,1.827,1.827,0,0,0-.755-.665l-.026-.017h-.014a1.715,1.715,0,0,0-.694-.152h-2.757a1.7,1.7,0,0,1-.91-.267l-1.079-.68a6.719,6.719,0,0,1-.334-2.972c0-.081.014-.162.021-.241l.078-.091c.06-.072.117-.152.171-.221q0,.09-.012.18c-.014.1-.037.152-.074.165a2.262,2.262,0,0,0,1.609-.721c.015-.02.029-.041.043-.062a3.443,3.443,0,0,0,.265-.61,1.837,1.837,0,0,1,.2-.409c.09-.131.208-.238.306-.363l.016-.021a2.867,2.867,0,0,0,.37-1.711c.007-1.452-.031-3.049-.9-4.138a3.9,3.9,0,0,0-2.98-1.288c-1.1-.04-2.193.18-3.29.186-.746,0-1.645-.014-2.056.672-.2.337-.226.778-.445,1.1-.126.186-.319.346-.33.578a.646.646,0,0,0,.071.3v.011a1.947,1.947,0,0,0,1.42,1.06,3.958,3.958,0,0,0-.274.421,4.345,4.345,0,0,0-.548,2.135c0,.088,0,.175.008.262A4.226,4.226,0,0,0,838,214.978c-.011.085-.022.171-.034.255l.025.024q.117.117.243.223l.03.026v.152c0,.088,0,.178-.008.265s0,.14-.008.21l-.018-.017-1.339-1.244-2.154-2.217s-5.385-4.359-5.655-2.287a1.617,1.617,0,0,0,.256,1.034c.988,1.677,4.387,3.1,4.387,3.1a31.737,31.737,0,0,1,3.382,4.952c-.048.029-.1.056-.147.082a5.75,5.75,0,0,1-2.967.36c-2.033.352-2.217,2.83-2.206,3.832v.207l-2.7-7.046-.008-.021a1.368,1.368,0,0,0-1.009-.881C826.272,215.655,821.763,214.952,822.14,216.433Zm11.295,68.459a1.062,1.062,0,0,1,.119-.024l-.012.021Z" transform="translate(-724.906 -188.357)" fill="url(#linear-gradient-2)"/>
    <path id="Path_1246" data-name="Path 1246" d="M982.773,716.43s2.555,3.572,3.146,3.5,1.966,1.384,1.18,1.83-5.308.729-7.54-1.166v-2.856Z" transform="translate(-860.765 -621.336)" fill="#aca9c9"/>
    <path id="Path_1247" data-name="Path 1247" d="M884.638,717.86s-1.508,2.988-2.555,3.354-1.966,1.677-.589,2.042,6.292-.437,6.75-1.313v-3.865Z" transform="translate(-775.542 -622.548)" fill="#aca9c9"/>
    <path id="Path_1248" data-name="Path 1248" d="M894.319,461.533l1.3,10.334v4.8a9.526,9.526,0,0,0,.236,2.162c.425,1.819.075,8.165-.122,11.176-.064.982-.114,1.61-.114,1.61.851-.438,4.457.947,4.457.947l.365-1.38.291-1.1c.787-.656.137-12.391,0-15.094a111.124,111.124,0,0,1,1.125-11.42c.137-1.014.248-1.83.315-2.321.043-.3.066-.474.066-.474a1.568,1.568,0,0,1,.354.474,4.8,4.8,0,0,1,.289.674c1.319,3.706,1.919,14.3,1.919,15.247v9.965a11.611,11.611,0,0,0,.361,2.908,16.807,16.807,0,0,1,.355,2.1c.093.791.137,1.429.137,1.429.066-.438,4.129-2.406,4.129-2.406V474.551s.2-6.556.787-13.048a25.778,25.778,0,0,0-.754-8.779c-.163-.621-.326-1.147-.467-1.563-.24-.709-.411-1.1-.411-1.1H895.553c-.225.047-.411.55-.58,1.314-.11.512-.206,1.141-.289,1.83-.248,2.029-.391,4.556-.459,6.016A13.532,13.532,0,0,0,894.319,461.533Z" transform="translate(-787.117 -395.58)" fill="#618fd8"/>
    <g id="Group_96" data-name="Group 96" transform="translate(108.538 54.526)" opacity="0.1">
      <path id="Path_1249" data-name="Path 1249" d="M981.618,491.472V474.853s.2-6.556.787-13.048a24.933,24.933,0,0,0-1.645-11.444h.262a25.082,25.082,0,0,1,1.645,11.444c-.583,6.488-.787,13.048-.787,13.048v16.619s-4.063,1.968-4.129,2.406a2.424,2.424,0,0,0-.021-.265A36.774,36.774,0,0,1,981.618,491.472Z" transform="translate(-967.724 -450.36)"/>
      <path id="Path_1250" data-name="Path 1250" d="M905.1,722.319a.928.928,0,0,0-.361.082v-.073A2.088,2.088,0,0,1,905.1,722.319Z" transform="translate(-904.74 -680.85)"/>
      <path id="Path_1251" data-name="Path 1251" d="M936.151,549.928c.787-.656.137-12.391,0-15.095s1.508-14.213,1.508-14.213a1.22,1.22,0,0,1,.226.259c-.241,1.72-1.59,11.5-1.471,13.954.137,2.7.787,14.433,0,15.095l-.655,2.478-.239-.088Z" transform="translate(-931.3 -509.908)"/>
    </g>
    <path id="Path_1252" data-name="Path 1252" d="M837.224,282.557l-1.371,5.394s-1.442,1.525-2.621,0-1.905-5.612-1.977-6.488-1.115-5.394-1.508-5.394-4.325.291-4.784-1.525c-.367-1.461,4.022-.762,5.78-.435a1.338,1.338,0,0,1,.983.869l2.7,7.158S835.848,280.3,837.224,282.557Z" transform="translate(-727.343 -246.069)" fill="#f7c4a7"/>
    <path id="Path_1253" data-name="Path 1253" d="M933.277,249.82s-1.7,5.321.459,7.216S926,259.442,926,259.442l1.343-1.421a22.349,22.349,0,0,0,.295-7.691Z" transform="translate(-814.548 -225.87)" fill="#f7c4a7"/>
    <path id="Path_1254" data-name="Path 1254" d="M903.227,291.683s1.737-.474,1.737-.983l1.539.983h3.867s2.819,1.749.459,7-1.311,18.144-1.311,18.144-8.388-1.677-15.336.875c0,0,1.049-5.759.655-9.038a28.513,28.513,0,0,1,.655-7.872l.59-2.77s-.033-2.592-2.458-1.276c0,0-.361-3.754,2.13-4.191,0,0,2.879.438,3.736-1.166A4,4,0,0,0,903.227,291.683Z" transform="translate(-786.595 -260.517)" opacity="0.1"/>
    <path id="Path_1255" data-name="Path 1255" d="M903.227,290.733s1.737-.474,1.737-.983l1.128.721a1.645,1.645,0,0,0,.885.262h2.7a1.732,1.732,0,0,1,1.449.82c.621.971,1.178,2.886-.3,6.178-2.359,5.248-1.311,18.144-1.311,18.144s-8.388-1.677-15.336.875c0,0,1.049-5.759.655-9.038a28.416,28.416,0,0,1,.655-7.861l.589-2.77s-.033-2.592-2.458-1.276c0,0-.351-3.65,2.028-4.172a.6.6,0,0,1,.2-.015c.509.059,2.879.25,3.638-1.179A4.02,4.02,0,0,0,903.227,290.733Z" transform="translate(-786.595 -259.712)" fill="#e14b5a"/>
    <path id="Path_1256" data-name="Path 1256" d="M945.643,307.852s-2.1,1.458-5.505,0c0,0-3.736-1.525-4.916-4.519s5.963.511,5.963.511a4.721,4.721,0,0,0,1.966-.364C943.608,303.115,946.822,306.248,945.643,307.852Z" transform="translate(-822.391 -270.198)" opacity="0.1"/>
    <path id="Path_1257" data-name="Path 1257" d="M893.182,252.052s-2.1,1.458-5.505,0c0,0-3.736-1.525-4.916-4.519a27.93,27.93,0,0,0-3.932-6.274s-4.784-2.042-4.524-4.082,5.505,2.26,5.505,2.26l2.1,2.186,6.816,6.414a4.722,4.722,0,0,0,1.966-.364C891.148,247.308,894.361,250.448,893.182,252.052Z" transform="translate(-769.931 -214.689)" fill="#f7c4a7"/>
    <path id="Path_1258" data-name="Path 1258" d="M937.49,251.761l5.636-.511a15.783,15.783,0,0,0-.588,2.969,3.349,3.349,0,0,1-5.045.152A7.913,7.913,0,0,0,937.49,251.761Z" transform="translate(-824.462 -227.082)" opacity="0.1"/>
    <ellipse id="Ellipse_220" data-name="Ellipse 220" cx="3.604" cy="4.008" rx="3.604" ry="4.008" transform="translate(111.947 20.124)" fill="#f7c4a7"/>
    <path id="Path_1259" data-name="Path 1259" d="M931.059,217.234c-.211-.387.218-.892.077-1.316-.13-.39-.648-.457-.823-.822-.137-.294,0-.656-.055-.98a.921.921,0,0,0-.869-.7,2.839,2.839,0,0,0-1.123.276,3.919,3.919,0,0,1-1.849.317,1.934,1.934,0,0,1-1.527-1.078.664.664,0,0,1-.07-.3c.011-.229.2-.386.322-.569.214-.319.239-.753.433-1.086.4-.677,1.271-.66,2-.663,1.069,0,2.133-.223,3.2-.183a3.783,3.783,0,0,1,2.9,1.27c.85,1.075.888,2.648.882,4.082a2.83,2.83,0,0,1-.361,1.688c-.1.133-.219.242-.314.378-.206.3-.26.7-.454,1a2.115,2.115,0,0,1-1.608.773c.175-.026.03-1.333,0-1.453C931.707,217.275,931.583,217.288,931.059,217.234Z" transform="translate(-813.529 -192.231)" opacity="0.1"/>
    <path id="Path_1260" data-name="Path 1260" d="M931.059,216.284c-.211-.387.218-.892.077-1.316-.13-.39-.648-.457-.823-.822-.137-.294,0-.656-.055-.98a.921.921,0,0,0-.869-.7,2.84,2.84,0,0,0-1.123.276,3.917,3.917,0,0,1-1.849.317,1.933,1.933,0,0,1-1.527-1.078.664.664,0,0,1-.07-.3c.011-.229.2-.386.322-.569.214-.319.239-.753.433-1.086.4-.677,1.271-.66,2-.663,1.069,0,2.133-.223,3.2-.183a3.783,3.783,0,0,1,2.9,1.27c.85,1.075.888,2.648.882,4.082a2.83,2.83,0,0,1-.361,1.688c-.1.133-.219.242-.314.378-.206.3-.26.7-.454,1a2.115,2.115,0,0,1-1.608.773c.175-.026.03-1.333,0-1.453C931.707,216.318,931.583,216.336,931.059,216.284Z" transform="translate(-813.529 -191.426)" fill="#281c1c"/>
    <path id="Path_1261" data-name="Path 1261" d="M990.211,311.37s-1.77-5.1-3.146-5.248,2.621,0,2.621,0L991,308.746Z" transform="translate(-866.992 -273.533)" opacity="0.1"/>
    <path id="Path_1262" data-name="Path 1262" d="M991.171,311.37s-1.77-5.1-3.146-5.248,2.621,0,2.621,0l1.311,2.624Z" transform="translate(-867.821 -273.533)" fill="#e14b5a"/>
    <path id="Path_1263" data-name="Path 1263" d="M976.65,714.154c.093.791.137,1.429.137,1.429.066-.438,4.129-2.406,4.129-2.406v-1.184a1.61,1.61,0,0,0-.31.017,5.536,5.536,0,0,0-2.193,1A19.622,19.622,0,0,1,976.65,714.154Z" transform="translate(-858.254 -617.574)" fill="#618fd8"/>
    <path id="Path_1264" data-name="Path 1264" d="M976.65,714.154c.093.791.137,1.429.137,1.429.066-.438,4.129-2.406,4.129-2.406v-1.184a1.61,1.61,0,0,0-.31.017,5.536,5.536,0,0,0-2.193,1A19.622,19.622,0,0,1,976.65,714.154Z" transform="translate(-858.254 -617.574)" opacity="0.3"/>
    <path id="Path_1265" data-name="Path 1265" d="M904.5,713.159c.851-.438,4.457.947,4.457.947l.365-1.38a17.914,17.914,0,0,1-1.869-.529,5.838,5.838,0,0,1-.839-.345,5.346,5.346,0,0,0-.559-.29,2.619,2.619,0,0,0-1.442-.014C904.549,712.53,904.5,713.159,904.5,713.159Z" transform="translate(-795.995 -617.118)" fill="#618fd8"/>
    <path id="Path_1266" data-name="Path 1266" d="M904.5,713.159c.851-.438,4.457.947,4.457.947l.365-1.38a17.914,17.914,0,0,1-1.869-.529,5.838,5.838,0,0,1-.839-.345,5.346,5.346,0,0,0-.559-.29,2.619,2.619,0,0,0-1.442-.014C904.549,712.53,904.5,713.159,904.5,713.159Z" transform="translate(-795.995 -617.118)" opacity="0.3"/>
    <path id="Path_1267" data-name="Path 1267" d="M986.84,743.406a.426.426,0,0,0,.225-.29.443.443,0,0,1-.225.508c-.787.438-5.308.729-7.54-1.167v-.218C981.532,744.135,986.053,743.844,986.84,743.406Z" transform="translate(-860.541 -643.211)" fill="#fff" opacity="0.4"/>
    <path id="Path_1268" data-name="Path 1268" d="M881.244,744.5c1.371.364,6.292-.438,6.75-1.313v.218c-.459.875-5.374,1.677-6.75,1.313-.562-.152-.742-.457-.686-.791C880.6,744.177,880.808,744.381,881.244,744.5Z" transform="translate(-775.327 -644.016)" fill="#fff" opacity="0.4"/>
    <path id="Path_1269" data-name="Path 1269" d="M908.742,402.268s-1.442-.511-1.836,0-3.756,1.708-3.756,1.708" transform="translate(-794.83 -354.882)" opacity="0.1"/>
    <rect id="Rectangle_261" data-name="Rectangle 261" width="7.012" height="0.165" transform="translate(104.606 27.358) rotate(180)" fill="#8ed16f"/>
    <rect id="Rectangle_262" data-name="Rectangle 262" width="7.012" height="0.165" transform="translate(104.606 27.522) rotate(180)" fill="#8ed16f"/>
    <rect id="Rectangle_263" data-name="Rectangle 263" width="7.012" height="0.165" transform="translate(104.606 27.522) rotate(180)" opacity="0.1"/>
    <rect id="Rectangle_264" data-name="Rectangle 264" width="7.012" height="0.165" transform="translate(104.606 27.687) rotate(180)" fill="#8ed16f"/>
    <rect id="Rectangle_265" data-name="Rectangle 265" width="7.012" height="0.165" transform="translate(104.606 27.85) rotate(180)" fill="#8ed16f"/>
    <rect id="Rectangle_266" data-name="Rectangle 266" width="7.012" height="0.165" transform="translate(104.606 27.85) rotate(180)" opacity="0.1"/>
    <rect id="Rectangle_267" data-name="Rectangle 267" width="7.012" height="0.165" transform="translate(104.606 28.015) rotate(180)" fill="#8ed16f"/>
    <rect id="Rectangle_268" data-name="Rectangle 268" width="7.012" height="0.165" transform="translate(104.606 28.178) rotate(180)" fill="#8ed16f"/>
    <rect id="Rectangle_269" data-name="Rectangle 269" width="7.012" height="0.165" transform="translate(104.606 28.178) rotate(180)" opacity="0.1"/>
    <rect id="Rectangle_270" data-name="Rectangle 270" width="7.012" height="0.165" transform="translate(104.606 28.343) rotate(180)" fill="#8ed16f"/>
    <rect id="Rectangle_271" data-name="Rectangle 271" width="7.012" height="0.165" transform="translate(104.606 28.506) rotate(180)" fill="#8ed16f"/>
    <rect id="Rectangle_272" data-name="Rectangle 272" width="7.012" height="0.165" transform="translate(104.606 28.506) rotate(180)" opacity="0.1"/>
    <rect id="Rectangle_273" data-name="Rectangle 273" width="7.012" height="0.165" transform="translate(104.606 26.046) rotate(180)" fill="#8ed16f"/>
    <path id="Path_2049" data-name="Path 2049" d="M0,0,7.334.387l.008.158L.008.158Z" transform="matrix(-0.769, -0.639, 0.639, -0.769, 107.945, 27.135)" fill="#8ed16f"/>
    <path id="Path_2050" data-name="Path 2050" d="M0,0,7.334.387l.008.158L.008.158Z" transform="matrix(-0.769, -0.639, 0.639, -0.769, 103.03, 24.511)" fill="#8ed16f"/>
    <rect id="Rectangle_276" data-name="Rectangle 276" width="7.012" height="0.165" transform="translate(104.606 26.21) rotate(180)" fill="#8ed16f"/>
    <rect id="Rectangle_277" data-name="Rectangle 277" width="7.012" height="0.165" transform="translate(104.606 26.21) rotate(180)" opacity="0.1"/>
    <rect id="Rectangle_278" data-name="Rectangle 278" width="7.012" height="0.165" transform="translate(104.606 26.376) rotate(180)" fill="#8ed16f"/>
    <rect id="Rectangle_279" data-name="Rectangle 279" width="7.012" height="0.165" transform="translate(104.606 26.539) rotate(180)" fill="#8ed16f"/>
    <rect id="Rectangle_280" data-name="Rectangle 280" width="7.012" height="0.165" transform="translate(104.606 26.539) rotate(180)" opacity="0.1"/>
    <rect id="Rectangle_281" data-name="Rectangle 281" width="7.012" height="0.165" transform="translate(104.606 26.702) rotate(180)" fill="#8ed16f"/>
    <rect id="Rectangle_282" data-name="Rectangle 282" width="7.012" height="0.165" transform="translate(104.606 26.867) rotate(180)" fill="#8ed16f"/>
    <rect id="Rectangle_283" data-name="Rectangle 283" width="7.012" height="0.165" transform="translate(104.606 26.867) rotate(180)" opacity="0.1"/>
    <rect id="Rectangle_284" data-name="Rectangle 284" width="7.012" height="0.165" transform="translate(104.606 27.03) rotate(180)" fill="#8ed16f"/>
    <rect id="Rectangle_285" data-name="Rectangle 285" width="7.012" height="0.165" transform="translate(104.606 27.194) rotate(180)" fill="#8ed16f"/>
    <rect id="Rectangle_286" data-name="Rectangle 286" width="7.012" height="0.165" transform="translate(104.606 27.194) rotate(180)" opacity="0.1"/>
    <path id="Path_2051" data-name="Path 2051" d="M0,0,2.565.051l.1,5.521L.1,5.521Z" transform="translate(99.218 34.107) rotate(-169.48)" fill="#8ed16f"/>
    <path id="Path_2052" data-name="Path 2052" d="M1.162-.021C1.8-.033,2.32.193,2.314.483s-.531.535-1.173.547S-.016.816-.011.526.52-.009,1.162-.021Z" transform="translate(97.745 32.182) rotate(-79.48)" fill="#8ed16f"/>
    <path id="Path_2053" data-name="Path 2053" d="M1.162-.021C1.8-.033,2.32.193,2.314.483s-.531.535-1.173.547S-.016.816-.011.526.52-.009,1.162-.021Z" transform="translate(97.745 32.182) rotate(-79.48)" opacity="0.1"/>
    <path id="Path_2054" data-name="Path 2054" d="M0,0,2.565.051l.1,5.521L.1,5.521Z" transform="translate(99.648 45.602) rotate(-169.48)" fill="#8ed16f"/>
    <path id="Path_2055" data-name="Path 2055" d="M1.162-.021C1.8-.033,2.32.193,2.314.483s-.531.535-1.173.547S-.016.816-.011.526.52-.009,1.162-.021Z" transform="translate(98.174 43.676) rotate(-79.48)" fill="#8ed16f"/>
    <path id="Path_2056" data-name="Path 2056" d="M1.162-.021C1.8-.033,2.32.193,2.314.483s-.531.535-1.173.547S-.016.816-.011.526.52-.009,1.162-.021Z" transform="translate(98.174 43.676) rotate(-79.48)" opacity="0.1"/>
    <path id="Path_2057" data-name="Path 2057" d="M0,0,2.777-.12,2.543,4.987l-2.777.12Z" transform="matrix(0.476, -0.879, 0.879, 0.476, 86.832, 19.328)" fill="#8ed16f"/>
    <path id="Path_2058" data-name="Path 2058" d="M.57-.025c.315-.014.548.458.521,1.054s-.3,1.089-.62,1.1S-.077,1.674-.05,1.078.255-.011.57-.025Z" transform="translate(88.883 19.456) rotate(-61.39)" fill="#8ed16f"/>
    <path id="Path_2059" data-name="Path 2059" d="M.57-.025c.315-.014.548.458.521,1.054s-.3,1.089-.62,1.1S-.077,1.674-.05,1.078.255-.011.57-.025Z" transform="translate(88.883 19.456) rotate(-61.39)" opacity="0.1"/>
    <path id="Path_2060" data-name="Path 2060" d="M0,0,2.777-.12,2.543,4.987l-2.777.12Z" transform="matrix(0.476, -0.879, 0.879, 0.476, 77.214, 68.655)" fill="#8ed16f"/>
    <path id="Path_2061" data-name="Path 2061" d="M.569-.025c.314-.014.547.457.52,1.051s-.3,1.086-.618,1.1-.547-.457-.52-1.051S.255-.011.569-.025Z" transform="matrix(0.476, -0.879, 0.879, 0.476, 78.827, 68.714)" fill="#8ed16f"/>
    <path id="Path_2062" data-name="Path 2062" d="M.569-.025c.314-.014.547.457.52,1.051s-.3,1.086-.618,1.1-.547-.457-.52-1.051S.255-.011.569-.025Z" transform="matrix(0.476, -0.879, 0.879, 0.476, 78.827, 68.714)" opacity="0.1"/>
    <path id="Path_2063" data-name="Path 2063" d="M0,0,2.777-.12,2.543,4.987l-2.777.12Z" transform="matrix(0.476, -0.879, 0.879, 0.476, 71.33, 27.949)" fill="#8ed16f"/>
    <path id="Path_2064" data-name="Path 2064" d="M.569-.025c.314-.014.547.457.52,1.051s-.3,1.086-.618,1.1-.547-.457-.52-1.051S.255-.011.569-.025Z" transform="matrix(0.476, -0.879, 0.879, 0.476, 72.941, 28.005)" fill="#8ed16f"/>
    <path id="Path_2065" data-name="Path 2065" d="M.569-.025c.314-.014.547.457.52,1.051s-.3,1.086-.618,1.1-.547-.457-.52-1.051S.255-.011.569-.025Z" transform="matrix(0.476, -0.879, 0.879, 0.476, 72.941, 28.005)" opacity="0.1"/>
    <path id="Path_2066" data-name="Path 2066" d="M0,0,2.777-.12,2.543,4.987l-2.777.12Z" transform="matrix(0.476, -0.879, 0.879, 0.476, 78.705, 19.327)" fill="#8ed16f"/>
    <path id="Path_2067" data-name="Path 2067" d="M.569-.025c.314-.014.547.457.52,1.051s-.3,1.086-.618,1.1-.547-.457-.52-1.051S.255-.011.569-.025Z" transform="matrix(0.476, -0.879, 0.879, 0.476, 80.316, 19.384)" fill="#8ed16f"/>
    <path id="Path_2068" data-name="Path 2068" d="M.569-.025c.314-.014.547.457.52,1.051s-.3,1.086-.618,1.1-.547-.457-.52-1.051S.255-.011.569-.025Z" transform="matrix(0.476, -0.879, 0.879, 0.476, 80.316, 19.384)" opacity="0.1"/>
    <path id="Path_2069" data-name="Path 2069" d="M0,0,2.559-.031,2.5,5.5-.06,5.533Z" transform="matrix(0.994, -0.109, 0.109, 0.994, 84.745, 27.31)" fill="#8ed16f"/>
    <path id="Path_2070" data-name="Path 2070" d="M.524-.006c.29,0,.519.515.512,1.159S.789,2.32.5,2.324-.02,1.808-.013,1.165.235,0,.524-.006Z" transform="matrix(0.994, -0.109, 0.109, 0.994, 85.617, 28.817)" fill="#8ed16f"/>
    <path id="Path_2071" data-name="Path 2071" d="M.524-.006c.29,0,.519.515.512,1.159S.789,2.32.5,2.324-.02,1.808-.013,1.165.235,0,.524-.006Z" transform="matrix(0.994, -0.109, 0.109, 0.994, 85.617, 28.817)" opacity="0.1"/>
    <path id="Path_2072" data-name="Path 2072" d="M0,0,2.559-.031,2.5,5.5-.06,5.533Z" transform="matrix(0.994, -0.109, 0.109, 0.994, 102.161, 57.462)" fill="#8ed16f"/>
    <path id="Path_2073" data-name="Path 2073" d="M.524-.006c.29,0,.519.515.512,1.159S.789,2.32.5,2.324-.02,1.808-.013,1.165.235,0,.524-.006Z" transform="matrix(0.994, -0.109, 0.109, 0.994, 103.035, 58.969)" fill="#8ed16f"/>
    <path id="Path_2074" data-name="Path 2074" d="M.524-.006c.29,0,.519.515.512,1.159S.789,2.32.5,2.324-.02,1.808-.013,1.165.235,0,.524-.006Z" transform="matrix(0.994, -0.109, 0.109, 0.994, 103.035, 58.969)" opacity="0.1"/>
    <path id="Path_2075" data-name="Path 2075" d="M0,0,2.777-.12,2.543,4.987l-2.777.12Z" transform="matrix(0.476, -0.879, 0.879, 0.476, 76.122, 41.197)" fill="#8ed16f"/>
    <path id="Path_2076" data-name="Path 2076" d="M.569-.025c.314-.014.547.457.52,1.051s-.3,1.086-.618,1.1-.547-.457-.52-1.051S.255-.011.569-.025Z" transform="matrix(0.476, -0.879, 0.879, 0.476, 77.732, 41.256)" fill="#8ed16f"/>
    <path id="Path_2077" data-name="Path 2077" d="M.569-.025c.314-.014.547.457.52,1.051s-.3,1.086-.618,1.1-.547-.457-.52-1.051S.255-.011.569-.025Z" transform="matrix(0.476, -0.879, 0.879, 0.476, 77.732, 41.256)" opacity="0.1"/>
    <path id="Path_2078" data-name="Path 2078" d="M0,0,2.777-.12,2.543,4.987l-2.777.12Z" transform="matrix(0.476, -0.879, 0.879, 0.476, 65.068, 37.686)" fill="#8ed16f"/>
    <path id="Path_2079" data-name="Path 2079" d="M.57-.025c.315-.014.548.458.521,1.054s-.3,1.089-.62,1.1S-.077,1.674-.05,1.078.255-.011.57-.025Z" transform="translate(67.041 37.901) rotate(-61.39)" fill="#8ed16f"/>
    <path id="Path_2080" data-name="Path 2080" d="M.57-.025c.315-.014.548.458.521,1.054s-.3,1.089-.62,1.1S-.077,1.674-.05,1.078.255-.011.57-.025Z" transform="translate(67.041 37.901) rotate(-61.39)" opacity="0.1"/>
    <path id="Path_2081" data-name="Path 2081" d="M0,0,2.777-.12,2.543,4.987l-2.777.12Z" transform="matrix(0.476, -0.879, 0.879, 0.476, 61.528, 96.799)" fill="#8ed16f"/>
    <path id="Path_2082" data-name="Path 2082" d="M.569-.025c.314-.014.547.457.52,1.051s-.3,1.086-.618,1.1-.547-.457-.52-1.051S.255-.011.569-.025Z" transform="matrix(0.476, -0.879, 0.879, 0.476, 63.139, 96.857)" fill="#8ed16f"/>
    <path id="Path_2083" data-name="Path 2083" d="M.569-.025c.314-.014.547.457.52,1.051s-.3,1.086-.618,1.1-.547-.457-.52-1.051S.255-.011.569-.025Z" transform="matrix(0.476, -0.879, 0.879, 0.476, 63.139, 96.857)" opacity="0.1"/>
    <path id="Path_2084" data-name="Path 2084" d="M0,0,2.832-.051l-.1,5L-.1,5Z" transform="translate(59.092 98.058) rotate(-79.49)" fill="#8ed16f"/>
    <path id="Path_2085" data-name="Path 2085" d="M0,0,2.832-.051l-.1,5L-.1,5Z" transform="translate(59.092 98.058) rotate(-79.49)" opacity="0.05"/>
    <path id="Path_2086" data-name="Path 2086" d="M.58-.011C.9-.016,1.152.45,1.14,1.032S.859,2.089.538,2.095s-.571-.461-.559-1.042S.26,0,.58-.011Z" transform="translate(60.642 97.561) rotate(-79.49)" fill="#8ed16f"/>
    <path id="Path_2087" data-name="Path 2087" d="M.58-.011C.9-.016,1.152.45,1.14,1.032S.859,2.089.538,2.095s-.571-.461-.559-1.042S.26,0,.58-.011Z" transform="translate(60.642 97.561) rotate(-79.49)" opacity="0.1"/>
    <path id="Path_2088" data-name="Path 2088" d="M0,0,2.832-.051l-.1,5L-.1,5Z" transform="translate(59.551 99.734) rotate(-79.49)" fill="#8ed16f"/>
    <path id="Path_2089" data-name="Path 2089" d="M.58-.011C.9-.016,1.152.45,1.14,1.032S.859,2.089.538,2.095s-.571-.461-.559-1.042S.26,0,.58-.011Z" transform="translate(61.099 99.237) rotate(-79.49)" fill="#8ed16f"/>
    <path id="Path_2090" data-name="Path 2090" d="M.58-.011C.9-.016,1.152.45,1.14,1.032S.859,2.089.538,2.095s-.571-.461-.559-1.042S.26,0,.58-.011Z" transform="translate(61.099 99.237) rotate(-79.49)" opacity="0.1"/>
    <path id="Path_2091" data-name="Path 2091" d="M0,0,2.777-.12,2.543,4.987l-2.777.12Z" transform="matrix(0.476, -0.879, 0.879, 0.476, 66.695, 103.983)" fill="#8ed16f"/>
    <path id="Path_2092" data-name="Path 2092" d="M.569-.025c.314-.014.547.457.52,1.051s-.3,1.086-.618,1.1-.547-.457-.52-1.051S.255-.011.569-.025Z" transform="matrix(0.476, -0.879, 0.879, 0.476, 68.307, 104.041)" fill="#8ed16f"/>
    <path id="Path_2093" data-name="Path 2093" d="M.569-.025c.314-.014.547.457.52,1.051s-.3,1.086-.618,1.1-.547-.457-.52-1.051S.255-.011.569-.025Z" transform="matrix(0.476, -0.879, 0.879, 0.476, 68.307, 104.041)" opacity="0.1"/>
    <path id="Path_2094" data-name="Path 2094" d="M0,0,2.832-.051l-.1,5L-.1,5Z" transform="translate(64.259 105.24) rotate(-79.49)" fill="#8ed16f"/>
    <path id="Path_2095" data-name="Path 2095" d="M0,0,2.832-.051l-.1,5L-.1,5Z" transform="translate(64.259 105.24) rotate(-79.49)" opacity="0.05"/>
    <path id="Path_2096" data-name="Path 2096" d="M.58-.011C.9-.016,1.152.45,1.14,1.032S.859,2.089.538,2.095s-.571-.461-.559-1.042S.26,0,.58-.011Z" transform="translate(65.808 104.743) rotate(-79.49)" fill="#8ed16f"/>
    <path id="Path_2097" data-name="Path 2097" d="M.58-.011C.9-.016,1.152.45,1.14,1.032S.859,2.089.538,2.095s-.571-.461-.559-1.042S.26,0,.58-.011Z" transform="translate(65.808 104.743) rotate(-79.49)" opacity="0.1"/>
    <path id="Path_2098" data-name="Path 2098" d="M0,0,2.832-.051l-.1,5L-.1,5Z" transform="translate(64.718 106.918) rotate(-79.49)" fill="#8ed16f"/>
    <path id="Path_2099" data-name="Path 2099" d="M.58-.011C.9-.016,1.152.45,1.14,1.032S.859,2.089.538,2.095s-.571-.461-.559-1.042S.26,0,.58-.011Z" transform="translate(66.268 106.421) rotate(-79.49)" fill="#8ed16f"/>
    <path id="Path_2100" data-name="Path 2100" d="M.58-.011C.9-.016,1.152.45,1.14,1.032S.859,2.089.538,2.095s-.571-.461-.559-1.042S.26,0,.58-.011Z" transform="translate(66.268 106.421) rotate(-79.49)" opacity="0.1"/>
    <path id="Path_2101" data-name="Path 2101" d="M0,0,2.777-.12,2.543,4.987l-2.777.12Z" transform="matrix(0.476, -0.879, 0.879, 0.476, 74.447, 99.353)" fill="#8ed16f"/>
    <path id="Path_2102" data-name="Path 2102" d="M.569-.025c.314-.014.547.457.52,1.051s-.3,1.086-.618,1.1-.547-.457-.52-1.051S.255-.011.569-.025Z" transform="matrix(0.476, -0.879, 0.879, 0.476, 76.057, 99.41)" fill="#8ed16f"/>
    <path id="Path_2103" data-name="Path 2103" d="M.569-.025c.314-.014.547.457.52,1.051s-.3,1.086-.618,1.1-.547-.457-.52-1.051S.255-.011.569-.025Z" transform="matrix(0.476, -0.879, 0.879, 0.476, 76.057, 99.41)" opacity="0.1"/>
    <path id="Path_2104" data-name="Path 2104" d="M0,0,2.832-.051l-.1,5L-.1,5Z" transform="translate(72.011 100.611) rotate(-79.49)" fill="#8ed16f"/>
    <path id="Path_2105" data-name="Path 2105" d="M0,0,2.832-.051l-.1,5L-.1,5Z" transform="translate(72.011 100.611) rotate(-79.49)" opacity="0.05"/>
    <path id="Path_2106" data-name="Path 2106" d="M.58-.011C.9-.016,1.152.45,1.14,1.032S.859,2.089.538,2.095s-.571-.461-.559-1.042S.26,0,.58-.011Z" transform="translate(73.559 100.115) rotate(-79.49)" fill="#8ed16f"/>
    <path id="Path_2107" data-name="Path 2107" d="M.58-.011C.9-.016,1.152.45,1.14,1.032S.859,2.089.538,2.095s-.571-.461-.559-1.042S.26,0,.58-.011Z" transform="translate(73.559 100.115) rotate(-79.49)" opacity="0.1"/>
    <path id="Path_2108" data-name="Path 2108" d="M0,0,2.832-.051l-.1,5L-.1,5Z" transform="translate(72.469 102.288) rotate(-79.49)" fill="#8ed16f"/>
    <path id="Path_2109" data-name="Path 2109" d="M.58-.011C.9-.016,1.152.45,1.14,1.032S.859,2.089.538,2.095s-.571-.461-.559-1.042S.26,0,.58-.011Z" transform="translate(74.019 101.792) rotate(-79.49)" fill="#8ed16f"/>
    <path id="Path_2110" data-name="Path 2110" d="M.58-.011C.9-.016,1.152.45,1.14,1.032S.859,2.089.538,2.095s-.571-.461-.559-1.042S.26,0,.58-.011Z" transform="translate(74.019 101.792) rotate(-79.49)" opacity="0.1"/>
  </g>
</svg>
